<?xml version="1.0" standalone="no"?>
 <!DOCTYPE svg PUBLIC "-//W3C//DTD SVG 1.1//EN" 
 "http://www.w3.org/Graphics/SVG/1.1/DTD/svg11.dtd"> 
<svg
  xmlns:svg="http://www.w3.org/2000/svg"
  xmlns="http://www.w3.org/2000/svg"
  xmlns:xlink="http://www.w3.org/1999/xlink"
  version="1.1"
  width="29.700220cm" height="21.000720cm" viewBox="0 0 11693000 8268000">
<title>SVG Picture created as 2choc2flat-extmcu-iso-User_Eco2.svg date 2024/09/19 12:55:57 </title>
  <desc>Picture generated by PCBNEW </desc>
<g style="fill:#000000; fill-opacity:1.000000;stroke:#000000; stroke-opacity:1.000000;
stroke-linecap:round; stroke-linejoin:round;"
 transform="translate(0 0) scale(1 1)">
</g>
<g style="fill:#000000; fill-opacity:0.0; 
stroke:#000000; stroke-width:0.000000; stroke-opacity:1; 
stroke-linecap:round; stroke-linejoin:round;">
</g>
<g style="fill:#000000; fill-opacity:0.0; 
stroke:#000000; stroke-width:7874.015748; stroke-opacity:1; 
stroke-linecap:round; stroke-linejoin:round;">
<path d="M60039 3729333
L3049960 3729333
" />
<path d="M3049960 3133858
L3049960 3729333
" />
<path d="M3325551 3133858
L3325551 3503937
" />
<path d="M3325551 3503937
L6986968 3503937
" />
<path d="M7262559 3133858
L6986968 3133858
" />
<path d="M11268700 2170275
L11082677 2170275
" />
<path d="M-16732 2327755
L-16732 3650593
" />
<path d="M-16732 2170275
L169291 2170275
" />
<path d="M7262559 3729333
L11189960 3729333
" />
<path d="M-16732.274744 3650593.070977 A77762.125984 77762.125984 0.0 0 0 60039.370189 3729333.219626" />
<path d="M11268700 99409
L11268700 2170275
" />
<path d="M3049960 3133858
L3325551 3133858
" />
<path d="M169291.338583 2327755.905512 A78740.157480 78740.157480 0.0 0 0 169291.338583 2170275.590551" />
<path d="M-16732 2327755
L169291 2327755
" />
<path d="M60039.370189 20669.300059 A77762.125984 77762.125984 0.0 0 0 -16732.274744 99409.448709" />
<path d="M60039 20669
L11189960 20669
" />
<path d="M11268700 2327755
L11268700 3650593
" />
<path d="M6986968 3133858
L6986968 3503937
" />
<path d="M-16732 99409
L-16732 2170275
" />
<path d="M11082677 2327755
L11268700 2327755
" />
<path d="M11082677.165354 2170275.590551 A78740.157480 78740.157480 0.0 0 0 11082677.165354 2327755.905512" />
<path d="M11189960.629921 3729333.228346 A78740.118110 78740.118110 0.0 0 0 11268700.787402 3650593.070866" />
<path d="M7262559 3729333
L7262559 3133858
" />
<path d="M11268700.787402 99409.448819 A78740.118110 78740.118110 0.0 0 0 11189960.629921 20669.291339" />
</g>
<g style="fill:#000000; fill-opacity:0.0; 
stroke:#000000; stroke-width:4724.409449; stroke-opacity:1; 
stroke-linecap:round; stroke-linejoin:round;">
<circle cx="3000000.000000" cy="1125000.000000" r="98523.622047" /> 
<circle cx="3196850.393701" cy="975393.700787" r="59153.543307" /> 
<circle cx="3000000.000000" cy="892716.535433" r="59153.543307" /> 
<circle cx="3750000.000000" cy="1125000.000000" r="98523.622047" /> 
<circle cx="3946850.393701" cy="975393.700787" r="59153.543307" /> 
<circle cx="3750000.000000" cy="892716.535433" r="59153.543307" /> 
<circle cx="6000000.000000" cy="892716.535433" r="59153.543307" /> 
<circle cx="6000000.000000" cy="1125000.000000" r="98523.622047" /> 
<circle cx="6196850.393701" cy="975393.700787" r="59153.543307" /> 
<circle cx="6750000.000000" cy="1125000.000000" r="98523.622047" /> 
<circle cx="6750000.000000" cy="892716.535433" r="59153.543307" /> 
<circle cx="6946850.393701" cy="975393.700787" r="59153.543307" /> 
<circle cx="1500000.000000" cy="1125000.000000" r="98523.622047" /> 
<circle cx="1696850.393701" cy="975393.700787" r="59153.543307" /> 
<circle cx="1500000.000000" cy="892716.535433" r="59153.543307" /> 
<circle cx="5250000.000000" cy="892716.535433" r="59153.543307" /> 
<circle cx="5446850.393701" cy="975393.700787" r="59153.543307" /> 
<circle cx="5250000.000000" cy="1125000.000000" r="98523.622047" /> 
<circle cx="4696850.393701" cy="975393.700787" r="59153.543307" /> 
<circle cx="4500000.000000" cy="892716.535433" r="59153.543307" /> 
<circle cx="4500000.000000" cy="1125000.000000" r="98523.622047" /> 
<circle cx="2250000.000000" cy="1125000.000000" r="98523.622047" /> 
<circle cx="2250000.000000" cy="892716.535433" r="59153.543307" /> 
<circle cx="2446850.393701" cy="975393.700787" r="59153.543307" /> 
<circle cx="562500.000000" cy="892716.535433" r="59153.543307" /> 
<circle cx="759350.393701" cy="975393.700787" r="59153.543307" /> 
<circle cx="562500.000000" cy="1125000.000000" r="98523.622047" /> 
<circle cx="5821850.393701" cy="225393.700787" r="59153.543307" /> 
<circle cx="5625000.000000" cy="375000.000000" r="98523.622047" /> 
<circle cx="5625000.000000" cy="142716.535433" r="59153.543307" /> 
<circle cx="7125000.000000" cy="375000.000000" r="98523.622047" /> 
<circle cx="7321850.393701" cy="225393.700787" r="59153.543307" /> 
<circle cx="7125000.000000" cy="142716.535433" r="59153.543307" /> 
<circle cx="10125000.000000" cy="375000.000000" r="98523.622047" /> 
<circle cx="10321850.393701" cy="225393.700787" r="59153.543307" /> 
<circle cx="10125000.000000" cy="142716.535433" r="59153.543307" /> 
<circle cx="3375000.000000" cy="142716.535433" r="59153.543307" /> 
<circle cx="3571850.393701" cy="225393.700787" r="59153.543307" /> 
<circle cx="3375000.000000" cy="375000.000000" r="98523.622047" /> 
<circle cx="9375000.000000" cy="142716.535433" r="59153.543307" /> 
<circle cx="9571850.393701" cy="225393.700787" r="59153.543307" /> 
<circle cx="9375000.000000" cy="375000.000000" r="98523.622047" /> 
<circle cx="8625000.000000" cy="142716.535433" r="59153.543307" /> 
<circle cx="8821850.393701" cy="225393.700787" r="59153.543307" /> 
<circle cx="8625000.000000" cy="375000.000000" r="98523.622047" /> 
<circle cx="8071850.393701" cy="225393.700787" r="59153.543307" /> 
<circle cx="7875000.000000" cy="142716.535433" r="59153.543307" /> 
<circle cx="7875000.000000" cy="375000.000000" r="98523.622047" /> 
<circle cx="6375000.000000" cy="375000.000000" r="98523.622047" /> 
<circle cx="6375000.000000" cy="142716.535433" r="59153.543307" /> 
<circle cx="6571850.393701" cy="225393.700787" r="59153.543307" /> 
<circle cx="4875000.000000" cy="375000.000000" r="98523.622047" /> 
<circle cx="4875000.000000" cy="142716.535433" r="59153.543307" /> 
<circle cx="5071850.393701" cy="225393.700787" r="59153.543307" /> 
<circle cx="4321850.393701" cy="225393.700787" r="59153.543307" /> 
<circle cx="4125000.000000" cy="375000.000000" r="98523.622047" /> 
<circle cx="4125000.000000" cy="142716.535433" r="59153.543307" /> 
<circle cx="2625000.000000" cy="375000.000000" r="98523.622047" /> 
<circle cx="2625000.000000" cy="142716.535433" r="59153.543307" /> 
<circle cx="2821850.393701" cy="225393.700787" r="59153.543307" /> 
<circle cx="1321850.393701" cy="225393.700787" r="59153.543307" /> 
<circle cx="1125000.000000" cy="142716.535433" r="59153.543307" /> 
<circle cx="1125000.000000" cy="375000.000000" r="98523.622047" /> 
<circle cx="178149.606299" cy="524606.299213" r="59153.543307" /> 
<circle cx="375000.000000" cy="607283.464567" r="59153.543307" /> 
<circle cx="375000.000000" cy="375000.000000" r="98523.622047" /> 
<circle cx="1875000.000000" cy="375000.000000" r="98523.622047" /> 
<circle cx="2071850.393701" cy="225393.700787" r="59153.543307" /> 
<circle cx="1875000.000000" cy="142716.535433" r="59153.543307" /> 
<circle cx="8071850.393701" cy="3225393.700787" r="59153.543307" /> 
<circle cx="7875000.000000" cy="3142716.535433" r="59153.543307" /> 
<circle cx="7875000.000000" cy="3375000.000000" r="98523.622047" /> 
<circle cx="6375000.000000" cy="2392716.535433" r="59153.543307" /> 
<circle cx="6375000.000000" cy="2625000.000000" r="98523.622047" /> 
<circle cx="6571850.393701" cy="2475393.700787" r="59153.543307" /> 
<circle cx="10125008.267717" cy="2392718.740157" r="59153.543307" /> 
<circle cx="10125008.267717" cy="2625002.204724" r="98523.622047" /> 
<circle cx="10321858.661417" cy="2475395.905512" r="59153.543307" /> 
<circle cx="468750.000000" cy="1875000.000000" r="98523.622047" /> 
<circle cx="271899.606299" cy="2024606.299213" r="59153.543307" /> 
<circle cx="468750.000000" cy="2107283.464567" r="59153.543307" /> 
<circle cx="9375000.000000" cy="2392716.535433" r="59153.543307" /> 
<circle cx="9571850.393701" cy="2475393.700787" r="59153.543307" /> 
<circle cx="9375000.000000" cy="2625000.000000" r="98523.622047" /> 
<circle cx="7125000.000000" cy="2625000.000000" r="98523.622047" /> 
<circle cx="7125000.000000" cy="2392716.535433" r="59153.543307" /> 
<circle cx="7321850.393701" cy="2475393.700787" r="59153.543307" /> 
<circle cx="8821850.393701" cy="2475393.700787" r="59153.543307" /> 
<circle cx="8625000.000000" cy="2392716.535433" r="59153.543307" /> 
<circle cx="8625000.000000" cy="2625000.000000" r="98523.622047" /> 
<circle cx="5625000.000000" cy="2625000.000000" r="98523.622047" /> 
<circle cx="5625000.000000" cy="2392716.535433" r="59153.543307" /> 
<circle cx="5821850.393701" cy="2475393.700787" r="59153.543307" /> 
<circle cx="8071850.393701" cy="2475393.700787" r="59153.543307" /> 
<circle cx="7875000.000000" cy="2625000.000000" r="98523.622047" /> 
<circle cx="7875000.000000" cy="2392716.535433" r="59153.543307" /> 
<circle cx="10125000.000000" cy="3375002.834646" r="98523.622047" /> 
<circle cx="10125000.000000" cy="3142719.370079" r="59153.543307" /> 
<circle cx="10321850.393701" cy="3225396.535433" r="59153.543307" /> 
<circle cx="9571850.393701" cy="3225393.700787" r="59153.543307" /> 
<circle cx="9375000.000000" cy="3375000.000000" r="98523.622047" /> 
<circle cx="9375000.000000" cy="3142716.535433" r="59153.543307" /> 
<circle cx="9750000.000000" cy="892716.535433" r="59153.543307" /> 
<circle cx="9946850.393701" cy="975393.700787" r="59153.543307" /> 
<circle cx="9750000.000000" cy="1125000.000000" r="98523.622047" /> 
<circle cx="2821850.393701" cy="2475393.700787" r="59153.543307" /> 
<circle cx="2625000.000000" cy="2392716.535433" r="59153.543307" /> 
<circle cx="2625000.000000" cy="2625000.000000" r="98523.622047" /> 
<circle cx="7500000.000000" cy="892716.535433" r="59153.543307" /> 
<circle cx="7500000.000000" cy="1125000.000000" r="98523.622047" /> 
<circle cx="7696850.393701" cy="975393.700787" r="59153.543307" /> 
<circle cx="4884350.393701" cy="1725393.700787" r="59153.543307" /> 
<circle cx="4687500.000000" cy="1875000.000000" r="98523.622047" /> 
<circle cx="4687500.000000" cy="1642716.535433" r="59153.543307" /> 
<circle cx="2634350.393701" cy="1725393.700787" r="59153.543307" /> 
<circle cx="2437500.000000" cy="1875000.000000" r="98523.622047" /> 
<circle cx="2437500.000000" cy="1642716.535433" r="59153.543307" /> 
<circle cx="2343750.000000" cy="3142716.535433" r="59153.543307" /> 
<circle cx="2540600.393701" cy="3225393.700787" r="59153.543307" /> 
<circle cx="2343750.000000" cy="3375000.000000" r="98523.622047" /> 
<circle cx="8625000.000000" cy="3142716.535433" r="59153.543307" /> 
<circle cx="8821850.393701" cy="3225393.700787" r="59153.543307" /> 
<circle cx="8625000.000000" cy="3375000.000000" r="98523.622047" /> 
<circle cx="10875000.000000" cy="2392716.535433" r="59153.543307" /> 
<circle cx="11071850.393701" cy="2475393.700787" r="59153.543307" /> 
<circle cx="10875000.000000" cy="2625000.000000" r="98523.622047" /> 
<circle cx="7134350.393701" cy="1725393.700787" r="59153.543307" /> 
<circle cx="6937500.000000" cy="1875000.000000" r="98523.622047" /> 
<circle cx="6937500.000000" cy="1642716.535433" r="59153.543307" /> 
<circle cx="468750.000000" cy="3142716.535433" r="59153.543307" /> 
<circle cx="665600.393701" cy="3225393.700787" r="59153.543307" /> 
<circle cx="468750.000000" cy="3375000.000000" r="98523.622047" /> 
<circle cx="9000000.000000" cy="1125000.000000" r="98523.622047" /> 
<circle cx="9196850.393701" cy="975393.700787" r="59153.543307" /> 
<circle cx="9000000.000000" cy="892716.535433" r="59153.543307" /> 
<circle cx="4321850.393701" cy="2475393.700787" r="59153.543307" /> 
<circle cx="4125000.000000" cy="2625000.000000" r="98523.622047" /> 
<circle cx="4125000.000000" cy="2392716.535433" r="59153.543307" /> 
<circle cx="3384350.393701" cy="1725393.700787" r="59153.543307" /> 
<circle cx="3187500.000000" cy="1875000.000000" r="98523.622047" /> 
<circle cx="3187500.000000" cy="1642716.535433" r="59153.543307" /> 
<circle cx="9937500.000000" cy="1875000.000000" r="98523.622047" /> 
<circle cx="10134350.393701" cy="1725393.700787" r="59153.543307" /> 
<circle cx="9937500.000000" cy="1642716.535433" r="59153.543307" /> 
<circle cx="6187500.000000" cy="1875000.000000" r="98523.622047" /> 
<circle cx="6384350.393701" cy="1725393.700787" r="59153.543307" /> 
<circle cx="6187500.000000" cy="1642716.535433" r="59153.543307" /> 
<circle cx="3937500.000000" cy="1642716.535433" r="59153.543307" /> 
<circle cx="3937500.000000" cy="1875000.000000" r="98523.622047" /> 
<circle cx="4134350.393701" cy="1725393.700787" r="59153.543307" /> 
<circle cx="1884350.393701" cy="1725393.700787" r="59153.543307" /> 
<circle cx="1687500.000000" cy="1642716.535433" r="59153.543307" /> 
<circle cx="1687500.000000" cy="1875000.000000" r="98523.622047" /> 
<circle cx="7884350.393701" cy="1725393.700787" r="59153.543307" /> 
<circle cx="7687500.000000" cy="1642716.535433" r="59153.543307" /> 
<circle cx="7687500.000000" cy="1875000.000000" r="98523.622047" /> 
<path d="M1084645 2382874
L1360236 2382874
" />
<path d="M415354 3012795
L1084645 3012795
" />
<path d="M415354 2382874
L415354 2776574
" />
<path d="M139763 2382874
L415354 2382874
" />
<path d="M1360236 3012795
L1084645 3012795
" />
<path d="M415354 2776574
L1084645 2776574
" />
<path d="M1084645 2776574
L1084645 2382874
" />
<path d="M1360236 2382874
L1360236 3012795
" />
<path d="M139763 3012795
L139763 2382874
" />
<path d="M415354 3012795
L139763 3012795
" />
<circle cx="517716.535433" cy="2625000.000000" r="59153.543307" /> 
<circle cx="750000.000000" cy="2625000.000000" r="98523.622047" /> 
<circle cx="600393.700787" cy="2428149.606299" r="59153.543307" /> 
<circle cx="9384350.393701" cy="1725393.700787" r="59153.543307" /> 
<circle cx="9187500.000000" cy="1642716.535433" r="59153.543307" /> 
<circle cx="9187500.000000" cy="1875000.000000" r="98523.622047" /> 
<circle cx="8634350.393701" cy="1725393.700787" r="59153.543307" /> 
<circle cx="8437500.000000" cy="1875000.000000" r="98523.622047" /> 
<circle cx="8437500.000000" cy="1642716.535433" r="59153.543307" /> 
<circle cx="8250000.000000" cy="892716.535433" r="59153.543307" /> 
<circle cx="8446850.393701" cy="975393.700787" r="59153.543307" /> 
<circle cx="8250000.000000" cy="1125000.000000" r="98523.622047" /> 
<circle cx="5634350.393701" cy="1725393.700787" r="59153.543307" /> 
<circle cx="5437500.000000" cy="1875000.000000" r="98523.622047" /> 
<circle cx="5437500.000000" cy="1642716.535433" r="59153.543307" /> 
<circle cx="656250.000000" cy="1875000.000000" r="98523.622047" /> 
<circle cx="853100.393701" cy="1725393.700787" r="59153.543307" /> 
<circle cx="656250.000000" cy="1642716.535433" r="59153.543307" /> 
<circle cx="5071850.393701" cy="2475393.700787" r="59153.543307" /> 
<circle cx="4875000.000000" cy="2392716.535433" r="59153.543307" /> 
<circle cx="4875000.000000" cy="2625000.000000" r="98523.622047" /> 
<circle cx="1603100.393701" cy="3225393.700787" r="59153.543307" /> 
<circle cx="1406250.000000" cy="3142716.535433" r="59153.543307" /> 
<circle cx="1406250.000000" cy="3375000.000000" r="98523.622047" /> 
<circle cx="3375000.000000" cy="2392716.535433" r="59153.543307" /> 
<circle cx="3571850.393701" cy="2475393.700787" r="59153.543307" /> 
<circle cx="3375000.000000" cy="2625000.000000" r="98523.622047" /> 
<circle cx="5353100.393701" cy="3225393.700787" r="59251.968504" /> 
<circle cx="5156250.000000" cy="3375000.000000" r="98425.196850" /> 
<circle cx="5156250.000000" cy="3142716.535433" r="59251.968504" /> 
</g>
<g style="fill:#000000; fill-opacity:0.0; 
stroke:#000000; stroke-width:7874.015748; stroke-opacity:1; 
stroke-linecap:round; stroke-linejoin:round;">
<circle cx="10252952.755906" cy="1111301.181102" r="108267.716535" /> 
<circle cx="1007874.015748" cy="1125000.944882" r="108267.716535" /> 
<circle cx="5062504.251969" cy="1867127.559055" r="96456.692913" /> 
<circle cx="7500006.299213" cy="3367125.984252" r="108267.716535" /> 
</g>
<g style="fill:#000000; fill-opacity:0.0; 
stroke:#000000; stroke-width:4724.409449; stroke-opacity:1; 
stroke-linecap:round; stroke-linejoin:round;">
<path d="M11023385 1165354
L11023385 889763
" />
<path d="M11023385 2110236
L10393463 2110236
" />
<path d="M11023385 1834645
L11023385 2110236
" />
<path d="M10629684 1165354
L11023385 1165354
" />
<path d="M11023385 889763
L10393463 889763
" />
<path d="M10629684 1834645
L11023385 1834645
" />
<path d="M10393463 889763
L10393463 1165354
" />
<path d="M10393463 1165354
L10393463 1834645
" />
<path d="M10629684 1165354
L10629684 1834645
" />
<path d="M10393463 2110236
L10393463 1834645
" />
<circle cx="10781259.055118" cy="1267716.535433" r="59153.543307" /> 
<circle cx="10781259.055118" cy="1500000.000000" r="98523.622047" /> 
<circle cx="10978109.448819" cy="1350393.700787" r="59153.543307" /> 
<circle cx="1875000.000000" cy="2392716.535433" r="59153.543307" /> 
<circle cx="2071850.393701" cy="2475393.700787" r="59153.543307" /> 
<circle cx="1875000.000000" cy="2625000.000000" r="98523.622047" /> 
<circle cx="10875000.000000" cy="3142719.370079" r="59153.543307" /> 
<circle cx="11071850.393701" cy="3225396.535433" r="59153.543307" /> 
<circle cx="10875000.000000" cy="3375002.834646" r="98523.622047" /> 
<circle cx="10875000.000000" cy="164173.228346" r="59153.543307" /> 
<circle cx="11071850.393701" cy="246850.393701" r="59153.543307" /> 
<circle cx="10875000.000000" cy="396456.692913" r="98523.622047" /> 
<path d="M708346 2143464
L751653 2143464
" />
<path d="M708346 2076535
L751653 2076535
" />
<path d="M751653.545329 2143464.574474 A34645.078740 34645.078740 0.0 0 0 751653.545329 2076535.425526" />
<path d="M708346.454671 2076535.425526 A34645.078740 34645.078740 0.0 0 0 708346.454671 2143464.574474" />
<path d="M421653 1673464
L378346 1673464
" />
<path d="M421653 1606535
L378346 1606535
" />
<path d="M421653.545329 1673464.574474 A34645.078740 34645.078740 0.0 0 0 421653.545329 1606535.425526" />
<path d="M378346.454671 1606535.425526 A34645.078740 34645.078740 0.0 0 0 378346.454671 1673464.574474" />
<g >
</g>
<g >
</g>
<g >
</g>
<g >
</g>
<g >
</g>
<g >
</g>
<g >
</g>
<g >
</g>
<g >
</g>
<g >
</g>
<g >
</g>
<g >
</g>
<g >
</g>
<g >
</g>
<g >
</g>
<g >
</g>
<g >
</g>
<g >
</g>
<g >
</g>
<g >
</g>
<g >
</g>
<g >
</g>
<g >
</g>
<g >
</g>
<g >
</g>
<g >
</g>
<g >
</g>
<g >
</g>
<g >
</g>
<g >
</g>
<g >
</g>
<g >
</g>
<g >
</g>
<g >
</g>
<g >
</g>
<g >
</g>
<g >
</g>
<g >
</g>
<g >
</g>
<g >
</g>
<g >
</g>
<g >
</g>
<g >
</g>
<g >
</g>
<g >
</g>
<g >
</g>
<g >
</g>
<g >
</g>
<g >
</g>
<g >
</g>
<g >
</g>
<g >
</g>
<g >
</g>
<g >
</g>
<g >
</g>
<g >
</g>
<g >
</g>
<g >
</g>
<g >
</g>
<g >
</g>
<g >
</g>
<g >
</g>
<g >
</g>
<g >
</g>
<g >
</g>
<g >
</g>
<g >
</g>
<g >
</g>
<g >
</g>
<g >
</g>
<g >
</g>
<g >
</g>
<g >
</g>
<g >
</g>
<g >
</g>
<g >
</g>
<g >
</g>
<g >
</g>
<g >
</g>
<g >
</g>
<g >
</g>
<g >
</g>
<g >
</g>
<g >
</g>
<g >
</g>
<g >
</g>
<g >
</g>
<g >
</g>
<g >
</g>
<g >
</g>
<g >
</g>
<g >
</g>
<g >
</g>
<g >
</g>
<g >
</g>
<g >
</g>
<g >
</g>
<g >
</g>
<g >
</g>
<g >
</g>
<g >
</g>
<g >
</g>
<g >
</g>
<g >
</g>
<g >
</g>
<g >
</g>
<g >
</g>
<g >
</g>
<g >
</g>
<g >
</g>
<g >
</g>
<g >
</g>
<g >
</g>
<g >
</g>
<g >
</g>
<g >
</g>
<g >
</g>
<g >
</g>
<g >
</g>
<g >
</g>
<g >
</g>
<g >
</g>
<g >
</g>
<g >
</g>
<g >
</g>
<g >
</g>
<g >
</g>
<g >
</g>
<g >
</g>
<g >
</g>
<g >
</g>
<g >
</g>
<g >
</g>
<g >
</g>
<g >
</g>
<g >
</g>
<g >
</g>
<g >
</g>
<g >
</g>
<g >
</g>
<g >
</g>
<g >
</g>
<g >
</g>
<g >
</g>
<g >
</g>
</g> 
</svg>
