  0
SECTION
  2
HEADER
  9
$ANGBASE
  50
0.0
  9
$ANGDIR
  70
1
  9
$MEASUREMENT
  70
0
  0
ENDSEC
  0
SECTION
  2
TABLES
  0
TABLE
  2
LTYPE
  70
4
  0
LTYPE
  5
40F
  2
CONTINUOUS
  70
0
  3
Solid line
  72
65
  73
0
  40
0.0
  0
LTYPE
  5
410
  2
DASHDOT
 70
0
  3
Dash Dot ____ _ ____ _
 72
65
 73
4
 40
2.0
 49
1.25
 49
-0.25
 49
0.25
 49
-0.25
  0
LTYPE
  5
411
  2
DASHED
 70
0
  3
Dashed __ __ __ __ __
 72
65
 73
2
 40
0.75
 49
0.5
 49
-0.25
  0
LTYPE
  5
43B
  2
DOTTED
 70
0
  3
Dotted .  .  .  .
 72
65
 73
2
 40
0.2
 49
0.0
 49
-0.2
  0
ENDTAB
  0
TABLE
  2
STYLE
  70
4
  0
STYLE
  2
KICAD
  70
0
  40
0
  41
1
  42
1
  50
0
  71
0
  3
isocp.shx
  0
STYLE
  2
KICADB
  70
0
  40
0
  41
1
  42
1
  50
0
  71
0
  3
isocp.shx
  0
STYLE
  2
KICADI
  70
0
  40
0
  41
1
  42
1
  50
15
  71
0
  3
isocp.shx
  0
STYLE
  2
KICADBI
  70
0
  40
0
  41
1
  42
1
  50
15
  71
0
  3
isocp.shx
  0
ENDTAB
  0
TABLE
  2
LAYER
  70
1
  0
LAYER
  2
BLACK
  70
0
  62
7
  6
CONTINUOUS
  0
ENDTAB
  0
ENDSEC
  0
SECTION
  2
ENTITIES
0
LINE
8
BLACK
6
CONTINUOUS
10
7.26197
20
-3.73308
11
7.26134
21
-3.73308
0
LINE
8
BLACK
6
CONTINUOUS
10
7.26134
20
-3.73308
11
7.26084
21
-3.73271
0
LINE
8
BLACK
6
CONTINUOUS
10
7.26084
20
-3.73271
11
7.26024
21
-3.73252
0
LINE
8
BLACK
6
CONTINUOUS
10
7.26024
20
-3.73252
11
7.25988
21
-3.73201
0
LINE
8
BLACK
6
CONTINUOUS
10
7.25988
20
-3.73201
11
7.25937
21
-3.73165
0
LINE
8
BLACK
6
CONTINUOUS
10
7.25937
20
-3.73165
11
7.25918
21
-3.73105
0
LINE
8
BLACK
6
CONTINUOUS
10
7.25918
20
-3.73105
11
7.25881
21
-3.73055
0
LINE
8
BLACK
6
CONTINUOUS
10
7.25881
20
-3.73055
11
7.25881
21
-3.72993
0
LINE
8
BLACK
6
CONTINUOUS
10
7.25881
20
-3.72993
11
7.25862
21
-3.72933
0
LINE
8
BLACK
6
CONTINUOUS
10
7.25862
20
-3.72933
11
7.25862
21
-3.1378
0
LINE
8
BLACK
6
CONTINUOUS
10
7.25862
20
-3.1378
11
6.98697
21
-3.1378
0
LINE
8
BLACK
6
CONTINUOUS
10
6.98697
20
-3.1378
11
6.98638
21
-3.1376
0
LINE
8
BLACK
6
CONTINUOUS
10
6.98638
20
-3.1376
11
6.98575
21
-3.1376
0
LINE
8
BLACK
6
CONTINUOUS
10
6.98575
20
-3.1376
11
6.98525
21
-3.13724
0
LINE
8
BLACK
6
CONTINUOUS
10
6.98525
20
-3.13724
11
6.98465
21
-3.13704
0
LINE
8
BLACK
6
CONTINUOUS
10
6.98465
20
-3.13704
11
6.98429
21
-3.13654
0
LINE
8
BLACK
6
CONTINUOUS
10
6.98429
20
-3.13654
11
6.98378
21
-3.13617
0
LINE
8
BLACK
6
CONTINUOUS
10
6.98378
20
-3.13617
11
6.98359
21
-3.13558
0
LINE
8
BLACK
6
CONTINUOUS
10
6.98359
20
-3.13558
11
6.98322
21
-3.13507
0
LINE
8
BLACK
6
CONTINUOUS
10
6.98322
20
-3.13507
11
6.98322
21
-3.13445
0
LINE
8
BLACK
6
CONTINUOUS
10
6.98322
20
-3.13445
11
6.98303
21
-3.13386
0
LINE
8
BLACK
6
CONTINUOUS
10
6.98303
20
-3.13386
11
6.98303
21
-3.0935
0
LINE
8
BLACK
6
CONTINUOUS
10
6.98303
20
-3.0935
11
3.32949
21
-3.0935
0
LINE
8
BLACK
6
CONTINUOUS
10
3.32949
20
-3.0935
11
3.32949
21
-3.13386
0
LINE
8
BLACK
6
CONTINUOUS
10
3.32949
20
-3.13386
11
3.3293
21
-3.13445
0
LINE
8
BLACK
6
CONTINUOUS
10
3.3293
20
-3.13445
11
3.3293
21
-3.13507
0
LINE
8
BLACK
6
CONTINUOUS
10
3.3293
20
-3.13507
11
3.32893
21
-3.13558
0
LINE
8
BLACK
6
CONTINUOUS
10
3.32893
20
-3.13558
11
3.32874
21
-3.13617
0
LINE
8
BLACK
6
CONTINUOUS
10
3.32874
20
-3.13617
11
3.32823
21
-3.13654
0
LINE
8
BLACK
6
CONTINUOUS
10
3.32823
20
-3.13654
11
3.32787
21
-3.13704
0
LINE
8
BLACK
6
CONTINUOUS
10
3.32787
20
-3.13704
11
3.32727
21
-3.13724
0
LINE
8
BLACK
6
CONTINUOUS
10
3.32727
20
-3.13724
11
3.32677
21
-3.1376
0
LINE
8
BLACK
6
CONTINUOUS
10
3.32677
20
-3.1376
11
3.32614
21
-3.1376
0
LINE
8
BLACK
6
CONTINUOUS
10
3.32614
20
-3.1376
11
3.32555
21
-3.1378
0
LINE
8
BLACK
6
CONTINUOUS
10
3.32555
20
-3.1378
11
3.0539
21
-3.1378
0
LINE
8
BLACK
6
CONTINUOUS
10
3.0539
20
-3.1378
11
3.0539
21
-3.72933
0
LINE
8
BLACK
6
CONTINUOUS
10
3.0539
20
-3.72933
11
3.0537
21
-3.72993
0
LINE
8
BLACK
6
CONTINUOUS
10
3.0537
20
-3.72993
11
3.0537
21
-3.73055
0
LINE
8
BLACK
6
CONTINUOUS
10
3.0537
20
-3.73055
11
3.05334
21
-3.73105
0
LINE
8
BLACK
6
CONTINUOUS
10
3.05334
20
-3.73105
11
3.05315
21
-3.73165
0
LINE
8
BLACK
6
CONTINUOUS
10
3.05315
20
-3.73165
11
3.05264
21
-3.73201
0
LINE
8
BLACK
6
CONTINUOUS
10
3.05264
20
-3.73201
11
3.05227
21
-3.73252
0
LINE
8
BLACK
6
CONTINUOUS
10
3.05227
20
-3.73252
11
3.05168
21
-3.73271
0
LINE
8
BLACK
6
CONTINUOUS
10
3.05168
20
-3.73271
11
3.05118
21
-3.73308
0
LINE
8
BLACK
6
CONTINUOUS
10
3.05118
20
-3.73308
11
3.05055
21
-3.73308
0
LINE
8
BLACK
6
CONTINUOUS
10
3.05055
20
-3.73308
11
3.04996
21
-3.73327
0
LINE
8
BLACK
6
CONTINUOUS
10
3.04996
20
-3.73327
11
0.0600394
21
-3.73327
0
LINE
8
BLACK
6
CONTINUOUS
10
0.0600394
20
-3.73327
11
0.0600145
21
-3.73326
0
LINE
8
BLACK
6
CONTINUOUS
10
0.0600145
20
-3.73326
11
0.0599895
21
-3.73327
0
LINE
8
BLACK
6
CONTINUOUS
10
0.0599895
20
-3.73327
11
0.0493354
21
-3.73244
0
LINE
8
BLACK
6
CONTINUOUS
10
0.0493354
20
-3.73244
11
0.0388812
21
-3.73022
0
LINE
8
BLACK
6
CONTINUOUS
10
0.0388812
20
-3.73022
11
0.0288059
21
-3.72666
0
LINE
8
BLACK
6
CONTINUOUS
10
0.0288059
20
-3.72666
11
0.0192818
21
-3.72181
0
LINE
8
BLACK
6
CONTINUOUS
10
0.0192818
20
-3.72181
11
0.0104719
21
-3.71576
0
LINE
8
BLACK
6
CONTINUOUS
10
0.0104719
20
-3.71576
11
0.00252705
21
-3.70861
0
LINE
8
BLACK
6
CONTINUOUS
10
0.00252705
20
-3.70861
11
-0.00441697
21
-3.70049
0
LINE
8
BLACK
6
CONTINUOUS
10
-0.00441697
20
-3.70049
11
-0.0102413
21
-3.69153
0
LINE
8
BLACK
6
CONTINUOUS
10
-0.0102413
20
-3.69153
11
-0.0148462
21
-3.68188
0
LINE
8
BLACK
6
CONTINUOUS
10
-0.0148462
20
-3.68188
11
-0.018153
21
-3.67172
0
LINE
8
BLACK
6
CONTINUOUS
10
-0.018153
20
-3.67172
11
-0.020105
21
-3.66122
0
LINE
8
BLACK
6
CONTINUOUS
10
-0.020105
20
-3.66122
11
-0.0206658
21
-3.6506
0
LINE
8
BLACK
6
CONTINUOUS
10
-0.0206658
20
-3.6506
11
-0.0206693
21
-3.65059
0
LINE
8
BLACK
6
CONTINUOUS
10
-0.0206693
20
-3.65059
11
-0.0206693
21
-2.32776
0
LINE
8
BLACK
6
CONTINUOUS
10
-0.0206693
20
-2.32776
11
-0.0204766
21
-2.32716
0
LINE
8
BLACK
6
CONTINUOUS
10
-0.0204766
20
-2.32716
11
-0.0204766
21
-2.32654
0
LINE
8
BLACK
6
CONTINUOUS
10
-0.0204766
20
-2.32654
11
-0.0201101
21
-2.32603
0
LINE
8
BLACK
6
CONTINUOUS
10
-0.0201101
20
-2.32603
11
-0.0199174
21
-2.32544
0
LINE
8
BLACK
6
CONTINUOUS
10
-0.0199174
20
-2.32544
11
-0.019413
21
-2.32508
0
LINE
8
BLACK
6
CONTINUOUS
10
-0.019413
20
-2.32508
11
-0.0190464
21
-2.32457
0
LINE
8
BLACK
6
CONTINUOUS
10
-0.0190464
20
-2.32457
11
-0.0184534
21
-2.32438
0
LINE
8
BLACK
6
CONTINUOUS
10
-0.0184534
20
-2.32438
11
-0.0179489
21
-2.32401
0
LINE
8
BLACK
6
CONTINUOUS
10
-0.0179489
20
-2.32401
11
-0.0173253
21
-2.32401
0
LINE
8
BLACK
6
CONTINUOUS
10
-0.0173253
20
-2.32401
11
-0.0167323
21
-2.32382
0
LINE
8
BLACK
6
CONTINUOUS
10
-0.0167323
20
-2.32382
11
0.169291
21
-2.32382
0
LINE
8
BLACK
6
CONTINUOUS
10
0.169291
20
-2.32382
11
0.169736
21
-2.32396
0
LINE
8
BLACK
6
CONTINUOUS
10
0.169736
20
-2.32396
11
0.179501
21
-2.3233
0
LINE
8
BLACK
6
CONTINUOUS
10
0.179501
20
-2.3233
11
0.18952
21
-2.32121
0
LINE
8
BLACK
6
CONTINUOUS
10
0.18952
20
-2.32121
11
0.199163
21
-2.31779
0
LINE
8
BLACK
6
CONTINUOUS
10
0.199163
20
-2.31779
11
0.208249
21
-2.31308
0
LINE
8
BLACK
6
CONTINUOUS
10
0.208249
20
-2.31308
11
0.216609
21
-2.30718
0
LINE
8
BLACK
6
CONTINUOUS
10
0.216609
20
-2.30718
11
0.224088
21
-2.30019
0
LINE
8
BLACK
6
CONTINUOUS
10
0.224088
20
-2.30019
11
0.230546
21
-2.29225
0
LINE
8
BLACK
6
CONTINUOUS
10
0.230546
20
-2.29225
11
0.235863
21
-2.28351
0
LINE
8
BLACK
6
CONTINUOUS
10
0.235863
20
-2.28351
11
0.23994
21
-2.27412
0
LINE
8
BLACK
6
CONTINUOUS
10
0.23994
20
-2.27412
11
0.242701
21
-2.26427
0
LINE
8
BLACK
6
CONTINUOUS
10
0.242701
20
-2.26427
11
0.244094
21
-2.25413
0
LINE
8
BLACK
6
CONTINUOUS
10
0.244094
20
-2.25413
11
0.244094
21
-2.2439
0
LINE
8
BLACK
6
CONTINUOUS
10
0.244094
20
-2.2439
11
0.242701
21
-2.23376
0
LINE
8
BLACK
6
CONTINUOUS
10
0.242701
20
-2.23376
11
0.23994
21
-2.22391
0
LINE
8
BLACK
6
CONTINUOUS
10
0.23994
20
-2.22391
11
0.235863
21
-2.21452
0
LINE
8
BLACK
6
CONTINUOUS
10
0.235863
20
-2.21452
11
0.230546
21
-2.20578
0
LINE
8
BLACK
6
CONTINUOUS
10
0.230546
20
-2.20578
11
0.224088
21
-2.19784
0
LINE
8
BLACK
6
CONTINUOUS
10
0.224088
20
-2.19784
11
0.216609
21
-2.19085
0
LINE
8
BLACK
6
CONTINUOUS
10
0.216609
20
-2.19085
11
0.208249
21
-2.18495
0
LINE
8
BLACK
6
CONTINUOUS
10
0.208249
20
-2.18495
11
0.199163
21
-2.18025
0
LINE
8
BLACK
6
CONTINUOUS
10
0.199163
20
-2.18025
11
0.18952
21
-2.17682
0
LINE
8
BLACK
6
CONTINUOUS
10
0.18952
20
-2.17682
11
0.179501
21
-2.17474
0
LINE
8
BLACK
6
CONTINUOUS
10
0.179501
20
-2.17474
11
0.169736
21
-2.17407
0
LINE
8
BLACK
6
CONTINUOUS
10
0.169736
20
-2.17407
11
0.169291
21
-2.17421
0
LINE
8
BLACK
6
CONTINUOUS
10
0.169291
20
-2.17421
11
-0.0167323
21
-2.17421
0
LINE
8
BLACK
6
CONTINUOUS
10
-0.0167323
20
-2.17421
11
-0.0173253
21
-2.17402
0
LINE
8
BLACK
6
CONTINUOUS
10
-0.0173253
20
-2.17402
11
-0.0179489
21
-2.17402
0
LINE
8
BLACK
6
CONTINUOUS
10
-0.0179489
20
-2.17402
11
-0.0184534
21
-2.17365
0
LINE
8
BLACK
6
CONTINUOUS
10
-0.0184534
20
-2.17365
11
-0.0190464
21
-2.17346
0
LINE
8
BLACK
6
CONTINUOUS
10
-0.0190464
20
-2.17346
11
-0.019413
21
-2.17296
0
LINE
8
BLACK
6
CONTINUOUS
10
-0.019413
20
-2.17296
11
-0.0199174
21
-2.17259
0
LINE
8
BLACK
6
CONTINUOUS
10
-0.0199174
20
-2.17259
11
-0.0201101
21
-2.172
0
LINE
8
BLACK
6
CONTINUOUS
10
-0.0201101
20
-2.172
11
-0.0204766
21
-2.17149
0
LINE
8
BLACK
6
CONTINUOUS
10
-0.0204766
20
-2.17149
11
-0.0204766
21
-2.17087
0
LINE
8
BLACK
6
CONTINUOUS
10
-0.0204766
20
-2.17087
11
-0.0206693
21
-2.17028
0
LINE
8
BLACK
6
CONTINUOUS
10
-0.0206693
20
-2.17028
11
-0.0206693
21
-0.0994094
0
LINE
8
BLACK
6
CONTINUOUS
10
-0.0206693
20
-0.0994094
11
-0.0206658
21
-0.0993986
0
LINE
8
BLACK
6
CONTINUOUS
10
-0.0206658
20
-0.0993986
11
-0.020105
21
-0.0887874
0
LINE
8
BLACK
6
CONTINUOUS
10
-0.020105
20
-0.0887874
11
-0.018153
21
-0.0782804
0
LINE
8
BLACK
6
CONTINUOUS
10
-0.018153
20
-0.0782804
11
-0.0148462
21
-0.0681181
0
LINE
8
BLACK
6
CONTINUOUS
10
-0.0148462
20
-0.0681181
11
-0.0102413
21
-0.0584744
0
LINE
8
BLACK
6
CONTINUOUS
10
-0.0102413
20
-0.0584744
11
-0.00441697
21
-0.0495143
0
LINE
8
BLACK
6
CONTINUOUS
10
-0.00441697
20
-0.0495143
11
0.00252705
21
-0.041391
0
LINE
8
BLACK
6
CONTINUOUS
10
0.00252705
20
-0.041391
11
0.0104719
21
-0.0342436
0
LINE
8
BLACK
6
CONTINUOUS
10
0.0104719
20
-0.0342436
11
0.0192818
21
-0.0281944
0
LINE
8
BLACK
6
CONTINUOUS
10
0.0192818
20
-0.0281944
11
0.0288059
21
-0.0233468
0
LINE
8
BLACK
6
CONTINUOUS
10
0.0288059
20
-0.0233468
11
0.0388812
21
-0.0197839
0
LINE
8
BLACK
6
CONTINUOUS
10
0.0388812
20
-0.0197839
11
0.0493354
21
-0.0175665
0
LINE
8
BLACK
6
CONTINUOUS
10
0.0493354
20
-0.0175665
11
0.0599895
21
-0.0167326
0
LINE
8
BLACK
6
CONTINUOUS
10
0.0599895
20
-0.0167326
11
0.0600145
21
-0.0167404
0
LINE
8
BLACK
6
CONTINUOUS
10
0.0600145
20
-0.0167404
11
0.0600394
21
-0.0167323
0
LINE
8
BLACK
6
CONTINUOUS
10
0.0600394
20
-0.0167323
11
11.19
21
-0.0167323
0
LINE
8
BLACK
6
CONTINUOUS
10
11.19
20
-0.0167323
11
11.2008
21
-0.0174396
0
LINE
8
BLACK
6
CONTINUOUS
10
11.2008
20
-0.0174396
11
11.2114
21
-0.0195494
0
LINE
8
BLACK
6
CONTINUOUS
10
11.2114
20
-0.0195494
11
11.2216
21
-0.0230257
0
LINE
8
BLACK
6
CONTINUOUS
10
11.2216
20
-0.0230257
11
11.2313
21
-0.0278089
0
LINE
8
BLACK
6
CONTINUOUS
10
11.2313
20
-0.0278089
11
11.2403
21
-0.0338172
0
LINE
8
BLACK
6
CONTINUOUS
10
11.2403
20
-0.0338172
11
11.2484
21
-0.0409478
0
LINE
8
BLACK
6
CONTINUOUS
10
11.2484
20
-0.0409478
11
11.2556
21
-0.0490788
0
LINE
8
BLACK
6
CONTINUOUS
10
11.2556
20
-0.0490788
11
11.2616
21
-0.0580709
0
LINE
8
BLACK
6
CONTINUOUS
10
11.2616
20
-0.0580709
11
11.2663
21
-0.0677703
0
LINE
8
BLACK
6
CONTINUOUS
10
11.2663
20
-0.0677703
11
11.2698
21
-0.078011
0
LINE
8
BLACK
6
CONTINUOUS
10
11.2698
20
-0.078011
11
11.2719
21
-0.0886179
0
LINE
8
BLACK
6
CONTINUOUS
10
11.2719
20
-0.0886179
11
11.2726
21
-0.0994094
0
LINE
8
BLACK
6
CONTINUOUS
10
11.2726
20
-0.0994094
11
11.2726
21
-2.17028
0
LINE
8
BLACK
6
CONTINUOUS
10
11.2726
20
-2.17028
11
11.2724
21
-2.17087
0
LINE
8
BLACK
6
CONTINUOUS
10
11.2724
20
-2.17087
11
11.2724
21
-2.17149
0
LINE
8
BLACK
6
CONTINUOUS
10
11.2724
20
-2.17149
11
11.2721
21
-2.172
0
LINE
8
BLACK
6
CONTINUOUS
10
11.2721
20
-2.172
11
11.2719
21
-2.17259
0
LINE
8
BLACK
6
CONTINUOUS
10
11.2719
20
-2.17259
11
11.2714
21
-2.17296
0
LINE
8
BLACK
6
CONTINUOUS
10
11.2714
20
-2.17296
11
11.271
21
-2.17346
0
LINE
8
BLACK
6
CONTINUOUS
10
11.271
20
-2.17346
11
11.2704
21
-2.17365
0
LINE
8
BLACK
6
CONTINUOUS
10
11.2704
20
-2.17365
11
11.2699
21
-2.17402
0
LINE
8
BLACK
6
CONTINUOUS
10
11.2699
20
-2.17402
11
11.2693
21
-2.17402
0
LINE
8
BLACK
6
CONTINUOUS
10
11.2693
20
-2.17402
11
11.2687
21
-2.17421
0
LINE
8
BLACK
6
CONTINUOUS
10
11.2687
20
-2.17421
11
11.0827
21
-2.17421
0
LINE
8
BLACK
6
CONTINUOUS
10
11.0827
20
-2.17421
11
11.0822
21
-2.17407
0
LINE
8
BLACK
6
CONTINUOUS
10
11.0822
20
-2.17407
11
11.0725
21
-2.17474
0
LINE
8
BLACK
6
CONTINUOUS
10
11.0725
20
-2.17474
11
11.0624
21
-2.17682
0
LINE
8
BLACK
6
CONTINUOUS
10
11.0624
20
-2.17682
11
11.0528
21
-2.18025
0
LINE
8
BLACK
6
CONTINUOUS
10
11.0528
20
-2.18025
11
11.0437
21
-2.18495
0
LINE
8
BLACK
6
CONTINUOUS
10
11.0437
20
-2.18495
11
11.0354
21
-2.19085
0
LINE
8
BLACK
6
CONTINUOUS
10
11.0354
20
-2.19085
11
11.0279
21
-2.19784
0
LINE
8
BLACK
6
CONTINUOUS
10
11.0279
20
-2.19784
11
11.0214
21
-2.20578
0
LINE
8
BLACK
6
CONTINUOUS
10
11.0214
20
-2.20578
11
11.0161
21
-2.21452
0
LINE
8
BLACK
6
CONTINUOUS
10
11.0161
20
-2.21452
11
11.012
21
-2.22391
0
LINE
8
BLACK
6
CONTINUOUS
10
11.012
20
-2.22391
11
11.0093
21
-2.23376
0
LINE
8
BLACK
6
CONTINUOUS
10
11.0093
20
-2.23376
11
11.0079
21
-2.2439
0
LINE
8
BLACK
6
CONTINUOUS
10
11.0079
20
-2.2439
11
11.0079
21
-2.25413
0
LINE
8
BLACK
6
CONTINUOUS
10
11.0079
20
-2.25413
11
11.0093
21
-2.26427
0
LINE
8
BLACK
6
CONTINUOUS
10
11.0093
20
-2.26427
11
11.012
21
-2.27412
0
LINE
8
BLACK
6
CONTINUOUS
10
11.012
20
-2.27412
11
11.0161
21
-2.28351
0
LINE
8
BLACK
6
CONTINUOUS
10
11.0161
20
-2.28351
11
11.0214
21
-2.29225
0
LINE
8
BLACK
6
CONTINUOUS
10
11.0214
20
-2.29225
11
11.0279
21
-2.30019
0
LINE
8
BLACK
6
CONTINUOUS
10
11.0279
20
-2.30019
11
11.0354
21
-2.30718
0
LINE
8
BLACK
6
CONTINUOUS
10
11.0354
20
-2.30718
11
11.0437
21
-2.31308
0
LINE
8
BLACK
6
CONTINUOUS
10
11.0437
20
-2.31308
11
11.0528
21
-2.31779
0
LINE
8
BLACK
6
CONTINUOUS
10
11.0528
20
-2.31779
11
11.0624
21
-2.32121
0
LINE
8
BLACK
6
CONTINUOUS
10
11.0624
20
-2.32121
11
11.0725
21
-2.3233
0
LINE
8
BLACK
6
CONTINUOUS
10
11.0725
20
-2.3233
11
11.0822
21
-2.32396
0
LINE
8
BLACK
6
CONTINUOUS
10
11.0822
20
-2.32396
11
11.0827
21
-2.32382
0
LINE
8
BLACK
6
CONTINUOUS
10
11.0827
20
-2.32382
11
11.2687
21
-2.32382
0
LINE
8
BLACK
6
CONTINUOUS
10
11.2687
20
-2.32382
11
11.2693
21
-2.32401
0
LINE
8
BLACK
6
CONTINUOUS
10
11.2693
20
-2.32401
11
11.2699
21
-2.32401
0
LINE
8
BLACK
6
CONTINUOUS
10
11.2699
20
-2.32401
11
11.2704
21
-2.32438
0
LINE
8
BLACK
6
CONTINUOUS
10
11.2704
20
-2.32438
11
11.271
21
-2.32457
0
LINE
8
BLACK
6
CONTINUOUS
10
11.271
20
-2.32457
11
11.2714
21
-2.32508
0
LINE
8
BLACK
6
CONTINUOUS
10
11.2714
20
-2.32508
11
11.2719
21
-2.32544
0
LINE
8
BLACK
6
CONTINUOUS
10
11.2719
20
-2.32544
11
11.2721
21
-2.32603
0
LINE
8
BLACK
6
CONTINUOUS
10
11.2721
20
-2.32603
11
11.2724
21
-2.32654
0
LINE
8
BLACK
6
CONTINUOUS
10
11.2724
20
-2.32654
11
11.2724
21
-2.32716
0
LINE
8
BLACK
6
CONTINUOUS
10
11.2724
20
-2.32716
11
11.2726
21
-2.32776
0
LINE
8
BLACK
6
CONTINUOUS
10
11.2726
20
-2.32776
11
11.2726
21
-3.65059
0
LINE
8
BLACK
6
CONTINUOUS
10
11.2726
20
-3.65059
11
11.2719
21
-3.66138
0
LINE
8
BLACK
6
CONTINUOUS
10
11.2719
20
-3.66138
11
11.2698
21
-3.67199
0
LINE
8
BLACK
6
CONTINUOUS
10
11.2698
20
-3.67199
11
11.2663
21
-3.68223
0
LINE
8
BLACK
6
CONTINUOUS
10
11.2663
20
-3.68223
11
11.2616
21
-3.69193
0
LINE
8
BLACK
6
CONTINUOUS
10
11.2616
20
-3.69193
11
11.2556
21
-3.70092
0
LINE
8
BLACK
6
CONTINUOUS
10
11.2556
20
-3.70092
11
11.2484
21
-3.70905
0
LINE
8
BLACK
6
CONTINUOUS
10
11.2484
20
-3.70905
11
11.2403
21
-3.71619
0
LINE
8
BLACK
6
CONTINUOUS
10
11.2403
20
-3.71619
11
11.2313
21
-3.72219
0
LINE
8
BLACK
6
CONTINUOUS
10
11.2313
20
-3.72219
11
11.2216
21
-3.72698
0
LINE
8
BLACK
6
CONTINUOUS
10
11.2216
20
-3.72698
11
11.2114
21
-3.73045
0
LINE
8
BLACK
6
CONTINUOUS
10
11.2114
20
-3.73045
11
11.2008
21
-3.73256
0
LINE
8
BLACK
6
CONTINUOUS
10
11.2008
20
-3.73256
11
11.19
21
-3.73327
0
LINE
8
BLACK
6
CONTINUOUS
10
11.19
20
-3.73327
11
7.26256
21
-3.73327
0
LINE
8
BLACK
6
CONTINUOUS
10
7.26256
20
-3.73327
11
7.26197
21
-3.73308
0
LINE
8
BLACK
6
CONTINUOUS
10
0.0596551
20
-0.0244815
11
0.0504392
21
-0.0252027
0
LINE
8
BLACK
6
CONTINUOUS
10
0.0504392
20
-0.0252027
11
0.0409723
21
-0.0272107
0
LINE
8
BLACK
6
CONTINUOUS
10
0.0409723
20
-0.0272107
11
0.0318485
21
-0.0304372
0
LINE
8
BLACK
6
CONTINUOUS
10
0.0318485
20
-0.0304372
11
0.0232239
21
-0.0348269
0
LINE
8
BLACK
6
CONTINUOUS
10
0.0232239
20
-0.0348269
11
0.015246
21
-0.0403049
0
LINE
8
BLACK
6
CONTINUOUS
10
0.015246
20
-0.0403049
11
0.00805142
21
-0.0467773
0
LINE
8
BLACK
6
CONTINUOUS
10
0.00805142
20
-0.0467773
11
0.00176319
21
-0.0541334
0
LINE
8
BLACK
6
CONTINUOUS
10
0.00176319
20
-0.0541334
11
-0.00351106
21
-0.0622474
0
LINE
8
BLACK
6
CONTINUOUS
10
-0.00351106
20
-0.0622474
11
-0.0076811
21
-0.0709804
0
LINE
8
BLACK
6
CONTINUOUS
10
-0.0076811
20
-0.0709804
11
-0.0106756
21
-0.0801829
0
LINE
8
BLACK
6
CONTINUOUS
10
-0.0106756
20
-0.0801829
11
-0.0124433
21
-0.0896976
0
LINE
8
BLACK
6
CONTINUOUS
10
-0.0124433
20
-0.0896976
11
-0.0129325
21
-0.0989557
0
LINE
8
BLACK
6
CONTINUOUS
10
-0.0129325
20
-0.0989557
11
-0.0127956
21
-0.0993596
0
LINE
8
BLACK
6
CONTINUOUS
10
-0.0127956
20
-0.0993596
11
-0.0128033
21
-0.0993846
0
LINE
8
BLACK
6
CONTINUOUS
10
-0.0128033
20
-0.0993846
11
-0.0127953
21
-0.0994094
0
LINE
8
BLACK
6
CONTINUOUS
10
-0.0127953
20
-0.0994094
11
-0.0127953
21
-2.16634
0
LINE
8
BLACK
6
CONTINUOUS
10
-0.0127953
20
-2.16634
11
0.169291
21
-2.16634
0
LINE
8
BLACK
6
CONTINUOUS
10
0.169291
20
-2.16634
11
0.180083
21
-2.16705
0
LINE
8
BLACK
6
CONTINUOUS
10
0.180083
20
-2.16705
11
0.19069
21
-2.16916
0
LINE
8
BLACK
6
CONTINUOUS
10
0.19069
20
-2.16916
11
0.200931
21
-2.17263
0
LINE
8
BLACK
6
CONTINUOUS
10
0.200931
20
-2.17263
11
0.21063
21
-2.17742
0
LINE
8
BLACK
6
CONTINUOUS
10
0.21063
20
-2.17742
11
0.219622
21
-2.18342
0
LINE
8
BLACK
6
CONTINUOUS
10
0.219622
20
-2.18342
11
0.227753
21
-2.19055
0
LINE
8
BLACK
6
CONTINUOUS
10
0.227753
20
-2.19055
11
0.234884
21
-2.19869
0
LINE
8
BLACK
6
CONTINUOUS
10
0.234884
20
-2.19869
11
0.240892
21
-2.20768
0
LINE
8
BLACK
6
CONTINUOUS
10
0.240892
20
-2.20768
11
0.245675
21
-2.21738
0
LINE
8
BLACK
6
CONTINUOUS
10
0.245675
20
-2.21738
11
0.249151
21
-2.22762
0
LINE
8
BLACK
6
CONTINUOUS
10
0.249151
20
-2.22762
11
0.251261
21
-2.23822
0
LINE
8
BLACK
6
CONTINUOUS
10
0.251261
20
-2.23822
11
0.251969
21
-2.24902
0
LINE
8
BLACK
6
CONTINUOUS
10
0.251969
20
-2.24902
11
0.251261
21
-2.25981
0
LINE
8
BLACK
6
CONTINUOUS
10
0.251261
20
-2.25981
11
0.249151
21
-2.27041
0
LINE
8
BLACK
6
CONTINUOUS
10
0.249151
20
-2.27041
11
0.245675
21
-2.28065
0
LINE
8
BLACK
6
CONTINUOUS
10
0.245675
20
-2.28065
11
0.240892
21
-2.29035
0
LINE
8
BLACK
6
CONTINUOUS
10
0.240892
20
-2.29035
11
0.234884
21
-2.29935
0
LINE
8
BLACK
6
CONTINUOUS
10
0.234884
20
-2.29935
11
0.227753
21
-2.30748
0
LINE
8
BLACK
6
CONTINUOUS
10
0.227753
20
-2.30748
11
0.219622
21
-2.31461
0
LINE
8
BLACK
6
CONTINUOUS
10
0.219622
20
-2.31461
11
0.21063
21
-2.32062
0
LINE
8
BLACK
6
CONTINUOUS
10
0.21063
20
-2.32062
11
0.200931
21
-2.3254
0
LINE
8
BLACK
6
CONTINUOUS
10
0.200931
20
-2.3254
11
0.19069
21
-2.32888
0
LINE
8
BLACK
6
CONTINUOUS
10
0.19069
20
-2.32888
11
0.180083
21
-2.33099
0
LINE
8
BLACK
6
CONTINUOUS
10
0.180083
20
-2.33099
11
0.169291
21
-2.33169
0
LINE
8
BLACK
6
CONTINUOUS
10
0.169291
20
-2.33169
11
-0.0127953
21
-2.33169
0
LINE
8
BLACK
6
CONTINUOUS
10
-0.0127953
20
-2.33169
11
-0.0127953
21
-3.65059
0
LINE
8
BLACK
6
CONTINUOUS
10
-0.0127953
20
-3.65059
11
-0.0128033
21
-3.65062
0
LINE
8
BLACK
6
CONTINUOUS
10
-0.0128033
20
-3.65062
11
-0.0127956
21
-3.65064
0
LINE
8
BLACK
6
CONTINUOUS
10
-0.0127956
20
-3.65064
11
-0.0129325
21
-3.65105
0
LINE
8
BLACK
6
CONTINUOUS
10
-0.0129325
20
-3.65105
11
-0.0124433
21
-3.6603
0
LINE
8
BLACK
6
CONTINUOUS
10
-0.0124433
20
-3.6603
11
-0.0106756
21
-3.66982
0
LINE
8
BLACK
6
CONTINUOUS
10
-0.0106756
20
-3.66982
11
-0.0076811
21
-3.67902
0
LINE
8
BLACK
6
CONTINUOUS
10
-0.0076811
20
-3.67902
11
-0.00351106
21
-3.68776
0
LINE
8
BLACK
6
CONTINUOUS
10
-0.00351106
20
-3.68776
11
0.00176319
21
-3.69587
0
LINE
8
BLACK
6
CONTINUOUS
10
0.00176319
20
-3.69587
11
0.00805142
21
-3.70323
0
LINE
8
BLACK
6
CONTINUOUS
10
0.00805142
20
-3.70323
11
0.015246
21
-3.7097
0
LINE
8
BLACK
6
CONTINUOUS
10
0.015246
20
-3.7097
11
0.0232239
21
-3.71518
0
LINE
8
BLACK
6
CONTINUOUS
10
0.0232239
20
-3.71518
11
0.0318485
21
-3.71957
0
LINE
8
BLACK
6
CONTINUOUS
10
0.0318485
20
-3.71957
11
0.0409723
21
-3.72279
0
LINE
8
BLACK
6
CONTINUOUS
10
0.0409723
20
-3.72279
11
0.0504392
21
-3.7248
0
LINE
8
BLACK
6
CONTINUOUS
10
0.0504392
20
-3.7248
11
0.0596551
21
-3.72552
0
LINE
8
BLACK
6
CONTINUOUS
10
0.0596551
20
-3.72552
11
0.0600394
21
-3.7254
0
LINE
8
BLACK
6
CONTINUOUS
10
0.0600394
20
-3.7254
11
3.04602
21
-3.7254
0
LINE
8
BLACK
6
CONTINUOUS
10
3.04602
20
-3.7254
11
3.04602
21
-3.13386
0
LINE
8
BLACK
6
CONTINUOUS
10
3.04602
20
-3.13386
11
3.04622
21
-3.13327
0
LINE
8
BLACK
6
CONTINUOUS
10
3.04622
20
-3.13327
11
3.04622
21
-3.13264
0
LINE
8
BLACK
6
CONTINUOUS
10
3.04622
20
-3.13264
11
3.04658
21
-3.13214
0
LINE
8
BLACK
6
CONTINUOUS
10
3.04658
20
-3.13214
11
3.04678
21
-3.13154
0
LINE
8
BLACK
6
CONTINUOUS
10
3.04678
20
-3.13154
11
3.04728
21
-3.13118
0
LINE
8
BLACK
6
CONTINUOUS
10
3.04728
20
-3.13118
11
3.04765
21
-3.13067
0
LINE
8
BLACK
6
CONTINUOUS
10
3.04765
20
-3.13067
11
3.04824
21
-3.13048
0
LINE
8
BLACK
6
CONTINUOUS
10
3.04824
20
-3.13048
11
3.04874
21
-3.13011
0
LINE
8
BLACK
6
CONTINUOUS
10
3.04874
20
-3.13011
11
3.04937
21
-3.13011
0
LINE
8
BLACK
6
CONTINUOUS
10
3.04937
20
-3.13011
11
3.04996
21
-3.12992
0
LINE
8
BLACK
6
CONTINUOUS
10
3.04996
20
-3.12992
11
3.32161
21
-3.12992
0
LINE
8
BLACK
6
CONTINUOUS
10
3.32161
20
-3.12992
11
3.32161
21
-3.08957
0
LINE
8
BLACK
6
CONTINUOUS
10
3.32161
20
-3.08957
11
3.32181
21
-3.08897
0
LINE
8
BLACK
6
CONTINUOUS
10
3.32181
20
-3.08897
11
3.32181
21
-3.08835
0
LINE
8
BLACK
6
CONTINUOUS
10
3.32181
20
-3.08835
11
3.32217
21
-3.08785
0
LINE
8
BLACK
6
CONTINUOUS
10
3.32217
20
-3.08785
11
3.32237
21
-3.08725
0
LINE
8
BLACK
6
CONTINUOUS
10
3.32237
20
-3.08725
11
3.32287
21
-3.08689
0
LINE
8
BLACK
6
CONTINUOUS
10
3.32287
20
-3.08689
11
3.32324
21
-3.08638
0
LINE
8
BLACK
6
CONTINUOUS
10
3.32324
20
-3.08638
11
3.32383
21
-3.08619
0
LINE
8
BLACK
6
CONTINUOUS
10
3.32383
20
-3.08619
11
3.32433
21
-3.08582
0
LINE
8
BLACK
6
CONTINUOUS
10
3.32433
20
-3.08582
11
3.32496
21
-3.08582
0
LINE
8
BLACK
6
CONTINUOUS
10
3.32496
20
-3.08582
11
3.32555
21
-3.08563
0
LINE
8
BLACK
6
CONTINUOUS
10
3.32555
20
-3.08563
11
6.98697
21
-3.08563
0
LINE
8
BLACK
6
CONTINUOUS
10
6.98697
20
-3.08563
11
6.98756
21
-3.08582
0
LINE
8
BLACK
6
CONTINUOUS
10
6.98756
20
-3.08582
11
6.98819
21
-3.08582
0
LINE
8
BLACK
6
CONTINUOUS
10
6.98819
20
-3.08582
11
6.98869
21
-3.08619
0
LINE
8
BLACK
6
CONTINUOUS
10
6.98869
20
-3.08619
11
6.98928
21
-3.08638
0
LINE
8
BLACK
6
CONTINUOUS
10
6.98928
20
-3.08638
11
6.98965
21
-3.08689
0
LINE
8
BLACK
6
CONTINUOUS
10
6.98965
20
-3.08689
11
6.99015
21
-3.08725
0
LINE
8
BLACK
6
CONTINUOUS
10
6.99015
20
-3.08725
11
6.99035
21
-3.08785
0
LINE
8
BLACK
6
CONTINUOUS
10
6.99035
20
-3.08785
11
6.99071
21
-3.08835
0
LINE
8
BLACK
6
CONTINUOUS
10
6.99071
20
-3.08835
11
6.99071
21
-3.08897
0
LINE
8
BLACK
6
CONTINUOUS
10
6.99071
20
-3.08897
11
6.99091
21
-3.08957
0
LINE
8
BLACK
6
CONTINUOUS
10
6.99091
20
-3.08957
11
6.99091
21
-3.12992
0
LINE
8
BLACK
6
CONTINUOUS
10
6.99091
20
-3.12992
11
7.26256
21
-3.12992
0
LINE
8
BLACK
6
CONTINUOUS
10
7.26256
20
-3.12992
11
7.26315
21
-3.13011
0
LINE
8
BLACK
6
CONTINUOUS
10
7.26315
20
-3.13011
11
7.26378
21
-3.13011
0
LINE
8
BLACK
6
CONTINUOUS
10
7.26378
20
-3.13011
11
7.26428
21
-3.13048
0
LINE
8
BLACK
6
CONTINUOUS
10
7.26428
20
-3.13048
11
7.26487
21
-3.13067
0
LINE
8
BLACK
6
CONTINUOUS
10
7.26487
20
-3.13067
11
7.26524
21
-3.13118
0
LINE
8
BLACK
6
CONTINUOUS
10
7.26524
20
-3.13118
11
7.26574
21
-3.13154
0
LINE
8
BLACK
6
CONTINUOUS
10
7.26574
20
-3.13154
11
7.26594
21
-3.13214
0
LINE
8
BLACK
6
CONTINUOUS
10
7.26594
20
-3.13214
11
7.2663
21
-3.13264
0
LINE
8
BLACK
6
CONTINUOUS
10
7.2663
20
-3.13264
11
7.2663
21
-3.13327
0
LINE
8
BLACK
6
CONTINUOUS
10
7.2663
20
-3.13327
11
7.2665
21
-3.13386
0
LINE
8
BLACK
6
CONTINUOUS
10
7.2665
20
-3.13386
11
7.2665
21
-3.7254
0
LINE
8
BLACK
6
CONTINUOUS
10
7.2665
20
-3.7254
11
11.19
21
-3.7254
0
LINE
8
BLACK
6
CONTINUOUS
10
11.19
20
-3.7254
11
11.1904
21
-3.72553
0
LINE
8
BLACK
6
CONTINUOUS
10
11.1904
20
-3.72553
11
11.1997
21
-3.72492
0
LINE
8
BLACK
6
CONTINUOUS
10
11.1997
20
-3.72492
11
11.2094
21
-3.723
0
LINE
8
BLACK
6
CONTINUOUS
10
11.2094
20
-3.723
11
11.2186
21
-3.71985
0
LINE
8
BLACK
6
CONTINUOUS
10
11.2186
20
-3.71985
11
11.2274
21
-3.71551
0
LINE
8
BLACK
6
CONTINUOUS
10
11.2274
20
-3.71551
11
11.2356
21
-3.71007
0
LINE
8
BLACK
6
CONTINUOUS
10
11.2356
20
-3.71007
11
11.243
21
-3.7036
0
LINE
8
BLACK
6
CONTINUOUS
10
11.243
20
-3.7036
11
11.2494
21
-3.69623
0
LINE
8
BLACK
6
CONTINUOUS
10
11.2494
20
-3.69623
11
11.2549
21
-3.68807
0
LINE
8
BLACK
6
CONTINUOUS
10
11.2549
20
-3.68807
11
11.2592
21
-3.67928
0
LINE
8
BLACK
6
CONTINUOUS
10
11.2592
20
-3.67928
11
11.2624
21
-3.67
0
LINE
8
BLACK
6
CONTINUOUS
10
11.2624
20
-3.67
11
11.2643
21
-3.66038
0
LINE
8
BLACK
6
CONTINUOUS
10
11.2643
20
-3.66038
11
11.2649
21
-3.651
0
LINE
8
BLACK
6
CONTINUOUS
10
11.2649
20
-3.651
11
11.2648
21
-3.65059
0
LINE
8
BLACK
6
CONTINUOUS
10
11.2648
20
-3.65059
11
11.2648
21
-2.33169
0
LINE
8
BLACK
6
CONTINUOUS
10
11.2648
20
-2.33169
11
11.0827
21
-2.33169
0
LINE
8
BLACK
6
CONTINUOUS
10
11.0827
20
-2.33169
11
11.0719
21
-2.33099
0
LINE
8
BLACK
6
CONTINUOUS
10
11.0719
20
-2.33099
11
11.0613
21
-2.32888
0
LINE
8
BLACK
6
CONTINUOUS
10
11.0613
20
-2.32888
11
11.051
21
-2.3254
0
LINE
8
BLACK
6
CONTINUOUS
10
11.051
20
-2.3254
11
11.0413
21
-2.32062
0
LINE
8
BLACK
6
CONTINUOUS
10
11.0413
20
-2.32062
11
11.0323
21
-2.31461
0
LINE
8
BLACK
6
CONTINUOUS
10
11.0323
20
-2.31461
11
11.0242
21
-2.30748
0
LINE
8
BLACK
6
CONTINUOUS
10
11.0242
20
-2.30748
11
11.0171
21
-2.29935
0
LINE
8
BLACK
6
CONTINUOUS
10
11.0171
20
-2.29935
11
11.0111
21
-2.29035
0
LINE
8
BLACK
6
CONTINUOUS
10
11.0111
20
-2.29035
11
11.0063
21
-2.28065
0
LINE
8
BLACK
6
CONTINUOUS
10
11.0063
20
-2.28065
11
11.0028
21
-2.27041
0
LINE
8
BLACK
6
CONTINUOUS
10
11.0028
20
-2.27041
11
11.0007
21
-2.25981
0
LINE
8
BLACK
6
CONTINUOUS
10
11.0007
20
-2.25981
11
11
21
-2.24902
0
LINE
8
BLACK
6
CONTINUOUS
10
11
20
-2.24902
11
11.0007
21
-2.23822
0
LINE
8
BLACK
6
CONTINUOUS
10
11.0007
20
-2.23822
11
11.0028
21
-2.22762
0
LINE
8
BLACK
6
CONTINUOUS
10
11.0028
20
-2.22762
11
11.0063
21
-2.21738
0
LINE
8
BLACK
6
CONTINUOUS
10
11.0063
20
-2.21738
11
11.0111
21
-2.20768
0
LINE
8
BLACK
6
CONTINUOUS
10
11.0111
20
-2.20768
11
11.0171
21
-2.19869
0
LINE
8
BLACK
6
CONTINUOUS
10
11.0171
20
-2.19869
11
11.0242
21
-2.19055
0
LINE
8
BLACK
6
CONTINUOUS
10
11.0242
20
-2.19055
11
11.0323
21
-2.18342
0
LINE
8
BLACK
6
CONTINUOUS
10
11.0323
20
-2.18342
11
11.0413
21
-2.17742
0
LINE
8
BLACK
6
CONTINUOUS
10
11.0413
20
-2.17742
11
11.051
21
-2.17263
0
LINE
8
BLACK
6
CONTINUOUS
10
11.051
20
-2.17263
11
11.0613
21
-2.16916
0
LINE
8
BLACK
6
CONTINUOUS
10
11.0613
20
-2.16916
11
11.0719
21
-2.16705
0
LINE
8
BLACK
6
CONTINUOUS
10
11.0719
20
-2.16705
11
11.0827
21
-2.16634
0
LINE
8
BLACK
6
CONTINUOUS
10
11.0827
20
-2.16634
11
11.2648
21
-2.16634
0
LINE
8
BLACK
6
CONTINUOUS
10
11.2648
20
-2.16634
11
11.2648
21
-0.0994094
0
LINE
8
BLACK
6
CONTINUOUS
10
11.2648
20
-0.0994094
11
11.2649
21
-0.0989983
0
LINE
8
BLACK
6
CONTINUOUS
10
11.2649
20
-0.0989983
11
11.2643
21
-0.0896247
0
LINE
8
BLACK
6
CONTINUOUS
10
11.2643
20
-0.0896247
11
11.2624
21
-0.0800074
0
LINE
8
BLACK
6
CONTINUOUS
10
11.2624
20
-0.0800074
11
11.2592
21
-0.0707221
0
LINE
8
BLACK
6
CONTINUOUS
10
11.2592
20
-0.0707221
11
11.2549
21
-0.0619276
0
LINE
8
BLACK
6
CONTINUOUS
10
11.2549
20
-0.0619276
11
11.2494
21
-0.0537744
0
LINE
8
BLACK
6
CONTINUOUS
10
11.2494
20
-0.0537744
11
11.243
21
-0.0464021
0
LINE
8
BLACK
6
CONTINUOUS
10
11.243
20
-0.0464021
11
11.2356
21
-0.0399368
0
LINE
8
BLACK
6
CONTINUOUS
10
11.2356
20
-0.0399368
11
11.2274
21
-0.034489
0
LINE
8
BLACK
6
CONTINUOUS
10
11.2274
20
-0.034489
11
11.2186
21
-0.030152
0
LINE
8
BLACK
6
CONTINUOUS
10
11.2186
20
-0.030152
11
11.2094
21
-0.0270001
0
LINE
8
BLACK
6
CONTINUOUS
10
11.2094
20
-0.0270001
11
11.1997
21
-0.0250871
0
LINE
8
BLACK
6
CONTINUOUS
10
11.1997
20
-0.0250871
11
11.1904
21
-0.0244727
0
LINE
8
BLACK
6
CONTINUOUS
10
11.1904
20
-0.0244727
11
11.19
21
-0.0246063
0
LINE
8
BLACK
6
CONTINUOUS
10
11.19
20
-0.0246063
11
0.0600394
21
-0.0246063
0
LINE
8
BLACK
6
CONTINUOUS
10
0.0600394
20
-0.0246063
11
0.0596551
21
-0.0244815
0
LINE
8
BLACK
6
CONTINUOUS
10
10.5882
20
-3.66183
11
10.5876
21
-3.66044
0
LINE
8
BLACK
6
CONTINUOUS
10
10.5876
20
-3.66044
11
10.5876
21
-3.08957
0
LINE
8
BLACK
6
CONTINUOUS
10
10.5876
20
-3.08957
11
10.5882
21
-3.08818
0
LINE
8
BLACK
6
CONTINUOUS
10
10.5882
20
-3.08818
11
10.5896
21
-3.0876
0
LINE
8
BLACK
6
CONTINUOUS
10
10.5896
20
-3.0876
11
11.1604
21
-3.0876
0
LINE
8
BLACK
6
CONTINUOUS
10
11.1604
20
-3.0876
11
11.1618
21
-3.08818
0
LINE
8
BLACK
6
CONTINUOUS
10
11.1618
20
-3.08818
11
11.1624
21
-3.08957
0
LINE
8
BLACK
6
CONTINUOUS
10
11.1624
20
-3.08957
11
11.1624
21
-3.66044
0
LINE
8
BLACK
6
CONTINUOUS
10
11.1624
20
-3.66044
11
11.1618
21
-3.66183
0
LINE
8
BLACK
6
CONTINUOUS
10
11.1618
20
-3.66183
11
11.1604
21
-3.6624
0
LINE
8
BLACK
6
CONTINUOUS
10
11.1604
20
-3.6624
11
10.5896
21
-3.6624
0
LINE
8
BLACK
6
CONTINUOUS
10
10.5896
20
-3.6624
11
10.5882
21
-3.66183
0
LINE
8
BLACK
6
CONTINUOUS
10
10.5915
20
-3.09154
11
10.5915
21
-3.65847
0
LINE
8
BLACK
6
CONTINUOUS
10
10.5915
20
-3.65847
11
11.1585
21
-3.65847
0
LINE
8
BLACK
6
CONTINUOUS
10
11.1585
20
-3.65847
11
11.1585
21
-3.09154
0
LINE
8
BLACK
6
CONTINUOUS
10
11.1585
20
-3.09154
11
10.5915
21
-3.09154
0
LINE
8
BLACK
6
CONTINUOUS
10
9.83817
20
-3.66183
11
9.8376
21
-3.66044
0
LINE
8
BLACK
6
CONTINUOUS
10
9.8376
20
-3.66044
11
9.8376
21
-3.08957
0
LINE
8
BLACK
6
CONTINUOUS
10
9.8376
20
-3.08957
11
9.83817
21
-3.08818
0
LINE
8
BLACK
6
CONTINUOUS
10
9.83817
20
-3.08818
11
9.83957
21
-3.0876
0
LINE
8
BLACK
6
CONTINUOUS
10
9.83957
20
-3.0876
11
10.4104
21
-3.0876
0
LINE
8
BLACK
6
CONTINUOUS
10
10.4104
20
-3.0876
11
10.4118
21
-3.08818
0
LINE
8
BLACK
6
CONTINUOUS
10
10.4118
20
-3.08818
11
10.4124
21
-3.08957
0
LINE
8
BLACK
6
CONTINUOUS
10
10.4124
20
-3.08957
11
10.4124
21
-3.66044
0
LINE
8
BLACK
6
CONTINUOUS
10
10.4124
20
-3.66044
11
10.4118
21
-3.66183
0
LINE
8
BLACK
6
CONTINUOUS
10
10.4118
20
-3.66183
11
10.4104
21
-3.6624
0
LINE
8
BLACK
6
CONTINUOUS
10
10.4104
20
-3.6624
11
9.83957
21
-3.6624
0
LINE
8
BLACK
6
CONTINUOUS
10
9.83957
20
-3.6624
11
9.83817
21
-3.66183
0
LINE
8
BLACK
6
CONTINUOUS
10
9.84154
20
-3.09154
11
9.84154
21
-3.65847
0
LINE
8
BLACK
6
CONTINUOUS
10
9.84154
20
-3.65847
11
10.4085
21
-3.65847
0
LINE
8
BLACK
6
CONTINUOUS
10
10.4085
20
-3.65847
11
10.4085
21
-3.09154
0
LINE
8
BLACK
6
CONTINUOUS
10
10.4085
20
-3.09154
11
9.84154
21
-3.09154
0
LINE
8
BLACK
6
CONTINUOUS
10
1.11942
20
-3.66182
11
1.11885
21
-3.66043
0
LINE
8
BLACK
6
CONTINUOUS
10
1.11885
20
-3.66043
11
1.11885
21
-3.08957
0
LINE
8
BLACK
6
CONTINUOUS
10
1.11885
20
-3.08957
11
1.11942
21
-3.08818
0
LINE
8
BLACK
6
CONTINUOUS
10
1.11942
20
-3.08818
11
1.12082
21
-3.0876
0
LINE
8
BLACK
6
CONTINUOUS
10
1.12082
20
-3.0876
11
1.69168
21
-3.0876
0
LINE
8
BLACK
6
CONTINUOUS
10
1.69168
20
-3.0876
11
1.69307
21
-3.08818
0
LINE
8
BLACK
6
CONTINUOUS
10
1.69307
20
-3.08818
11
1.69365
21
-3.08957
0
LINE
8
BLACK
6
CONTINUOUS
10
1.69365
20
-3.08957
11
1.69365
21
-3.66043
0
LINE
8
BLACK
6
CONTINUOUS
10
1.69365
20
-3.66043
11
1.69307
21
-3.66182
0
LINE
8
BLACK
6
CONTINUOUS
10
1.69307
20
-3.66182
11
1.69168
21
-3.6624
0
LINE
8
BLACK
6
CONTINUOUS
10
1.69168
20
-3.6624
11
1.12082
21
-3.6624
0
LINE
8
BLACK
6
CONTINUOUS
10
1.12082
20
-3.6624
11
1.11942
21
-3.66182
0
LINE
8
BLACK
6
CONTINUOUS
10
1.12279
20
-3.09154
11
1.12279
21
-3.65846
0
LINE
8
BLACK
6
CONTINUOUS
10
1.12279
20
-3.65846
11
1.68971
21
-3.65846
0
LINE
8
BLACK
6
CONTINUOUS
10
1.68971
20
-3.65846
11
1.68971
21
-3.09154
0
LINE
8
BLACK
6
CONTINUOUS
10
1.68971
20
-3.09154
11
1.12279
21
-3.09154
0
LINE
8
BLACK
6
CONTINUOUS
10
2.05693
20
-3.66182
11
2.05635
21
-3.66043
0
LINE
8
BLACK
6
CONTINUOUS
10
2.05635
20
-3.66043
11
2.05635
21
-3.08957
0
LINE
8
BLACK
6
CONTINUOUS
10
2.05635
20
-3.08957
11
2.05693
21
-3.08818
0
LINE
8
BLACK
6
CONTINUOUS
10
2.05693
20
-3.08818
11
2.05832
21
-3.0876
0
LINE
8
BLACK
6
CONTINUOUS
10
2.05832
20
-3.0876
11
2.62918
21
-3.0876
0
LINE
8
BLACK
6
CONTINUOUS
10
2.62918
20
-3.0876
11
2.63057
21
-3.08818
0
LINE
8
BLACK
6
CONTINUOUS
10
2.63057
20
-3.08818
11
2.63115
21
-3.08957
0
LINE
8
BLACK
6
CONTINUOUS
10
2.63115
20
-3.08957
11
2.63115
21
-3.66043
0
LINE
8
BLACK
6
CONTINUOUS
10
2.63115
20
-3.66043
11
2.63057
21
-3.66182
0
LINE
8
BLACK
6
CONTINUOUS
10
2.63057
20
-3.66182
11
2.62918
21
-3.6624
0
LINE
8
BLACK
6
CONTINUOUS
10
2.62918
20
-3.6624
11
2.05832
21
-3.6624
0
LINE
8
BLACK
6
CONTINUOUS
10
2.05832
20
-3.6624
11
2.05693
21
-3.66182
0
LINE
8
BLACK
6
CONTINUOUS
10
2.06029
20
-3.09154
11
2.06029
21
-3.65846
0
LINE
8
BLACK
6
CONTINUOUS
10
2.06029
20
-3.65846
11
2.62721
21
-3.65846
0
LINE
8
BLACK
6
CONTINUOUS
10
2.62721
20
-3.65846
11
2.62721
21
-3.09154
0
LINE
8
BLACK
6
CONTINUOUS
10
2.62721
20
-3.09154
11
2.06029
21
-3.09154
0
LINE
8
BLACK
6
CONTINUOUS
10
9.08817
20
-3.66182
11
9.0876
21
-3.66043
0
LINE
8
BLACK
6
CONTINUOUS
10
9.0876
20
-3.66043
11
9.0876
21
-3.08957
0
LINE
8
BLACK
6
CONTINUOUS
10
9.0876
20
-3.08957
11
9.08817
21
-3.08818
0
LINE
8
BLACK
6
CONTINUOUS
10
9.08817
20
-3.08818
11
9.08957
21
-3.0876
0
LINE
8
BLACK
6
CONTINUOUS
10
9.08957
20
-3.0876
11
9.66043
21
-3.0876
0
LINE
8
BLACK
6
CONTINUOUS
10
9.66043
20
-3.0876
11
9.66183
21
-3.08818
0
LINE
8
BLACK
6
CONTINUOUS
10
9.66183
20
-3.08818
11
9.6624
21
-3.08957
0
LINE
8
BLACK
6
CONTINUOUS
10
9.6624
20
-3.08957
11
9.6624
21
-3.66043
0
LINE
8
BLACK
6
CONTINUOUS
10
9.6624
20
-3.66043
11
9.66183
21
-3.66182
0
LINE
8
BLACK
6
CONTINUOUS
10
9.66183
20
-3.66182
11
9.66043
21
-3.6624
0
LINE
8
BLACK
6
CONTINUOUS
10
9.66043
20
-3.6624
11
9.08957
21
-3.6624
0
LINE
8
BLACK
6
CONTINUOUS
10
9.08957
20
-3.6624
11
9.08817
21
-3.66182
0
LINE
8
BLACK
6
CONTINUOUS
10
9.09154
20
-3.09154
11
9.09154
21
-3.65846
0
LINE
8
BLACK
6
CONTINUOUS
10
9.09154
20
-3.65846
11
9.65846
21
-3.65846
0
LINE
8
BLACK
6
CONTINUOUS
10
9.65846
20
-3.65846
11
9.65846
21
-3.09154
0
LINE
8
BLACK
6
CONTINUOUS
10
9.65846
20
-3.09154
11
9.09154
21
-3.09154
0
LINE
8
BLACK
6
CONTINUOUS
10
0.181925
20
-3.66182
11
0.181348
21
-3.66043
0
LINE
8
BLACK
6
CONTINUOUS
10
0.181348
20
-3.66043
11
0.181348
21
-3.08957
0
LINE
8
BLACK
6
CONTINUOUS
10
0.181348
20
-3.08957
11
0.181925
21
-3.08818
0
LINE
8
BLACK
6
CONTINUOUS
10
0.181925
20
-3.08818
11
0.183317
21
-3.0876
0
LINE
8
BLACK
6
CONTINUOUS
10
0.183317
20
-3.0876
11
0.754183
21
-3.0876
0
LINE
8
BLACK
6
CONTINUOUS
10
0.754183
20
-3.0876
11
0.755575
21
-3.08818
0
LINE
8
BLACK
6
CONTINUOUS
10
0.755575
20
-3.08818
11
0.756152
21
-3.08957
0
LINE
8
BLACK
6
CONTINUOUS
10
0.756152
20
-3.08957
11
0.756152
21
-3.66043
0
LINE
8
BLACK
6
CONTINUOUS
10
0.756152
20
-3.66043
11
0.755575
21
-3.66182
0
LINE
8
BLACK
6
CONTINUOUS
10
0.755575
20
-3.66182
11
0.754183
21
-3.6624
0
LINE
8
BLACK
6
CONTINUOUS
10
0.754183
20
-3.6624
11
0.183317
21
-3.6624
0
LINE
8
BLACK
6
CONTINUOUS
10
0.183317
20
-3.6624
11
0.181925
21
-3.66182
0
LINE
8
BLACK
6
CONTINUOUS
10
0.185285
20
-3.09154
11
0.185285
21
-3.65846
0
LINE
8
BLACK
6
CONTINUOUS
10
0.185285
20
-3.65846
11
0.752215
21
-3.65846
0
LINE
8
BLACK
6
CONTINUOUS
10
0.752215
20
-3.65846
11
0.752215
21
-3.09154
0
LINE
8
BLACK
6
CONTINUOUS
10
0.752215
20
-3.09154
11
0.185285
21
-3.09154
0
LINE
8
BLACK
6
CONTINUOUS
10
8.33817
20
-3.66182
11
8.3376
21
-3.66043
0
LINE
8
BLACK
6
CONTINUOUS
10
8.3376
20
-3.66043
11
8.3376
21
-3.08957
0
LINE
8
BLACK
6
CONTINUOUS
10
8.3376
20
-3.08957
11
8.33817
21
-3.08818
0
LINE
8
BLACK
6
CONTINUOUS
10
8.33817
20
-3.08818
11
8.33957
21
-3.0876
0
LINE
8
BLACK
6
CONTINUOUS
10
8.33957
20
-3.0876
11
8.91043
21
-3.0876
0
LINE
8
BLACK
6
CONTINUOUS
10
8.91043
20
-3.0876
11
8.91183
21
-3.08818
0
LINE
8
BLACK
6
CONTINUOUS
10
8.91183
20
-3.08818
11
8.9124
21
-3.08957
0
LINE
8
BLACK
6
CONTINUOUS
10
8.9124
20
-3.08957
11
8.9124
21
-3.66043
0
LINE
8
BLACK
6
CONTINUOUS
10
8.9124
20
-3.66043
11
8.91183
21
-3.66182
0
LINE
8
BLACK
6
CONTINUOUS
10
8.91183
20
-3.66182
11
8.91043
21
-3.6624
0
LINE
8
BLACK
6
CONTINUOUS
10
8.91043
20
-3.6624
11
8.33957
21
-3.6624
0
LINE
8
BLACK
6
CONTINUOUS
10
8.33957
20
-3.6624
11
8.33817
21
-3.66182
0
LINE
8
BLACK
6
CONTINUOUS
10
8.34154
20
-3.09154
11
8.34154
21
-3.65846
0
LINE
8
BLACK
6
CONTINUOUS
10
8.34154
20
-3.65846
11
8.90846
21
-3.65846
0
LINE
8
BLACK
6
CONTINUOUS
10
8.90846
20
-3.65846
11
8.90846
21
-3.09154
0
LINE
8
BLACK
6
CONTINUOUS
10
8.90846
20
-3.09154
11
8.34154
21
-3.09154
0
LINE
8
BLACK
6
CONTINUOUS
10
1.3626
20
-2.38287
11
1.3626
21
-3.0128
0
LINE
8
BLACK
6
CONTINUOUS
10
1.3626
20
-3.0128
11
1.36191
21
-3.01447
0
LINE
8
BLACK
6
CONTINUOUS
10
1.36191
20
-3.01447
11
1.36024
21
-3.01516
0
LINE
8
BLACK
6
CONTINUOUS
10
1.36024
20
-3.01516
11
0.139764
21
-3.01516
0
LINE
8
BLACK
6
CONTINUOUS
10
0.139764
20
-3.01516
11
0.138093
21
-3.01447
0
LINE
8
BLACK
6
CONTINUOUS
10
0.138093
20
-3.01447
11
0.137402
21
-3.0128
0
LINE
8
BLACK
6
CONTINUOUS
10
0.137402
20
-3.0128
11
0.137402
21
-2.38287
0
LINE
8
BLACK
6
CONTINUOUS
10
0.137402
20
-2.38287
11
0.138093
21
-2.3812
0
LINE
8
BLACK
6
CONTINUOUS
10
0.138093
20
-2.3812
11
0.139764
21
-2.38051
0
LINE
8
BLACK
6
CONTINUOUS
10
0.139764
20
-2.38051
11
0.412992
21
-2.38051
0
LINE
8
BLACK
6
CONTINUOUS
10
0.412992
20
-2.38051
11
0.412992
21
-2.33957
0
LINE
8
BLACK
6
CONTINUOUS
10
0.412992
20
-2.33957
11
0.413684
21
-2.3379
0
LINE
8
BLACK
6
CONTINUOUS
10
0.413684
20
-2.3379
11
0.415354
21
-2.3372
0
LINE
8
BLACK
6
CONTINUOUS
10
0.415354
20
-2.3372
11
1.08465
21
-2.3372
0
LINE
8
BLACK
6
CONTINUOUS
10
1.08465
20
-2.3372
11
1.08632
21
-2.3379
0
LINE
8
BLACK
6
CONTINUOUS
10
1.08632
20
-2.3379
11
1.08701
21
-2.33957
0
LINE
8
BLACK
6
CONTINUOUS
10
1.08701
20
-2.33957
11
1.08701
21
-2.38051
0
LINE
8
BLACK
6
CONTINUOUS
10
1.08701
20
-2.38051
11
1.36024
21
-2.38051
0
LINE
8
BLACK
6
CONTINUOUS
10
1.36024
20
-2.38051
11
1.36191
21
-2.3812
0
LINE
8
BLACK
6
CONTINUOUS
10
1.36191
20
-2.3812
11
1.3626
21
-2.38287
0
LINE
8
BLACK
6
CONTINUOUS
10
0.142126
20
-3.01043
11
1.35787
21
-3.01043
0
LINE
8
BLACK
6
CONTINUOUS
10
1.35787
20
-3.01043
11
1.35787
21
-2.38524
0
LINE
8
BLACK
6
CONTINUOUS
10
1.35787
20
-2.38524
11
1.08465
21
-2.38524
0
LINE
8
BLACK
6
CONTINUOUS
10
1.08465
20
-2.38524
11
1.08298
21
-2.38454
0
LINE
8
BLACK
6
CONTINUOUS
10
1.08298
20
-2.38454
11
1.08228
21
-2.38287
0
LINE
8
BLACK
6
CONTINUOUS
10
1.08228
20
-2.38287
11
1.08228
21
-2.34193
0
LINE
8
BLACK
6
CONTINUOUS
10
1.08228
20
-2.34193
11
0.417717
21
-2.34193
0
LINE
8
BLACK
6
CONTINUOUS
10
0.417717
20
-2.34193
11
0.417717
21
-2.38287
0
LINE
8
BLACK
6
CONTINUOUS
10
0.417717
20
-2.38287
11
0.417025
21
-2.38454
0
LINE
8
BLACK
6
CONTINUOUS
10
0.417025
20
-2.38454
11
0.415354
21
-2.38524
0
LINE
8
BLACK
6
CONTINUOUS
10
0.415354
20
-2.38524
11
0.142126
21
-2.38524
0
LINE
8
BLACK
6
CONTINUOUS
10
0.142126
20
-2.38524
11
0.142126
21
-3.01043
0
LINE
8
BLACK
6
CONTINUOUS
10
9.83818
20
-2.91183
11
9.83761
21
-2.91044
0
LINE
8
BLACK
6
CONTINUOUS
10
9.83761
20
-2.91044
11
9.83761
21
-2.33957
0
LINE
8
BLACK
6
CONTINUOUS
10
9.83761
20
-2.33957
11
9.83818
21
-2.33818
0
LINE
8
BLACK
6
CONTINUOUS
10
9.83818
20
-2.33818
11
9.83958
21
-2.3376
0
LINE
8
BLACK
6
CONTINUOUS
10
9.83958
20
-2.3376
11
10.4104
21
-2.3376
0
LINE
8
BLACK
6
CONTINUOUS
10
10.4104
20
-2.3376
11
10.4118
21
-2.33818
0
LINE
8
BLACK
6
CONTINUOUS
10
10.4118
20
-2.33818
11
10.4124
21
-2.33957
0
LINE
8
BLACK
6
CONTINUOUS
10
10.4124
20
-2.33957
11
10.4124
21
-2.91044
0
LINE
8
BLACK
6
CONTINUOUS
10
10.4124
20
-2.91044
11
10.4118
21
-2.91183
0
LINE
8
BLACK
6
CONTINUOUS
10
10.4118
20
-2.91183
11
10.4104
21
-2.9124
0
LINE
8
BLACK
6
CONTINUOUS
10
10.4104
20
-2.9124
11
9.83958
21
-2.9124
0
LINE
8
BLACK
6
CONTINUOUS
10
9.83958
20
-2.9124
11
9.83818
21
-2.91183
0
LINE
8
BLACK
6
CONTINUOUS
10
9.84154
20
-2.34154
11
9.84154
21
-2.90847
0
LINE
8
BLACK
6
CONTINUOUS
10
9.84154
20
-2.90847
11
10.4085
21
-2.90847
0
LINE
8
BLACK
6
CONTINUOUS
10
10.4085
20
-2.90847
11
10.4085
21
-2.34154
0
LINE
8
BLACK
6
CONTINUOUS
10
10.4085
20
-2.34154
11
9.84154
21
-2.34154
0
LINE
8
BLACK
6
CONTINUOUS
10
2.33818
20
-2.91182
11
2.3376
21
-2.91043
0
LINE
8
BLACK
6
CONTINUOUS
10
2.3376
20
-2.91043
11
2.3376
21
-2.33957
0
LINE
8
BLACK
6
CONTINUOUS
10
2.3376
20
-2.33957
11
2.33818
21
-2.33818
0
LINE
8
BLACK
6
CONTINUOUS
10
2.33818
20
-2.33818
11
2.33957
21
-2.3376
0
LINE
8
BLACK
6
CONTINUOUS
10
2.33957
20
-2.3376
11
2.91043
21
-2.3376
0
LINE
8
BLACK
6
CONTINUOUS
10
2.91043
20
-2.3376
11
2.91182
21
-2.33818
0
LINE
8
BLACK
6
CONTINUOUS
10
2.91182
20
-2.33818
11
2.9124
21
-2.33957
0
LINE
8
BLACK
6
CONTINUOUS
10
2.9124
20
-2.33957
11
2.9124
21
-2.91043
0
LINE
8
BLACK
6
CONTINUOUS
10
2.9124
20
-2.91043
11
2.91182
21
-2.91182
0
LINE
8
BLACK
6
CONTINUOUS
10
2.91182
20
-2.91182
11
2.91043
21
-2.9124
0
LINE
8
BLACK
6
CONTINUOUS
10
2.91043
20
-2.9124
11
2.33957
21
-2.9124
0
LINE
8
BLACK
6
CONTINUOUS
10
2.33957
20
-2.9124
11
2.33818
21
-2.91182
0
LINE
8
BLACK
6
CONTINUOUS
10
2.34154
20
-2.34154
11
2.34154
21
-2.90846
0
LINE
8
BLACK
6
CONTINUOUS
10
2.34154
20
-2.90846
11
2.90846
21
-2.90846
0
LINE
8
BLACK
6
CONTINUOUS
10
2.90846
20
-2.90846
11
2.90846
21
-2.34154
0
LINE
8
BLACK
6
CONTINUOUS
10
2.90846
20
-2.34154
11
2.34154
21
-2.34154
0
LINE
8
BLACK
6
CONTINUOUS
10
6.83817
20
-2.91182
11
6.8376
21
-2.91043
0
LINE
8
BLACK
6
CONTINUOUS
10
6.8376
20
-2.91043
11
6.8376
21
-2.33957
0
LINE
8
BLACK
6
CONTINUOUS
10
6.8376
20
-2.33957
11
6.83817
21
-2.33818
0
LINE
8
BLACK
6
CONTINUOUS
10
6.83817
20
-2.33818
11
6.83957
21
-2.3376
0
LINE
8
BLACK
6
CONTINUOUS
10
6.83957
20
-2.3376
11
7.41043
21
-2.3376
0
LINE
8
BLACK
6
CONTINUOUS
10
7.41043
20
-2.3376
11
7.41182
21
-2.33818
0
LINE
8
BLACK
6
CONTINUOUS
10
7.41182
20
-2.33818
11
7.4124
21
-2.33957
0
LINE
8
BLACK
6
CONTINUOUS
10
7.4124
20
-2.33957
11
7.4124
21
-2.91043
0
LINE
8
BLACK
6
CONTINUOUS
10
7.4124
20
-2.91043
11
7.41182
21
-2.91182
0
LINE
8
BLACK
6
CONTINUOUS
10
7.41182
20
-2.91182
11
7.41043
21
-2.9124
0
LINE
8
BLACK
6
CONTINUOUS
10
7.41043
20
-2.9124
11
6.83957
21
-2.9124
0
LINE
8
BLACK
6
CONTINUOUS
10
6.83957
20
-2.9124
11
6.83817
21
-2.91182
0
LINE
8
BLACK
6
CONTINUOUS
10
6.84154
20
-2.34154
11
6.84154
21
-2.90846
0
LINE
8
BLACK
6
CONTINUOUS
10
6.84154
20
-2.90846
11
7.40846
21
-2.90846
0
LINE
8
BLACK
6
CONTINUOUS
10
7.40846
20
-2.90846
11
7.40846
21
-2.34154
0
LINE
8
BLACK
6
CONTINUOUS
10
7.40846
20
-2.34154
11
6.84154
21
-2.34154
0
LINE
8
BLACK
6
CONTINUOUS
10
8.33817
20
-2.91182
11
8.3376
21
-2.91043
0
LINE
8
BLACK
6
CONTINUOUS
10
8.3376
20
-2.91043
11
8.3376
21
-2.33957
0
LINE
8
BLACK
6
CONTINUOUS
10
8.3376
20
-2.33957
11
8.33817
21
-2.33818
0
LINE
8
BLACK
6
CONTINUOUS
10
8.33817
20
-2.33818
11
8.33957
21
-2.3376
0
LINE
8
BLACK
6
CONTINUOUS
10
8.33957
20
-2.3376
11
8.91043
21
-2.3376
0
LINE
8
BLACK
6
CONTINUOUS
10
8.91043
20
-2.3376
11
8.91183
21
-2.33818
0
LINE
8
BLACK
6
CONTINUOUS
10
8.91183
20
-2.33818
11
8.9124
21
-2.33957
0
LINE
8
BLACK
6
CONTINUOUS
10
8.9124
20
-2.33957
11
8.9124
21
-2.91043
0
LINE
8
BLACK
6
CONTINUOUS
10
8.9124
20
-2.91043
11
8.91183
21
-2.91182
0
LINE
8
BLACK
6
CONTINUOUS
10
8.91183
20
-2.91182
11
8.91043
21
-2.9124
0
LINE
8
BLACK
6
CONTINUOUS
10
8.91043
20
-2.9124
11
8.33957
21
-2.9124
0
LINE
8
BLACK
6
CONTINUOUS
10
8.33957
20
-2.9124
11
8.33817
21
-2.91182
0
LINE
8
BLACK
6
CONTINUOUS
10
8.34154
20
-2.34154
11
8.34154
21
-2.90846
0
LINE
8
BLACK
6
CONTINUOUS
10
8.34154
20
-2.90846
11
8.90846
21
-2.90846
0
LINE
8
BLACK
6
CONTINUOUS
10
8.90846
20
-2.90846
11
8.90846
21
-2.34154
0
LINE
8
BLACK
6
CONTINUOUS
10
8.90846
20
-2.34154
11
8.34154
21
-2.34154
0
LINE
8
BLACK
6
CONTINUOUS
10
5.33817
20
-2.91182
11
5.3376
21
-2.91043
0
LINE
8
BLACK
6
CONTINUOUS
10
5.3376
20
-2.91043
11
5.3376
21
-2.33957
0
LINE
8
BLACK
6
CONTINUOUS
10
5.3376
20
-2.33957
11
5.33817
21
-2.33818
0
LINE
8
BLACK
6
CONTINUOUS
10
5.33817
20
-2.33818
11
5.33957
21
-2.3376
0
LINE
8
BLACK
6
CONTINUOUS
10
5.33957
20
-2.3376
11
5.91043
21
-2.3376
0
LINE
8
BLACK
6
CONTINUOUS
10
5.91043
20
-2.3376
11
5.91182
21
-2.33818
0
LINE
8
BLACK
6
CONTINUOUS
10
5.91182
20
-2.33818
11
5.9124
21
-2.33957
0
LINE
8
BLACK
6
CONTINUOUS
10
5.9124
20
-2.33957
11
5.9124
21
-2.91043
0
LINE
8
BLACK
6
CONTINUOUS
10
5.9124
20
-2.91043
11
5.91182
21
-2.91182
0
LINE
8
BLACK
6
CONTINUOUS
10
5.91182
20
-2.91182
11
5.91043
21
-2.9124
0
LINE
8
BLACK
6
CONTINUOUS
10
5.91043
20
-2.9124
11
5.33957
21
-2.9124
0
LINE
8
BLACK
6
CONTINUOUS
10
5.33957
20
-2.9124
11
5.33817
21
-2.91182
0
LINE
8
BLACK
6
CONTINUOUS
10
5.34154
20
-2.34154
11
5.34154
21
-2.90846
0
LINE
8
BLACK
6
CONTINUOUS
10
5.34154
20
-2.90846
11
5.90846
21
-2.90846
0
LINE
8
BLACK
6
CONTINUOUS
10
5.90846
20
-2.90846
11
5.90846
21
-2.34154
0
LINE
8
BLACK
6
CONTINUOUS
10
5.90846
20
-2.34154
11
5.34154
21
-2.34154
0
LINE
8
BLACK
6
CONTINUOUS
10
3.83818
20
-2.91182
11
3.8376
21
-2.91043
0
LINE
8
BLACK
6
CONTINUOUS
10
3.8376
20
-2.91043
11
3.8376
21
-2.33957
0
LINE
8
BLACK
6
CONTINUOUS
10
3.8376
20
-2.33957
11
3.83818
21
-2.33818
0
LINE
8
BLACK
6
CONTINUOUS
10
3.83818
20
-2.33818
11
3.83957
21
-2.3376
0
LINE
8
BLACK
6
CONTINUOUS
10
3.83957
20
-2.3376
11
4.41043
21
-2.3376
0
LINE
8
BLACK
6
CONTINUOUS
10
4.41043
20
-2.3376
11
4.41183
21
-2.33818
0
LINE
8
BLACK
6
CONTINUOUS
10
4.41183
20
-2.33818
11
4.4124
21
-2.33957
0
LINE
8
BLACK
6
CONTINUOUS
10
4.4124
20
-2.33957
11
4.4124
21
-2.91043
0
LINE
8
BLACK
6
CONTINUOUS
10
4.4124
20
-2.91043
11
4.41183
21
-2.91182
0
LINE
8
BLACK
6
CONTINUOUS
10
4.41183
20
-2.91182
11
4.41043
21
-2.9124
0
LINE
8
BLACK
6
CONTINUOUS
10
4.41043
20
-2.9124
11
3.83957
21
-2.9124
0
LINE
8
BLACK
6
CONTINUOUS
10
3.83957
20
-2.9124
11
3.83818
21
-2.91182
0
LINE
8
BLACK
6
CONTINUOUS
10
3.84154
20
-2.34154
11
3.84154
21
-2.90846
0
LINE
8
BLACK
6
CONTINUOUS
10
3.84154
20
-2.90846
11
4.40846
21
-2.90846
0
LINE
8
BLACK
6
CONTINUOUS
10
4.40846
20
-2.90846
11
4.40846
21
-2.34154
0
LINE
8
BLACK
6
CONTINUOUS
10
4.40846
20
-2.34154
11
3.84154
21
-2.34154
0
LINE
8
BLACK
6
CONTINUOUS
10
7.58817
20
-2.91182
11
7.5876
21
-2.91043
0
LINE
8
BLACK
6
CONTINUOUS
10
7.5876
20
-2.91043
11
7.5876
21
-2.33957
0
LINE
8
BLACK
6
CONTINUOUS
10
7.5876
20
-2.33957
11
7.58817
21
-2.33818
0
LINE
8
BLACK
6
CONTINUOUS
10
7.58817
20
-2.33818
11
7.58957
21
-2.3376
0
LINE
8
BLACK
6
CONTINUOUS
10
7.58957
20
-2.3376
11
8.16043
21
-2.3376
0
LINE
8
BLACK
6
CONTINUOUS
10
8.16043
20
-2.3376
11
8.16183
21
-2.33818
0
LINE
8
BLACK
6
CONTINUOUS
10
8.16183
20
-2.33818
11
8.1624
21
-2.33957
0
LINE
8
BLACK
6
CONTINUOUS
10
8.1624
20
-2.33957
11
8.1624
21
-2.91043
0
LINE
8
BLACK
6
CONTINUOUS
10
8.1624
20
-2.91043
11
8.16183
21
-2.91182
0
LINE
8
BLACK
6
CONTINUOUS
10
8.16183
20
-2.91182
11
8.16043
21
-2.9124
0
LINE
8
BLACK
6
CONTINUOUS
10
8.16043
20
-2.9124
11
7.58957
21
-2.9124
0
LINE
8
BLACK
6
CONTINUOUS
10
7.58957
20
-2.9124
11
7.58817
21
-2.91182
0
LINE
8
BLACK
6
CONTINUOUS
10
7.59154
20
-2.34154
11
7.59154
21
-2.90846
0
LINE
8
BLACK
6
CONTINUOUS
10
7.59154
20
-2.90846
11
8.15846
21
-2.90846
0
LINE
8
BLACK
6
CONTINUOUS
10
8.15846
20
-2.90846
11
8.15846
21
-2.34154
0
LINE
8
BLACK
6
CONTINUOUS
10
8.15846
20
-2.34154
11
7.59154
21
-2.34154
0
LINE
8
BLACK
6
CONTINUOUS
10
9.08817
20
-2.91182
11
9.0876
21
-2.91043
0
LINE
8
BLACK
6
CONTINUOUS
10
9.0876
20
-2.91043
11
9.0876
21
-2.33957
0
LINE
8
BLACK
6
CONTINUOUS
10
9.0876
20
-2.33957
11
9.08817
21
-2.33818
0
LINE
8
BLACK
6
CONTINUOUS
10
9.08817
20
-2.33818
11
9.08957
21
-2.3376
0
LINE
8
BLACK
6
CONTINUOUS
10
9.08957
20
-2.3376
11
9.66043
21
-2.3376
0
LINE
8
BLACK
6
CONTINUOUS
10
9.66043
20
-2.3376
11
9.66183
21
-2.33818
0
LINE
8
BLACK
6
CONTINUOUS
10
9.66183
20
-2.33818
11
9.6624
21
-2.33957
0
LINE
8
BLACK
6
CONTINUOUS
10
9.6624
20
-2.33957
11
9.6624
21
-2.91043
0
LINE
8
BLACK
6
CONTINUOUS
10
9.6624
20
-2.91043
11
9.66183
21
-2.91182
0
LINE
8
BLACK
6
CONTINUOUS
10
9.66183
20
-2.91182
11
9.66043
21
-2.9124
0
LINE
8
BLACK
6
CONTINUOUS
10
9.66043
20
-2.9124
11
9.08957
21
-2.9124
0
LINE
8
BLACK
6
CONTINUOUS
10
9.08957
20
-2.9124
11
9.08817
21
-2.91182
0
LINE
8
BLACK
6
CONTINUOUS
10
9.09154
20
-2.34154
11
9.09154
21
-2.90846
0
LINE
8
BLACK
6
CONTINUOUS
10
9.09154
20
-2.90846
11
9.65846
21
-2.90846
0
LINE
8
BLACK
6
CONTINUOUS
10
9.65846
20
-2.90846
11
9.65846
21
-2.34154
0
LINE
8
BLACK
6
CONTINUOUS
10
9.65846
20
-2.34154
11
9.09154
21
-2.34154
0
LINE
8
BLACK
6
CONTINUOUS
10
6.08817
20
-2.91182
11
6.0876
21
-2.91043
0
LINE
8
BLACK
6
CONTINUOUS
10
6.0876
20
-2.91043
11
6.0876
21
-2.33957
0
LINE
8
BLACK
6
CONTINUOUS
10
6.0876
20
-2.33957
11
6.08817
21
-2.33818
0
LINE
8
BLACK
6
CONTINUOUS
10
6.08817
20
-2.33818
11
6.08957
21
-2.3376
0
LINE
8
BLACK
6
CONTINUOUS
10
6.08957
20
-2.3376
11
6.66043
21
-2.3376
0
LINE
8
BLACK
6
CONTINUOUS
10
6.66043
20
-2.3376
11
6.66182
21
-2.33818
0
LINE
8
BLACK
6
CONTINUOUS
10
6.66182
20
-2.33818
11
6.6624
21
-2.33957
0
LINE
8
BLACK
6
CONTINUOUS
10
6.6624
20
-2.33957
11
6.6624
21
-2.91043
0
LINE
8
BLACK
6
CONTINUOUS
10
6.6624
20
-2.91043
11
6.66182
21
-2.91182
0
LINE
8
BLACK
6
CONTINUOUS
10
6.66182
20
-2.91182
11
6.66043
21
-2.9124
0
LINE
8
BLACK
6
CONTINUOUS
10
6.66043
20
-2.9124
11
6.08957
21
-2.9124
0
LINE
8
BLACK
6
CONTINUOUS
10
6.08957
20
-2.9124
11
6.08817
21
-2.91182
0
LINE
8
BLACK
6
CONTINUOUS
10
6.09154
20
-2.34154
11
6.09154
21
-2.90846
0
LINE
8
BLACK
6
CONTINUOUS
10
6.09154
20
-2.90846
11
6.65846
21
-2.90846
0
LINE
8
BLACK
6
CONTINUOUS
10
6.65846
20
-2.90846
11
6.65846
21
-2.34154
0
LINE
8
BLACK
6
CONTINUOUS
10
6.65846
20
-2.34154
11
6.09154
21
-2.34154
0
LINE
8
BLACK
6
CONTINUOUS
10
10.5882
20
-2.91182
11
10.5876
21
-2.91043
0
LINE
8
BLACK
6
CONTINUOUS
10
10.5876
20
-2.91043
11
10.5876
21
-2.33957
0
LINE
8
BLACK
6
CONTINUOUS
10
10.5876
20
-2.33957
11
10.5882
21
-2.33818
0
LINE
8
BLACK
6
CONTINUOUS
10
10.5882
20
-2.33818
11
10.5896
21
-2.3376
0
LINE
8
BLACK
6
CONTINUOUS
10
10.5896
20
-2.3376
11
11.1604
21
-2.3376
0
LINE
8
BLACK
6
CONTINUOUS
10
11.1604
20
-2.3376
11
11.1618
21
-2.33818
0
LINE
8
BLACK
6
CONTINUOUS
10
11.1618
20
-2.33818
11
11.1624
21
-2.33957
0
LINE
8
BLACK
6
CONTINUOUS
10
11.1624
20
-2.33957
11
11.1624
21
-2.91043
0
LINE
8
BLACK
6
CONTINUOUS
10
11.1624
20
-2.91043
11
11.1618
21
-2.91182
0
LINE
8
BLACK
6
CONTINUOUS
10
11.1618
20
-2.91182
11
11.1604
21
-2.9124
0
LINE
8
BLACK
6
CONTINUOUS
10
11.1604
20
-2.9124
11
10.5896
21
-2.9124
0
LINE
8
BLACK
6
CONTINUOUS
10
10.5896
20
-2.9124
11
10.5882
21
-2.91182
0
LINE
8
BLACK
6
CONTINUOUS
10
10.5915
20
-2.34154
11
10.5915
21
-2.90846
0
LINE
8
BLACK
6
CONTINUOUS
10
10.5915
20
-2.90846
11
11.1585
21
-2.90846
0
LINE
8
BLACK
6
CONTINUOUS
10
11.1585
20
-2.90846
11
11.1585
21
-2.34154
0
LINE
8
BLACK
6
CONTINUOUS
10
11.1585
20
-2.34154
11
10.5915
21
-2.34154
0
LINE
8
BLACK
6
CONTINUOUS
10
1.58817
20
-2.91182
11
1.5876
21
-2.91043
0
LINE
8
BLACK
6
CONTINUOUS
10
1.5876
20
-2.91043
11
1.5876
21
-2.33957
0
LINE
8
BLACK
6
CONTINUOUS
10
1.5876
20
-2.33957
11
1.58817
21
-2.33818
0
LINE
8
BLACK
6
CONTINUOUS
10
1.58817
20
-2.33818
11
1.58957
21
-2.3376
0
LINE
8
BLACK
6
CONTINUOUS
10
1.58957
20
-2.3376
11
2.16043
21
-2.3376
0
LINE
8
BLACK
6
CONTINUOUS
10
2.16043
20
-2.3376
11
2.16182
21
-2.33818
0
LINE
8
BLACK
6
CONTINUOUS
10
2.16182
20
-2.33818
11
2.1624
21
-2.33957
0
LINE
8
BLACK
6
CONTINUOUS
10
2.1624
20
-2.33957
11
2.1624
21
-2.91043
0
LINE
8
BLACK
6
CONTINUOUS
10
2.1624
20
-2.91043
11
2.16182
21
-2.91182
0
LINE
8
BLACK
6
CONTINUOUS
10
2.16182
20
-2.91182
11
2.16043
21
-2.9124
0
LINE
8
BLACK
6
CONTINUOUS
10
2.16043
20
-2.9124
11
1.58957
21
-2.9124
0
LINE
8
BLACK
6
CONTINUOUS
10
1.58957
20
-2.9124
11
1.58817
21
-2.91182
0
LINE
8
BLACK
6
CONTINUOUS
10
1.59154
20
-2.34154
11
1.59154
21
-2.90846
0
LINE
8
BLACK
6
CONTINUOUS
10
1.59154
20
-2.90846
11
2.15846
21
-2.90846
0
LINE
8
BLACK
6
CONTINUOUS
10
2.15846
20
-2.90846
11
2.15846
21
-2.34154
0
LINE
8
BLACK
6
CONTINUOUS
10
2.15846
20
-2.34154
11
1.59154
21
-2.34154
0
LINE
8
BLACK
6
CONTINUOUS
10
3.08818
20
-2.91182
11
3.0876
21
-2.91043
0
LINE
8
BLACK
6
CONTINUOUS
10
3.0876
20
-2.91043
11
3.0876
21
-2.33957
0
LINE
8
BLACK
6
CONTINUOUS
10
3.0876
20
-2.33957
11
3.08818
21
-2.33818
0
LINE
8
BLACK
6
CONTINUOUS
10
3.08818
20
-2.33818
11
3.08957
21
-2.3376
0
LINE
8
BLACK
6
CONTINUOUS
10
3.08957
20
-2.3376
11
3.66043
21
-2.3376
0
LINE
8
BLACK
6
CONTINUOUS
10
3.66043
20
-2.3376
11
3.66182
21
-2.33818
0
LINE
8
BLACK
6
CONTINUOUS
10
3.66182
20
-2.33818
11
3.6624
21
-2.33957
0
LINE
8
BLACK
6
CONTINUOUS
10
3.6624
20
-2.33957
11
3.6624
21
-2.91043
0
LINE
8
BLACK
6
CONTINUOUS
10
3.6624
20
-2.91043
11
3.66182
21
-2.91182
0
LINE
8
BLACK
6
CONTINUOUS
10
3.66182
20
-2.91182
11
3.66043
21
-2.9124
0
LINE
8
BLACK
6
CONTINUOUS
10
3.66043
20
-2.9124
11
3.08957
21
-2.9124
0
LINE
8
BLACK
6
CONTINUOUS
10
3.08957
20
-2.9124
11
3.08818
21
-2.91182
0
LINE
8
BLACK
6
CONTINUOUS
10
3.09154
20
-2.34154
11
3.09154
21
-2.90846
0
LINE
8
BLACK
6
CONTINUOUS
10
3.09154
20
-2.90846
11
3.65846
21
-2.90846
0
LINE
8
BLACK
6
CONTINUOUS
10
3.65846
20
-2.90846
11
3.65846
21
-2.34154
0
LINE
8
BLACK
6
CONTINUOUS
10
3.65846
20
-2.34154
11
3.09154
21
-2.34154
0
LINE
8
BLACK
6
CONTINUOUS
10
4.58817
20
-2.91182
11
4.5876
21
-2.91043
0
LINE
8
BLACK
6
CONTINUOUS
10
4.5876
20
-2.91043
11
4.5876
21
-2.33957
0
LINE
8
BLACK
6
CONTINUOUS
10
4.5876
20
-2.33957
11
4.58817
21
-2.33818
0
LINE
8
BLACK
6
CONTINUOUS
10
4.58817
20
-2.33818
11
4.58957
21
-2.3376
0
LINE
8
BLACK
6
CONTINUOUS
10
4.58957
20
-2.3376
11
5.16043
21
-2.3376
0
LINE
8
BLACK
6
CONTINUOUS
10
5.16043
20
-2.3376
11
5.16182
21
-2.33818
0
LINE
8
BLACK
6
CONTINUOUS
10
5.16182
20
-2.33818
11
5.1624
21
-2.33957
0
LINE
8
BLACK
6
CONTINUOUS
10
5.1624
20
-2.33957
11
5.1624
21
-2.91043
0
LINE
8
BLACK
6
CONTINUOUS
10
5.1624
20
-2.91043
11
5.16182
21
-2.91182
0
LINE
8
BLACK
6
CONTINUOUS
10
5.16182
20
-2.91182
11
5.16043
21
-2.9124
0
LINE
8
BLACK
6
CONTINUOUS
10
5.16043
20
-2.9124
11
4.58957
21
-2.9124
0
LINE
8
BLACK
6
CONTINUOUS
10
4.58957
20
-2.9124
11
4.58817
21
-2.91182
0
LINE
8
BLACK
6
CONTINUOUS
10
4.59154
20
-2.34154
11
4.59154
21
-2.90846
0
LINE
8
BLACK
6
CONTINUOUS
10
4.59154
20
-2.90846
11
5.15846
21
-2.90846
0
LINE
8
BLACK
6
CONTINUOUS
10
5.15846
20
-2.90846
11
5.15846
21
-2.34154
0
LINE
8
BLACK
6
CONTINUOUS
10
5.15846
20
-2.34154
11
4.59154
21
-2.34154
0
LINE
8
BLACK
6
CONTINUOUS
10
9.65067
20
-2.16182
11
9.6501
21
-2.16043
0
LINE
8
BLACK
6
CONTINUOUS
10
9.6501
20
-2.16043
11
9.6501
21
-1.58957
0
LINE
8
BLACK
6
CONTINUOUS
10
9.6501
20
-1.58957
11
9.65067
21
-1.58817
0
LINE
8
BLACK
6
CONTINUOUS
10
9.65067
20
-1.58817
11
9.65207
21
-1.5876
0
LINE
8
BLACK
6
CONTINUOUS
10
9.65207
20
-1.5876
11
10.2229
21
-1.5876
0
LINE
8
BLACK
6
CONTINUOUS
10
10.2229
20
-1.5876
11
10.2243
21
-1.58817
0
LINE
8
BLACK
6
CONTINUOUS
10
10.2243
20
-1.58817
11
10.2249
21
-1.58957
0
LINE
8
BLACK
6
CONTINUOUS
10
10.2249
20
-1.58957
11
10.2249
21
-2.16043
0
LINE
8
BLACK
6
CONTINUOUS
10
10.2249
20
-2.16043
11
10.2243
21
-2.16182
0
LINE
8
BLACK
6
CONTINUOUS
10
10.2243
20
-2.16182
11
10.2229
21
-2.1624
0
LINE
8
BLACK
6
CONTINUOUS
10
10.2229
20
-2.1624
11
9.65207
21
-2.1624
0
LINE
8
BLACK
6
CONTINUOUS
10
9.65207
20
-2.1624
11
9.65067
21
-2.16182
0
LINE
8
BLACK
6
CONTINUOUS
10
9.65404
20
-1.59154
11
9.65404
21
-2.15846
0
LINE
8
BLACK
6
CONTINUOUS
10
9.65404
20
-2.15846
11
10.221
21
-2.15846
0
LINE
8
BLACK
6
CONTINUOUS
10
10.221
20
-2.15846
11
10.221
21
-1.59154
0
LINE
8
BLACK
6
CONTINUOUS
10
10.221
20
-1.59154
11
9.65404
21
-1.59154
0
LINE
8
BLACK
6
CONTINUOUS
10
1.40067
20
-2.16182
11
1.4001
21
-2.16043
0
LINE
8
BLACK
6
CONTINUOUS
10
1.4001
20
-2.16043
11
1.4001
21
-1.58957
0
LINE
8
BLACK
6
CONTINUOUS
10
1.4001
20
-1.58957
11
1.40067
21
-1.58817
0
LINE
8
BLACK
6
CONTINUOUS
10
1.40067
20
-1.58817
11
1.40207
21
-1.5876
0
LINE
8
BLACK
6
CONTINUOUS
10
1.40207
20
-1.5876
11
1.97293
21
-1.5876
0
LINE
8
BLACK
6
CONTINUOUS
10
1.97293
20
-1.5876
11
1.97432
21
-1.58817
0
LINE
8
BLACK
6
CONTINUOUS
10
1.97432
20
-1.58817
11
1.9749
21
-1.58957
0
LINE
8
BLACK
6
CONTINUOUS
10
1.9749
20
-1.58957
11
1.9749
21
-2.16043
0
LINE
8
BLACK
6
CONTINUOUS
10
1.9749
20
-2.16043
11
1.97432
21
-2.16182
0
LINE
8
BLACK
6
CONTINUOUS
10
1.97432
20
-2.16182
11
1.97293
21
-2.1624
0
LINE
8
BLACK
6
CONTINUOUS
10
1.97293
20
-2.1624
11
1.40207
21
-2.1624
0
LINE
8
BLACK
6
CONTINUOUS
10
1.40207
20
-2.1624
11
1.40067
21
-2.16182
0
LINE
8
BLACK
6
CONTINUOUS
10
1.40404
20
-1.59154
11
1.40404
21
-2.15846
0
LINE
8
BLACK
6
CONTINUOUS
10
1.40404
20
-2.15846
11
1.97096
21
-2.15846
0
LINE
8
BLACK
6
CONTINUOUS
10
1.97096
20
-2.15846
11
1.97096
21
-1.59154
0
LINE
8
BLACK
6
CONTINUOUS
10
1.97096
20
-1.59154
11
1.40404
21
-1.59154
0
LINE
8
BLACK
6
CONTINUOUS
10
3.65068
20
-2.16182
11
3.6501
21
-2.16043
0
LINE
8
BLACK
6
CONTINUOUS
10
3.6501
20
-2.16043
11
3.6501
21
-1.58957
0
LINE
8
BLACK
6
CONTINUOUS
10
3.6501
20
-1.58957
11
3.65068
21
-1.58817
0
LINE
8
BLACK
6
CONTINUOUS
10
3.65068
20
-1.58817
11
3.65207
21
-1.5876
0
LINE
8
BLACK
6
CONTINUOUS
10
3.65207
20
-1.5876
11
4.22293
21
-1.5876
0
LINE
8
BLACK
6
CONTINUOUS
10
4.22293
20
-1.5876
11
4.22433
21
-1.58817
0
LINE
8
BLACK
6
CONTINUOUS
10
4.22433
20
-1.58817
11
4.2249
21
-1.58957
0
LINE
8
BLACK
6
CONTINUOUS
10
4.2249
20
-1.58957
11
4.2249
21
-2.16043
0
LINE
8
BLACK
6
CONTINUOUS
10
4.2249
20
-2.16043
11
4.22433
21
-2.16182
0
LINE
8
BLACK
6
CONTINUOUS
10
4.22433
20
-2.16182
11
4.22293
21
-2.1624
0
LINE
8
BLACK
6
CONTINUOUS
10
4.22293
20
-2.1624
11
3.65207
21
-2.1624
0
LINE
8
BLACK
6
CONTINUOUS
10
3.65207
20
-2.1624
11
3.65068
21
-2.16182
0
LINE
8
BLACK
6
CONTINUOUS
10
3.65404
20
-1.59154
11
3.65404
21
-2.15846
0
LINE
8
BLACK
6
CONTINUOUS
10
3.65404
20
-2.15846
11
4.22096
21
-2.15846
0
LINE
8
BLACK
6
CONTINUOUS
10
4.22096
20
-2.15846
11
4.22096
21
-1.59154
0
LINE
8
BLACK
6
CONTINUOUS
10
4.22096
20
-1.59154
11
3.65404
21
-1.59154
0
LINE
8
BLACK
6
CONTINUOUS
10
5.90067
20
-2.16182
11
5.9001
21
-2.16043
0
LINE
8
BLACK
6
CONTINUOUS
10
5.9001
20
-2.16043
11
5.9001
21
-1.58957
0
LINE
8
BLACK
6
CONTINUOUS
10
5.9001
20
-1.58957
11
5.90067
21
-1.58817
0
LINE
8
BLACK
6
CONTINUOUS
10
5.90067
20
-1.58817
11
5.90207
21
-1.5876
0
LINE
8
BLACK
6
CONTINUOUS
10
5.90207
20
-1.5876
11
6.47293
21
-1.5876
0
LINE
8
BLACK
6
CONTINUOUS
10
6.47293
20
-1.5876
11
6.47432
21
-1.58817
0
LINE
8
BLACK
6
CONTINUOUS
10
6.47432
20
-1.58817
11
6.4749
21
-1.58957
0
LINE
8
BLACK
6
CONTINUOUS
10
6.4749
20
-1.58957
11
6.4749
21
-2.16043
0
LINE
8
BLACK
6
CONTINUOUS
10
6.4749
20
-2.16043
11
6.47432
21
-2.16182
0
LINE
8
BLACK
6
CONTINUOUS
10
6.47432
20
-2.16182
11
6.47293
21
-2.1624
0
LINE
8
BLACK
6
CONTINUOUS
10
6.47293
20
-2.1624
11
5.90207
21
-2.1624
0
LINE
8
BLACK
6
CONTINUOUS
10
5.90207
20
-2.1624
11
5.90067
21
-2.16182
0
LINE
8
BLACK
6
CONTINUOUS
10
5.90404
20
-1.59154
11
5.90404
21
-2.15846
0
LINE
8
BLACK
6
CONTINUOUS
10
5.90404
20
-2.15846
11
6.47096
21
-2.15846
0
LINE
8
BLACK
6
CONTINUOUS
10
6.47096
20
-2.15846
11
6.47096
21
-1.59154
0
LINE
8
BLACK
6
CONTINUOUS
10
6.47096
20
-1.59154
11
5.90404
21
-1.59154
0
LINE
8
BLACK
6
CONTINUOUS
10
2.90068
20
-2.16182
11
2.9001
21
-2.16043
0
LINE
8
BLACK
6
CONTINUOUS
10
2.9001
20
-2.16043
11
2.9001
21
-1.58957
0
LINE
8
BLACK
6
CONTINUOUS
10
2.9001
20
-1.58957
11
2.90068
21
-1.58817
0
LINE
8
BLACK
6
CONTINUOUS
10
2.90068
20
-1.58817
11
2.90207
21
-1.5876
0
LINE
8
BLACK
6
CONTINUOUS
10
2.90207
20
-1.5876
11
3.47293
21
-1.5876
0
LINE
8
BLACK
6
CONTINUOUS
10
3.47293
20
-1.5876
11
3.47432
21
-1.58817
0
LINE
8
BLACK
6
CONTINUOUS
10
3.47432
20
-1.58817
11
3.4749
21
-1.58957
0
LINE
8
BLACK
6
CONTINUOUS
10
3.4749
20
-1.58957
11
3.4749
21
-2.16043
0
LINE
8
BLACK
6
CONTINUOUS
10
3.4749
20
-2.16043
11
3.47432
21
-2.16182
0
LINE
8
BLACK
6
CONTINUOUS
10
3.47432
20
-2.16182
11
3.47293
21
-2.1624
0
LINE
8
BLACK
6
CONTINUOUS
10
3.47293
20
-2.1624
11
2.90207
21
-2.1624
0
LINE
8
BLACK
6
CONTINUOUS
10
2.90207
20
-2.1624
11
2.90068
21
-2.16182
0
LINE
8
BLACK
6
CONTINUOUS
10
2.90404
20
-1.59154
11
2.90404
21
-2.15846
0
LINE
8
BLACK
6
CONTINUOUS
10
2.90404
20
-2.15846
11
3.47096
21
-2.15846
0
LINE
8
BLACK
6
CONTINUOUS
10
3.47096
20
-2.15846
11
3.47096
21
-1.59154
0
LINE
8
BLACK
6
CONTINUOUS
10
3.47096
20
-1.59154
11
2.90404
21
-1.59154
0
LINE
8
BLACK
6
CONTINUOUS
10
6.65067
20
-2.16182
11
6.6501
21
-2.16043
0
LINE
8
BLACK
6
CONTINUOUS
10
6.6501
20
-2.16043
11
6.6501
21
-1.58957
0
LINE
8
BLACK
6
CONTINUOUS
10
6.6501
20
-1.58957
11
6.65067
21
-1.58817
0
LINE
8
BLACK
6
CONTINUOUS
10
6.65067
20
-1.58817
11
6.65207
21
-1.5876
0
LINE
8
BLACK
6
CONTINUOUS
10
6.65207
20
-1.5876
11
7.22293
21
-1.5876
0
LINE
8
BLACK
6
CONTINUOUS
10
7.22293
20
-1.5876
11
7.22432
21
-1.58817
0
LINE
8
BLACK
6
CONTINUOUS
10
7.22432
20
-1.58817
11
7.2249
21
-1.58957
0
LINE
8
BLACK
6
CONTINUOUS
10
7.2249
20
-1.58957
11
7.2249
21
-2.16043
0
LINE
8
BLACK
6
CONTINUOUS
10
7.2249
20
-2.16043
11
7.22432
21
-2.16182
0
LINE
8
BLACK
6
CONTINUOUS
10
7.22432
20
-2.16182
11
7.22293
21
-2.1624
0
LINE
8
BLACK
6
CONTINUOUS
10
7.22293
20
-2.1624
11
6.65207
21
-2.1624
0
LINE
8
BLACK
6
CONTINUOUS
10
6.65207
20
-2.1624
11
6.65067
21
-2.16182
0
LINE
8
BLACK
6
CONTINUOUS
10
6.65404
20
-1.59154
11
6.65404
21
-2.15846
0
LINE
8
BLACK
6
CONTINUOUS
10
6.65404
20
-2.15846
11
7.22096
21
-2.15846
0
LINE
8
BLACK
6
CONTINUOUS
10
7.22096
20
-2.15846
11
7.22096
21
-1.59154
0
LINE
8
BLACK
6
CONTINUOUS
10
7.22096
20
-1.59154
11
6.65404
21
-1.59154
0
LINE
8
BLACK
6
CONTINUOUS
10
8.15067
20
-2.16182
11
8.1501
21
-2.16043
0
LINE
8
BLACK
6
CONTINUOUS
10
8.1501
20
-2.16043
11
8.1501
21
-1.58957
0
LINE
8
BLACK
6
CONTINUOUS
10
8.1501
20
-1.58957
11
8.15067
21
-1.58817
0
LINE
8
BLACK
6
CONTINUOUS
10
8.15067
20
-1.58817
11
8.15207
21
-1.5876
0
LINE
8
BLACK
6
CONTINUOUS
10
8.15207
20
-1.5876
11
8.72293
21
-1.5876
0
LINE
8
BLACK
6
CONTINUOUS
10
8.72293
20
-1.5876
11
8.72433
21
-1.58817
0
LINE
8
BLACK
6
CONTINUOUS
10
8.72433
20
-1.58817
11
8.7249
21
-1.58957
0
LINE
8
BLACK
6
CONTINUOUS
10
8.7249
20
-1.58957
11
8.7249
21
-2.16043
0
LINE
8
BLACK
6
CONTINUOUS
10
8.7249
20
-2.16043
11
8.72433
21
-2.16182
0
LINE
8
BLACK
6
CONTINUOUS
10
8.72433
20
-2.16182
11
8.72293
21
-2.1624
0
LINE
8
BLACK
6
CONTINUOUS
10
8.72293
20
-2.1624
11
8.15207
21
-2.1624
0
LINE
8
BLACK
6
CONTINUOUS
10
8.15207
20
-2.1624
11
8.15067
21
-2.16182
0
LINE
8
BLACK
6
CONTINUOUS
10
8.15404
20
-1.59154
11
8.15404
21
-2.15846
0
LINE
8
BLACK
6
CONTINUOUS
10
8.15404
20
-2.15846
11
8.72096
21
-2.15846
0
LINE
8
BLACK
6
CONTINUOUS
10
8.72096
20
-2.15846
11
8.72096
21
-1.59154
0
LINE
8
BLACK
6
CONTINUOUS
10
8.72096
20
-1.59154
11
8.15404
21
-1.59154
0
LINE
8
BLACK
6
CONTINUOUS
10
0.181925
20
-2.16182
11
0.181348
21
-2.16043
0
LINE
8
BLACK
6
CONTINUOUS
10
0.181348
20
-2.16043
11
0.181348
21
-1.58957
0
LINE
8
BLACK
6
CONTINUOUS
10
0.181348
20
-1.58957
11
0.181925
21
-1.58817
0
LINE
8
BLACK
6
CONTINUOUS
10
0.181925
20
-1.58817
11
0.183317
21
-1.5876
0
LINE
8
BLACK
6
CONTINUOUS
10
0.183317
20
-1.5876
11
0.941683
21
-1.5876
0
LINE
8
BLACK
6
CONTINUOUS
10
0.941683
20
-1.5876
11
0.943075
21
-1.58817
0
LINE
8
BLACK
6
CONTINUOUS
10
0.943075
20
-1.58817
11
0.943652
21
-1.58957
0
LINE
8
BLACK
6
CONTINUOUS
10
0.943652
20
-1.58957
11
0.943652
21
-2.16043
0
LINE
8
BLACK
6
CONTINUOUS
10
0.943652
20
-2.16043
11
0.943075
21
-2.16182
0
LINE
8
BLACK
6
CONTINUOUS
10
0.943075
20
-2.16182
11
0.941683
21
-2.1624
0
LINE
8
BLACK
6
CONTINUOUS
10
0.941683
20
-2.1624
11
0.183317
21
-2.1624
0
LINE
8
BLACK
6
CONTINUOUS
10
0.183317
20
-2.1624
11
0.181925
21
-2.16182
0
LINE
8
BLACK
6
CONTINUOUS
10
0.756152
20
-1.59154
11
0.756152
21
-2.15846
0
LINE
8
BLACK
6
CONTINUOUS
10
0.756152
20
-2.15846
11
0.939715
21
-2.15846
0
LINE
8
BLACK
6
CONTINUOUS
10
0.939715
20
-2.15846
11
0.939715
21
-1.59154
0
LINE
8
BLACK
6
CONTINUOUS
10
0.939715
20
-1.59154
11
0.756152
21
-1.59154
0
LINE
8
BLACK
6
CONTINUOUS
10
0.185285
20
-1.59154
11
0.185285
21
-2.15846
0
LINE
8
BLACK
6
CONTINUOUS
10
0.185285
20
-2.15846
11
0.368848
21
-2.15846
0
LINE
8
BLACK
6
CONTINUOUS
10
0.368848
20
-2.15846
11
0.368848
21
-1.59154
0
LINE
8
BLACK
6
CONTINUOUS
10
0.368848
20
-1.59154
11
0.185285
21
-1.59154
0
LINE
8
BLACK
6
CONTINUOUS
10
0.372785
20
-1.59154
11
0.372785
21
-2.15846
0
LINE
8
BLACK
6
CONTINUOUS
10
0.372785
20
-2.15846
11
0.752215
21
-2.15846
0
LINE
8
BLACK
6
CONTINUOUS
10
0.752215
20
-2.15846
11
0.752215
21
-1.59154
0
LINE
8
BLACK
6
CONTINUOUS
10
0.752215
20
-1.59154
11
0.372785
21
-1.59154
0
LINE
8
BLACK
6
CONTINUOUS
10
5.7249
20
-1.58957
11
5.7249
21
-2.16043
0
LINE
8
BLACK
6
CONTINUOUS
10
5.7249
20
-2.16043
11
5.72432
21
-2.16182
0
LINE
8
BLACK
6
CONTINUOUS
10
5.72432
20
-2.16182
11
5.72293
21
-2.1624
0
LINE
8
BLACK
6
CONTINUOUS
10
5.72293
20
-2.1624
11
5.15207
21
-2.1624
0
LINE
8
BLACK
6
CONTINUOUS
10
5.15207
20
-2.1624
11
5.15067
21
-2.16182
0
LINE
8
BLACK
6
CONTINUOUS
10
5.15067
20
-2.16182
11
5.1501
21
-2.16043
0
LINE
8
BLACK
6
CONTINUOUS
10
5.1501
20
-2.16043
11
5.1501
21
-1.91609
0
LINE
8
BLACK
6
CONTINUOUS
10
5.1501
20
-1.91609
11
5.14372
21
-1.92614
0
LINE
8
BLACK
6
CONTINUOUS
10
5.14372
20
-1.92614
11
5.13569
21
-1.93585
0
LINE
8
BLACK
6
CONTINUOUS
10
5.13569
20
-1.93585
11
5.1265
21
-1.94448
0
LINE
8
BLACK
6
CONTINUOUS
10
5.1265
20
-1.94448
11
5.1163
21
-1.95189
0
LINE
8
BLACK
6
CONTINUOUS
10
5.1163
20
-1.95189
11
5.10525
21
-1.95797
0
LINE
8
BLACK
6
CONTINUOUS
10
5.10525
20
-1.95797
11
5.09353
21
-1.96261
0
LINE
8
BLACK
6
CONTINUOUS
10
5.09353
20
-1.96261
11
5.08132
21
-1.96574
0
LINE
8
BLACK
6
CONTINUOUS
10
5.08132
20
-1.96574
11
5.06881
21
-1.96732
0
LINE
8
BLACK
6
CONTINUOUS
10
5.06881
20
-1.96732
11
5.0562
21
-1.96732
0
LINE
8
BLACK
6
CONTINUOUS
10
5.0562
20
-1.96732
11
5.04369
21
-1.96574
0
LINE
8
BLACK
6
CONTINUOUS
10
5.04369
20
-1.96574
11
5.03148
21
-1.96261
0
LINE
8
BLACK
6
CONTINUOUS
10
5.03148
20
-1.96261
11
5.01976
21
-1.95797
0
LINE
8
BLACK
6
CONTINUOUS
10
5.01976
20
-1.95797
11
5.00871
21
-1.95189
0
LINE
8
BLACK
6
CONTINUOUS
10
5.00871
20
-1.95189
11
4.99851
21
-1.94448
0
LINE
8
BLACK
6
CONTINUOUS
10
4.99851
20
-1.94448
11
4.98932
21
-1.93585
0
LINE
8
BLACK
6
CONTINUOUS
10
4.98932
20
-1.93585
11
4.98128
21
-1.92614
0
LINE
8
BLACK
6
CONTINUOUS
10
4.98128
20
-1.92614
11
4.9749
21
-1.91608
0
LINE
8
BLACK
6
CONTINUOUS
10
4.9749
20
-1.91608
11
4.9749
21
-2.16043
0
LINE
8
BLACK
6
CONTINUOUS
10
4.9749
20
-2.16043
11
4.97433
21
-2.16182
0
LINE
8
BLACK
6
CONTINUOUS
10
4.97433
20
-2.16182
11
4.97293
21
-2.1624
0
LINE
8
BLACK
6
CONTINUOUS
10
4.97293
20
-2.1624
11
4.40207
21
-2.1624
0
LINE
8
BLACK
6
CONTINUOUS
10
4.40207
20
-2.1624
11
4.40067
21
-2.16182
0
LINE
8
BLACK
6
CONTINUOUS
10
4.40067
20
-2.16182
11
4.4001
21
-2.16043
0
LINE
8
BLACK
6
CONTINUOUS
10
4.4001
20
-2.16043
11
4.4001
21
-1.58957
0
LINE
8
BLACK
6
CONTINUOUS
10
4.4001
20
-1.58957
11
4.40067
21
-1.58817
0
LINE
8
BLACK
6
CONTINUOUS
10
4.40067
20
-1.58817
11
4.40207
21
-1.5876
0
LINE
8
BLACK
6
CONTINUOUS
10
4.40207
20
-1.5876
11
4.97293
21
-1.5876
0
LINE
8
BLACK
6
CONTINUOUS
10
4.97293
20
-1.5876
11
4.97433
21
-1.58817
0
LINE
8
BLACK
6
CONTINUOUS
10
4.97433
20
-1.58817
11
4.9749
21
-1.58957
0
LINE
8
BLACK
6
CONTINUOUS
10
4.9749
20
-1.58957
11
4.9749
21
-1.81817
0
LINE
8
BLACK
6
CONTINUOUS
10
4.9749
20
-1.81817
11
4.98128
21
-1.80812
0
LINE
8
BLACK
6
CONTINUOUS
10
4.98128
20
-1.80812
11
4.98932
21
-1.7984
0
LINE
8
BLACK
6
CONTINUOUS
10
4.98932
20
-1.7984
11
4.99851
21
-1.78977
0
LINE
8
BLACK
6
CONTINUOUS
10
4.99851
20
-1.78977
11
5.00871
21
-1.78236
0
LINE
8
BLACK
6
CONTINUOUS
10
5.00871
20
-1.78236
11
5.01976
21
-1.77629
0
LINE
8
BLACK
6
CONTINUOUS
10
5.01976
20
-1.77629
11
5.03148
21
-1.77165
0
LINE
8
BLACK
6
CONTINUOUS
10
5.03148
20
-1.77165
11
5.04369
21
-1.76851
0
LINE
8
BLACK
6
CONTINUOUS
10
5.04369
20
-1.76851
11
5.0562
21
-1.76693
0
LINE
8
BLACK
6
CONTINUOUS
10
5.0562
20
-1.76693
11
5.06881
21
-1.76693
0
LINE
8
BLACK
6
CONTINUOUS
10
5.06881
20
-1.76693
11
5.08132
21
-1.76851
0
LINE
8
BLACK
6
CONTINUOUS
10
5.08132
20
-1.76851
11
5.09353
21
-1.77165
0
LINE
8
BLACK
6
CONTINUOUS
10
5.09353
20
-1.77165
11
5.10525
21
-1.77629
0
LINE
8
BLACK
6
CONTINUOUS
10
5.10525
20
-1.77629
11
5.1163
21
-1.78236
0
LINE
8
BLACK
6
CONTINUOUS
10
5.1163
20
-1.78236
11
5.1265
21
-1.78977
0
LINE
8
BLACK
6
CONTINUOUS
10
5.1265
20
-1.78977
11
5.13569
21
-1.7984
0
LINE
8
BLACK
6
CONTINUOUS
10
5.13569
20
-1.7984
11
5.14372
21
-1.80812
0
LINE
8
BLACK
6
CONTINUOUS
10
5.14372
20
-1.80812
11
5.1501
21
-1.81816
0
LINE
8
BLACK
6
CONTINUOUS
10
5.1501
20
-1.81816
11
5.1501
21
-1.58957
0
LINE
8
BLACK
6
CONTINUOUS
10
5.1501
20
-1.58957
11
5.15067
21
-1.58817
0
LINE
8
BLACK
6
CONTINUOUS
10
5.15067
20
-1.58817
11
5.15207
21
-1.5876
0
LINE
8
BLACK
6
CONTINUOUS
10
5.15207
20
-1.5876
11
5.72293
21
-1.5876
0
LINE
8
BLACK
6
CONTINUOUS
10
5.72293
20
-1.5876
11
5.72432
21
-1.58817
0
LINE
8
BLACK
6
CONTINUOUS
10
5.72432
20
-1.58817
11
5.7249
21
-1.58957
0
LINE
8
BLACK
6
CONTINUOUS
10
5.15404
20
-1.59154
11
5.15404
21
-1.82632
0
LINE
8
BLACK
6
CONTINUOUS
10
5.15404
20
-1.82632
11
5.15585
21
-1.83017
0
LINE
8
BLACK
6
CONTINUOUS
10
5.15585
20
-1.83017
11
5.15974
21
-1.84216
0
LINE
8
BLACK
6
CONTINUOUS
10
5.15974
20
-1.84216
11
5.16211
21
-1.85454
0
LINE
8
BLACK
6
CONTINUOUS
10
5.16211
20
-1.85454
11
5.1629
21
-1.86713
0
LINE
8
BLACK
6
CONTINUOUS
10
5.1629
20
-1.86713
11
5.16211
21
-1.87971
0
LINE
8
BLACK
6
CONTINUOUS
10
5.16211
20
-1.87971
11
5.15974
21
-1.89209
0
LINE
8
BLACK
6
CONTINUOUS
10
5.15974
20
-1.89209
11
5.15585
21
-1.90408
0
LINE
8
BLACK
6
CONTINUOUS
10
5.15585
20
-1.90408
11
5.15404
21
-1.90794
0
LINE
8
BLACK
6
CONTINUOUS
10
5.15404
20
-1.90794
11
5.15404
21
-2.15846
0
LINE
8
BLACK
6
CONTINUOUS
10
5.15404
20
-2.15846
11
5.72096
21
-2.15846
0
LINE
8
BLACK
6
CONTINUOUS
10
5.72096
20
-2.15846
11
5.72096
21
-1.59154
0
LINE
8
BLACK
6
CONTINUOUS
10
5.72096
20
-1.59154
11
5.15404
21
-1.59154
0
LINE
8
BLACK
6
CONTINUOUS
10
4.97096
20
-1.88117
11
4.97096
21
-1.85309
0
LINE
8
BLACK
6
CONTINUOUS
10
4.97096
20
-1.85309
11
4.97058
21
-1.85503
0
LINE
8
BLACK
6
CONTINUOUS
10
4.97058
20
-1.85503
11
4.96979
21
-1.86713
0
LINE
8
BLACK
6
CONTINUOUS
10
4.96979
20
-1.86713
11
4.97058
21
-1.87923
0
LINE
8
BLACK
6
CONTINUOUS
10
4.97058
20
-1.87923
11
4.97096
21
-1.88117
0
LINE
8
BLACK
6
CONTINUOUS
10
5.0504
20
-1.7752
11
5.03851
21
-1.77757
0
LINE
8
BLACK
6
CONTINUOUS
10
5.03851
20
-1.77757
11
5.02702
21
-1.78147
0
LINE
8
BLACK
6
CONTINUOUS
10
5.02702
20
-1.78147
11
5.01615
21
-1.78683
0
LINE
8
BLACK
6
CONTINUOUS
10
5.01615
20
-1.78683
11
5.00606
21
-1.79357
0
LINE
8
BLACK
6
CONTINUOUS
10
5.00606
20
-1.79357
11
4.99694
21
-1.80157
0
LINE
8
BLACK
6
CONTINUOUS
10
4.99694
20
-1.80157
11
4.98895
21
-1.81068
0
LINE
8
BLACK
6
CONTINUOUS
10
4.98895
20
-1.81068
11
4.98221
21
-1.82077
0
LINE
8
BLACK
6
CONTINUOUS
10
4.98221
20
-1.82077
11
4.97684
21
-1.83165
0
LINE
8
BLACK
6
CONTINUOUS
10
4.97684
20
-1.83165
11
4.9749
21
-1.83737
0
LINE
8
BLACK
6
CONTINUOUS
10
4.9749
20
-1.83737
11
4.9749
21
-1.89689
0
LINE
8
BLACK
6
CONTINUOUS
10
4.9749
20
-1.89689
11
4.97684
21
-1.90261
0
LINE
8
BLACK
6
CONTINUOUS
10
4.97684
20
-1.90261
11
4.98221
21
-1.91349
0
LINE
8
BLACK
6
CONTINUOUS
10
4.98221
20
-1.91349
11
4.98895
21
-1.92357
0
LINE
8
BLACK
6
CONTINUOUS
10
4.98895
20
-1.92357
11
4.99694
21
-1.93269
0
LINE
8
BLACK
6
CONTINUOUS
10
4.99694
20
-1.93269
11
5.00606
21
-1.94069
0
LINE
8
BLACK
6
CONTINUOUS
10
5.00606
20
-1.94069
11
5.01615
21
-1.94742
0
LINE
8
BLACK
6
CONTINUOUS
10
5.01615
20
-1.94742
11
5.02702
21
-1.95279
0
LINE
8
BLACK
6
CONTINUOUS
10
5.02702
20
-1.95279
11
5.03851
21
-1.95669
0
LINE
8
BLACK
6
CONTINUOUS
10
5.03851
20
-1.95669
11
5.0504
21
-1.95905
0
LINE
8
BLACK
6
CONTINUOUS
10
5.0504
20
-1.95905
11
5.0625
21
-1.95985
0
LINE
8
BLACK
6
CONTINUOUS
10
5.0625
20
-1.95985
11
5.07461
21
-1.95905
0
LINE
8
BLACK
6
CONTINUOUS
10
5.07461
20
-1.95905
11
5.0865
21
-1.95669
0
LINE
8
BLACK
6
CONTINUOUS
10
5.0865
20
-1.95669
11
5.09799
21
-1.95279
0
LINE
8
BLACK
6
CONTINUOUS
10
5.09799
20
-1.95279
11
5.10886
21
-1.94742
0
LINE
8
BLACK
6
CONTINUOUS
10
5.10886
20
-1.94742
11
5.11895
21
-1.94069
0
LINE
8
BLACK
6
CONTINUOUS
10
5.11895
20
-1.94069
11
5.12807
21
-1.93269
0
LINE
8
BLACK
6
CONTINUOUS
10
5.12807
20
-1.93269
11
5.13606
21
-1.92357
0
LINE
8
BLACK
6
CONTINUOUS
10
5.13606
20
-1.92357
11
5.1428
21
-1.91349
0
LINE
8
BLACK
6
CONTINUOUS
10
5.1428
20
-1.91349
11
5.14816
21
-1.90261
0
LINE
8
BLACK
6
CONTINUOUS
10
5.14816
20
-1.90261
11
5.1501
21
-1.89691
0
LINE
8
BLACK
6
CONTINUOUS
10
5.1501
20
-1.89691
11
5.1501
21
-1.83734
0
LINE
8
BLACK
6
CONTINUOUS
10
5.1501
20
-1.83734
11
5.14816
21
-1.83165
0
LINE
8
BLACK
6
CONTINUOUS
10
5.14816
20
-1.83165
11
5.1428
21
-1.82077
0
LINE
8
BLACK
6
CONTINUOUS
10
5.1428
20
-1.82077
11
5.13606
21
-1.81068
0
LINE
8
BLACK
6
CONTINUOUS
10
5.13606
20
-1.81068
11
5.12807
21
-1.80157
0
LINE
8
BLACK
6
CONTINUOUS
10
5.12807
20
-1.80157
11
5.11895
21
-1.79357
0
LINE
8
BLACK
6
CONTINUOUS
10
5.11895
20
-1.79357
11
5.10886
21
-1.78683
0
LINE
8
BLACK
6
CONTINUOUS
10
5.10886
20
-1.78683
11
5.09799
21
-1.78147
0
LINE
8
BLACK
6
CONTINUOUS
10
5.09799
20
-1.78147
11
5.0865
21
-1.77757
0
LINE
8
BLACK
6
CONTINUOUS
10
5.0865
20
-1.77757
11
5.07461
21
-1.7752
0
LINE
8
BLACK
6
CONTINUOUS
10
5.07461
20
-1.7752
11
5.0625
21
-1.77441
0
LINE
8
BLACK
6
CONTINUOUS
10
5.0625
20
-1.77441
11
5.0504
21
-1.7752
0
LINE
8
BLACK
6
CONTINUOUS
10
5.15404
20
-1.88121
11
5.15443
21
-1.87923
0
LINE
8
BLACK
6
CONTINUOUS
10
5.15443
20
-1.87923
11
5.15522
21
-1.86713
0
LINE
8
BLACK
6
CONTINUOUS
10
5.15522
20
-1.86713
11
5.15443
21
-1.85503
0
LINE
8
BLACK
6
CONTINUOUS
10
5.15443
20
-1.85503
11
5.15404
21
-1.85305
0
LINE
8
BLACK
6
CONTINUOUS
10
5.15404
20
-1.85305
11
5.15404
21
-1.88121
0
LINE
8
BLACK
6
CONTINUOUS
10
4.96526
20
-1.84216
11
4.96916
21
-1.83017
0
LINE
8
BLACK
6
CONTINUOUS
10
4.96916
20
-1.83017
11
4.97096
21
-1.82634
0
LINE
8
BLACK
6
CONTINUOUS
10
4.97096
20
-1.82634
11
4.97096
21
-1.59154
0
LINE
8
BLACK
6
CONTINUOUS
10
4.97096
20
-1.59154
11
4.40404
21
-1.59154
0
LINE
8
BLACK
6
CONTINUOUS
10
4.40404
20
-1.59154
11
4.40404
21
-2.15846
0
LINE
8
BLACK
6
CONTINUOUS
10
4.40404
20
-2.15846
11
4.97096
21
-2.15846
0
LINE
8
BLACK
6
CONTINUOUS
10
4.97096
20
-2.15846
11
4.97096
21
-1.90792
0
LINE
8
BLACK
6
CONTINUOUS
10
4.97096
20
-1.90792
11
4.96916
21
-1.90408
0
LINE
8
BLACK
6
CONTINUOUS
10
4.96916
20
-1.90408
11
4.96526
21
-1.89209
0
LINE
8
BLACK
6
CONTINUOUS
10
4.96526
20
-1.89209
11
4.9629
21
-1.87971
0
LINE
8
BLACK
6
CONTINUOUS
10
4.9629
20
-1.87971
11
4.96211
21
-1.86713
0
LINE
8
BLACK
6
CONTINUOUS
10
4.96211
20
-1.86713
11
4.9629
21
-1.85454
0
LINE
8
BLACK
6
CONTINUOUS
10
4.9629
20
-1.85454
11
4.96526
21
-1.84216
0
LINE
8
BLACK
6
CONTINUOUS
10
8.90067
20
-2.16182
11
8.9001
21
-2.16043
0
LINE
8
BLACK
6
CONTINUOUS
10
8.9001
20
-2.16043
11
8.9001
21
-1.58957
0
LINE
8
BLACK
6
CONTINUOUS
10
8.9001
20
-1.58957
11
8.90067
21
-1.58817
0
LINE
8
BLACK
6
CONTINUOUS
10
8.90067
20
-1.58817
11
8.90207
21
-1.5876
0
LINE
8
BLACK
6
CONTINUOUS
10
8.90207
20
-1.5876
11
9.47293
21
-1.5876
0
LINE
8
BLACK
6
CONTINUOUS
10
9.47293
20
-1.5876
11
9.47433
21
-1.58817
0
LINE
8
BLACK
6
CONTINUOUS
10
9.47433
20
-1.58817
11
9.4749
21
-1.58957
0
LINE
8
BLACK
6
CONTINUOUS
10
9.4749
20
-1.58957
11
9.4749
21
-2.16043
0
LINE
8
BLACK
6
CONTINUOUS
10
9.4749
20
-2.16043
11
9.47433
21
-2.16182
0
LINE
8
BLACK
6
CONTINUOUS
10
9.47433
20
-2.16182
11
9.47293
21
-2.1624
0
LINE
8
BLACK
6
CONTINUOUS
10
9.47293
20
-2.1624
11
8.90207
21
-2.1624
0
LINE
8
BLACK
6
CONTINUOUS
10
8.90207
20
-2.1624
11
8.90067
21
-2.16182
0
LINE
8
BLACK
6
CONTINUOUS
10
8.90404
20
-1.59154
11
8.90404
21
-2.15846
0
LINE
8
BLACK
6
CONTINUOUS
10
8.90404
20
-2.15846
11
9.47096
21
-2.15846
0
LINE
8
BLACK
6
CONTINUOUS
10
9.47096
20
-2.15846
11
9.47096
21
-1.59154
0
LINE
8
BLACK
6
CONTINUOUS
10
9.47096
20
-1.59154
11
8.90404
21
-1.59154
0
LINE
8
BLACK
6
CONTINUOUS
10
7.40067
20
-2.16182
11
7.4001
21
-2.16043
0
LINE
8
BLACK
6
CONTINUOUS
10
7.4001
20
-2.16043
11
7.4001
21
-1.58957
0
LINE
8
BLACK
6
CONTINUOUS
10
7.4001
20
-1.58957
11
7.40067
21
-1.58817
0
LINE
8
BLACK
6
CONTINUOUS
10
7.40067
20
-1.58817
11
7.40207
21
-1.5876
0
LINE
8
BLACK
6
CONTINUOUS
10
7.40207
20
-1.5876
11
7.97293
21
-1.5876
0
LINE
8
BLACK
6
CONTINUOUS
10
7.97293
20
-1.5876
11
7.97432
21
-1.58817
0
LINE
8
BLACK
6
CONTINUOUS
10
7.97432
20
-1.58817
11
7.9749
21
-1.58957
0
LINE
8
BLACK
6
CONTINUOUS
10
7.9749
20
-1.58957
11
7.9749
21
-2.16043
0
LINE
8
BLACK
6
CONTINUOUS
10
7.9749
20
-2.16043
11
7.97432
21
-2.16182
0
LINE
8
BLACK
6
CONTINUOUS
10
7.97432
20
-2.16182
11
7.97293
21
-2.1624
0
LINE
8
BLACK
6
CONTINUOUS
10
7.97293
20
-2.1624
11
7.40207
21
-2.1624
0
LINE
8
BLACK
6
CONTINUOUS
10
7.40207
20
-2.1624
11
7.40067
21
-2.16182
0
LINE
8
BLACK
6
CONTINUOUS
10
7.40404
20
-1.59154
11
7.40404
21
-2.15846
0
LINE
8
BLACK
6
CONTINUOUS
10
7.40404
20
-2.15846
11
7.97096
21
-2.15846
0
LINE
8
BLACK
6
CONTINUOUS
10
7.97096
20
-2.15846
11
7.97096
21
-1.59154
0
LINE
8
BLACK
6
CONTINUOUS
10
7.97096
20
-1.59154
11
7.40404
21
-1.59154
0
LINE
8
BLACK
6
CONTINUOUS
10
2.15068
20
-2.16182
11
2.1501
21
-2.16043
0
LINE
8
BLACK
6
CONTINUOUS
10
2.1501
20
-2.16043
11
2.1501
21
-1.58957
0
LINE
8
BLACK
6
CONTINUOUS
10
2.1501
20
-1.58957
11
2.15068
21
-1.58817
0
LINE
8
BLACK
6
CONTINUOUS
10
2.15068
20
-1.58817
11
2.15207
21
-1.5876
0
LINE
8
BLACK
6
CONTINUOUS
10
2.15207
20
-1.5876
11
2.72293
21
-1.5876
0
LINE
8
BLACK
6
CONTINUOUS
10
2.72293
20
-1.5876
11
2.72432
21
-1.58817
0
LINE
8
BLACK
6
CONTINUOUS
10
2.72432
20
-1.58817
11
2.7249
21
-1.58957
0
LINE
8
BLACK
6
CONTINUOUS
10
2.7249
20
-1.58957
11
2.7249
21
-2.16043
0
LINE
8
BLACK
6
CONTINUOUS
10
2.7249
20
-2.16043
11
2.72432
21
-2.16182
0
LINE
8
BLACK
6
CONTINUOUS
10
2.72432
20
-2.16182
11
2.72293
21
-2.1624
0
LINE
8
BLACK
6
CONTINUOUS
10
2.72293
20
-2.1624
11
2.15207
21
-2.1624
0
LINE
8
BLACK
6
CONTINUOUS
10
2.15207
20
-2.1624
11
2.15068
21
-2.16182
0
LINE
8
BLACK
6
CONTINUOUS
10
2.15404
20
-1.59154
11
2.15404
21
-2.15846
0
LINE
8
BLACK
6
CONTINUOUS
10
2.15404
20
-2.15846
11
2.72096
21
-2.15846
0
LINE
8
BLACK
6
CONTINUOUS
10
2.72096
20
-2.15846
11
2.72096
21
-1.59154
0
LINE
8
BLACK
6
CONTINUOUS
10
2.72096
20
-1.59154
11
2.15404
21
-1.59154
0
LINE
8
BLACK
6
CONTINUOUS
10
11.0691
20
-1.16535
11
11.0691
21
-1.83465
0
LINE
8
BLACK
6
CONTINUOUS
10
11.0691
20
-1.83465
11
11.0684
21
-1.83632
0
LINE
8
BLACK
6
CONTINUOUS
10
11.0684
20
-1.83632
11
11.0667
21
-1.83701
0
LINE
8
BLACK
6
CONTINUOUS
10
11.0667
20
-1.83701
11
11.0257
21
-1.83701
0
LINE
8
BLACK
6
CONTINUOUS
10
11.0257
20
-1.83701
11
11.0257
21
-2.11024
0
LINE
8
BLACK
6
CONTINUOUS
10
11.0257
20
-2.11024
11
11.0251
21
-2.11191
0
LINE
8
BLACK
6
CONTINUOUS
10
11.0251
20
-2.11191
11
11.0234
21
-2.1126
0
LINE
8
BLACK
6
CONTINUOUS
10
11.0234
20
-2.1126
11
10.3935
21
-2.1126
0
LINE
8
BLACK
6
CONTINUOUS
10
10.3935
20
-2.1126
11
10.3918
21
-2.11191
0
LINE
8
BLACK
6
CONTINUOUS
10
10.3918
20
-2.11191
11
10.3911
21
-2.11024
0
LINE
8
BLACK
6
CONTINUOUS
10
10.3911
20
-2.11024
11
10.3911
21
-0.889764
0
LINE
8
BLACK
6
CONTINUOUS
10
10.3911
20
-0.889764
11
10.3918
21
-0.888093
0
LINE
8
BLACK
6
CONTINUOUS
10
10.3918
20
-0.888093
11
10.3935
21
-0.887402
0
LINE
8
BLACK
6
CONTINUOUS
10
10.3935
20
-0.887402
11
11.0234
21
-0.887402
0
LINE
8
BLACK
6
CONTINUOUS
10
11.0234
20
-0.887402
11
11.0251
21
-0.888093
0
LINE
8
BLACK
6
CONTINUOUS
10
11.0251
20
-0.888093
11
11.0257
21
-0.889764
0
LINE
8
BLACK
6
CONTINUOUS
10
11.0257
20
-0.889764
11
11.0257
21
-1.16299
0
LINE
8
BLACK
6
CONTINUOUS
10
11.0257
20
-1.16299
11
11.0667
21
-1.16299
0
LINE
8
BLACK
6
CONTINUOUS
10
11.0667
20
-1.16299
11
11.0684
21
-1.16368
0
LINE
8
BLACK
6
CONTINUOUS
10
11.0684
20
-1.16368
11
11.0691
21
-1.16535
0
LINE
8
BLACK
6
CONTINUOUS
10
11.021
20
-2.10787
11
11.021
21
-1.83465
0
LINE
8
BLACK
6
CONTINUOUS
10
11.021
20
-1.83465
11
11.0217
21
-1.83298
0
LINE
8
BLACK
6
CONTINUOUS
10
11.0217
20
-1.83298
11
11.0234
21
-1.83228
0
LINE
8
BLACK
6
CONTINUOUS
10
11.0234
20
-1.83228
11
11.0643
21
-1.83228
0
LINE
8
BLACK
6
CONTINUOUS
10
11.0643
20
-1.83228
11
11.0643
21
-1.16772
0
LINE
8
BLACK
6
CONTINUOUS
10
11.0643
20
-1.16772
11
11.0234
21
-1.16772
0
LINE
8
BLACK
6
CONTINUOUS
10
11.0234
20
-1.16772
11
11.0217
21
-1.16702
0
LINE
8
BLACK
6
CONTINUOUS
10
11.0217
20
-1.16702
11
11.021
21
-1.16535
0
LINE
8
BLACK
6
CONTINUOUS
10
11.021
20
-1.16535
11
11.021
21
-0.892126
0
LINE
8
BLACK
6
CONTINUOUS
10
11.021
20
-0.892126
11
10.3958
21
-0.892126
0
LINE
8
BLACK
6
CONTINUOUS
10
10.3958
20
-0.892126
11
10.3958
21
-2.10787
0
LINE
8
BLACK
6
CONTINUOUS
10
10.3958
20
-2.10787
11
11.021
21
-2.10787
0
LINE
8
BLACK
6
CONTINUOUS
10
2.71318
20
-1.41182
11
2.7126
21
-1.41043
0
LINE
8
BLACK
6
CONTINUOUS
10
2.7126
20
-1.41043
11
2.7126
21
-0.839567
0
LINE
8
BLACK
6
CONTINUOUS
10
2.7126
20
-0.839567
11
2.71318
21
-0.838175
0
LINE
8
BLACK
6
CONTINUOUS
10
2.71318
20
-0.838175
11
2.71457
21
-0.837598
0
LINE
8
BLACK
6
CONTINUOUS
10
2.71457
20
-0.837598
11
3.28543
21
-0.837598
0
LINE
8
BLACK
6
CONTINUOUS
10
3.28543
20
-0.837598
11
3.28682
21
-0.838175
0
LINE
8
BLACK
6
CONTINUOUS
10
3.28682
20
-0.838175
11
3.2874
21
-0.839567
0
LINE
8
BLACK
6
CONTINUOUS
10
3.2874
20
-0.839567
11
3.2874
21
-1.41043
0
LINE
8
BLACK
6
CONTINUOUS
10
3.2874
20
-1.41043
11
3.28682
21
-1.41182
0
LINE
8
BLACK
6
CONTINUOUS
10
3.28682
20
-1.41182
11
3.28543
21
-1.4124
0
LINE
8
BLACK
6
CONTINUOUS
10
3.28543
20
-1.4124
11
2.71457
21
-1.4124
0
LINE
8
BLACK
6
CONTINUOUS
10
2.71457
20
-1.4124
11
2.71318
21
-1.41182
0
LINE
8
BLACK
6
CONTINUOUS
10
2.71654
20
-0.841535
11
2.71654
21
-1.40846
0
LINE
8
BLACK
6
CONTINUOUS
10
2.71654
20
-1.40846
11
3.28346
21
-1.40846
0
LINE
8
BLACK
6
CONTINUOUS
10
3.28346
20
-1.40846
11
3.28346
21
-0.841535
0
LINE
8
BLACK
6
CONTINUOUS
10
3.28346
20
-0.841535
11
2.71654
21
-0.841535
0
LINE
8
BLACK
6
CONTINUOUS
10
0.275675
20
-1.41182
11
0.275098
21
-1.41043
0
LINE
8
BLACK
6
CONTINUOUS
10
0.275098
20
-1.41043
11
0.275098
21
-0.839567
0
LINE
8
BLACK
6
CONTINUOUS
10
0.275098
20
-0.839567
11
0.275675
21
-0.838175
0
LINE
8
BLACK
6
CONTINUOUS
10
0.275675
20
-0.838175
11
0.277067
21
-0.837598
0
LINE
8
BLACK
6
CONTINUOUS
10
0.277067
20
-0.837598
11
0.847933
21
-0.837598
0
LINE
8
BLACK
6
CONTINUOUS
10
0.847933
20
-0.837598
11
0.849325
21
-0.838175
0
LINE
8
BLACK
6
CONTINUOUS
10
0.849325
20
-0.838175
11
0.849902
21
-0.839567
0
LINE
8
BLACK
6
CONTINUOUS
10
0.849902
20
-0.839567
11
0.849902
21
-1.41043
0
LINE
8
BLACK
6
CONTINUOUS
10
0.849902
20
-1.41043
11
0.849325
21
-1.41182
0
LINE
8
BLACK
6
CONTINUOUS
10
0.849325
20
-1.41182
11
0.847933
21
-1.4124
0
LINE
8
BLACK
6
CONTINUOUS
10
0.847933
20
-1.4124
11
0.277067
21
-1.4124
0
LINE
8
BLACK
6
CONTINUOUS
10
0.277067
20
-1.4124
11
0.275675
21
-1.41182
0
LINE
8
BLACK
6
CONTINUOUS
10
0.279035
20
-0.841535
11
0.279035
21
-1.40846
0
LINE
8
BLACK
6
CONTINUOUS
10
0.279035
20
-1.40846
11
0.845965
21
-1.40846
0
LINE
8
BLACK
6
CONTINUOUS
10
0.845965
20
-1.40846
11
0.845965
21
-0.841535
0
LINE
8
BLACK
6
CONTINUOUS
10
0.845965
20
-0.841535
11
0.279035
21
-0.841535
0
LINE
8
BLACK
6
CONTINUOUS
10
9.46317
20
-1.41182
11
9.4626
21
-1.41043
0
LINE
8
BLACK
6
CONTINUOUS
10
9.4626
20
-1.41043
11
9.4626
21
-0.839567
0
LINE
8
BLACK
6
CONTINUOUS
10
9.4626
20
-0.839567
11
9.46317
21
-0.838175
0
LINE
8
BLACK
6
CONTINUOUS
10
9.46317
20
-0.838175
11
9.46457
21
-0.837598
0
LINE
8
BLACK
6
CONTINUOUS
10
9.46457
20
-0.837598
11
10.0354
21
-0.837598
0
LINE
8
BLACK
6
CONTINUOUS
10
10.0354
20
-0.837598
11
10.0368
21
-0.838175
0
LINE
8
BLACK
6
CONTINUOUS
10
10.0368
20
-0.838175
11
10.0374
21
-0.839567
0
LINE
8
BLACK
6
CONTINUOUS
10
10.0374
20
-0.839567
11
10.0374
21
-1.41043
0
LINE
8
BLACK
6
CONTINUOUS
10
10.0374
20
-1.41043
11
10.0368
21
-1.41182
0
LINE
8
BLACK
6
CONTINUOUS
10
10.0368
20
-1.41182
11
10.0354
21
-1.4124
0
LINE
8
BLACK
6
CONTINUOUS
10
10.0354
20
-1.4124
11
9.46457
21
-1.4124
0
LINE
8
BLACK
6
CONTINUOUS
10
9.46457
20
-1.4124
11
9.46317
21
-1.41182
0
LINE
8
BLACK
6
CONTINUOUS
10
9.46654
20
-0.841535
11
9.46654
21
-1.40846
0
LINE
8
BLACK
6
CONTINUOUS
10
9.46654
20
-1.40846
11
10.0335
21
-1.40846
0
LINE
8
BLACK
6
CONTINUOUS
10
10.0335
20
-1.40846
11
10.0335
21
-0.841535
0
LINE
8
BLACK
6
CONTINUOUS
10
10.0335
20
-0.841535
11
9.46654
21
-0.841535
0
LINE
8
BLACK
6
CONTINUOUS
10
4.21317
20
-1.41182
11
4.2126
21
-1.41043
0
LINE
8
BLACK
6
CONTINUOUS
10
4.2126
20
-1.41043
11
4.2126
21
-0.839567
0
LINE
8
BLACK
6
CONTINUOUS
10
4.2126
20
-0.839567
11
4.21317
21
-0.838175
0
LINE
8
BLACK
6
CONTINUOUS
10
4.21317
20
-0.838175
11
4.21457
21
-0.837598
0
LINE
8
BLACK
6
CONTINUOUS
10
4.21457
20
-0.837598
11
4.78543
21
-0.837598
0
LINE
8
BLACK
6
CONTINUOUS
10
4.78543
20
-0.837598
11
4.78683
21
-0.838175
0
LINE
8
BLACK
6
CONTINUOUS
10
4.78683
20
-0.838175
11
4.7874
21
-0.839567
0
LINE
8
BLACK
6
CONTINUOUS
10
4.7874
20
-0.839567
11
4.7874
21
-1.41043
0
LINE
8
BLACK
6
CONTINUOUS
10
4.7874
20
-1.41043
11
4.78683
21
-1.41182
0
LINE
8
BLACK
6
CONTINUOUS
10
4.78683
20
-1.41182
11
4.78543
21
-1.4124
0
LINE
8
BLACK
6
CONTINUOUS
10
4.78543
20
-1.4124
11
4.21457
21
-1.4124
0
LINE
8
BLACK
6
CONTINUOUS
10
4.21457
20
-1.4124
11
4.21317
21
-1.41182
0
LINE
8
BLACK
6
CONTINUOUS
10
4.21654
20
-0.841535
11
4.21654
21
-1.40846
0
LINE
8
BLACK
6
CONTINUOUS
10
4.21654
20
-1.40846
11
4.78346
21
-1.40846
0
LINE
8
BLACK
6
CONTINUOUS
10
4.78346
20
-1.40846
11
4.78346
21
-0.841535
0
LINE
8
BLACK
6
CONTINUOUS
10
4.78346
20
-0.841535
11
4.21654
21
-0.841535
0
LINE
8
BLACK
6
CONTINUOUS
10
1.96317
20
-1.41182
11
1.9626
21
-1.41043
0
LINE
8
BLACK
6
CONTINUOUS
10
1.9626
20
-1.41043
11
1.9626
21
-0.839567
0
LINE
8
BLACK
6
CONTINUOUS
10
1.9626
20
-0.839567
11
1.96317
21
-0.838175
0
LINE
8
BLACK
6
CONTINUOUS
10
1.96317
20
-0.838175
11
1.96457
21
-0.837598
0
LINE
8
BLACK
6
CONTINUOUS
10
1.96457
20
-0.837598
11
2.53543
21
-0.837598
0
LINE
8
BLACK
6
CONTINUOUS
10
2.53543
20
-0.837598
11
2.53682
21
-0.838175
0
LINE
8
BLACK
6
CONTINUOUS
10
2.53682
20
-0.838175
11
2.5374
21
-0.839567
0
LINE
8
BLACK
6
CONTINUOUS
10
2.5374
20
-0.839567
11
2.5374
21
-1.41043
0
LINE
8
BLACK
6
CONTINUOUS
10
2.5374
20
-1.41043
11
2.53682
21
-1.41182
0
LINE
8
BLACK
6
CONTINUOUS
10
2.53682
20
-1.41182
11
2.53543
21
-1.4124
0
LINE
8
BLACK
6
CONTINUOUS
10
2.53543
20
-1.4124
11
1.96457
21
-1.4124
0
LINE
8
BLACK
6
CONTINUOUS
10
1.96457
20
-1.4124
11
1.96317
21
-1.41182
0
LINE
8
BLACK
6
CONTINUOUS
10
1.96654
20
-0.841535
11
1.96654
21
-1.40846
0
LINE
8
BLACK
6
CONTINUOUS
10
1.96654
20
-1.40846
11
2.53346
21
-1.40846
0
LINE
8
BLACK
6
CONTINUOUS
10
2.53346
20
-1.40846
11
2.53346
21
-0.841535
0
LINE
8
BLACK
6
CONTINUOUS
10
2.53346
20
-0.841535
11
1.96654
21
-0.841535
0
LINE
8
BLACK
6
CONTINUOUS
10
7.96317
20
-1.41182
11
7.9626
21
-1.41043
0
LINE
8
BLACK
6
CONTINUOUS
10
7.9626
20
-1.41043
11
7.9626
21
-0.839567
0
LINE
8
BLACK
6
CONTINUOUS
10
7.9626
20
-0.839567
11
7.96317
21
-0.838175
0
LINE
8
BLACK
6
CONTINUOUS
10
7.96317
20
-0.838175
11
7.96457
21
-0.837598
0
LINE
8
BLACK
6
CONTINUOUS
10
7.96457
20
-0.837598
11
8.53543
21
-0.837598
0
LINE
8
BLACK
6
CONTINUOUS
10
8.53543
20
-0.837598
11
8.53683
21
-0.838175
0
LINE
8
BLACK
6
CONTINUOUS
10
8.53683
20
-0.838175
11
8.5374
21
-0.839567
0
LINE
8
BLACK
6
CONTINUOUS
10
8.5374
20
-0.839567
11
8.5374
21
-1.41043
0
LINE
8
BLACK
6
CONTINUOUS
10
8.5374
20
-1.41043
11
8.53683
21
-1.41182
0
LINE
8
BLACK
6
CONTINUOUS
10
8.53683
20
-1.41182
11
8.53543
21
-1.4124
0
LINE
8
BLACK
6
CONTINUOUS
10
8.53543
20
-1.4124
11
7.96457
21
-1.4124
0
LINE
8
BLACK
6
CONTINUOUS
10
7.96457
20
-1.4124
11
7.96317
21
-1.41182
0
LINE
8
BLACK
6
CONTINUOUS
10
7.96654
20
-0.841535
11
7.96654
21
-1.40846
0
LINE
8
BLACK
6
CONTINUOUS
10
7.96654
20
-1.40846
11
8.53346
21
-1.40846
0
LINE
8
BLACK
6
CONTINUOUS
10
8.53346
20
-1.40846
11
8.53346
21
-0.841535
0
LINE
8
BLACK
6
CONTINUOUS
10
8.53346
20
-0.841535
11
7.96654
21
-0.841535
0
LINE
8
BLACK
6
CONTINUOUS
10
3.46318
20
-1.41182
11
3.4626
21
-1.41043
0
LINE
8
BLACK
6
CONTINUOUS
10
3.4626
20
-1.41043
11
3.4626
21
-0.839567
0
LINE
8
BLACK
6
CONTINUOUS
10
3.4626
20
-0.839567
11
3.46318
21
-0.838175
0
LINE
8
BLACK
6
CONTINUOUS
10
3.46318
20
-0.838175
11
3.46457
21
-0.837598
0
LINE
8
BLACK
6
CONTINUOUS
10
3.46457
20
-0.837598
11
4.03543
21
-0.837598
0
LINE
8
BLACK
6
CONTINUOUS
10
4.03543
20
-0.837598
11
4.03683
21
-0.838175
0
LINE
8
BLACK
6
CONTINUOUS
10
4.03683
20
-0.838175
11
4.0374
21
-0.839567
0
LINE
8
BLACK
6
CONTINUOUS
10
4.0374
20
-0.839567
11
4.0374
21
-1.41043
0
LINE
8
BLACK
6
CONTINUOUS
10
4.0374
20
-1.41043
11
4.03683
21
-1.41182
0
LINE
8
BLACK
6
CONTINUOUS
10
4.03683
20
-1.41182
11
4.03543
21
-1.4124
0
LINE
8
BLACK
6
CONTINUOUS
10
4.03543
20
-1.4124
11
3.46457
21
-1.4124
0
LINE
8
BLACK
6
CONTINUOUS
10
3.46457
20
-1.4124
11
3.46318
21
-1.41182
0
LINE
8
BLACK
6
CONTINUOUS
10
3.46654
20
-0.841535
11
3.46654
21
-1.40846
0
LINE
8
BLACK
6
CONTINUOUS
10
3.46654
20
-1.40846
11
4.03346
21
-1.40846
0
LINE
8
BLACK
6
CONTINUOUS
10
4.03346
20
-1.40846
11
4.03346
21
-0.841535
0
LINE
8
BLACK
6
CONTINUOUS
10
4.03346
20
-0.841535
11
3.46654
21
-0.841535
0
LINE
8
BLACK
6
CONTINUOUS
10
5.71317
20
-1.41182
11
5.7126
21
-1.41043
0
LINE
8
BLACK
6
CONTINUOUS
10
5.7126
20
-1.41043
11
5.7126
21
-0.839567
0
LINE
8
BLACK
6
CONTINUOUS
10
5.7126
20
-0.839567
11
5.71317
21
-0.838175
0
LINE
8
BLACK
6
CONTINUOUS
10
5.71317
20
-0.838175
11
5.71457
21
-0.837598
0
LINE
8
BLACK
6
CONTINUOUS
10
5.71457
20
-0.837598
11
6.28543
21
-0.837598
0
LINE
8
BLACK
6
CONTINUOUS
10
6.28543
20
-0.837598
11
6.28682
21
-0.838175
0
LINE
8
BLACK
6
CONTINUOUS
10
6.28682
20
-0.838175
11
6.2874
21
-0.839567
0
LINE
8
BLACK
6
CONTINUOUS
10
6.2874
20
-0.839567
11
6.2874
21
-1.41043
0
LINE
8
BLACK
6
CONTINUOUS
10
6.2874
20
-1.41043
11
6.28682
21
-1.41182
0
LINE
8
BLACK
6
CONTINUOUS
10
6.28682
20
-1.41182
11
6.28543
21
-1.4124
0
LINE
8
BLACK
6
CONTINUOUS
10
6.28543
20
-1.4124
11
5.71457
21
-1.4124
0
LINE
8
BLACK
6
CONTINUOUS
10
5.71457
20
-1.4124
11
5.71317
21
-1.41182
0
LINE
8
BLACK
6
CONTINUOUS
10
5.71654
20
-0.841535
11
5.71654
21
-1.40846
0
LINE
8
BLACK
6
CONTINUOUS
10
5.71654
20
-1.40846
11
6.28346
21
-1.40846
0
LINE
8
BLACK
6
CONTINUOUS
10
6.28346
20
-1.40846
11
6.28346
21
-0.841535
0
LINE
8
BLACK
6
CONTINUOUS
10
6.28346
20
-0.841535
11
5.71654
21
-0.841535
0
LINE
8
BLACK
6
CONTINUOUS
10
6.46317
20
-1.41182
11
6.4626
21
-1.41043
0
LINE
8
BLACK
6
CONTINUOUS
10
6.4626
20
-1.41043
11
6.4626
21
-0.839567
0
LINE
8
BLACK
6
CONTINUOUS
10
6.4626
20
-0.839567
11
6.46317
21
-0.838175
0
LINE
8
BLACK
6
CONTINUOUS
10
6.46317
20
-0.838175
11
6.46457
21
-0.837598
0
LINE
8
BLACK
6
CONTINUOUS
10
6.46457
20
-0.837598
11
7.03543
21
-0.837598
0
LINE
8
BLACK
6
CONTINUOUS
10
7.03543
20
-0.837598
11
7.03682
21
-0.838175
0
LINE
8
BLACK
6
CONTINUOUS
10
7.03682
20
-0.838175
11
7.0374
21
-0.839567
0
LINE
8
BLACK
6
CONTINUOUS
10
7.0374
20
-0.839567
11
7.0374
21
-1.41043
0
LINE
8
BLACK
6
CONTINUOUS
10
7.0374
20
-1.41043
11
7.03682
21
-1.41182
0
LINE
8
BLACK
6
CONTINUOUS
10
7.03682
20
-1.41182
11
7.03543
21
-1.4124
0
LINE
8
BLACK
6
CONTINUOUS
10
7.03543
20
-1.4124
11
6.46457
21
-1.4124
0
LINE
8
BLACK
6
CONTINUOUS
10
6.46457
20
-1.4124
11
6.46317
21
-1.41182
0
LINE
8
BLACK
6
CONTINUOUS
10
6.46654
20
-0.841535
11
6.46654
21
-1.40846
0
LINE
8
BLACK
6
CONTINUOUS
10
6.46654
20
-1.40846
11
7.03346
21
-1.40846
0
LINE
8
BLACK
6
CONTINUOUS
10
7.03346
20
-1.40846
11
7.03346
21
-0.841535
0
LINE
8
BLACK
6
CONTINUOUS
10
7.03346
20
-0.841535
11
6.46654
21
-0.841535
0
LINE
8
BLACK
6
CONTINUOUS
10
8.71317
20
-1.41182
11
8.7126
21
-1.41043
0
LINE
8
BLACK
6
CONTINUOUS
10
8.7126
20
-1.41043
11
8.7126
21
-0.839567
0
LINE
8
BLACK
6
CONTINUOUS
10
8.7126
20
-0.839567
11
8.71317
21
-0.838175
0
LINE
8
BLACK
6
CONTINUOUS
10
8.71317
20
-0.838175
11
8.71457
21
-0.837598
0
LINE
8
BLACK
6
CONTINUOUS
10
8.71457
20
-0.837598
11
9.28543
21
-0.837598
0
LINE
8
BLACK
6
CONTINUOUS
10
9.28543
20
-0.837598
11
9.28683
21
-0.838175
0
LINE
8
BLACK
6
CONTINUOUS
10
9.28683
20
-0.838175
11
9.2874
21
-0.839567
0
LINE
8
BLACK
6
CONTINUOUS
10
9.2874
20
-0.839567
11
9.2874
21
-1.41043
0
LINE
8
BLACK
6
CONTINUOUS
10
9.2874
20
-1.41043
11
9.28683
21
-1.41182
0
LINE
8
BLACK
6
CONTINUOUS
10
9.28683
20
-1.41182
11
9.28543
21
-1.4124
0
LINE
8
BLACK
6
CONTINUOUS
10
9.28543
20
-1.4124
11
8.71457
21
-1.4124
0
LINE
8
BLACK
6
CONTINUOUS
10
8.71457
20
-1.4124
11
8.71317
21
-1.41182
0
LINE
8
BLACK
6
CONTINUOUS
10
8.71654
20
-0.841535
11
8.71654
21
-1.40846
0
LINE
8
BLACK
6
CONTINUOUS
10
8.71654
20
-1.40846
11
9.28346
21
-1.40846
0
LINE
8
BLACK
6
CONTINUOUS
10
9.28346
20
-1.40846
11
9.28346
21
-0.841535
0
LINE
8
BLACK
6
CONTINUOUS
10
9.28346
20
-0.841535
11
8.71654
21
-0.841535
0
LINE
8
BLACK
6
CONTINUOUS
10
1.21317
20
-1.41182
11
1.2126
21
-1.41043
0
LINE
8
BLACK
6
CONTINUOUS
10
1.2126
20
-1.41043
11
1.2126
21
-0.839567
0
LINE
8
BLACK
6
CONTINUOUS
10
1.2126
20
-0.839567
11
1.21317
21
-0.838175
0
LINE
8
BLACK
6
CONTINUOUS
10
1.21317
20
-0.838175
11
1.21457
21
-0.837598
0
LINE
8
BLACK
6
CONTINUOUS
10
1.21457
20
-0.837598
11
1.78543
21
-0.837598
0
LINE
8
BLACK
6
CONTINUOUS
10
1.78543
20
-0.837598
11
1.78682
21
-0.838175
0
LINE
8
BLACK
6
CONTINUOUS
10
1.78682
20
-0.838175
11
1.7874
21
-0.839567
0
LINE
8
BLACK
6
CONTINUOUS
10
1.7874
20
-0.839567
11
1.7874
21
-1.41043
0
LINE
8
BLACK
6
CONTINUOUS
10
1.7874
20
-1.41043
11
1.78682
21
-1.41182
0
LINE
8
BLACK
6
CONTINUOUS
10
1.78682
20
-1.41182
11
1.78543
21
-1.4124
0
LINE
8
BLACK
6
CONTINUOUS
10
1.78543
20
-1.4124
11
1.21457
21
-1.4124
0
LINE
8
BLACK
6
CONTINUOUS
10
1.21457
20
-1.4124
11
1.21317
21
-1.41182
0
LINE
8
BLACK
6
CONTINUOUS
10
1.21654
20
-0.841535
11
1.21654
21
-1.40846
0
LINE
8
BLACK
6
CONTINUOUS
10
1.21654
20
-1.40846
11
1.78346
21
-1.40846
0
LINE
8
BLACK
6
CONTINUOUS
10
1.78346
20
-1.40846
11
1.78346
21
-0.841535
0
LINE
8
BLACK
6
CONTINUOUS
10
1.78346
20
-0.841535
11
1.21654
21
-0.841535
0
LINE
8
BLACK
6
CONTINUOUS
10
4.96317
20
-1.41182
11
4.9626
21
-1.41043
0
LINE
8
BLACK
6
CONTINUOUS
10
4.9626
20
-1.41043
11
4.9626
21
-0.839567
0
LINE
8
BLACK
6
CONTINUOUS
10
4.9626
20
-0.839567
11
4.96317
21
-0.838175
0
LINE
8
BLACK
6
CONTINUOUS
10
4.96317
20
-0.838175
11
4.96457
21
-0.837598
0
LINE
8
BLACK
6
CONTINUOUS
10
4.96457
20
-0.837598
11
5.53543
21
-0.837598
0
LINE
8
BLACK
6
CONTINUOUS
10
5.53543
20
-0.837598
11
5.53682
21
-0.838175
0
LINE
8
BLACK
6
CONTINUOUS
10
5.53682
20
-0.838175
11
5.5374
21
-0.839567
0
LINE
8
BLACK
6
CONTINUOUS
10
5.5374
20
-0.839567
11
5.5374
21
-1.41043
0
LINE
8
BLACK
6
CONTINUOUS
10
5.5374
20
-1.41043
11
5.53682
21
-1.41182
0
LINE
8
BLACK
6
CONTINUOUS
10
5.53682
20
-1.41182
11
5.53543
21
-1.4124
0
LINE
8
BLACK
6
CONTINUOUS
10
5.53543
20
-1.4124
11
4.96457
21
-1.4124
0
LINE
8
BLACK
6
CONTINUOUS
10
4.96457
20
-1.4124
11
4.96317
21
-1.41182
0
LINE
8
BLACK
6
CONTINUOUS
10
4.96654
20
-0.841535
11
4.96654
21
-1.40846
0
LINE
8
BLACK
6
CONTINUOUS
10
4.96654
20
-1.40846
11
5.53346
21
-1.40846
0
LINE
8
BLACK
6
CONTINUOUS
10
5.53346
20
-1.40846
11
5.53346
21
-0.841535
0
LINE
8
BLACK
6
CONTINUOUS
10
5.53346
20
-0.841535
11
4.96654
21
-0.841535
0
LINE
8
BLACK
6
CONTINUOUS
10
7.21317
20
-1.41182
11
7.2126
21
-1.41043
0
LINE
8
BLACK
6
CONTINUOUS
10
7.2126
20
-1.41043
11
7.2126
21
-0.839567
0
LINE
8
BLACK
6
CONTINUOUS
10
7.2126
20
-0.839567
11
7.21317
21
-0.838175
0
LINE
8
BLACK
6
CONTINUOUS
10
7.21317
20
-0.838175
11
7.21457
21
-0.837598
0
LINE
8
BLACK
6
CONTINUOUS
10
7.21457
20
-0.837598
11
7.78543
21
-0.837598
0
LINE
8
BLACK
6
CONTINUOUS
10
7.78543
20
-0.837598
11
7.78682
21
-0.838175
0
LINE
8
BLACK
6
CONTINUOUS
10
7.78682
20
-0.838175
11
7.7874
21
-0.839567
0
LINE
8
BLACK
6
CONTINUOUS
10
7.7874
20
-0.839567
11
7.7874
21
-1.41043
0
LINE
8
BLACK
6
CONTINUOUS
10
7.7874
20
-1.41043
11
7.78682
21
-1.41182
0
LINE
8
BLACK
6
CONTINUOUS
10
7.78682
20
-1.41182
11
7.78543
21
-1.4124
0
LINE
8
BLACK
6
CONTINUOUS
10
7.78543
20
-1.4124
11
7.21457
21
-1.4124
0
LINE
8
BLACK
6
CONTINUOUS
10
7.21457
20
-1.4124
11
7.21317
21
-1.41182
0
LINE
8
BLACK
6
CONTINUOUS
10
7.21654
20
-0.841535
11
7.21654
21
-1.40846
0
LINE
8
BLACK
6
CONTINUOUS
10
7.21654
20
-1.40846
11
7.78346
21
-1.40846
0
LINE
8
BLACK
6
CONTINUOUS
10
7.78346
20
-1.40846
11
7.78346
21
-0.841535
0
LINE
8
BLACK
6
CONTINUOUS
10
7.78346
20
-0.841535
11
7.21654
21
-0.841535
0
LINE
8
BLACK
6
CONTINUOUS
10
10.5882
20
-0.683282
11
10.5876
21
-0.68189
0
LINE
8
BLACK
6
CONTINUOUS
10
10.5876
20
-0.68189
11
10.5876
21
-0.111024
0
LINE
8
BLACK
6
CONTINUOUS
10
10.5876
20
-0.111024
11
10.5882
21
-0.109632
0
LINE
8
BLACK
6
CONTINUOUS
10
10.5882
20
-0.109632
11
10.5896
21
-0.109055
0
LINE
8
BLACK
6
CONTINUOUS
10
10.5896
20
-0.109055
11
11.1604
21
-0.109055
0
LINE
8
BLACK
6
CONTINUOUS
10
11.1604
20
-0.109055
11
11.1618
21
-0.109632
0
LINE
8
BLACK
6
CONTINUOUS
10
11.1618
20
-0.109632
11
11.1624
21
-0.111024
0
LINE
8
BLACK
6
CONTINUOUS
10
11.1624
20
-0.111024
11
11.1624
21
-0.68189
0
LINE
8
BLACK
6
CONTINUOUS
10
11.1624
20
-0.68189
11
11.1618
21
-0.683282
0
LINE
8
BLACK
6
CONTINUOUS
10
11.1618
20
-0.683282
11
11.1604
21
-0.683858
0
LINE
8
BLACK
6
CONTINUOUS
10
11.1604
20
-0.683858
11
10.5896
21
-0.683858
0
LINE
8
BLACK
6
CONTINUOUS
10
10.5896
20
-0.683858
11
10.5882
21
-0.683282
0
LINE
8
BLACK
6
CONTINUOUS
10
10.5915
20
-0.112992
11
10.5915
21
-0.679921
0
LINE
8
BLACK
6
CONTINUOUS
10
10.5915
20
-0.679921
11
11.1585
21
-0.679921
0
LINE
8
BLACK
6
CONTINUOUS
10
11.1585
20
-0.679921
11
11.1585
21
-0.112992
0
LINE
8
BLACK
6
CONTINUOUS
10
11.1585
20
-0.112992
11
10.5915
21
-0.112992
0
LINE
8
BLACK
6
CONTINUOUS
10
7.58817
20
-0.661825
11
7.5876
21
-0.660433
0
LINE
8
BLACK
6
CONTINUOUS
10
7.5876
20
-0.660433
11
7.5876
21
-0.0895669
0
LINE
8
BLACK
6
CONTINUOUS
10
7.5876
20
-0.0895669
11
7.58817
21
-0.088175
0
LINE
8
BLACK
6
CONTINUOUS
10
7.58817
20
-0.088175
11
7.58957
21
-0.0875984
0
LINE
8
BLACK
6
CONTINUOUS
10
7.58957
20
-0.0875984
11
8.16043
21
-0.0875984
0
LINE
8
BLACK
6
CONTINUOUS
10
8.16043
20
-0.0875984
11
8.16183
21
-0.088175
0
LINE
8
BLACK
6
CONTINUOUS
10
8.16183
20
-0.088175
11
8.1624
21
-0.0895669
0
LINE
8
BLACK
6
CONTINUOUS
10
8.1624
20
-0.0895669
11
8.1624
21
-0.660433
0
LINE
8
BLACK
6
CONTINUOUS
10
8.1624
20
-0.660433
11
8.16183
21
-0.661825
0
LINE
8
BLACK
6
CONTINUOUS
10
8.16183
20
-0.661825
11
8.16043
21
-0.662402
0
LINE
8
BLACK
6
CONTINUOUS
10
8.16043
20
-0.662402
11
7.58957
21
-0.662402
0
LINE
8
BLACK
6
CONTINUOUS
10
7.58957
20
-0.662402
11
7.58817
21
-0.661825
0
LINE
8
BLACK
6
CONTINUOUS
10
7.59154
20
-0.0915354
11
7.59154
21
-0.658465
0
LINE
8
BLACK
6
CONTINUOUS
10
7.59154
20
-0.658465
11
8.15846
21
-0.658465
0
LINE
8
BLACK
6
CONTINUOUS
10
8.15846
20
-0.658465
11
8.15846
21
-0.0915354
0
LINE
8
BLACK
6
CONTINUOUS
10
8.15846
20
-0.0915354
11
7.59154
21
-0.0915354
0
LINE
8
BLACK
6
CONTINUOUS
10
8.33817
20
-0.661825
11
8.3376
21
-0.660433
0
LINE
8
BLACK
6
CONTINUOUS
10
8.3376
20
-0.660433
11
8.3376
21
-0.0895669
0
LINE
8
BLACK
6
CONTINUOUS
10
8.3376
20
-0.0895669
11
8.33817
21
-0.088175
0
LINE
8
BLACK
6
CONTINUOUS
10
8.33817
20
-0.088175
11
8.33957
21
-0.0875984
0
LINE
8
BLACK
6
CONTINUOUS
10
8.33957
20
-0.0875984
11
8.91043
21
-0.0875984
0
LINE
8
BLACK
6
CONTINUOUS
10
8.91043
20
-0.0875984
11
8.91183
21
-0.088175
0
LINE
8
BLACK
6
CONTINUOUS
10
8.91183
20
-0.088175
11
8.9124
21
-0.0895669
0
LINE
8
BLACK
6
CONTINUOUS
10
8.9124
20
-0.0895669
11
8.9124
21
-0.660433
0
LINE
8
BLACK
6
CONTINUOUS
10
8.9124
20
-0.660433
11
8.91183
21
-0.661825
0
LINE
8
BLACK
6
CONTINUOUS
10
8.91183
20
-0.661825
11
8.91043
21
-0.662402
0
LINE
8
BLACK
6
CONTINUOUS
10
8.91043
20
-0.662402
11
8.33957
21
-0.662402
0
LINE
8
BLACK
6
CONTINUOUS
10
8.33957
20
-0.662402
11
8.33817
21
-0.661825
0
LINE
8
BLACK
6
CONTINUOUS
10
8.34154
20
-0.0915354
11
8.34154
21
-0.658465
0
LINE
8
BLACK
6
CONTINUOUS
10
8.34154
20
-0.658465
11
8.90846
21
-0.658465
0
LINE
8
BLACK
6
CONTINUOUS
10
8.90846
20
-0.658465
11
8.90846
21
-0.0915354
0
LINE
8
BLACK
6
CONTINUOUS
10
8.90846
20
-0.0915354
11
8.34154
21
-0.0915354
0
LINE
8
BLACK
6
CONTINUOUS
10
0.838175
20
-0.661825
11
0.837598
21
-0.660433
0
LINE
8
BLACK
6
CONTINUOUS
10
0.837598
20
-0.660433
11
0.837598
21
-0.0895669
0
LINE
8
BLACK
6
CONTINUOUS
10
0.837598
20
-0.0895669
11
0.838175
21
-0.088175
0
LINE
8
BLACK
6
CONTINUOUS
10
0.838175
20
-0.088175
11
0.839567
21
-0.0875984
0
LINE
8
BLACK
6
CONTINUOUS
10
0.839567
20
-0.0875984
11
1.41043
21
-0.0875984
0
LINE
8
BLACK
6
CONTINUOUS
10
1.41043
20
-0.0875984
11
1.41182
21
-0.088175
0
LINE
8
BLACK
6
CONTINUOUS
10
1.41182
20
-0.088175
11
1.4124
21
-0.0895669
0
LINE
8
BLACK
6
CONTINUOUS
10
1.4124
20
-0.0895669
11
1.4124
21
-0.660433
0
LINE
8
BLACK
6
CONTINUOUS
10
1.4124
20
-0.660433
11
1.41182
21
-0.661825
0
LINE
8
BLACK
6
CONTINUOUS
10
1.41182
20
-0.661825
11
1.41043
21
-0.662402
0
LINE
8
BLACK
6
CONTINUOUS
10
1.41043
20
-0.662402
11
0.839567
21
-0.662402
0
LINE
8
BLACK
6
CONTINUOUS
10
0.839567
20
-0.662402
11
0.838175
21
-0.661825
0
LINE
8
BLACK
6
CONTINUOUS
10
0.841535
20
-0.0915354
11
0.841535
21
-0.658465
0
LINE
8
BLACK
6
CONTINUOUS
10
0.841535
20
-0.658465
11
1.40846
21
-0.658465
0
LINE
8
BLACK
6
CONTINUOUS
10
1.40846
20
-0.658465
11
1.40846
21
-0.0915354
0
LINE
8
BLACK
6
CONTINUOUS
10
1.40846
20
-0.0915354
11
0.841535
21
-0.0915354
0
LINE
8
BLACK
6
CONTINUOUS
10
2.33818
20
-0.661825
11
2.3376
21
-0.660433
0
LINE
8
BLACK
6
CONTINUOUS
10
2.3376
20
-0.660433
11
2.3376
21
-0.0895669
0
LINE
8
BLACK
6
CONTINUOUS
10
2.3376
20
-0.0895669
11
2.33818
21
-0.088175
0
LINE
8
BLACK
6
CONTINUOUS
10
2.33818
20
-0.088175
11
2.33957
21
-0.0875984
0
LINE
8
BLACK
6
CONTINUOUS
10
2.33957
20
-0.0875984
11
2.91043
21
-0.0875984
0
LINE
8
BLACK
6
CONTINUOUS
10
2.91043
20
-0.0875984
11
2.91182
21
-0.088175
0
LINE
8
BLACK
6
CONTINUOUS
10
2.91182
20
-0.088175
11
2.9124
21
-0.0895669
0
LINE
8
BLACK
6
CONTINUOUS
10
2.9124
20
-0.0895669
11
2.9124
21
-0.660433
0
LINE
8
BLACK
6
CONTINUOUS
10
2.9124
20
-0.660433
11
2.91182
21
-0.661825
0
LINE
8
BLACK
6
CONTINUOUS
10
2.91182
20
-0.661825
11
2.91043
21
-0.662402
0
LINE
8
BLACK
6
CONTINUOUS
10
2.91043
20
-0.662402
11
2.33957
21
-0.662402
0
LINE
8
BLACK
6
CONTINUOUS
10
2.33957
20
-0.662402
11
2.33818
21
-0.661825
0
LINE
8
BLACK
6
CONTINUOUS
10
2.34154
20
-0.0915354
11
2.34154
21
-0.658465
0
LINE
8
BLACK
6
CONTINUOUS
10
2.34154
20
-0.658465
11
2.90846
21
-0.658465
0
LINE
8
BLACK
6
CONTINUOUS
10
2.90846
20
-0.658465
11
2.90846
21
-0.0915354
0
LINE
8
BLACK
6
CONTINUOUS
10
2.90846
20
-0.0915354
11
2.34154
21
-0.0915354
0
LINE
8
BLACK
6
CONTINUOUS
10
6.08817
20
-0.661825
11
6.0876
21
-0.660433
0
LINE
8
BLACK
6
CONTINUOUS
10
6.0876
20
-0.660433
11
6.0876
21
-0.0895669
0
LINE
8
BLACK
6
CONTINUOUS
10
6.0876
20
-0.0895669
11
6.08817
21
-0.088175
0
LINE
8
BLACK
6
CONTINUOUS
10
6.08817
20
-0.088175
11
6.08957
21
-0.0875984
0
LINE
8
BLACK
6
CONTINUOUS
10
6.08957
20
-0.0875984
11
6.66043
21
-0.0875984
0
LINE
8
BLACK
6
CONTINUOUS
10
6.66043
20
-0.0875984
11
6.66182
21
-0.088175
0
LINE
8
BLACK
6
CONTINUOUS
10
6.66182
20
-0.088175
11
6.6624
21
-0.0895669
0
LINE
8
BLACK
6
CONTINUOUS
10
6.6624
20
-0.0895669
11
6.6624
21
-0.660433
0
LINE
8
BLACK
6
CONTINUOUS
10
6.6624
20
-0.660433
11
6.66182
21
-0.661825
0
LINE
8
BLACK
6
CONTINUOUS
10
6.66182
20
-0.661825
11
6.66043
21
-0.662402
0
LINE
8
BLACK
6
CONTINUOUS
10
6.66043
20
-0.662402
11
6.08957
21
-0.662402
0
LINE
8
BLACK
6
CONTINUOUS
10
6.08957
20
-0.662402
11
6.08817
21
-0.661825
0
LINE
8
BLACK
6
CONTINUOUS
10
6.09154
20
-0.0915354
11
6.09154
21
-0.658465
0
LINE
8
BLACK
6
CONTINUOUS
10
6.09154
20
-0.658465
11
6.65846
21
-0.658465
0
LINE
8
BLACK
6
CONTINUOUS
10
6.65846
20
-0.658465
11
6.65846
21
-0.0915354
0
LINE
8
BLACK
6
CONTINUOUS
10
6.65846
20
-0.0915354
11
6.09154
21
-0.0915354
0
LINE
8
BLACK
6
CONTINUOUS
10
4.58817
20
-0.661825
11
4.5876
21
-0.660433
0
LINE
8
BLACK
6
CONTINUOUS
10
4.5876
20
-0.660433
11
4.5876
21
-0.0895669
0
LINE
8
BLACK
6
CONTINUOUS
10
4.5876
20
-0.0895669
11
4.58817
21
-0.088175
0
LINE
8
BLACK
6
CONTINUOUS
10
4.58817
20
-0.088175
11
4.58957
21
-0.0875984
0
LINE
8
BLACK
6
CONTINUOUS
10
4.58957
20
-0.0875984
11
5.16043
21
-0.0875984
0
LINE
8
BLACK
6
CONTINUOUS
10
5.16043
20
-0.0875984
11
5.16182
21
-0.088175
0
LINE
8
BLACK
6
CONTINUOUS
10
5.16182
20
-0.088175
11
5.1624
21
-0.0895669
0
LINE
8
BLACK
6
CONTINUOUS
10
5.1624
20
-0.0895669
11
5.1624
21
-0.660433
0
LINE
8
BLACK
6
CONTINUOUS
10
5.1624
20
-0.660433
11
5.16182
21
-0.661825
0
LINE
8
BLACK
6
CONTINUOUS
10
5.16182
20
-0.661825
11
5.16043
21
-0.662402
0
LINE
8
BLACK
6
CONTINUOUS
10
5.16043
20
-0.662402
11
4.58957
21
-0.662402
0
LINE
8
BLACK
6
CONTINUOUS
10
4.58957
20
-0.662402
11
4.58817
21
-0.661825
0
LINE
8
BLACK
6
CONTINUOUS
10
4.59154
20
-0.0915354
11
4.59154
21
-0.658465
0
LINE
8
BLACK
6
CONTINUOUS
10
4.59154
20
-0.658465
11
5.15846
21
-0.658465
0
LINE
8
BLACK
6
CONTINUOUS
10
5.15846
20
-0.658465
11
5.15846
21
-0.0915354
0
LINE
8
BLACK
6
CONTINUOUS
10
5.15846
20
-0.0915354
11
4.59154
21
-0.0915354
0
LINE
8
BLACK
6
CONTINUOUS
10
3.83818
20
-0.661825
11
3.8376
21
-0.660433
0
LINE
8
BLACK
6
CONTINUOUS
10
3.8376
20
-0.660433
11
3.8376
21
-0.0895669
0
LINE
8
BLACK
6
CONTINUOUS
10
3.8376
20
-0.0895669
11
3.83818
21
-0.088175
0
LINE
8
BLACK
6
CONTINUOUS
10
3.83818
20
-0.088175
11
3.83957
21
-0.0875984
0
LINE
8
BLACK
6
CONTINUOUS
10
3.83957
20
-0.0875984
11
4.41043
21
-0.0875984
0
LINE
8
BLACK
6
CONTINUOUS
10
4.41043
20
-0.0875984
11
4.41183
21
-0.088175
0
LINE
8
BLACK
6
CONTINUOUS
10
4.41183
20
-0.088175
11
4.4124
21
-0.0895669
0
LINE
8
BLACK
6
CONTINUOUS
10
4.4124
20
-0.0895669
11
4.4124
21
-0.660433
0
LINE
8
BLACK
6
CONTINUOUS
10
4.4124
20
-0.660433
11
4.41183
21
-0.661825
0
LINE
8
BLACK
6
CONTINUOUS
10
4.41183
20
-0.661825
11
4.41043
21
-0.662402
0
LINE
8
BLACK
6
CONTINUOUS
10
4.41043
20
-0.662402
11
3.83957
21
-0.662402
0
LINE
8
BLACK
6
CONTINUOUS
10
3.83957
20
-0.662402
11
3.83818
21
-0.661825
0
LINE
8
BLACK
6
CONTINUOUS
10
3.84154
20
-0.0915354
11
3.84154
21
-0.658465
0
LINE
8
BLACK
6
CONTINUOUS
10
3.84154
20
-0.658465
11
4.40846
21
-0.658465
0
LINE
8
BLACK
6
CONTINUOUS
10
4.40846
20
-0.658465
11
4.40846
21
-0.0915354
0
LINE
8
BLACK
6
CONTINUOUS
10
4.40846
20
-0.0915354
11
3.84154
21
-0.0915354
0
LINE
8
BLACK
6
CONTINUOUS
10
6.83817
20
-0.661825
11
6.8376
21
-0.660433
0
LINE
8
BLACK
6
CONTINUOUS
10
6.8376
20
-0.660433
11
6.8376
21
-0.0895669
0
LINE
8
BLACK
6
CONTINUOUS
10
6.8376
20
-0.0895669
11
6.83817
21
-0.088175
0
LINE
8
BLACK
6
CONTINUOUS
10
6.83817
20
-0.088175
11
6.83957
21
-0.0875984
0
LINE
8
BLACK
6
CONTINUOUS
10
6.83957
20
-0.0875984
11
7.41043
21
-0.0875984
0
LINE
8
BLACK
6
CONTINUOUS
10
7.41043
20
-0.0875984
11
7.41182
21
-0.088175
0
LINE
8
BLACK
6
CONTINUOUS
10
7.41182
20
-0.088175
11
7.4124
21
-0.0895669
0
LINE
8
BLACK
6
CONTINUOUS
10
7.4124
20
-0.0895669
11
7.4124
21
-0.660433
0
LINE
8
BLACK
6
CONTINUOUS
10
7.4124
20
-0.660433
11
7.41182
21
-0.661825
0
LINE
8
BLACK
6
CONTINUOUS
10
7.41182
20
-0.661825
11
7.41043
21
-0.662402
0
LINE
8
BLACK
6
CONTINUOUS
10
7.41043
20
-0.662402
11
6.83957
21
-0.662402
0
LINE
8
BLACK
6
CONTINUOUS
10
6.83957
20
-0.662402
11
6.83817
21
-0.661825
0
LINE
8
BLACK
6
CONTINUOUS
10
6.84154
20
-0.0915354
11
6.84154
21
-0.658465
0
LINE
8
BLACK
6
CONTINUOUS
10
6.84154
20
-0.658465
11
7.40846
21
-0.658465
0
LINE
8
BLACK
6
CONTINUOUS
10
7.40846
20
-0.658465
11
7.40846
21
-0.0915354
0
LINE
8
BLACK
6
CONTINUOUS
10
7.40846
20
-0.0915354
11
6.84154
21
-0.0915354
0
LINE
8
BLACK
6
CONTINUOUS
10
9.83817
20
-0.661825
11
9.8376
21
-0.660433
0
LINE
8
BLACK
6
CONTINUOUS
10
9.8376
20
-0.660433
11
9.8376
21
-0.0895669
0
LINE
8
BLACK
6
CONTINUOUS
10
9.8376
20
-0.0895669
11
9.83817
21
-0.088175
0
LINE
8
BLACK
6
CONTINUOUS
10
9.83817
20
-0.088175
11
9.83957
21
-0.0875984
0
LINE
8
BLACK
6
CONTINUOUS
10
9.83957
20
-0.0875984
11
10.4104
21
-0.0875984
0
LINE
8
BLACK
6
CONTINUOUS
10
10.4104
20
-0.0875984
11
10.4118
21
-0.088175
0
LINE
8
BLACK
6
CONTINUOUS
10
10.4118
20
-0.088175
11
10.4124
21
-0.0895669
0
LINE
8
BLACK
6
CONTINUOUS
10
10.4124
20
-0.0895669
11
10.4124
21
-0.660433
0
LINE
8
BLACK
6
CONTINUOUS
10
10.4124
20
-0.660433
11
10.4118
21
-0.661825
0
LINE
8
BLACK
6
CONTINUOUS
10
10.4118
20
-0.661825
11
10.4104
21
-0.662402
0
LINE
8
BLACK
6
CONTINUOUS
10
10.4104
20
-0.662402
11
9.83957
21
-0.662402
0
LINE
8
BLACK
6
CONTINUOUS
10
9.83957
20
-0.662402
11
9.83817
21
-0.661825
0
LINE
8
BLACK
6
CONTINUOUS
10
9.84154
20
-0.0915354
11
9.84154
21
-0.658465
0
LINE
8
BLACK
6
CONTINUOUS
10
9.84154
20
-0.658465
11
10.4085
21
-0.658465
0
LINE
8
BLACK
6
CONTINUOUS
10
10.4085
20
-0.658465
11
10.4085
21
-0.0915354
0
LINE
8
BLACK
6
CONTINUOUS
10
10.4085
20
-0.0915354
11
9.84154
21
-0.0915354
0
LINE
8
BLACK
6
CONTINUOUS
10
3.08818
20
-0.661825
11
3.0876
21
-0.660433
0
LINE
8
BLACK
6
CONTINUOUS
10
3.0876
20
-0.660433
11
3.0876
21
-0.0895669
0
LINE
8
BLACK
6
CONTINUOUS
10
3.0876
20
-0.0895669
11
3.08818
21
-0.088175
0
LINE
8
BLACK
6
CONTINUOUS
10
3.08818
20
-0.088175
11
3.08957
21
-0.0875984
0
LINE
8
BLACK
6
CONTINUOUS
10
3.08957
20
-0.0875984
11
3.66043
21
-0.0875984
0
LINE
8
BLACK
6
CONTINUOUS
10
3.66043
20
-0.0875984
11
3.66182
21
-0.088175
0
LINE
8
BLACK
6
CONTINUOUS
10
3.66182
20
-0.088175
11
3.6624
21
-0.0895669
0
LINE
8
BLACK
6
CONTINUOUS
10
3.6624
20
-0.0895669
11
3.6624
21
-0.660433
0
LINE
8
BLACK
6
CONTINUOUS
10
3.6624
20
-0.660433
11
3.66182
21
-0.661825
0
LINE
8
BLACK
6
CONTINUOUS
10
3.66182
20
-0.661825
11
3.66043
21
-0.662402
0
LINE
8
BLACK
6
CONTINUOUS
10
3.66043
20
-0.662402
11
3.08957
21
-0.662402
0
LINE
8
BLACK
6
CONTINUOUS
10
3.08957
20
-0.662402
11
3.08818
21
-0.661825
0
LINE
8
BLACK
6
CONTINUOUS
10
3.09154
20
-0.0915354
11
3.09154
21
-0.658465
0
LINE
8
BLACK
6
CONTINUOUS
10
3.09154
20
-0.658465
11
3.65846
21
-0.658465
0
LINE
8
BLACK
6
CONTINUOUS
10
3.65846
20
-0.658465
11
3.65846
21
-0.0915354
0
LINE
8
BLACK
6
CONTINUOUS
10
3.65846
20
-0.0915354
11
3.09154
21
-0.0915354
0
LINE
8
BLACK
6
CONTINUOUS
10
5.33817
20
-0.661825
11
5.3376
21
-0.660433
0
LINE
8
BLACK
6
CONTINUOUS
10
5.3376
20
-0.660433
11
5.3376
21
-0.0895669
0
LINE
8
BLACK
6
CONTINUOUS
10
5.3376
20
-0.0895669
11
5.33817
21
-0.088175
0
LINE
8
BLACK
6
CONTINUOUS
10
5.33817
20
-0.088175
11
5.33957
21
-0.0875984
0
LINE
8
BLACK
6
CONTINUOUS
10
5.33957
20
-0.0875984
11
5.91043
21
-0.0875984
0
LINE
8
BLACK
6
CONTINUOUS
10
5.91043
20
-0.0875984
11
5.91182
21
-0.088175
0
LINE
8
BLACK
6
CONTINUOUS
10
5.91182
20
-0.088175
11
5.9124
21
-0.0895669
0
LINE
8
BLACK
6
CONTINUOUS
10
5.9124
20
-0.0895669
11
5.9124
21
-0.660433
0
LINE
8
BLACK
6
CONTINUOUS
10
5.9124
20
-0.660433
11
5.91182
21
-0.661825
0
LINE
8
BLACK
6
CONTINUOUS
10
5.91182
20
-0.661825
11
5.91043
21
-0.662402
0
LINE
8
BLACK
6
CONTINUOUS
10
5.91043
20
-0.662402
11
5.33957
21
-0.662402
0
LINE
8
BLACK
6
CONTINUOUS
10
5.33957
20
-0.662402
11
5.33817
21
-0.661825
0
LINE
8
BLACK
6
CONTINUOUS
10
5.34154
20
-0.0915354
11
5.34154
21
-0.658465
0
LINE
8
BLACK
6
CONTINUOUS
10
5.34154
20
-0.658465
11
5.90846
21
-0.658465
0
LINE
8
BLACK
6
CONTINUOUS
10
5.90846
20
-0.658465
11
5.90846
21
-0.0915354
0
LINE
8
BLACK
6
CONTINUOUS
10
5.90846
20
-0.0915354
11
5.34154
21
-0.0915354
0
LINE
8
BLACK
6
CONTINUOUS
10
1.58817
20
-0.661825
11
1.5876
21
-0.660433
0
LINE
8
BLACK
6
CONTINUOUS
10
1.5876
20
-0.660433
11
1.5876
21
-0.0895669
0
LINE
8
BLACK
6
CONTINUOUS
10
1.5876
20
-0.0895669
11
1.58817
21
-0.088175
0
LINE
8
BLACK
6
CONTINUOUS
10
1.58817
20
-0.088175
11
1.58957
21
-0.0875984
0
LINE
8
BLACK
6
CONTINUOUS
10
1.58957
20
-0.0875984
11
2.16043
21
-0.0875984
0
LINE
8
BLACK
6
CONTINUOUS
10
2.16043
20
-0.0875984
11
2.16182
21
-0.088175
0
LINE
8
BLACK
6
CONTINUOUS
10
2.16182
20
-0.088175
11
2.1624
21
-0.0895669
0
LINE
8
BLACK
6
CONTINUOUS
10
2.1624
20
-0.0895669
11
2.1624
21
-0.660433
0
LINE
8
BLACK
6
CONTINUOUS
10
2.1624
20
-0.660433
11
2.16182
21
-0.661825
0
LINE
8
BLACK
6
CONTINUOUS
10
2.16182
20
-0.661825
11
2.16043
21
-0.662402
0
LINE
8
BLACK
6
CONTINUOUS
10
2.16043
20
-0.662402
11
1.58957
21
-0.662402
0
LINE
8
BLACK
6
CONTINUOUS
10
1.58957
20
-0.662402
11
1.58817
21
-0.661825
0
LINE
8
BLACK
6
CONTINUOUS
10
1.59154
20
-0.0915354
11
1.59154
21
-0.658465
0
LINE
8
BLACK
6
CONTINUOUS
10
1.59154
20
-0.658465
11
2.15846
21
-0.658465
0
LINE
8
BLACK
6
CONTINUOUS
10
2.15846
20
-0.658465
11
2.15846
21
-0.0915354
0
LINE
8
BLACK
6
CONTINUOUS
10
2.15846
20
-0.0915354
11
1.59154
21
-0.0915354
0
LINE
8
BLACK
6
CONTINUOUS
10
0.088175
20
-0.661825
11
0.0875984
21
-0.660433
0
LINE
8
BLACK
6
CONTINUOUS
10
0.0875984
20
-0.660433
11
0.0875984
21
-0.0895669
0
LINE
8
BLACK
6
CONTINUOUS
10
0.0875984
20
-0.0895669
11
0.088175
21
-0.088175
0
LINE
8
BLACK
6
CONTINUOUS
10
0.088175
20
-0.088175
11
0.0895669
21
-0.0875984
0
LINE
8
BLACK
6
CONTINUOUS
10
0.0895669
20
-0.0875984
11
0.660433
21
-0.0875984
0
LINE
8
BLACK
6
CONTINUOUS
10
0.660433
20
-0.0875984
11
0.661825
21
-0.088175
0
LINE
8
BLACK
6
CONTINUOUS
10
0.661825
20
-0.088175
11
0.662402
21
-0.0895669
0
LINE
8
BLACK
6
CONTINUOUS
10
0.662402
20
-0.0895669
11
0.662402
21
-0.660433
0
LINE
8
BLACK
6
CONTINUOUS
10
0.662402
20
-0.660433
11
0.661825
21
-0.661825
0
LINE
8
BLACK
6
CONTINUOUS
10
0.661825
20
-0.661825
11
0.660433
21
-0.662402
0
LINE
8
BLACK
6
CONTINUOUS
10
0.660433
20
-0.662402
11
0.0895669
21
-0.662402
0
LINE
8
BLACK
6
CONTINUOUS
10
0.0895669
20
-0.662402
11
0.088175
21
-0.661825
0
LINE
8
BLACK
6
CONTINUOUS
10
0.0915354
20
-0.0915354
11
0.0915354
21
-0.658465
0
LINE
8
BLACK
6
CONTINUOUS
10
0.0915354
20
-0.658465
11
0.658465
21
-0.658465
0
LINE
8
BLACK
6
CONTINUOUS
10
0.658465
20
-0.658465
11
0.658465
21
-0.0915354
0
LINE
8
BLACK
6
CONTINUOUS
10
0.658465
20
-0.0915354
11
0.0915354
21
-0.0915354
0
LINE
8
BLACK
6
CONTINUOUS
10
9.08817
20
-0.661825
11
9.0876
21
-0.660433
0
LINE
8
BLACK
6
CONTINUOUS
10
9.0876
20
-0.660433
11
9.0876
21
-0.0895669
0
LINE
8
BLACK
6
CONTINUOUS
10
9.0876
20
-0.0895669
11
9.08817
21
-0.088175
0
LINE
8
BLACK
6
CONTINUOUS
10
9.08817
20
-0.088175
11
9.08957
21
-0.0875984
0
LINE
8
BLACK
6
CONTINUOUS
10
9.08957
20
-0.0875984
11
9.66043
21
-0.0875984
0
LINE
8
BLACK
6
CONTINUOUS
10
9.66043
20
-0.0875984
11
9.66183
21
-0.088175
0
LINE
8
BLACK
6
CONTINUOUS
10
9.66183
20
-0.088175
11
9.6624
21
-0.0895669
0
LINE
8
BLACK
6
CONTINUOUS
10
9.6624
20
-0.0895669
11
9.6624
21
-0.660433
0
LINE
8
BLACK
6
CONTINUOUS
10
9.6624
20
-0.660433
11
9.66183
21
-0.661825
0
LINE
8
BLACK
6
CONTINUOUS
10
9.66183
20
-0.661825
11
9.66043
21
-0.662402
0
LINE
8
BLACK
6
CONTINUOUS
10
9.66043
20
-0.662402
11
9.08957
21
-0.662402
0
LINE
8
BLACK
6
CONTINUOUS
10
9.08957
20
-0.662402
11
9.08817
21
-0.661825
0
LINE
8
BLACK
6
CONTINUOUS
10
9.09154
20
-0.0915354
11
9.09154
21
-0.658465
0
LINE
8
BLACK
6
CONTINUOUS
10
9.09154
20
-0.658465
11
9.65846
21
-0.658465
0
LINE
8
BLACK
6
CONTINUOUS
10
9.65846
20
-0.658465
11
9.65846
21
-0.0915354
0
LINE
8
BLACK
6
CONTINUOUS
10
9.65846
20
-0.0915354
11
9.09154
21
-0.0915354
0
LINE
8
BLACK
6
CONTINUOUS
10
8.1624
20
-3.08957
11
8.1624
21
-3.66043
0
LINE
8
BLACK
6
CONTINUOUS
10
8.1624
20
-3.66043
11
8.16183
21
-3.66182
0
LINE
8
BLACK
6
CONTINUOUS
10
8.16183
20
-3.66182
11
8.16043
21
-3.6624
0
LINE
8
BLACK
6
CONTINUOUS
10
8.16043
20
-3.6624
11
7.58957
21
-3.6624
0
LINE
8
BLACK
6
CONTINUOUS
10
7.58957
20
-3.6624
11
7.58817
21
-3.66182
0
LINE
8
BLACK
6
CONTINUOUS
10
7.58817
20
-3.66182
11
7.5876
21
-3.66043
0
LINE
8
BLACK
6
CONTINUOUS
10
7.5876
20
-3.66043
11
7.5876
21
-3.437
0
LINE
8
BLACK
6
CONTINUOUS
10
7.5876
20
-3.437
11
7.5818
21
-3.44394
0
LINE
8
BLACK
6
CONTINUOUS
10
7.5818
20
-3.44394
11
7.57243
21
-3.45283
0
LINE
8
BLACK
6
CONTINUOUS
10
7.57243
20
-3.45283
11
7.5621
21
-3.46058
0
LINE
8
BLACK
6
CONTINUOUS
10
7.5621
20
-3.46058
11
7.55095
21
-3.4671
0
LINE
8
BLACK
6
CONTINUOUS
10
7.55095
20
-3.4671
11
7.53912
21
-3.47229
0
LINE
8
BLACK
6
CONTINUOUS
10
7.53912
20
-3.47229
11
7.52677
21
-3.47609
0
LINE
8
BLACK
6
CONTINUOUS
10
7.52677
20
-3.47609
11
7.51407
21
-3.47845
0
LINE
8
BLACK
6
CONTINUOUS
10
7.51407
20
-3.47845
11
7.50118
21
-3.47932
0
LINE
8
BLACK
6
CONTINUOUS
10
7.50118
20
-3.47932
11
7.48828
21
-3.47872
0
LINE
8
BLACK
6
CONTINUOUS
10
7.48828
20
-3.47872
11
7.47553
21
-3.47663
0
LINE
8
BLACK
6
CONTINUOUS
10
7.47553
20
-3.47663
11
7.46311
21
-3.47309
0
LINE
8
BLACK
6
CONTINUOUS
10
7.46311
20
-3.47309
11
7.45117
21
-3.46815
0
LINE
8
BLACK
6
CONTINUOUS
10
7.45117
20
-3.46815
11
7.43988
21
-3.46186
0
LINE
8
BLACK
6
CONTINUOUS
10
7.43988
20
-3.46186
11
7.42939
21
-3.45433
0
LINE
8
BLACK
6
CONTINUOUS
10
7.42939
20
-3.45433
11
7.41984
21
-3.44563
0
LINE
8
BLACK
6
CONTINUOUS
10
7.41984
20
-3.44563
11
7.41135
21
-3.4359
0
LINE
8
BLACK
6
CONTINUOUS
10
7.41135
20
-3.4359
11
7.40403
21
-3.42525
0
LINE
8
BLACK
6
CONTINUOUS
10
7.40403
20
-3.42525
11
7.39799
21
-3.41383
0
LINE
8
BLACK
6
CONTINUOUS
10
7.39799
20
-3.41383
11
7.39329
21
-3.4018
0
LINE
8
BLACK
6
CONTINUOUS
10
7.39329
20
-3.4018
11
7.39002
21
-3.3893
0
LINE
8
BLACK
6
CONTINUOUS
10
7.39002
20
-3.3893
11
7.3882
21
-3.37652
0
LINE
8
BLACK
6
CONTINUOUS
10
7.3882
20
-3.37652
11
7.38792
21
-3.36603
0
LINE
8
BLACK
6
CONTINUOUS
10
7.38792
20
-3.36603
11
7.38786
21
-3.3636
0
LINE
8
BLACK
6
CONTINUOUS
10
7.38786
20
-3.3636
11
7.38901
21
-3.35073
0
LINE
8
BLACK
6
CONTINUOUS
10
7.38901
20
-3.35073
11
7.39162
21
-3.33809
0
LINE
8
BLACK
6
CONTINUOUS
10
7.39162
20
-3.33809
11
7.39568
21
-3.32582
0
LINE
8
BLACK
6
CONTINUOUS
10
7.39568
20
-3.32582
11
7.40112
21
-3.3141
0
LINE
8
BLACK
6
CONTINUOUS
10
7.40112
20
-3.3141
11
7.40787
21
-3.30309
0
LINE
8
BLACK
6
CONTINUOUS
10
7.40787
20
-3.30309
11
7.41584
21
-3.29292
0
LINE
8
BLACK
6
CONTINUOUS
10
7.41584
20
-3.29292
11
7.42493
21
-3.28374
0
LINE
8
BLACK
6
CONTINUOUS
10
7.42493
20
-3.28374
11
7.43501
21
-3.27566
0
LINE
8
BLACK
6
CONTINUOUS
10
7.43501
20
-3.27566
11
7.44595
21
-3.2688
0
LINE
8
BLACK
6
CONTINUOUS
10
7.44595
20
-3.2688
11
7.45761
21
-3.26324
0
LINE
8
BLACK
6
CONTINUOUS
10
7.45761
20
-3.26324
11
7.46983
21
-3.25905
0
LINE
8
BLACK
6
CONTINUOUS
10
7.46983
20
-3.25905
11
7.48245
21
-3.2563
0
LINE
8
BLACK
6
CONTINUOUS
10
7.48245
20
-3.2563
11
7.49531
21
-3.25502
0
LINE
8
BLACK
6
CONTINUOUS
10
7.49531
20
-3.25502
11
7.50822
21
-3.25522
0
LINE
8
BLACK
6
CONTINUOUS
10
7.50822
20
-3.25522
11
7.52103
21
-3.25691
0
LINE
8
BLACK
6
CONTINUOUS
10
7.52103
20
-3.25691
11
7.53356
21
-3.26006
0
LINE
8
BLACK
6
CONTINUOUS
10
7.53356
20
-3.26006
11
7.54564
21
-3.26462
0
LINE
8
BLACK
6
CONTINUOUS
10
7.54564
20
-3.26462
11
7.55712
21
-3.27055
0
LINE
8
BLACK
6
CONTINUOUS
10
7.55712
20
-3.27055
11
7.56785
21
-3.27775
0
LINE
8
BLACK
6
CONTINUOUS
10
7.56785
20
-3.27775
11
7.57767
21
-3.28614
0
LINE
8
BLACK
6
CONTINUOUS
10
7.57767
20
-3.28614
11
7.58646
21
-3.2956
0
LINE
8
BLACK
6
CONTINUOUS
10
7.58646
20
-3.2956
11
7.5876
21
-3.29715
0
LINE
8
BLACK
6
CONTINUOUS
10
7.5876
20
-3.29715
11
7.5876
21
-3.08957
0
LINE
8
BLACK
6
CONTINUOUS
10
7.5876
20
-3.08957
11
7.58817
21
-3.08818
0
LINE
8
BLACK
6
CONTINUOUS
10
7.58817
20
-3.08818
11
7.58957
21
-3.0876
0
LINE
8
BLACK
6
CONTINUOUS
10
7.58957
20
-3.0876
11
8.16043
21
-3.0876
0
LINE
8
BLACK
6
CONTINUOUS
10
8.16043
20
-3.0876
11
8.16183
21
-3.08818
0
LINE
8
BLACK
6
CONTINUOUS
10
8.16183
20
-3.08818
11
8.1624
21
-3.08957
0
LINE
8
BLACK
6
CONTINUOUS
10
7.39825
20
-3.39099
11
7.40185
21
-3.40305
0
LINE
8
BLACK
6
CONTINUOUS
10
7.40185
20
-3.40305
11
7.40688
21
-3.41458
0
LINE
8
BLACK
6
CONTINUOUS
10
7.40688
20
-3.41458
11
7.41325
21
-3.42542
0
LINE
8
BLACK
6
CONTINUOUS
10
7.41325
20
-3.42542
11
7.42088
21
-3.43542
0
LINE
8
BLACK
6
CONTINUOUS
10
7.42088
20
-3.43542
11
7.42966
21
-3.44443
0
LINE
8
BLACK
6
CONTINUOUS
10
7.42966
20
-3.44443
11
7.43946
21
-3.45232
0
LINE
8
BLACK
6
CONTINUOUS
10
7.43946
20
-3.45232
11
7.45013
21
-3.45898
0
LINE
8
BLACK
6
CONTINUOUS
10
7.45013
20
-3.45898
11
7.46153
21
-3.46431
0
LINE
8
BLACK
6
CONTINUOUS
10
7.46153
20
-3.46431
11
7.47348
21
-3.46823
0
LINE
8
BLACK
6
CONTINUOUS
10
7.47348
20
-3.46823
11
7.48582
21
-3.47068
0
LINE
8
BLACK
6
CONTINUOUS
10
7.48582
20
-3.47068
11
7.49836
21
-3.47163
0
LINE
8
BLACK
6
CONTINUOUS
10
7.49836
20
-3.47163
11
7.51093
21
-3.47107
0
LINE
8
BLACK
6
CONTINUOUS
10
7.51093
20
-3.47107
11
7.52334
21
-3.46901
0
LINE
8
BLACK
6
CONTINUOUS
10
7.52334
20
-3.46901
11
7.53541
21
-3.46547
0
LINE
8
BLACK
6
CONTINUOUS
10
7.53541
20
-3.46547
11
7.54697
21
-3.4605
0
LINE
8
BLACK
6
CONTINUOUS
10
7.54697
20
-3.4605
11
7.55785
21
-3.45418
0
LINE
8
BLACK
6
CONTINUOUS
10
7.55785
20
-3.45418
11
7.56789
21
-3.4466
0
LINE
8
BLACK
6
CONTINUOUS
10
7.56789
20
-3.4466
11
7.57694
21
-3.43787
0
LINE
8
BLACK
6
CONTINUOUS
10
7.57694
20
-3.43787
11
7.58489
21
-3.42812
0
LINE
8
BLACK
6
CONTINUOUS
10
7.58489
20
-3.42812
11
7.5876
21
-3.42382
0
LINE
8
BLACK
6
CONTINUOUS
10
7.5876
20
-3.42382
11
7.5876
21
-3.31034
0
LINE
8
BLACK
6
CONTINUOUS
10
7.5876
20
-3.31034
11
7.58615
21
-3.30792
0
LINE
8
BLACK
6
CONTINUOUS
10
7.58615
20
-3.30792
11
7.57841
21
-3.298
0
LINE
8
BLACK
6
CONTINUOUS
10
7.57841
20
-3.298
11
7.56954
21
-3.28909
0
LINE
8
BLACK
6
CONTINUOUS
10
7.56954
20
-3.28909
11
7.55966
21
-3.2813
0
LINE
8
BLACK
6
CONTINUOUS
10
7.55966
20
-3.2813
11
7.54892
21
-3.27475
0
LINE
8
BLACK
6
CONTINUOUS
10
7.54892
20
-3.27475
11
7.53746
21
-3.26955
0
LINE
8
BLACK
6
CONTINUOUS
10
7.53746
20
-3.26955
11
7.52547
21
-3.26575
0
LINE
8
BLACK
6
CONTINUOUS
10
7.52547
20
-3.26575
11
7.51311
21
-3.26343
0
LINE
8
BLACK
6
CONTINUOUS
10
7.51311
20
-3.26343
11
7.50055
21
-3.26261
0
LINE
8
BLACK
6
CONTINUOUS
10
7.50055
20
-3.26261
11
7.48799
21
-3.2633
0
LINE
8
BLACK
6
CONTINUOUS
10
7.48799
20
-3.2633
11
7.47561
21
-3.26549
0
LINE
8
BLACK
6
CONTINUOUS
10
7.47561
20
-3.26549
11
7.46357
21
-3.26916
0
LINE
8
BLACK
6
CONTINUOUS
10
7.46357
20
-3.26916
11
7.45207
21
-3.27425
0
LINE
8
BLACK
6
CONTINUOUS
10
7.45207
20
-3.27425
11
7.44126
21
-3.28068
0
LINE
8
BLACK
6
CONTINUOUS
10
7.44126
20
-3.28068
11
7.4313
21
-3.28836
0
LINE
8
BLACK
6
CONTINUOUS
10
7.4313
20
-3.28836
11
7.42233
21
-3.29719
0
LINE
8
BLACK
6
CONTINUOUS
10
7.42233
20
-3.29719
11
7.41449
21
-3.30703
0
LINE
8
BLACK
6
CONTINUOUS
10
7.41449
20
-3.30703
11
7.40789
21
-3.31773
0
LINE
8
BLACK
6
CONTINUOUS
10
7.40789
20
-3.31773
11
7.40262
21
-3.32916
0
LINE
8
BLACK
6
CONTINUOUS
10
7.40262
20
-3.32916
11
7.39877
21
-3.34113
0
LINE
8
BLACK
6
CONTINUOUS
10
7.39877
20
-3.34113
11
7.39638
21
-3.35348
0
LINE
8
BLACK
6
CONTINUOUS
10
7.39638
20
-3.35348
11
7.39549
21
-3.36603
0
LINE
8
BLACK
6
CONTINUOUS
10
7.39549
20
-3.36603
11
7.39612
21
-3.3786
0
LINE
8
BLACK
6
CONTINUOUS
10
7.39612
20
-3.3786
11
7.39825
21
-3.39099
0
LINE
8
BLACK
6
CONTINUOUS
10
7.59154
20
-3.09154
11
7.59154
21
-3.30251
0
LINE
8
BLACK
6
CONTINUOUS
10
7.59154
20
-3.30251
11
7.59411
21
-3.30601
0
LINE
8
BLACK
6
CONTINUOUS
10
7.59411
20
-3.30601
11
7.60051
21
-3.31724
0
LINE
8
BLACK
6
CONTINUOUS
10
7.60051
20
-3.31724
11
7.60558
21
-3.32912
0
LINE
8
BLACK
6
CONTINUOUS
10
7.60558
20
-3.32912
11
7.60925
21
-3.3415
0
LINE
8
BLACK
6
CONTINUOUS
10
7.60925
20
-3.3415
11
7.61147
21
-3.35423
0
LINE
8
BLACK
6
CONTINUOUS
10
7.61147
20
-3.35423
11
7.61221
21
-3.36713
0
LINE
8
BLACK
6
CONTINUOUS
10
7.61221
20
-3.36713
11
7.61199
21
-3.37417
0
LINE
8
BLACK
6
CONTINUOUS
10
7.61199
20
-3.37417
11
7.61044
21
-3.387
0
LINE
8
BLACK
6
CONTINUOUS
10
7.61044
20
-3.387
11
7.60742
21
-3.39956
0
LINE
8
BLACK
6
CONTINUOUS
10
7.60742
20
-3.39956
11
7.60298
21
-3.41169
0
LINE
8
BLACK
6
CONTINUOUS
10
7.60298
20
-3.41169
11
7.59718
21
-3.42323
0
LINE
8
BLACK
6
CONTINUOUS
10
7.59718
20
-3.42323
11
7.59154
21
-3.43182
0
LINE
8
BLACK
6
CONTINUOUS
10
7.59154
20
-3.43182
11
7.59154
21
-3.65846
0
LINE
8
BLACK
6
CONTINUOUS
10
7.59154
20
-3.65846
11
8.15846
21
-3.65846
0
LINE
8
BLACK
6
CONTINUOUS
10
8.15846
20
-3.65846
11
8.15846
21
-3.09154
0
LINE
8
BLACK
6
CONTINUOUS
10
8.15846
20
-3.09154
11
7.59154
21
-3.09154
0
LINE
8
BLACK
6
CONTINUOUS
10
7.59154
20
-3.41758
11
7.5916
21
-3.41748
0
LINE
8
BLACK
6
CONTINUOUS
10
7.5916
20
-3.41748
11
7.59699
21
-3.40611
0
LINE
8
BLACK
6
CONTINUOUS
10
7.59699
20
-3.40611
11
7.60097
21
-3.39418
0
LINE
8
BLACK
6
CONTINUOUS
10
7.60097
20
-3.39418
11
7.60348
21
-3.38185
0
LINE
8
BLACK
6
CONTINUOUS
10
7.60348
20
-3.38185
11
7.6045
21
-3.36931
0
LINE
8
BLACK
6
CONTINUOUS
10
7.6045
20
-3.36931
11
7.60453
21
-3.36713
0
LINE
8
BLACK
6
CONTINUOUS
10
7.60453
20
-3.36713
11
7.60377
21
-3.35457
0
LINE
8
BLACK
6
CONTINUOUS
10
7.60377
20
-3.35457
11
7.60151
21
-3.34219
0
LINE
8
BLACK
6
CONTINUOUS
10
7.60151
20
-3.34219
11
7.59778
21
-3.33018
0
LINE
8
BLACK
6
CONTINUOUS
10
7.59778
20
-3.33018
11
7.59263
21
-3.3187
0
LINE
8
BLACK
6
CONTINUOUS
10
7.59263
20
-3.3187
11
7.59154
21
-3.31688
0
LINE
8
BLACK
6
CONTINUOUS
10
7.59154
20
-3.31688
11
7.59154
21
-3.41758
0
LINE
8
BLACK
6
CONTINUOUS
10
0.896873
20
-1.10861
11
0.899493
21
-1.09596
0
LINE
8
BLACK
6
CONTINUOUS
10
0.899493
20
-1.09596
11
0.903549
21
-1.0837
0
LINE
8
BLACK
6
CONTINUOUS
10
0.903549
20
-1.0837
11
0.908988
21
-1.07198
0
LINE
8
BLACK
6
CONTINUOUS
10
0.908988
20
-1.07198
11
0.915737
21
-1.06096
0
LINE
8
BLACK
6
CONTINUOUS
10
0.915737
20
-1.06096
11
0.923708
21
-1.0508
0
LINE
8
BLACK
6
CONTINUOUS
10
0.923708
20
-1.0508
11
0.932794
21
-1.04162
0
LINE
8
BLACK
6
CONTINUOUS
10
0.932794
20
-1.04162
11
0.942876
21
-1.03354
0
LINE
8
BLACK
6
CONTINUOUS
10
0.942876
20
-1.03354
11
0.953819
21
-1.02668
0
LINE
8
BLACK
6
CONTINUOUS
10
0.953819
20
-1.02668
11
0.965479
21
-1.02111
0
LINE
8
BLACK
6
CONTINUOUS
10
0.965479
20
-1.02111
11
0.9777
21
-1.01693
0
LINE
8
BLACK
6
CONTINUOUS
10
0.9777
20
-1.01693
11
0.990321
21
-1.01418
0
LINE
8
BLACK
6
CONTINUOUS
10
0.990321
20
-1.01418
11
1.00318
21
-1.01289
0
LINE
8
BLACK
6
CONTINUOUS
10
1.00318
20
-1.01289
11
1.01609
21
-1.0131
0
LINE
8
BLACK
6
CONTINUOUS
10
1.01609
20
-1.0131
11
1.0289
21
-1.01478
0
LINE
8
BLACK
6
CONTINUOUS
10
1.0289
20
-1.01478
11
1.04143
21
-1.01793
0
LINE
8
BLACK
6
CONTINUOUS
10
1.04143
20
-1.01793
11
1.05351
21
-1.0225
0
LINE
8
BLACK
6
CONTINUOUS
10
1.05351
20
-1.0225
11
1.06499
21
-1.02842
0
LINE
8
BLACK
6
CONTINUOUS
10
1.06499
20
-1.02842
11
1.07571
21
-1.03563
0
LINE
8
BLACK
6
CONTINUOUS
10
1.07571
20
-1.03563
11
1.08554
21
-1.04402
0
LINE
8
BLACK
6
CONTINUOUS
10
1.08554
20
-1.04402
11
1.09433
21
-1.05348
0
LINE
8
BLACK
6
CONTINUOUS
10
1.09433
20
-1.05348
11
1.10198
21
-1.06389
0
LINE
8
BLACK
6
CONTINUOUS
10
1.10198
20
-1.06389
11
1.10838
21
-1.07511
0
LINE
8
BLACK
6
CONTINUOUS
10
1.10838
20
-1.07511
11
1.11345
21
-1.08699
0
LINE
8
BLACK
6
CONTINUOUS
10
1.11345
20
-1.08699
11
1.11711
21
-1.09938
0
LINE
8
BLACK
6
CONTINUOUS
10
1.11711
20
-1.09938
11
1.11934
21
-1.1121
0
LINE
8
BLACK
6
CONTINUOUS
10
1.11934
20
-1.1121
11
1.12008
21
-1.125
0
LINE
8
BLACK
6
CONTINUOUS
10
1.12008
20
-1.125
11
1.11986
21
-1.13205
0
LINE
8
BLACK
6
CONTINUOUS
10
1.11986
20
-1.13205
11
1.11831
21
-1.14487
0
LINE
8
BLACK
6
CONTINUOUS
10
1.11831
20
-1.14487
11
1.11529
21
-1.15743
0
LINE
8
BLACK
6
CONTINUOUS
10
1.11529
20
-1.15743
11
1.11085
21
-1.16956
0
LINE
8
BLACK
6
CONTINUOUS
10
1.11085
20
-1.16956
11
1.10505
21
-1.1811
0
LINE
8
BLACK
6
CONTINUOUS
10
1.10505
20
-1.1811
11
1.09795
21
-1.1919
0
LINE
8
BLACK
6
CONTINUOUS
10
1.09795
20
-1.1919
11
1.08967
21
-1.20181
0
LINE
8
BLACK
6
CONTINUOUS
10
1.08967
20
-1.20181
11
1.0803
21
-1.2107
0
LINE
8
BLACK
6
CONTINUOUS
10
1.0803
20
-1.2107
11
1.06997
21
-1.21846
0
LINE
8
BLACK
6
CONTINUOUS
10
1.06997
20
-1.21846
11
1.05881
21
-1.22498
0
LINE
8
BLACK
6
CONTINUOUS
10
1.05881
20
-1.22498
11
1.04699
21
-1.23017
0
LINE
8
BLACK
6
CONTINUOUS
10
1.04699
20
-1.23017
11
1.03464
21
-1.23397
0
LINE
8
BLACK
6
CONTINUOUS
10
1.03464
20
-1.23397
11
1.02194
21
-1.23632
0
LINE
8
BLACK
6
CONTINUOUS
10
1.02194
20
-1.23632
11
1.00905
21
-1.2372
0
LINE
8
BLACK
6
CONTINUOUS
10
1.00905
20
-1.2372
11
0.996145
21
-1.23659
0
LINE
8
BLACK
6
CONTINUOUS
10
0.996145
20
-1.23659
11
0.983397
21
-1.2345
0
LINE
8
BLACK
6
CONTINUOUS
10
0.983397
20
-1.2345
11
0.970974
21
-1.23096
0
LINE
8
BLACK
6
CONTINUOUS
10
0.970974
20
-1.23096
11
0.959039
21
-1.22602
0
LINE
8
BLACK
6
CONTINUOUS
10
0.959039
20
-1.22602
11
0.947752
21
-1.21974
0
LINE
8
BLACK
6
CONTINUOUS
10
0.947752
20
-1.21974
11
0.937261
21
-1.2122
0
LINE
8
BLACK
6
CONTINUOUS
10
0.937261
20
-1.2122
11
0.927707
21
-1.20351
0
LINE
8
BLACK
6
CONTINUOUS
10
0.927707
20
-1.20351
11
0.919215
21
-1.19377
0
LINE
8
BLACK
6
CONTINUOUS
10
0.919215
20
-1.19377
11
0.911898
21
-1.18313
0
LINE
8
BLACK
6
CONTINUOUS
10
0.911898
20
-1.18313
11
0.905853
21
-1.17171
0
LINE
8
BLACK
6
CONTINUOUS
10
0.905853
20
-1.17171
11
0.901161
21
-1.15967
0
LINE
8
BLACK
6
CONTINUOUS
10
0.901161
20
-1.15967
11
0.897883
21
-1.14718
0
LINE
8
BLACK
6
CONTINUOUS
10
0.897883
20
-1.14718
11
0.896063
21
-1.13439
0
LINE
8
BLACK
6
CONTINUOUS
10
0.896063
20
-1.13439
11
0.895788
21
-1.12391
0
LINE
8
BLACK
6
CONTINUOUS
10
0.895788
20
-1.12391
11
0.895725
21
-1.12148
0
LINE
8
BLACK
6
CONTINUOUS
10
0.895725
20
-1.12148
11
0.896873
21
-1.10861
0
LINE
8
BLACK
6
CONTINUOUS
10
0.906114
20
-1.14887
11
0.909719
21
-1.16092
0
LINE
8
BLACK
6
CONTINUOUS
10
0.909719
20
-1.16092
11
0.914745
21
-1.17245
0
LINE
8
BLACK
6
CONTINUOUS
10
0.914745
20
-1.17245
11
0.92112
21
-1.1833
0
LINE
8
BLACK
6
CONTINUOUS
10
0.92112
20
-1.1833
11
0.928752
21
-1.1933
0
LINE
8
BLACK
6
CONTINUOUS
10
0.928752
20
-1.1933
11
0.93753
21
-1.20231
0
LINE
8
BLACK
6
CONTINUOUS
10
0.93753
20
-1.20231
11
0.947327
21
-1.2102
0
LINE
8
BLACK
6
CONTINUOUS
10
0.947327
20
-1.2102
11
0.958001
21
-1.21686
0
LINE
8
BLACK
6
CONTINUOUS
10
0.958001
20
-1.21686
11
0.969397
21
-1.22218
0
LINE
8
BLACK
6
CONTINUOUS
10
0.969397
20
-1.22218
11
0.981351
21
-1.2261
0
LINE
8
BLACK
6
CONTINUOUS
10
0.981351
20
-1.2261
11
0.993689
21
-1.22856
0
LINE
8
BLACK
6
CONTINUOUS
10
0.993689
20
-1.22856
11
1.00623
21
-1.22951
0
LINE
8
BLACK
6
CONTINUOUS
10
1.00623
20
-1.22951
11
1.0188
21
-1.22895
0
LINE
8
BLACK
6
CONTINUOUS
10
1.0188
20
-1.22895
11
1.03121
21
-1.22688
0
LINE
8
BLACK
6
CONTINUOUS
10
1.03121
20
-1.22688
11
1.04328
21
-1.22334
0
LINE
8
BLACK
6
CONTINUOUS
10
1.04328
20
-1.22334
11
1.05484
21
-1.21838
0
LINE
8
BLACK
6
CONTINUOUS
10
1.05484
20
-1.21838
11
1.06572
21
-1.21206
0
LINE
8
BLACK
6
CONTINUOUS
10
1.06572
20
-1.21206
11
1.07576
21
-1.20448
0
LINE
8
BLACK
6
CONTINUOUS
10
1.07576
20
-1.20448
11
1.08481
21
-1.19575
0
LINE
8
BLACK
6
CONTINUOUS
10
1.08481
20
-1.19575
11
1.09275
21
-1.18599
0
LINE
8
BLACK
6
CONTINUOUS
10
1.09275
20
-1.18599
11
1.09947
21
-1.17535
0
LINE
8
BLACK
6
CONTINUOUS
10
1.09947
20
-1.17535
11
1.10485
21
-1.16399
0
LINE
8
BLACK
6
CONTINUOUS
10
1.10485
20
-1.16399
11
1.10883
21
-1.15205
0
LINE
8
BLACK
6
CONTINUOUS
10
1.10883
20
-1.15205
11
1.11135
21
-1.13973
0
LINE
8
BLACK
6
CONTINUOUS
10
1.11135
20
-1.13973
11
1.11237
21
-1.12719
0
LINE
8
BLACK
6
CONTINUOUS
10
1.11237
20
-1.12719
11
1.1124
21
-1.125
0
LINE
8
BLACK
6
CONTINUOUS
10
1.1124
20
-1.125
11
1.11164
21
-1.11244
0
LINE
8
BLACK
6
CONTINUOUS
10
1.11164
20
-1.11244
11
1.10938
21
-1.10007
0
LINE
8
BLACK
6
CONTINUOUS
10
1.10938
20
-1.10007
11
1.10565
21
-1.08806
0
LINE
8
BLACK
6
CONTINUOUS
10
1.10565
20
-1.08806
11
1.1005
21
-1.07658
0
LINE
8
BLACK
6
CONTINUOUS
10
1.1005
20
-1.07658
11
1.09401
21
-1.0658
0
LINE
8
BLACK
6
CONTINUOUS
10
1.09401
20
-1.0658
11
1.08628
21
-1.05588
0
LINE
8
BLACK
6
CONTINUOUS
10
1.08628
20
-1.05588
11
1.0774
21
-1.04696
0
LINE
8
BLACK
6
CONTINUOUS
10
1.0774
20
-1.04696
11
1.06753
21
-1.03917
0
LINE
8
BLACK
6
CONTINUOUS
10
1.06753
20
-1.03917
11
1.05678
21
-1.03263
0
LINE
8
BLACK
6
CONTINUOUS
10
1.05678
20
-1.03263
11
1.04533
21
-1.02742
0
LINE
8
BLACK
6
CONTINUOUS
10
1.04533
20
-1.02742
11
1.03334
21
-1.02363
0
LINE
8
BLACK
6
CONTINUOUS
10
1.03334
20
-1.02363
11
1.02097
21
-1.0213
0
LINE
8
BLACK
6
CONTINUOUS
10
1.02097
20
-1.0213
11
1.00842
21
-1.02048
0
LINE
8
BLACK
6
CONTINUOUS
10
1.00842
20
-1.02048
11
0.995861
21
-1.02117
0
LINE
8
BLACK
6
CONTINUOUS
10
0.995861
20
-1.02117
11
0.983474
21
-1.02337
0
LINE
8
BLACK
6
CONTINUOUS
10
0.983474
20
-1.02337
11
0.971441
21
-1.02703
0
LINE
8
BLACK
6
CONTINUOUS
10
0.971441
20
-1.02703
11
0.959935
21
-1.03212
0
LINE
8
BLACK
6
CONTINUOUS
10
0.959935
20
-1.03212
11
0.949124
21
-1.03855
0
LINE
8
BLACK
6
CONTINUOUS
10
0.949124
20
-1.03855
11
0.939164
21
-1.04624
0
LINE
8
BLACK
6
CONTINUOUS
10
0.939164
20
-1.04624
11
0.930199
21
-1.05506
0
LINE
8
BLACK
6
CONTINUOUS
10
0.930199
20
-1.05506
11
0.92236
21
-1.0649
0
LINE
8
BLACK
6
CONTINUOUS
10
0.92236
20
-1.0649
11
0.915759
21
-1.07561
0
LINE
8
BLACK
6
CONTINUOUS
10
0.915759
20
-1.07561
11
0.910492
21
-1.08703
0
LINE
8
BLACK
6
CONTINUOUS
10
0.910492
20
-1.08703
11
0.906636
21
-1.09901
0
LINE
8
BLACK
6
CONTINUOUS
10
0.906636
20
-1.09901
11
0.904247
21
-1.11136
0
LINE
8
BLACK
6
CONTINUOUS
10
0.904247
20
-1.11136
11
0.903358
21
-1.12391
0
LINE
8
BLACK
6
CONTINUOUS
10
0.903358
20
-1.12391
11
0.903984
21
-1.13647
0
LINE
8
BLACK
6
CONTINUOUS
10
0.903984
20
-1.13647
11
0.906114
21
-1.14887
0
LINE
8
BLACK
6
CONTINUOUS
10
10.142
20
-1.09491
11
10.1446
21
-1.08226
0
LINE
8
BLACK
6
CONTINUOUS
10
10.1446
20
-1.08226
11
10.1486
21
-1.07
0
LINE
8
BLACK
6
CONTINUOUS
10
10.1486
20
-1.07
11
10.1541
21
-1.05828
0
LINE
8
BLACK
6
CONTINUOUS
10
10.1541
20
-1.05828
11
10.1608
21
-1.04726
0
LINE
8
BLACK
6
CONTINUOUS
10
10.1608
20
-1.04726
11
10.1688
21
-1.0371
0
LINE
8
BLACK
6
CONTINUOUS
10
10.1688
20
-1.0371
11
10.1779
21
-1.02792
0
LINE
8
BLACK
6
CONTINUOUS
10
10.1779
20
-1.02792
11
10.188
21
-1.01984
0
LINE
8
BLACK
6
CONTINUOUS
10
10.188
20
-1.01984
11
10.1989
21
-1.01298
0
LINE
8
BLACK
6
CONTINUOUS
10
10.1989
20
-1.01298
11
10.2106
21
-1.00741
0
LINE
8
BLACK
6
CONTINUOUS
10
10.2106
20
-1.00741
11
10.2228
21
-1.00323
0
LINE
8
BLACK
6
CONTINUOUS
10
10.2228
20
-1.00323
11
10.2354
21
-1.00048
0
LINE
8
BLACK
6
CONTINUOUS
10
10.2354
20
-1.00048
11
10.2483
21
-0.999195
0
LINE
8
BLACK
6
CONTINUOUS
10
10.2483
20
-0.999195
11
10.2612
21
-0.999398
0
LINE
8
BLACK
6
CONTINUOUS
10
10.2612
20
-0.999398
11
10.274
21
-1.00108
0
LINE
8
BLACK
6
CONTINUOUS
10
10.274
20
-1.00108
11
10.2865
21
-1.00423
0
LINE
8
BLACK
6
CONTINUOUS
10
10.2865
20
-1.00423
11
10.2986
21
-1.0088
0
LINE
8
BLACK
6
CONTINUOUS
10
10.2986
20
-1.0088
11
10.3101
21
-1.01472
0
LINE
8
BLACK
6
CONTINUOUS
10
10.3101
20
-1.01472
11
10.3208
21
-1.02193
0
LINE
8
BLACK
6
CONTINUOUS
10
10.3208
20
-1.02193
11
10.3306
21
-1.03032
0
LINE
8
BLACK
6
CONTINUOUS
10
10.3306
20
-1.03032
11
10.3394
21
-1.03978
0
LINE
8
BLACK
6
CONTINUOUS
10
10.3394
20
-1.03978
11
10.3471
21
-1.05019
0
LINE
8
BLACK
6
CONTINUOUS
10
10.3471
20
-1.05019
11
10.3535
21
-1.06141
0
LINE
8
BLACK
6
CONTINUOUS
10
10.3535
20
-1.06141
11
10.3585
21
-1.07329
0
LINE
8
BLACK
6
CONTINUOUS
10
10.3585
20
-1.07329
11
10.3622
21
-1.08568
0
LINE
8
BLACK
6
CONTINUOUS
10
10.3622
20
-1.08568
11
10.3644
21
-1.0984
0
LINE
8
BLACK
6
CONTINUOUS
10
10.3644
20
-1.0984
11
10.3652
21
-1.1113
0
LINE
8
BLACK
6
CONTINUOUS
10
10.3652
20
-1.1113
11
10.3649
21
-1.11835
0
LINE
8
BLACK
6
CONTINUOUS
10
10.3649
20
-1.11835
11
10.3634
21
-1.13117
0
LINE
8
BLACK
6
CONTINUOUS
10
10.3634
20
-1.13117
11
10.3604
21
-1.14373
0
LINE
8
BLACK
6
CONTINUOUS
10
10.3604
20
-1.14373
11
10.3559
21
-1.15586
0
LINE
8
BLACK
6
CONTINUOUS
10
10.3559
20
-1.15586
11
10.3501
21
-1.1674
0
LINE
8
BLACK
6
CONTINUOUS
10
10.3501
20
-1.1674
11
10.343
21
-1.1782
0
LINE
8
BLACK
6
CONTINUOUS
10
10.343
20
-1.1782
11
10.3347
21
-1.18811
0
LINE
8
BLACK
6
CONTINUOUS
10
10.3347
20
-1.18811
11
10.3254
21
-1.197
0
LINE
8
BLACK
6
CONTINUOUS
10
10.3254
20
-1.197
11
10.315
21
-1.20476
0
LINE
8
BLACK
6
CONTINUOUS
10
10.315
20
-1.20476
11
10.3039
21
-1.21128
0
LINE
8
BLACK
6
CONTINUOUS
10
10.3039
20
-1.21128
11
10.2921
21
-1.21647
0
LINE
8
BLACK
6
CONTINUOUS
10
10.2921
20
-1.21647
11
10.2797
21
-1.22027
0
LINE
8
BLACK
6
CONTINUOUS
10
10.2797
20
-1.22027
11
10.267
21
-1.22262
0
LINE
8
BLACK
6
CONTINUOUS
10
10.267
20
-1.22262
11
10.2541
21
-1.2235
0
LINE
8
BLACK
6
CONTINUOUS
10
10.2541
20
-1.2235
11
10.2412
21
-1.22289
0
LINE
8
BLACK
6
CONTINUOUS
10
10.2412
20
-1.22289
11
10.2285
21
-1.2208
0
LINE
8
BLACK
6
CONTINUOUS
10
10.2285
20
-1.2208
11
10.2161
21
-1.21726
0
LINE
8
BLACK
6
CONTINUOUS
10
10.2161
20
-1.21726
11
10.2041
21
-1.21232
0
LINE
8
BLACK
6
CONTINUOUS
10
10.2041
20
-1.21232
11
10.1928
21
-1.20604
0
LINE
8
BLACK
6
CONTINUOUS
10
10.1928
20
-1.20604
11
10.1823
21
-1.1985
0
LINE
8
BLACK
6
CONTINUOUS
10
10.1823
20
-1.1985
11
10.1728
21
-1.18981
0
LINE
8
BLACK
6
CONTINUOUS
10
10.1728
20
-1.18981
11
10.1643
21
-1.18007
0
LINE
8
BLACK
6
CONTINUOUS
10
10.1643
20
-1.18007
11
10.157
21
-1.16943
0
LINE
8
BLACK
6
CONTINUOUS
10
10.157
20
-1.16943
11
10.1509
21
-1.15801
0
LINE
8
BLACK
6
CONTINUOUS
10
10.1509
20
-1.15801
11
10.1462
21
-1.14597
0
LINE
8
BLACK
6
CONTINUOUS
10
10.1462
20
-1.14597
11
10.143
21
-1.13348
0
LINE
8
BLACK
6
CONTINUOUS
10
10.143
20
-1.13348
11
10.1411
21
-1.12069
0
LINE
8
BLACK
6
CONTINUOUS
10
10.1411
20
-1.12069
11
10.1409
21
-1.11021
0
LINE
8
BLACK
6
CONTINUOUS
10
10.1409
20
-1.11021
11
10.1408
21
-1.10778
0
LINE
8
BLACK
6
CONTINUOUS
10
10.1408
20
-1.10778
11
10.142
21
-1.09491
0
LINE
8
BLACK
6
CONTINUOUS
10
10.1512
20
-1.13517
11
10.1548
21
-1.14722
0
LINE
8
BLACK
6
CONTINUOUS
10
10.1548
20
-1.14722
11
10.1598
21
-1.15875
0
LINE
8
BLACK
6
CONTINUOUS
10
10.1598
20
-1.15875
11
10.1662
21
-1.1696
0
LINE
8
BLACK
6
CONTINUOUS
10
10.1662
20
-1.1696
11
10.1738
21
-1.1796
0
LINE
8
BLACK
6
CONTINUOUS
10
10.1738
20
-1.1796
11
10.1826
21
-1.18861
0
LINE
8
BLACK
6
CONTINUOUS
10
10.1826
20
-1.18861
11
10.1924
21
-1.1965
0
LINE
8
BLACK
6
CONTINUOUS
10
10.1924
20
-1.1965
11
10.2031
21
-1.20316
0
LINE
8
BLACK
6
CONTINUOUS
10
10.2031
20
-1.20316
11
10.2145
21
-1.20848
0
LINE
8
BLACK
6
CONTINUOUS
10
10.2145
20
-1.20848
11
10.2264
21
-1.2124
0
LINE
8
BLACK
6
CONTINUOUS
10
10.2264
20
-1.2124
11
10.2388
21
-1.21486
0
LINE
8
BLACK
6
CONTINUOUS
10
10.2388
20
-1.21486
11
10.2513
21
-1.21581
0
LINE
8
BLACK
6
CONTINUOUS
10
10.2513
20
-1.21581
11
10.2639
21
-1.21525
0
LINE
8
BLACK
6
CONTINUOUS
10
10.2639
20
-1.21525
11
10.2763
21
-1.21318
0
LINE
8
BLACK
6
CONTINUOUS
10
10.2763
20
-1.21318
11
10.2884
21
-1.20964
0
LINE
8
BLACK
6
CONTINUOUS
10
10.2884
20
-1.20964
11
10.2999
21
-1.20468
0
LINE
8
BLACK
6
CONTINUOUS
10
10.2999
20
-1.20468
11
10.3108
21
-1.19836
0
LINE
8
BLACK
6
CONTINUOUS
10
10.3108
20
-1.19836
11
10.3208
21
-1.19078
0
LINE
8
BLACK
6
CONTINUOUS
10
10.3208
20
-1.19078
11
10.3299
21
-1.18205
0
LINE
8
BLACK
6
CONTINUOUS
10
10.3299
20
-1.18205
11
10.3378
21
-1.17229
0
LINE
8
BLACK
6
CONTINUOUS
10
10.3378
20
-1.17229
11
10.3445
21
-1.16165
0
LINE
8
BLACK
6
CONTINUOUS
10
10.3445
20
-1.16165
11
10.3499
21
-1.15029
0
LINE
8
BLACK
6
CONTINUOUS
10
10.3499
20
-1.15029
11
10.3539
21
-1.13835
0
LINE
8
BLACK
6
CONTINUOUS
10
10.3539
20
-1.13835
11
10.3564
21
-1.12603
0
LINE
8
BLACK
6
CONTINUOUS
10
10.3564
20
-1.12603
11
10.3575
21
-1.11349
0
LINE
8
BLACK
6
CONTINUOUS
10
10.3575
20
-1.11349
11
10.3575
21
-1.1113
0
LINE
8
BLACK
6
CONTINUOUS
10
10.3575
20
-1.1113
11
10.3567
21
-1.09874
0
LINE
8
BLACK
6
CONTINUOUS
10
10.3567
20
-1.09874
11
10.3545
21
-1.08637
0
LINE
8
BLACK
6
CONTINUOUS
10
10.3545
20
-1.08637
11
10.3507
21
-1.07436
0
LINE
8
BLACK
6
CONTINUOUS
10
10.3507
20
-1.07436
11
10.3456
21
-1.06288
0
LINE
8
BLACK
6
CONTINUOUS
10
10.3456
20
-1.06288
11
10.3391
21
-1.0521
0
LINE
8
BLACK
6
CONTINUOUS
10
10.3391
20
-1.0521
11
10.3314
21
-1.04218
0
LINE
8
BLACK
6
CONTINUOUS
10
10.3314
20
-1.04218
11
10.3225
21
-1.03326
0
LINE
8
BLACK
6
CONTINUOUS
10
10.3225
20
-1.03326
11
10.3126
21
-1.02547
0
LINE
8
BLACK
6
CONTINUOUS
10
10.3126
20
-1.02547
11
10.3019
21
-1.01893
0
LINE
8
BLACK
6
CONTINUOUS
10
10.3019
20
-1.01893
11
10.2904
21
-1.01372
0
LINE
8
BLACK
6
CONTINUOUS
10
10.2904
20
-1.01372
11
10.2784
21
-1.00993
0
LINE
8
BLACK
6
CONTINUOUS
10
10.2784
20
-1.00993
11
10.2661
21
-1.0076
0
LINE
8
BLACK
6
CONTINUOUS
10
10.2661
20
-1.0076
11
10.2535
21
-1.00678
0
LINE
8
BLACK
6
CONTINUOUS
10
10.2535
20
-1.00678
11
10.2409
21
-1.00747
0
LINE
8
BLACK
6
CONTINUOUS
10
10.2409
20
-1.00747
11
10.2286
21
-1.00967
0
LINE
8
BLACK
6
CONTINUOUS
10
10.2286
20
-1.00967
11
10.2165
21
-1.01334
0
LINE
8
BLACK
6
CONTINUOUS
10
10.2165
20
-1.01334
11
10.205
21
-1.01842
0
LINE
8
BLACK
6
CONTINUOUS
10
10.205
20
-1.01842
11
10.1942
21
-1.02485
0
LINE
8
BLACK
6
CONTINUOUS
10
10.1942
20
-1.02485
11
10.1842
21
-1.03254
0
LINE
8
BLACK
6
CONTINUOUS
10
10.1842
20
-1.03254
11
10.1753
21
-1.04136
0
LINE
8
BLACK
6
CONTINUOUS
10
10.1753
20
-1.04136
11
10.1674
21
-1.0512
0
LINE
8
BLACK
6
CONTINUOUS
10
10.1674
20
-1.0512
11
10.1608
21
-1.06191
0
LINE
8
BLACK
6
CONTINUOUS
10
10.1608
20
-1.06191
11
10.1556
21
-1.07333
0
LINE
8
BLACK
6
CONTINUOUS
10
10.1556
20
-1.07333
11
10.1517
21
-1.08531
0
LINE
8
BLACK
6
CONTINUOUS
10
10.1517
20
-1.08531
11
10.1493
21
-1.09766
0
LINE
8
BLACK
6
CONTINUOUS
10
10.1493
20
-1.09766
11
10.1484
21
-1.11021
0
LINE
8
BLACK
6
CONTINUOUS
10
10.1484
20
-1.11021
11
10.1491
21
-1.12277
0
LINE
8
BLACK
6
CONTINUOUS
10
10.1491
20
-1.12277
11
10.1512
21
-1.13517
  0
ENDSEC
  0
EOF
