<?xml version="1.0" standalone="no"?>
 <!DOCTYPE svg PUBLIC "-//W3C//DTD SVG 1.1//EN" 
 "http://www.w3.org/Graphics/SVG/1.1/DTD/svg11.dtd"> 
<svg
  xmlns:svg="http://www.w3.org/2000/svg"
  xmlns="http://www.w3.org/2000/svg"
  xmlns:xlink="http://www.w3.org/1999/xlink"
  version="1.1"
  width="29.700220cm" height="21.000720cm" viewBox="0 0 11693000 8268000">
<title>SVG Picture created as 2choc2flat-extmcu-iso-User_Eco1.svg date 2024/10/01 15:16:12 </title>
  <desc>Picture generated by PCBNEW </desc>
<g style="fill:#000000; fill-opacity:1.000000;stroke:#000000; stroke-opacity:1.000000;
stroke-linecap:round; stroke-linejoin:round;"
 transform="translate(0 0) scale(1 1)">
</g>
<g style="fill:#000000; fill-opacity:0.0; 
stroke:#000000; stroke-width:0.000000; stroke-opacity:1; 
stroke-linecap:round; stroke-linejoin:round;">
</g>
<g style="fill:#000000; fill-opacity:0.0; 
stroke:#000000; stroke-width:7874.015748; stroke-opacity:1; 
stroke-linecap:round; stroke-linejoin:round;">
<path d="M11268700 99409
L11268700 2170275
" />
<path d="M-16732 2170275
L169291 2170275
" />
<path d="M11082677.165354 2170275.590551 A78740.157480 78740.157480 0.0 0 0 11082677.165354 2327755.905512" />
<path d="M11268700.787402 99409.448819 A78740.118110 78740.118110 0.0 0 0 11189960.629921 20669.291339" />
<path d="M7262559 3133858
L6986968 3133858
" />
<path d="M7262559 3768703
L11189960 3768703
" />
<path d="M3325551 3089566
L6986968 3089566
" />
<path d="M11268700 2170275
L11082677 2170275
" />
<path d="M3325551 3133858
L3325551 3089566
" />
<path d="M6986968 3133858
L6986968 3089566
" />
<path d="M11268700 2327755
L11268700 3689963
" />
<path d="M-16732.274744 3689963.149717 A77762.125984 77762.125984 0.0 0 0 60039.370189 3768703.298366" />
<path d="M60039.370189 20669.300059 A77762.125984 77762.125984 0.0 0 0 -16732.274744 99409.448709" />
<path d="M-16732 2327755
L-16732 3689963
" />
<path d="M-16732 2327755
L169291 2327755
" />
<path d="M60039 20669
L11189960 20669
" />
<path d="M3049960 3133858
L3325551 3133858
" />
<path d="M7262559 3768703
L7262559 3133858
" />
<path d="M60039 3768703
L3049960 3768703
" />
<path d="M11082677 2327755
L11268700 2327755
" />
<path d="M11189960.629921 3768703.307087 A78740.118110 78740.118110 0.0 0 0 11268700.787402 3689963.149606" />
<path d="M169291.338583 2327755.905512 A78740.157480 78740.157480 0.0 0 0 169291.338583 2170275.590551" />
<path d="M3049960 3133858
L3049960 3768703
" />
<path d="M-16732 99409
L-16732 2170275
" />
</g>
<g style="fill:#000000; fill-opacity:0.0; 
stroke:#000000; stroke-width:3937.007874; stroke-opacity:1; 
stroke-linecap:round; stroke-linejoin:round;">
<path d="M5441683 3660433
L5441683 3089566
" />
<path d="M4870816 3089566
L4870816 3660433
" />
<path d="M4870816 3660433
L5441683 3660433
" />
<path d="M5441683 3089566
L4870816 3089566
" />
</g>
<g style="fill:#000000; fill-opacity:0.0; 
stroke:#000000; stroke-width:4724.409449; stroke-opacity:1; 
stroke-linecap:round; stroke-linejoin:round;">
<path d="M10941929 3121850
L10808070 3121850
" />
<path d="M10808070 3121850
L10808070 3239960
" />
<path d="M10941929 3239960
L10941929 3121850
" />
<path d="M10808070 3239960
L10941929 3239960
" />
<path d="M10191937 3121850
L10058079 3121850
" />
<path d="M10058079 3121850
L10058079 3239960
" />
<path d="M10191937 3239960
L10191937 3121850
" />
<path d="M10058079 3239960
L10191937 3239960
" />
<path d="M9441929 3121850
L9308070 3121850
" />
<path d="M9308070 3121850
L9308070 3239960
" />
<path d="M9441929 3239960
L9441929 3121850
" />
<path d="M9308070 3239960
L9441929 3239960
" />
<path d="M8691929 3121850
L8558070 3121850
" />
<path d="M8558070 3121850
L8558070 3239960
" />
<path d="M8691929 3239960
L8691929 3121850
" />
<path d="M8558070 3239960
L8691929 3239960
" />
<path d="M7941929 3121850
L7808070 3121850
" />
<path d="M7808070 3121850
L7808070 3239960
" />
<path d="M7941929 3239960
L7941929 3121850
" />
<path d="M7808070 3239960
L7941929 3239960
" />
<path d="M5223179 3121850
L5089320 3121850
" />
<path d="M5089320 3121850
L5089320 3239960
" />
<path d="M5223179 3239960
L5223179 3121850
" />
<path d="M5089320 3239960
L5223179 3239960
" />
<path d="M2410679 3121850
L2276820 3121850
" />
<path d="M2276820 3121850
L2276820 3239960
" />
<path d="M2410679 3239960
L2410679 3121850
" />
<path d="M2276820 3239960
L2410679 3239960
" />
<path d="M1473179 3121850
L1339320 3121850
" />
<path d="M1339320 3121850
L1339320 3239960
" />
<path d="M1473179 3239960
L1473179 3121850
" />
<path d="M1339320 3239960
L1473179 3239960
" />
<path d="M535679 3121850
L401820 3121850
" />
<path d="M401820 3121850
L401820 3239960
" />
<path d="M535679 3239960
L535679 3121850
" />
<path d="M401820 3239960
L535679 3239960
" />
<path d="M10808070 2489960
L10941929 2489960
" />
<path d="M10941929 2489960
L10941929 2371850
" />
<path d="M10808070 2371850
L10808070 2489960
" />
<path d="M10941929 2371850
L10808070 2371850
" />
<path d="M10058079 2489960
L10191937 2489960
" />
<path d="M10191937 2489960
L10191937 2371850
" />
<path d="M10058079 2371850
L10058079 2489960
" />
<path d="M10191937 2371850
L10058079 2371850
" />
<path d="M9308070 2489960
L9441929 2489960
" />
<path d="M9441929 2489960
L9441929 2371850
" />
<path d="M9308070 2371850
L9308070 2489960
" />
<path d="M9441929 2371850
L9308070 2371850
" />
<path d="M8558070 2489960
L8691929 2489960
" />
<path d="M8691929 2489960
L8691929 2371850
" />
<path d="M8558070 2371850
L8558070 2489960
" />
<path d="M8691929 2371850
L8558070 2371850
" />
<path d="M7808070 2489960
L7941929 2489960
" />
<path d="M7941929 2489960
L7941929 2371850
" />
<path d="M7808070 2371850
L7808070 2489960
" />
<path d="M7941929 2371850
L7808070 2371850
" />
<path d="M7058070 2489960
L7191929 2489960
" />
<path d="M7191929 2489960
L7191929 2371850
" />
<path d="M7058070 2371850
L7058070 2489960
" />
<path d="M7191929 2371850
L7058070 2371850
" />
<path d="M6308070 2489960
L6441929 2489960
" />
<path d="M6441929 2489960
L6441929 2371850
" />
<path d="M6308070 2371850
L6308070 2489960
" />
<path d="M6441929 2371850
L6308070 2371850
" />
<path d="M5558070 2489960
L5691929 2489960
" />
<path d="M5691929 2489960
L5691929 2371850
" />
<path d="M5558070 2371850
L5558070 2489960
" />
<path d="M5691929 2371850
L5558070 2371850
" />
<path d="M4808070 2489960
L4941929 2489960
" />
<path d="M4941929 2489960
L4941929 2371850
" />
<path d="M4808070 2371850
L4808070 2489960
" />
<path d="M4941929 2371850
L4808070 2371850
" />
<path d="M4058070 2489960
L4191929 2489960
" />
<path d="M4191929 2489960
L4191929 2371850
" />
<path d="M4058070 2371850
L4058070 2489960
" />
<path d="M4191929 2371850
L4058070 2371850
" />
<path d="M3308070 2489960
L3441929 2489960
" />
<path d="M3441929 2489960
L3441929 2371850
" />
<path d="M3308070 2371850
L3308070 2489960
" />
<path d="M3441929 2371850
L3308070 2371850
" />
<path d="M2558070 2489960
L2691929 2489960
" />
<path d="M2691929 2489960
L2691929 2371850
" />
<path d="M2558070 2371850
L2558070 2489960
" />
<path d="M2691929 2371850
L2558070 2371850
" />
<path d="M1808070 2489960
L1941929 2489960
" />
<path d="M1941929 2489960
L1941929 2371850
" />
<path d="M1808070 2371850
L1808070 2489960
" />
<path d="M1941929 2371850
L1808070 2371850
" />
<path d="M683070 2489960
L816929 2489960
" />
<path d="M816929 2489960
L816929 2371850
" />
<path d="M683070 2371850
L683070 2489960
" />
<path d="M816929 2371850
L683070 2371850
" />
<path d="M10848188 1246850
L10714329 1246850
" />
<path d="M10714329 1246850
L10714329 1364960
" />
<path d="M10848188 1364960
L10848188 1246850
" />
<path d="M10714329 1364960
L10848188 1364960
" />
<path d="M10004429 1621850
L9870570 1621850
" />
<path d="M9870570 1621850
L9870570 1739960
" />
<path d="M10004429 1739960
L10004429 1621850
" />
<path d="M9870570 1739960
L10004429 1739960
" />
<path d="M9254429 1621850
L9120570 1621850
" />
<path d="M9120570 1621850
L9120570 1739960
" />
<path d="M9254429 1739960
L9254429 1621850
" />
<path d="M9120570 1739960
L9254429 1739960
" />
<path d="M8504429 1621850
L8370570 1621850
" />
<path d="M8370570 1621850
L8370570 1739960
" />
<path d="M8504429 1739960
L8504429 1621850
" />
<path d="M8370570 1739960
L8504429 1739960
" />
<path d="M7754429 1621850
L7620570 1621850
" />
<path d="M7620570 1621850
L7620570 1739960
" />
<path d="M7754429 1739960
L7754429 1621850
" />
<path d="M7620570 1739960
L7754429 1739960
" />
<path d="M7004429 1621850
L6870570 1621850
" />
<path d="M6870570 1621850
L6870570 1739960
" />
<path d="M7004429 1739960
L7004429 1621850
" />
<path d="M6870570 1739960
L7004429 1739960
" />
<path d="M6254429 1621850
L6120570 1621850
" />
<path d="M6120570 1621850
L6120570 1739960
" />
<path d="M6254429 1739960
L6254429 1621850
" />
<path d="M6120570 1739960
L6254429 1739960
" />
<path d="M5504429 1621850
L5370570 1621850
" />
<path d="M5370570 1621850
L5370570 1739960
" />
<path d="M5504429 1739960
L5504429 1621850
" />
<path d="M5370570 1739960
L5504429 1739960
" />
<path d="M4754429 1621850
L4620570 1621850
" />
<path d="M4620570 1621850
L4620570 1739960
" />
<path d="M4754429 1739960
L4754429 1621850
" />
<path d="M4620570 1739960
L4754429 1739960
" />
<path d="M4004429 1621850
L3870570 1621850
" />
<path d="M3870570 1621850
L3870570 1739960
" />
<path d="M4004429 1739960
L4004429 1621850
" />
<path d="M3870570 1739960
L4004429 1739960
" />
<path d="M3254429 1621850
L3120570 1621850
" />
<path d="M3120570 1621850
L3120570 1739960
" />
<path d="M3254429 1739960
L3254429 1621850
" />
<path d="M3120570 1739960
L3254429 1739960
" />
<path d="M2504429 1621850
L2370570 1621850
" />
<path d="M2370570 1621850
L2370570 1739960
" />
<path d="M2504429 1739960
L2504429 1621850
" />
<path d="M2370570 1739960
L2504429 1739960
" />
<path d="M1754429 1621850
L1620570 1621850
" />
<path d="M1620570 1621850
L1620570 1739960
" />
<path d="M1754429 1739960
L1754429 1621850
" />
<path d="M1620570 1739960
L1754429 1739960
" />
<path d="M723179 1621850
L589320 1621850
" />
<path d="M589320 1621850
L589320 1739960
" />
<path d="M723179 1739960
L723179 1621850
" />
<path d="M589320 1739960
L723179 1739960
" />
<path d="M9683070 989960
L9816929 989960
" />
<path d="M9816929 989960
L9816929 871850
" />
<path d="M9683070 871850
L9683070 989960
" />
<path d="M9816929 871850
L9683070 871850
" />
<path d="M8933070 989960
L9066929 989960
" />
<path d="M9066929 989960
L9066929 871850
" />
<path d="M8933070 871850
L8933070 989960
" />
<path d="M9066929 871850
L8933070 871850
" />
<path d="M8183070 989960
L8316929 989960
" />
<path d="M8316929 989960
L8316929 871850
" />
<path d="M8183070 871850
L8183070 989960
" />
<path d="M8316929 871850
L8183070 871850
" />
<path d="M7433070 989960
L7566929 989960
" />
<path d="M7566929 989960
L7566929 871850
" />
<path d="M7433070 871850
L7433070 989960
" />
<path d="M7566929 871850
L7433070 871850
" />
<path d="M6683070 989960
L6816929 989960
" />
<path d="M6816929 989960
L6816929 871850
" />
<path d="M6683070 871850
L6683070 989960
" />
<path d="M6816929 871850
L6683070 871850
" />
<path d="M5933070 989960
L6066929 989960
" />
<path d="M6066929 989960
L6066929 871850
" />
<path d="M5933070 871850
L5933070 989960
" />
<path d="M6066929 871850
L5933070 871850
" />
<path d="M5183070 989960
L5316929 989960
" />
<path d="M5316929 989960
L5316929 871850
" />
<path d="M5183070 871850
L5183070 989960
" />
<path d="M5316929 871850
L5183070 871850
" />
<path d="M4433070 989960
L4566929 989960
" />
<path d="M4566929 989960
L4566929 871850
" />
<path d="M4433070 871850
L4433070 989960
" />
<path d="M4566929 871850
L4433070 871850
" />
<path d="M3683070 989960
L3816929 989960
" />
<path d="M3816929 989960
L3816929 871850
" />
<path d="M3683070 871850
L3683070 989960
" />
<path d="M3816929 871850
L3683070 871850
" />
<path d="M2933070 989960
L3066929 989960
" />
<path d="M3066929 989960
L3066929 871850
" />
<path d="M2933070 871850
L2933070 989960
" />
<path d="M3066929 871850
L2933070 871850
" />
<path d="M2183070 989960
L2316929 989960
" />
<path d="M2316929 989960
L2316929 871850
" />
<path d="M2183070 871850
L2183070 989960
" />
<path d="M2316929 871850
L2183070 871850
" />
<path d="M1433070 989960
L1566929 989960
" />
<path d="M1566929 989960
L1566929 871850
" />
<path d="M1433070 871850
L1433070 989960
" />
<path d="M1566929 871850
L1433070 871850
" />
<path d="M495570 989960
L629429 989960
" />
<path d="M629429 989960
L629429 871850
" />
<path d="M495570 871850
L495570 989960
" />
<path d="M629429 871850
L495570 871850
" />
<path d="M10941929 121850
L10808070 121850
" />
<path d="M10808070 121850
L10808070 239960
" />
<path d="M10941929 239960
L10941929 121850
" />
<path d="M10808070 239960
L10941929 239960
" />
<path d="M10191929 121850
L10058070 121850
" />
<path d="M10058070 121850
L10058070 239960
" />
<path d="M10191929 239960
L10191929 121850
" />
<path d="M10058070 239960
L10191929 239960
" />
<path d="M9441929 121850
L9308070 121850
" />
<path d="M9308070 121850
L9308070 239960
" />
<path d="M9441929 239960
L9441929 121850
" />
<path d="M9308070 239960
L9441929 239960
" />
<path d="M8691929 121850
L8558070 121850
" />
<path d="M8558070 121850
L8558070 239960
" />
<path d="M8691929 239960
L8691929 121850
" />
<path d="M8558070 239960
L8691929 239960
" />
<path d="M7941929 121850
L7808070 121850
" />
<path d="M7808070 121850
L7808070 239960
" />
<path d="M7941929 239960
L7941929 121850
" />
<path d="M7808070 239960
L7941929 239960
" />
<path d="M7191929 121850
L7058070 121850
" />
<path d="M7058070 121850
L7058070 239960
" />
<path d="M7191929 239960
L7191929 121850
" />
<path d="M7058070 239960
L7191929 239960
" />
<path d="M6441929 121850
L6308070 121850
" />
<path d="M6308070 121850
L6308070 239960
" />
<path d="M6441929 239960
L6441929 121850
" />
<path d="M6308070 239960
L6441929 239960
" />
<path d="M5691929 121850
L5558070 121850
" />
<path d="M5558070 121850
L5558070 239960
" />
<path d="M5691929 239960
L5691929 121850
" />
<path d="M5558070 239960
L5691929 239960
" />
<path d="M4941929 121850
L4808070 121850
" />
<path d="M4808070 121850
L4808070 239960
" />
<path d="M4941929 239960
L4941929 121850
" />
<path d="M4808070 239960
L4941929 239960
" />
<path d="M4191929 121850
L4058070 121850
" />
<path d="M4058070 121850
L4058070 239960
" />
<path d="M4191929 239960
L4191929 121850
" />
<path d="M4058070 239960
L4191929 239960
" />
<path d="M3441929 121850
L3308070 121850
" />
<path d="M3308070 121850
L3308070 239960
" />
<path d="M3441929 239960
L3441929 121850
" />
<path d="M3308070 239960
L3441929 239960
" />
<path d="M2691929 121850
L2558070 121850
" />
<path d="M2558070 121850
L2558070 239960
" />
<path d="M2691929 239960
L2691929 121850
" />
<path d="M2558070 239960
L2691929 239960
" />
<path d="M1941929 121850
L1808070 121850
" />
<path d="M1808070 121850
L1808070 239960
" />
<path d="M1941929 239960
L1941929 121850
" />
<path d="M1808070 239960
L1941929 239960
" />
<path d="M1191929 121850
L1058070 121850
" />
<path d="M1058070 121850
L1058070 239960
" />
<path d="M1191929 239960
L1191929 121850
" />
<path d="M1058070 239960
L1191929 239960
" />
<path d="M447826 121850
L313968 121850
" />
<path d="M313968 121850
L313968 239960
" />
<path d="M447826 239960
L447826 121850
" />
<path d="M313968 239960
L447826 239960
" />
</g>
<g style="fill:#000000; fill-opacity:0.0; 
stroke:#000000; stroke-width:3937.007874; stroke-opacity:1; 
stroke-linecap:round; stroke-linejoin:round;">
<path d="M2714566 1410433
L3285433 1410433
" />
<path d="M3285433 839566
L2714566 839566
" />
<path d="M2714566 839566
L2714566 1410433
" />
<path d="M3285433 1410433
L3285433 839566
" />
<path d="M3464566 1410433
L4035433 1410433
" />
<path d="M4035433 839566
L3464566 839566
" />
<path d="M3464566 839566
L3464566 1410433
" />
<path d="M4035433 1410433
L4035433 839566
" />
<path d="M5714566 1410433
L6285433 1410433
" />
<path d="M6285433 839566
L5714566 839566
" />
<path d="M5714566 839566
L5714566 1410433
" />
<path d="M6285433 1410433
L6285433 839566
" />
<path d="M6464566 1410433
L7035433 1410433
" />
<path d="M7035433 839566
L6464566 839566
" />
<path d="M6464566 839566
L6464566 1410433
" />
<path d="M7035433 1410433
L7035433 839566
" />
<path d="M1214566 1410433
L1785433 1410433
" />
<path d="M1785433 839566
L1214566 839566
" />
<path d="M1214566 839566
L1214566 1410433
" />
<path d="M1785433 1410433
L1785433 839566
" />
<path d="M4964566 1410433
L5535433 1410433
" />
<path d="M5535433 839566
L4964566 839566
" />
<path d="M4964566 839566
L4964566 1410433
" />
<path d="M5535433 1410433
L5535433 839566
" />
<path d="M4214566 1410433
L4785433 1410433
" />
<path d="M4785433 839566
L4214566 839566
" />
<path d="M4214566 839566
L4214566 1410433
" />
<path d="M4785433 1410433
L4785433 839566
" />
<path d="M1964566 1410433
L2535433 1410433
" />
<path d="M2535433 839566
L1964566 839566
" />
<path d="M1964566 839566
L1964566 1410433
" />
<path d="M2535433 1410433
L2535433 839566
" />
<path d="M277066 1410433
L847933 1410433
" />
<path d="M847933 839566
L277066 839566
" />
<path d="M847933 1410433
L847933 839566
" />
<path d="M277066 839566
L277066 1410433
" />
<path d="M5339566 660433
L5910433 660433
" />
<path d="M5910433 89566
L5339566 89566
" />
<path d="M5339566 89566
L5339566 660433
" />
<path d="M5910433 660433
L5910433 89566
" />
<path d="M6839566 660433
L7410433 660433
" />
<path d="M7410433 89566
L6839566 89566
" />
<path d="M6839566 89566
L6839566 660433
" />
<path d="M7410433 660433
L7410433 89566
" />
<path d="M9839566 660433
L10410433 660433
" />
<path d="M10410433 89566
L9839566 89566
" />
<path d="M9839566 89566
L9839566 660433
" />
<path d="M10410433 660433
L10410433 89566
" />
<path d="M3089566 660433
L3660433 660433
" />
<path d="M3660433 89566
L3089566 89566
" />
<path d="M3089566 89566
L3089566 660433
" />
<path d="M3660433 660433
L3660433 89566
" />
<path d="M9089566 660433
L9660433 660433
" />
<path d="M9660433 89566
L9089566 89566
" />
<path d="M9089566 89566
L9089566 660433
" />
<path d="M9660433 660433
L9660433 89566
" />
<path d="M8339566 660433
L8910433 660433
" />
<path d="M8910433 89566
L8339566 89566
" />
<path d="M8339566 89566
L8339566 660433
" />
<path d="M8910433 660433
L8910433 89566
" />
<path d="M7589566 660433
L8160433 660433
" />
<path d="M8160433 89566
L7589566 89566
" />
<path d="M7589566 89566
L7589566 660433
" />
<path d="M8160433 660433
L8160433 89566
" />
<path d="M6089566 660433
L6660433 660433
" />
<path d="M6660433 89566
L6089566 89566
" />
<path d="M6089566 89566
L6089566 660433
" />
<path d="M6660433 660433
L6660433 89566
" />
<path d="M4589566 660433
L5160433 660433
" />
<path d="M5160433 89566
L4589566 89566
" />
<path d="M4589566 89566
L4589566 660433
" />
<path d="M5160433 660433
L5160433 89566
" />
<path d="M3839566 660433
L4410433 660433
" />
<path d="M4410433 89566
L3839566 89566
" />
<path d="M3839566 89566
L3839566 660433
" />
<path d="M4410433 660433
L4410433 89566
" />
<path d="M2339566 660433
L2910433 660433
" />
<path d="M2910433 89566
L2339566 89566
" />
<path d="M2339566 89566
L2339566 660433
" />
<path d="M2910433 660433
L2910433 89566
" />
<path d="M839566 660433
L1410433 660433
" />
<path d="M1410433 89566
L839566 89566
" />
<path d="M839566 89566
L839566 660433
" />
<path d="M1410433 660433
L1410433 89566
" />
<path d="M89566 660433
L660433 660433
" />
<path d="M660433 89566
L89566 89566
" />
<path d="M89566 89566
L89566 660433
" />
<path d="M660433 660433
L660433 89566
" />
<path d="M1589566 660433
L2160433 660433
" />
<path d="M2160433 89566
L1589566 89566
" />
<path d="M1589566 89566
L1589566 660433
" />
<path d="M2160433 660433
L2160433 89566
" />
<path d="M7589566 3660433
L8160433 3660433
" />
<path d="M8160433 3089566
L7589566 3089566
" />
<path d="M7589566 3089566
L7589566 3660433
" />
<path d="M8160433 3660433
L8160433 3089566
" />
<path d="M6089566 2910433
L6660433 2910433
" />
<path d="M6660433 2339566
L6089566 2339566
" />
<path d="M6089566 2339566
L6089566 2910433
" />
<path d="M6660433 2910433
L6660433 2339566
" />
<path d="M9839575 2910435
L10410441 2910435
" />
<path d="M10410441 2339569
L9839575 2339569
" />
<path d="M9839575 2339569
L9839575 2910435
" />
<path d="M10410441 2910435
L10410441 2339569
" />
<path d="M9089566 2910433
L9660433 2910433
" />
<path d="M9660433 2339566
L9089566 2339566
" />
<path d="M9089566 2339566
L9089566 2910433
" />
<path d="M9660433 2910433
L9660433 2339566
" />
<path d="M6839566 2910433
L7410433 2910433
" />
<path d="M7410433 2339566
L6839566 2339566
" />
<path d="M6839566 2339566
L6839566 2910433
" />
<path d="M7410433 2910433
L7410433 2339566
" />
<path d="M8339566 2910433
L8910433 2910433
" />
<path d="M8910433 2339566
L8339566 2339566
" />
<path d="M8339566 2339566
L8339566 2910433
" />
<path d="M8910433 2910433
L8910433 2339566
" />
<path d="M5339566 2910433
L5910433 2910433
" />
<path d="M5910433 2339566
L5339566 2339566
" />
<path d="M5339566 2339566
L5339566 2910433
" />
<path d="M5910433 2910433
L5910433 2339566
" />
<path d="M7589566 2910433
L8160433 2910433
" />
<path d="M8160433 2339566
L7589566 2339566
" />
<path d="M7589566 2339566
L7589566 2910433
" />
<path d="M8160433 2910433
L8160433 2339566
" />
<path d="M9839566 3660433
L10410433 3660433
" />
<path d="M10410433 3089566
L9839566 3089566
" />
<path d="M9839566 3089566
L9839566 3660433
" />
<path d="M10410433 3660433
L10410433 3089566
" />
<path d="M9089566 3660433
L9660433 3660433
" />
<path d="M9660433 3089566
L9089566 3089566
" />
<path d="M9089566 3089566
L9089566 3660433
" />
<path d="M9660433 3660433
L9660433 3089566
" />
<path d="M9464566 1410433
L10035433 1410433
" />
<path d="M10035433 839566
L9464566 839566
" />
<path d="M9464566 839566
L9464566 1410433
" />
<path d="M10035433 1410433
L10035433 839566
" />
<path d="M2339566 2910433
L2910433 2910433
" />
<path d="M2910433 2339566
L2339566 2339566
" />
<path d="M2339566 2339566
L2339566 2910433
" />
<path d="M2910433 2910433
L2910433 2339566
" />
<path d="M7214566 1410433
L7785433 1410433
" />
<path d="M7785433 839566
L7214566 839566
" />
<path d="M7214566 839566
L7214566 1410433
" />
<path d="M7785433 1410433
L7785433 839566
" />
<path d="M4402066 2160433
L4972933 2160433
" />
<path d="M4972933 1589566
L4402066 1589566
" />
<path d="M4402066 1589566
L4402066 2160433
" />
<path d="M4972933 2160433
L4972933 1589566
" />
<path d="M2152066 2160433
L2722933 2160433
" />
<path d="M2722933 1589566
L2152066 1589566
" />
<path d="M2152066 1589566
L2152066 2160433
" />
<path d="M2722933 2160433
L2722933 1589566
" />
<path d="M2058316 3660433
L2629183 3660433
" />
<path d="M2058316 3089566
L2058316 3660433
" />
<path d="M2629183 3660433
L2629183 3089566
" />
<path d="M2629183 3089566
L2058316 3089566
" />
<path d="M8339566 3660433
L8910433 3660433
" />
<path d="M8910433 3089566
L8339566 3089566
" />
<path d="M8339566 3089566
L8339566 3660433
" />
<path d="M8910433 3660433
L8910433 3089566
" />
<path d="M10589566 2910433
L11160433 2910433
" />
<path d="M11160433 2339566
L10589566 2339566
" />
<path d="M10589566 2339566
L10589566 2910433
" />
<path d="M11160433 2910433
L11160433 2339566
" />
<path d="M6652066 2160433
L7222933 2160433
" />
<path d="M7222933 1589566
L6652066 1589566
" />
<path d="M6652066 1589566
L6652066 2160433
" />
<path d="M7222933 2160433
L7222933 1589566
" />
<path d="M754183 3089566
L183316 3089566
" />
<path d="M754183 3660433
L754183 3089566
" />
<path d="M183316 3089566
L183316 3660433
" />
<path d="M183316 3660433
L754183 3660433
" />
<path d="M8714566 1410433
L9285433 1410433
" />
<path d="M9285433 839566
L8714566 839566
" />
<path d="M8714566 839566
L8714566 1410433
" />
<path d="M9285433 1410433
L9285433 839566
" />
<path d="M3839566 2910433
L4410433 2910433
" />
<path d="M4410433 2339566
L3839566 2339566
" />
<path d="M3839566 2339566
L3839566 2910433
" />
<path d="M4410433 2910433
L4410433 2339566
" />
<path d="M2902066 2160433
L3472933 2160433
" />
<path d="M3472933 1589566
L2902066 1589566
" />
<path d="M2902066 1589566
L2902066 2160433
" />
<path d="M3472933 2160433
L3472933 1589566
" />
<path d="M9652066 2160433
L10222933 2160433
" />
<path d="M10222933 1589566
L9652066 1589566
" />
<path d="M9652066 1589566
L9652066 2160433
" />
<path d="M10222933 2160433
L10222933 1589566
" />
<path d="M5902066 2160433
L6472933 2160433
" />
<path d="M6472933 1589566
L5902066 1589566
" />
<path d="M5902066 1589566
L5902066 2160433
" />
<path d="M6472933 2160433
L6472933 1589566
" />
<path d="M3652066 2160433
L4222933 2160433
" />
<path d="M4222933 1589566
L3652066 1589566
" />
<path d="M3652066 1589566
L3652066 2160433
" />
<path d="M4222933 2160433
L4222933 1589566
" />
<path d="M1402066 2160433
L1972933 2160433
" />
<path d="M1972933 1589566
L1402066 1589566
" />
<path d="M1402066 1589566
L1402066 2160433
" />
<path d="M1972933 2160433
L1972933 1589566
" />
<path d="M7402066 2160433
L7972933 2160433
" />
<path d="M7972933 1589566
L7402066 1589566
" />
<path d="M7402066 1589566
L7402066 2160433
" />
<path d="M7972933 2160433
L7972933 1589566
" />
</g>
<g style="fill:#000000; fill-opacity:0.0; 
stroke:#000000; stroke-width:4724.409449; stroke-opacity:1; 
stroke-linecap:round; stroke-linejoin:round;">
<path d="M415354 2339566
L415354 2382874
" />
<path d="M1360236 2382874
L1360236 3012795
" />
<path d="M1084645 2339566
L415354 2339566
" />
<path d="M139763 3012795
L415354 3012795
" />
<path d="M139763 2382874
L139763 3012795
" />
<path d="M1360236 2382874
L1084645 2382874
" />
<path d="M1084645 3012795
L415354 3012795
" />
<path d="M1084645 2382874
L1084645 2339566
" />
<path d="M415354 2382874
L139763 2382874
" />
<path d="M1360236 3012795
L1084645 3012795
" />
</g>
<g style="fill:#000000; fill-opacity:0.0; 
stroke:#000000; stroke-width:3937.007874; stroke-opacity:1; 
stroke-linecap:round; stroke-linejoin:round;">
<path d="M8902066 2160433
L9472933 2160433
" />
<path d="M9472933 1589566
L8902066 1589566
" />
<path d="M8902066 1589566
L8902066 2160433
" />
<path d="M9472933 2160433
L9472933 1589566
" />
<path d="M8152066 2160433
L8722933 2160433
" />
<path d="M8722933 1589566
L8152066 1589566
" />
<path d="M8152066 1589566
L8152066 2160433
" />
<path d="M8722933 2160433
L8722933 1589566
" />
<path d="M7964566 1410433
L8535433 1410433
" />
<path d="M8535433 839566
L7964566 839566
" />
<path d="M7964566 839566
L7964566 1410433
" />
<path d="M8535433 1410433
L8535433 839566
" />
<path d="M5152066 2160433
L5722933 2160433
" />
<path d="M5722933 1589566
L5152066 1589566
" />
<path d="M5152066 1589566
L5152066 2160433
" />
<path d="M5722933 2160433
L5722933 1589566
" />
<path d="M370816 1589566
L370816 2160433
" />
<path d="M370816 2160433
L941683 2160433
" />
<path d="M941683 2160433
L941683 1589566
" />
<path d="M941683 1589566
L370816 1589566
" />
<path d="M4589566 2910433
L5160433 2910433
" />
<path d="M5160433 2339566
L4589566 2339566
" />
<path d="M4589566 2339566
L4589566 2910433
" />
<path d="M5160433 2910433
L5160433 2339566
" />
<path d="M1691683 3089566
L1120816 3089566
" />
<path d="M1691683 3660433
L1691683 3089566
" />
<path d="M1120816 3089566
L1120816 3660433
" />
<path d="M1120816 3660433
L1691683 3660433
" />
<path d="M3089566 2910433
L3660433 2910433
" />
<path d="M3660433 2339566
L3089566 2339566
" />
<path d="M3089566 2339566
L3089566 2910433
" />
<path d="M3660433 2910433
L3660433 2339566
" />
</g>
<g style="fill:#000000; fill-opacity:0.0; 
stroke:#000000; stroke-width:7874.015748; stroke-opacity:1; 
stroke-linecap:round; stroke-linejoin:round;">
<circle cx="10252952.755906" cy="1111301.181102" r="108267.716535" /> 
<circle cx="1007874.015748" cy="1125000.944882" r="108267.716535" /> 
<circle cx="5062504.251969" cy="1867127.559055" r="96456.692913" /> 
<circle cx="7500006.299213" cy="3367125.984252" r="108267.716535" /> 
</g>
<g style="fill:#000000; fill-opacity:0.0; 
stroke:#000000; stroke-width:4724.409449; stroke-opacity:1; 
stroke-linecap:round; stroke-linejoin:round;">
<path d="M11066692 1165354
L11023385 1165354
" />
<path d="M11066692 1834645
L11066692 1165354
" />
<path d="M11023385 2110236
L10393463 2110236
" />
<path d="M10393463 889763
L10393463 1165354
" />
<path d="M11023385 889763
L10393463 889763
" />
<path d="M11023385 2110236
L11023385 1834645
" />
<path d="M10393463 1834645
L10393463 1165354
" />
<path d="M11023385 1834645
L11066692 1834645
" />
<path d="M11023385 1165354
L11023385 889763
" />
<path d="M10393463 2110236
L10393463 1834645
" />
</g>
<g style="fill:#000000; fill-opacity:0.0; 
stroke:#000000; stroke-width:3937.007874; stroke-opacity:1; 
stroke-linecap:round; stroke-linejoin:round;">
<path d="M1589566 2910433
L2160433 2910433
" />
<path d="M2160433 2339566
L1589566 2339566
" />
<path d="M1589566 2339566
L1589566 2910433
" />
<path d="M2160433 2910433
L2160433 2339566
" />
<path d="M10589566 3660433
L11160433 3660433
" />
<path d="M11160433 3089566
L10589566 3089566
" />
<path d="M10589566 3089566
L10589566 3660433
" />
<path d="M11160433 3660433
L11160433 3089566
" />
<path d="M10589566 660433
L11160433 660433
" />
<path d="M11160433 89566
L10589566 89566
" />
<path d="M10589566 89566
L10589566 660433
" />
<path d="M11160433 660433
L11160433 89566
" />
<g >
</g>
<g >
</g>
<g >
</g>
<g >
</g>
<g >
</g>
<g >
</g>
<g >
</g>
<g >
</g>
<g >
</g>
<g >
</g>
<g >
</g>
<g >
</g>
<g >
</g>
<g >
</g>
<g >
</g>
<g >
</g>
<g >
</g>
<g >
</g>
<g >
</g>
<g >
</g>
<g >
</g>
<g >
</g>
<g >
</g>
<g >
</g>
<g >
</g>
<g >
</g>
<g >
</g>
<g >
</g>
<g >
</g>
<g >
</g>
<g >
</g>
<g >
</g>
<g >
</g>
<g >
</g>
<g >
</g>
<g >
</g>
<g >
</g>
<g >
</g>
<g >
</g>
<g >
</g>
<g >
</g>
<g >
</g>
<g >
</g>
<g >
</g>
<g >
</g>
<g >
</g>
<g >
</g>
<g >
</g>
<g >
</g>
<g >
</g>
<g >
</g>
<g >
</g>
<g >
</g>
<g >
</g>
<g >
</g>
<g >
</g>
<g >
</g>
<g >
</g>
<g >
</g>
<g >
</g>
<g >
</g>
<g >
</g>
<g >
</g>
<g >
</g>
<g >
</g>
<g >
</g>
<g >
</g>
<g >
</g>
<g >
</g>
<g >
</g>
<g >
</g>
<g >
</g>
<g >
</g>
<g >
</g>
<g >
</g>
<g >
</g>
<g >
</g>
<g >
</g>
<g >
</g>
<g >
</g>
<g >
</g>
<g >
</g>
<g >
</g>
<g >
</g>
<g >
</g>
<g >
</g>
<g >
</g>
<g >
</g>
<g >
</g>
<g >
</g>
<g >
</g>
<g >
</g>
<g >
</g>
<g >
</g>
<g >
</g>
<g >
</g>
<g >
</g>
<g >
</g>
<g >
</g>
<g >
</g>
<g >
</g>
<g >
</g>
<g >
</g>
<g >
</g>
<g >
</g>
<g >
</g>
<g >
</g>
<g >
</g>
<g >
</g>
<g >
</g>
<g >
</g>
<g >
</g>
<g >
</g>
<g >
</g>
<g >
</g>
<g >
</g>
<g >
</g>
<g >
</g>
<g >
</g>
<g >
</g>
<g >
</g>
<g >
</g>
<g >
</g>
<g >
</g>
<g >
</g>
<g >
</g>
<g >
</g>
<g >
</g>
<g >
</g>
<g >
</g>
<g >
</g>
<g >
</g>
<g >
</g>
<g >
</g>
<g >
</g>
<g >
</g>
<g >
</g>
<g >
</g>
<g >
</g>
<g >
</g>
<g >
</g>
<g >
</g>
<g >
</g>
<g >
</g>
<g >
</g>
<g >
</g>
<g >
</g>
<g >
</g>
<g >
</g>
<g >
</g>
<g >
</g>
<g >
</g>
<g >
</g>
<g >
</g>
<g >
</g>
<g >
</g>
<g >
</g>
<g >
</g>
<g >
</g>
<g >
</g>
<g >
</g>
<g >
</g>
<g >
</g>
<g >
</g>
<g >
</g>
<g >
</g>
<g >
</g>
<g >
</g>
<g >
</g>
<g >
</g>
<g >
</g>
<g >
</g>
<g >
</g>
<g >
</g>
<g >
</g>
<g >
</g>
<g >
</g>
<g >
</g>
<g >
</g>
<g >
</g>
<g >
</g>
<g >
</g>
<g >
</g>
<g >
</g>
<g >
</g>
<g >
</g>
<g >
</g>
<g >
</g>
<g >
</g>
<g >
</g>
<g >
</g>
<g >
</g>
<g >
</g>
<g >
</g>
<g >
</g>
<g >
</g>
<g >
</g>
<g >
</g>
<g >
</g>
<g >
</g>
<g >
</g>
<g >
</g>
<g >
</g>
<g >
</g>
<g >
</g>
<g >
</g>
<g >
</g>
<g >
</g>
<g >
</g>
<g >
</g>
<g >
</g>
<g >
</g>
<g >
</g>
<g >
</g>
<g >
</g>
<g >
</g>
<g >
</g>
<g >
</g>
<g >
</g>
<g >
</g>
<g >
</g>
<g >
</g>
<g >
</g>
</g> 
</svg>
