  0
SECTION
  2
HEADER
  9
$ACADVER
  1
AC1009
  9
$FILLMODE
 70
 0
  9
$SPLFRAME
 70
 1
  9
$EXTMIN
 10
0
 20
0
 30
0.0
  9
$EXTMAX
 10
1058.33
 20
1058.33
 30
0.0
  0
ENDSEC
  0
SECTION
  2
TABLES
  0
TABLE
  2
LAYER
 70
1
  0
LAYER
  2
0
 70
     0
 62
     7
  6
CONTINUOUS
  0
ENDTAB
  0
ENDSEC
  0
SECTION
  2
ENTITIES
  0
LINE
  8
0
 62
     0
 10
283.22
 20
95.5075
 30
0.0
 11
283.417
 21
95.5008
 31
0.0
  0
LINE
  8
0
 62
     0
 10
283.417
 20
95.5008
 30
0.0
 11
283.611
 21
95.4775
 31
0.0
  0
LINE
  8
0
 62
     0
 10
283.611
 20
95.4775
 30
0.0
 11
283.803
 21
95.4387
 31
0.0
  0
LINE
  8
0
 62
     0
 10
283.803
 20
95.4387
 30
0.0
 11
283.993
 21
95.3851
 31
0.0
  0
LINE
  8
0
 62
     0
 10
283.993
 20
95.3851
 30
0.0
 11
284.176
 21
95.3174
 31
0.0
  0
LINE
  8
0
 62
     0
 10
284.176
 20
95.3174
 30
0.0
 11
284.354
 21
95.2348
 31
0.0
  0
LINE
  8
0
 62
     0
 10
284.354
 20
95.2348
 30
0.0
 11
284.526
 21
95.1399
 31
0.0
  0
LINE
  8
0
 62
     0
 10
284.526
 20
95.1399
 30
0.0
 11
284.69
 21
95.0309
 31
0.0
  0
LINE
  8
0
 62
     0
 10
284.69
 20
95.0309
 30
0.0
 11
284.843
 21
94.9096
 31
0.0
  0
LINE
  8
0
 62
     0
 10
284.843
 20
94.9096
 30
0.0
 11
284.988
 21
94.7759
 31
0.0
  0
LINE
  8
0
 62
     0
 10
284.988
 20
94.7759
 30
0.0
 11
285.122
 21
94.6312
 31
0.0
  0
LINE
  8
0
 62
     0
 10
285.122
 20
94.6312
 30
0.0
 11
285.243
 21
94.4771
 31
0.0
  0
LINE
  8
0
 62
     0
 10
285.243
 20
94.4771
 30
0.0
 11
285.352
 21
94.3144
 31
0.0
  0
LINE
  8
0
 62
     0
 10
285.352
 20
94.3144
 30
0.0
 11
285.447
 21
94.1419
 31
0.0
  0
LINE
  8
0
 62
     0
 10
285.447
 20
94.1419
 30
0.0
 11
285.53
 21
93.9641
 31
0.0
  0
LINE
  8
0
 62
     0
 10
285.53
 20
93.9641
 30
0.0
 11
285.597
 21
93.7796
 31
0.0
  0
LINE
  8
0
 62
     0
 10
285.597
 20
93.7796
 30
0.0
 11
285.651
 21
93.5909
 31
0.0
  0
LINE
  8
0
 62
     0
 10
285.651
 20
93.5909
 30
0.0
 11
285.691
 21
93.3993
 31
0.0
  0
LINE
  8
0
 62
     0
 10
285.691
 20
93.3993
 30
0.0
 11
285.713
 21
93.2035
 31
0.0
  0
LINE
  8
0
 62
     0
 10
285.713
 20
93.2035
 30
0.0
 11
285.721
 21
93.0081
 31
0.0
  0
LINE
  8
0
 62
     0
 10
285.721
 20
93.0081
 30
0.0
 11
285.721
 21
41.5946
 31
0.0
  0
LINE
  8
0
 62
     0
 10
285.721
 20
41.5946
 30
0.0
 11
282.72
 21
41.5946
 31
0.0
  0
LINE
  8
0
 62
     0
 10
282.72
 20
41.5946
 30
0.0
 11
281.831
 21
41.4542
 31
0.0
  0
LINE
  8
0
 62
     0
 10
281.831
 20
41.4542
 30
0.0
 11
281.029
 21
41.0464
 31
0.0
  0
LINE
  8
0
 62
     0
 10
281.029
 20
41.0464
 30
0.0
 11
280.393
 21
40.4096
 31
0.0
  0
LINE
  8
0
 62
     0
 10
280.393
 20
40.4096
 30
0.0
 11
279.986
 21
39.6088
 31
0.0
  0
LINE
  8
0
 62
     0
 10
279.986
 20
39.6088
 30
0.0
 11
279.845
 21
38.7202
 31
0.0
  0
LINE
  8
0
 62
     0
 10
279.845
 20
38.7202
 30
0.0
 11
279.986
 21
37.8298
 31
0.0
  0
LINE
  8
0
 62
     0
 10
279.986
 20
37.8298
 30
0.0
 11
280.393
 21
37.0279
 31
0.0
  0
LINE
  8
0
 62
     0
 10
280.393
 20
37.0279
 30
0.0
 11
281.029
 21
36.3926
 31
0.0
  0
LINE
  8
0
 62
     0
 10
281.029
 20
36.3926
 30
0.0
 11
281.831
 21
35.9847
 31
0.0
  0
LINE
  8
0
 62
     0
 10
281.831
 20
35.9847
 30
0.0
 11
282.72
 21
35.844
 31
0.0
  0
LINE
  8
0
 62
     0
 10
282.72
 20
35.844
 30
0.0
 11
285.721
 21
35.844
 31
0.0
  0
LINE
  8
0
 62
     0
 10
285.721
 20
35.844
 30
0.0
 11
285.721
 21
2.83049
 31
0.0
  0
LINE
  8
0
 62
     0
 10
285.721
 20
2.83049
 30
0.0
 11
285.713
 21
2.63481
 31
0.0
  0
LINE
  8
0
 62
     0
 10
285.713
 20
2.63481
 30
0.0
 11
285.691
 21
2.44051
 31
0.0
  0
LINE
  8
0
 62
     0
 10
285.691
 20
2.44051
 30
0.0
 11
285.651
 21
2.24896
 31
0.0
  0
LINE
  8
0
 62
     0
 10
285.651
 20
2.24896
 30
0.0
 11
285.597
 21
2.05879
 31
0.0
  0
LINE
  8
0
 62
     0
 10
285.597
 20
2.05879
 30
0.0
 11
285.53
 21
1.87413
 31
0.0
  0
LINE
  8
0
 62
     0
 10
285.53
 20
1.87413
 30
0.0
 11
285.447
 21
1.69636
 31
0.0
  0
LINE
  8
0
 62
     0
 10
285.447
 20
1.69636
 30
0.0
 11
285.352
 21
1.52549
 31
0.0
  0
LINE
  8
0
 62
     0
 10
285.352
 20
1.52549
 30
0.0
 11
285.243
 21
1.36288
 31
0.0
  0
LINE
  8
0
 62
     0
 10
285.243
 20
1.36288
 30
0.0
 11
285.122
 21
1.20716
 31
0.0
  0
LINE
  8
0
 62
     0
 10
285.122
 20
1.20716
 30
0.0
 11
284.988
 21
1.06385
 31
0.0
  0
LINE
  8
0
 62
     0
 10
284.988
 20
1.06385
 30
0.0
 11
284.843
 21
0.930176
 31
0.0
  0
LINE
  8
0
 62
     0
 10
284.843
 20
0.930176
 30
0.0
 11
284.69
 21
0.808909
 31
0.0
  0
LINE
  8
0
 62
     0
 10
284.69
 20
0.808909
 30
0.0
 11
284.526
 21
0.698666
 31
0.0
  0
LINE
  8
0
 62
     0
 10
284.526
 20
0.698666
 30
0.0
 11
284.354
 21
0.603582
 31
0.0
  0
LINE
  8
0
 62
     0
 10
284.354
 20
0.603582
 30
0.0
 11
284.176
 21
0.522277
 31
0.0
  0
LINE
  8
0
 62
     0
 10
284.176
 20
0.522277
 30
0.0
 11
283.993
 21
0.454752
 31
0.0
  0
LINE
  8
0
 62
     0
 10
283.993
 20
0.454752
 30
0.0
 11
283.803
 21
0.40101
 31
0.0
  0
LINE
  8
0
 62
     0
 10
283.803
 20
0.40101
 30
0.0
 11
283.611
 21
0.362423
 31
0.0
  0
LINE
  8
0
 62
     0
 10
283.611
 20
0.362423
 30
0.0
 11
283.417
 21
0.337619
 31
0.0
  0
LINE
  8
0
 62
     0
 10
283.417
 20
0.337619
 30
0.0
 11
283.22
 21
0.330729
 31
0.0
  0
LINE
  8
0
 62
     0
 10
283.22
 20
0.330729
 30
0.0
 11
2.59485
 21
0.330729
 31
0.0
  0
LINE
  8
0
 62
     0
 10
2.59485
 20
0.330729
 30
0.0
 11
2.39916
 21
0.337619
 31
0.0
  0
LINE
  8
0
 62
     0
 10
2.39916
 20
0.337619
 30
0.0
 11
2.20348
 21
0.362423
 31
0.0
  0
LINE
  8
0
 62
     0
 10
2.20348
 20
0.362423
 30
0.0
 11
2.01194
 21
0.40101
 31
0.0
  0
LINE
  8
0
 62
     0
 10
2.01194
 20
0.40101
 30
0.0
 11
1.82315
 21
0.454752
 31
0.0
  0
LINE
  8
0
 62
     0
 10
1.82315
 20
0.454752
 30
0.0
 11
1.63849
 21
0.522277
 31
0.0
  0
LINE
  8
0
 62
     0
 10
1.63849
 20
0.522277
 30
0.0
 11
1.46072
 21
0.603582
 31
0.0
  0
LINE
  8
0
 62
     0
 10
1.46072
 20
0.603582
 30
0.0
 11
1.28846
 21
0.698666
 31
0.0
  0
LINE
  8
0
 62
     0
 10
1.28846
 20
0.698666
 30
0.0
 11
1.12586
 21
0.808909
 31
0.0
  0
LINE
  8
0
 62
     0
 10
1.12586
 20
0.808909
 30
0.0
 11
0.971518
 21
0.930176
 31
0.0
  0
LINE
  8
0
 62
     0
 10
0.971518
 20
0.930176
 30
0.0
 11
0.826823
 21
1.06385
 31
0.0
  0
LINE
  8
0
 62
     0
 10
0.826823
 20
1.06385
 30
0.0
 11
0.693152
 21
1.20716
 31
0.0
  0
LINE
  8
0
 62
     0
 10
0.693152
 20
1.20716
 30
0.0
 11
0.571885
 21
1.36288
 31
0.0
  0
LINE
  8
0
 62
     0
 10
0.571885
 20
1.36288
 30
0.0
 11
0.463021
 21
1.52549
 31
0.0
  0
LINE
  8
0
 62
     0
 10
0.463021
 20
1.52549
 30
0.0
 11
0.367937
 21
1.69636
 31
0.0
  0
LINE
  8
0
 62
     0
 10
0.367937
 20
1.69636
 30
0.0
 11
0.285254
 21
1.87413
 31
0.0
  0
LINE
  8
0
 62
     0
 10
0.285254
 20
1.87413
 30
0.0
 11
0.21773
 21
2.05879
 31
0.0
  0
LINE
  8
0
 62
     0
 10
0.21773
 20
2.05879
 30
0.0
 11
0.163987
 21
2.24896
 31
0.0
  0
LINE
  8
0
 62
     0
 10
0.163987
 20
2.24896
 30
0.0
 11
0.125402
 21
2.44051
 31
0.0
  0
LINE
  8
0
 62
     0
 10
0.125402
 20
2.44051
 30
0.0
 11
0.101975
 21
2.63481
 31
0.0
  0
LINE
  8
0
 62
     0
 10
0.101975
 20
2.63481
 30
0.0
 11
0.0950846
 21
2.83187
 31
0.0
  0
LINE
  8
0
 62
     0
 10
0.0950846
 20
2.83187
 30
0.0
 11
0.0950846
 21
35.844
 31
0.0
  0
LINE
  8
0
 62
     0
 10
0.0950846
 20
35.844
 30
0.0
 11
3.09507
 21
35.844
 31
0.0
  0
LINE
  8
0
 62
     0
 10
3.09507
 20
35.844
 30
0.0
 11
3.98392
 21
35.9847
 31
0.0
  0
LINE
  8
0
 62
     0
 10
3.98392
 20
35.9847
 30
0.0
 11
4.78592
 21
36.3926
 31
0.0
  0
LINE
  8
0
 62
     0
 10
4.78592
 20
36.3926
 30
0.0
 11
5.42121
 21
37.0279
 31
0.0
  0
LINE
  8
0
 62
     0
 10
5.42121
 20
37.0279
 30
0.0
 11
5.82909
 21
37.8298
 31
0.0
  0
LINE
  8
0
 62
     0
 10
5.82909
 20
37.8298
 30
0.0
 11
5.97105
 21
38.7188
 31
0.0
  0
LINE
  8
0
 62
     0
 10
5.97105
 20
38.7188
 30
0.0
 11
5.82909
 21
39.6088
 31
0.0
  0
LINE
  8
0
 62
     0
 10
5.82909
 20
39.6088
 30
0.0
 11
5.42121
 21
40.4096
 31
0.0
  0
LINE
  8
0
 62
     0
 10
5.42121
 20
40.4096
 30
0.0
 11
4.78592
 21
41.0464
 31
0.0
  0
LINE
  8
0
 62
     0
 10
4.78592
 20
41.0464
 30
0.0
 11
3.98392
 21
41.4542
 31
0.0
  0
LINE
  8
0
 62
     0
 10
3.98392
 20
41.4542
 30
0.0
 11
3.09507
 21
41.5946
 31
0.0
  0
LINE
  8
0
 62
     0
 10
3.09507
 20
41.5946
 30
0.0
 11
0.0950846
 21
41.5946
 31
0.0
  0
LINE
  8
0
 62
     0
 10
0.0950846
 20
41.5946
 30
0.0
 11
0.0950846
 21
93.0081
 31
0.0
  0
LINE
  8
0
 62
     0
 10
0.0950846
 20
93.0081
 30
0.0
 11
0.101975
 21
93.2035
 31
0.0
  0
LINE
  8
0
 62
     0
 10
0.101975
 20
93.2035
 30
0.0
 11
0.125402
 21
93.3993
 31
0.0
  0
LINE
  8
0
 62
     0
 10
0.125402
 20
93.3993
 30
0.0
 11
0.163987
 21
93.5909
 31
0.0
  0
LINE
  8
0
 62
     0
 10
0.163987
 20
93.5909
 30
0.0
 11
0.21773
 21
93.7796
 31
0.0
  0
LINE
  8
0
 62
     0
 10
0.21773
 20
93.7796
 30
0.0
 11
0.285254
 21
93.9641
 31
0.0
  0
LINE
  8
0
 62
     0
 10
0.285254
 20
93.9641
 30
0.0
 11
0.367937
 21
94.1419
 31
0.0
  0
LINE
  8
0
 62
     0
 10
0.367937
 20
94.1419
 30
0.0
 11
0.463021
 21
94.3144
 31
0.0
  0
LINE
  8
0
 62
     0
 10
0.463021
 20
94.3144
 30
0.0
 11
0.571885
 21
94.4771
 31
0.0
  0
LINE
  8
0
 62
     0
 10
0.571885
 20
94.4771
 30
0.0
 11
0.693152
 21
94.6312
 31
0.0
  0
LINE
  8
0
 62
     0
 10
0.693152
 20
94.6312
 30
0.0
 11
0.826823
 21
94.7759
 31
0.0
  0
LINE
  8
0
 62
     0
 10
0.826823
 20
94.7759
 30
0.0
 11
0.971518
 21
94.9096
 31
0.0
  0
LINE
  8
0
 62
     0
 10
0.971518
 20
94.9096
 30
0.0
 11
1.12586
 21
95.0309
 31
0.0
  0
LINE
  8
0
 62
     0
 10
1.12586
 20
95.0309
 30
0.0
 11
1.28846
 21
95.1399
 31
0.0
  0
LINE
  8
0
 62
     0
 10
1.28846
 20
95.1399
 30
0.0
 11
1.46072
 21
95.2348
 31
0.0
  0
LINE
  8
0
 62
     0
 10
1.46072
 20
95.2348
 30
0.0
 11
1.63849
 21
95.3174
 31
0.0
  0
LINE
  8
0
 62
     0
 10
1.63849
 20
95.3174
 30
0.0
 11
1.82315
 21
95.3851
 31
0.0
  0
LINE
  8
0
 62
     0
 10
1.82315
 20
95.3851
 30
0.0
 11
2.01194
 21
95.4387
 31
0.0
  0
LINE
  8
0
 62
     0
 10
2.01194
 20
95.4387
 30
0.0
 11
2.20348
 21
95.4775
 31
0.0
  0
LINE
  8
0
 62
     0
 10
2.20348
 20
95.4775
 30
0.0
 11
2.39916
 21
95.5008
 31
0.0
  0
LINE
  8
0
 62
     0
 10
2.39916
 20
95.5008
 30
0.0
 11
2.59485
 21
95.5075
 31
0.0
  0
LINE
  8
0
 62
     0
 10
2.59485
 20
95.5075
 30
0.0
 11
283.22
 21
95.5075
 31
0.0
  0
LINE
  8
0
 62
     0
 10
124.127
 20
16.6949
 30
0.0
 11
124.127
 21
15.6959
 31
0.0
  0
LINE
  8
0
 62
     0
 10
124.127
 20
15.6959
 30
0.0
 11
123.326
 21
15.6959
 31
0.0
  0
LINE
  8
0
 62
     0
 10
123.326
 20
15.6959
 30
0.0
 11
123.326
 21
12.8447
 31
0.0
  0
LINE
  8
0
 62
     0
 10
123.326
 20
12.8447
 30
0.0
 11
124.127
 21
12.8447
 31
0.0
  0
LINE
  8
0
 62
     0
 10
124.127
 20
12.8447
 30
0.0
 11
124.127
 21
11.9958
 31
0.0
  0
LINE
  8
0
 62
     0
 10
124.127
 20
11.9958
 30
0.0
 11
84.2518
 21
11.9958
 31
0.0
  0
LINE
  8
0
 62
     0
 10
84.2518
 20
11.9958
 30
0.0
 11
84.2518
 21
15.226
 31
0.0
  0
LINE
  8
0
 62
     0
 10
84.2518
 20
15.226
 30
0.0
 11
77.7515
 21
15.226
 31
0.0
  0
LINE
  8
0
 62
     0
 10
77.7515
 20
15.226
 30
0.0
 11
77.7515
 21
11.9958
 31
0.0
  0
LINE
  8
0
 62
     0
 10
77.7515
 20
11.9958
 30
0.0
 11
76.9264
 21
11.9958
 31
0.0
  0
LINE
  8
0
 62
     0
 10
76.9264
 20
11.9958
 30
0.0
 11
76.9264
 21
9.44506
 31
0.0
  0
LINE
  8
0
 62
     0
 10
76.9264
 20
9.44506
 30
0.0
 11
77.7515
 21
9.44506
 31
0.0
  0
LINE
  8
0
 62
     0
 10
77.7515
 20
9.44506
 30
0.0
 11
77.7515
 21
3.175
 31
0.0
  0
LINE
  8
0
 62
     0
 10
77.7515
 20
3.175
 30
0.0
 11
79.477
 21
3.175
 31
0.0
  0
LINE
  8
0
 62
     0
 10
79.477
 20
3.175
 30
0.0
 11
79.477
 21
1.97473
 31
0.0
  0
LINE
  8
0
 62
     0
 10
79.477
 20
1.97473
 30
0.0
 11
82.5267
 21
1.97473
 31
0.0
  0
LINE
  8
0
 62
     0
 10
82.5267
 20
1.97473
 30
0.0
 11
82.5267
 21
3.175
 31
0.0
  0
LINE
  8
0
 62
     0
 10
82.5267
 20
3.175
 30
0.0
 11
84.2518
 21
3.175
 31
0.0
  0
LINE
  8
0
 62
     0
 10
84.2518
 20
3.175
 30
0.0
 11
84.2518
 21
7.64536
 31
0.0
  0
LINE
  8
0
 62
     0
 10
84.2518
 20
7.64536
 30
0.0
 11
124.127
 21
7.64536
 31
0.0
  0
LINE
  8
0
 62
     0
 10
124.127
 20
7.64536
 30
0.0
 11
124.127
 21
6.79372
 31
0.0
  0
LINE
  8
0
 62
     0
 10
124.127
 20
6.79372
 30
0.0
 11
123.326
 21
6.79372
 31
0.0
  0
LINE
  8
0
 62
     0
 10
123.326
 20
6.79372
 30
0.0
 11
123.326
 21
3.94533
 31
0.0
  0
LINE
  8
0
 62
     0
 10
123.326
 20
3.94533
 30
0.0
 11
124.127
 21
3.94533
 31
0.0
  0
LINE
  8
0
 62
     0
 10
124.127
 20
3.94533
 30
0.0
 11
124.127
 21
2.94487
 31
0.0
  0
LINE
  8
0
 62
     0
 10
124.127
 20
2.94487
 30
0.0
 11
137.877
 21
2.94487
 31
0.0
  0
LINE
  8
0
 62
     0
 10
137.877
 20
2.94487
 30
0.0
 11
137.877
 21
3.94533
 31
0.0
  0
LINE
  8
0
 62
     0
 10
137.877
 20
3.94533
 30
0.0
 11
138.676
 21
3.94533
 31
0.0
  0
LINE
  8
0
 62
     0
 10
138.676
 20
3.94533
 30
0.0
 11
138.676
 21
6.79372
 31
0.0
  0
LINE
  8
0
 62
     0
 10
138.676
 20
6.79372
 30
0.0
 11
137.877
 21
6.79372
 31
0.0
  0
LINE
  8
0
 62
     0
 10
137.877
 20
6.79372
 30
0.0
 11
137.877
 21
7.64536
 31
0.0
  0
LINE
  8
0
 62
     0
 10
137.877
 20
7.64536
 30
0.0
 11
177.752
 21
7.64536
 31
0.0
  0
LINE
  8
0
 62
     0
 10
177.752
 20
7.64536
 30
0.0
 11
177.752
 21
3.175
 31
0.0
  0
LINE
  8
0
 62
     0
 10
177.752
 20
3.175
 30
0.0
 11
179.477
 21
3.175
 31
0.0
  0
LINE
  8
0
 62
     0
 10
179.477
 20
3.175
 30
0.0
 11
179.477
 21
1.97473
 31
0.0
  0
LINE
  8
0
 62
     0
 10
179.477
 20
1.97473
 30
0.0
 11
182.527
 21
1.97473
 31
0.0
  0
LINE
  8
0
 62
     0
 10
182.527
 20
1.97473
 30
0.0
 11
182.527
 21
3.175
 31
0.0
  0
LINE
  8
0
 62
     0
 10
182.527
 20
3.175
 30
0.0
 11
184.252
 21
3.175
 31
0.0
  0
LINE
  8
0
 62
     0
 10
184.252
 20
3.175
 30
0.0
 11
184.252
 21
9.44506
 31
0.0
  0
LINE
  8
0
 62
     0
 10
184.252
 20
9.44506
 30
0.0
 11
185.076
 21
9.44506
 31
0.0
  0
LINE
  8
0
 62
     0
 10
185.076
 20
9.44506
 30
0.0
 11
185.076
 21
11.9958
 31
0.0
  0
LINE
  8
0
 62
     0
 10
185.076
 20
11.9958
 30
0.0
 11
184.252
 21
11.9958
 31
0.0
  0
LINE
  8
0
 62
     0
 10
184.252
 20
11.9958
 30
0.0
 11
184.252
 21
15.226
 31
0.0
  0
LINE
  8
0
 62
     0
 10
184.252
 20
15.226
 30
0.0
 11
177.752
 21
15.226
 31
0.0
  0
LINE
  8
0
 62
     0
 10
177.752
 20
15.226
 30
0.0
 11
177.752
 21
11.9958
 31
0.0
  0
LINE
  8
0
 62
     0
 10
177.752
 20
11.9958
 30
0.0
 11
137.877
 21
11.9958
 31
0.0
  0
LINE
  8
0
 62
     0
 10
137.877
 20
11.9958
 30
0.0
 11
137.877
 21
12.8447
 31
0.0
  0
LINE
  8
0
 62
     0
 10
137.877
 20
12.8447
 30
0.0
 11
138.676
 21
12.8447
 31
0.0
  0
LINE
  8
0
 62
     0
 10
138.676
 20
12.8447
 30
0.0
 11
138.676
 21
15.6959
 31
0.0
  0
LINE
  8
0
 62
     0
 10
138.676
 20
15.6959
 30
0.0
 11
137.877
 21
15.6959
 31
0.0
  0
LINE
  8
0
 62
     0
 10
137.877
 20
15.6959
 30
0.0
 11
137.877
 21
16.6949
 31
0.0
  0
LINE
  8
0
 62
     0
 10
137.877
 20
16.6949
 30
0.0
 11
124.127
 21
16.6949
 31
0.0
  0
LINE
  8
0
 62
     0
 10
5.06293
 20
16.6949
 30
0.0
 11
5.06293
 21
15.6959
 31
0.0
  0
LINE
  8
0
 62
     0
 10
5.06293
 20
15.6959
 30
0.0
 11
4.26364
 21
15.6959
 31
0.0
  0
LINE
  8
0
 62
     0
 10
4.26364
 20
15.6959
 30
0.0
 11
4.26364
 21
12.8447
 31
0.0
  0
LINE
  8
0
 62
     0
 10
4.26364
 20
12.8447
 30
0.0
 11
5.06293
 21
12.8447
 31
0.0
  0
LINE
  8
0
 62
     0
 10
5.06293
 20
12.8447
 30
0.0
 11
5.06293
 21
6.79372
 31
0.0
  0
LINE
  8
0
 62
     0
 10
5.06293
 20
6.79372
 30
0.0
 11
4.26364
 21
6.79372
 31
0.0
  0
LINE
  8
0
 62
     0
 10
4.26364
 20
6.79372
 30
0.0
 11
4.26364
 21
3.94533
 31
0.0
  0
LINE
  8
0
 62
     0
 10
4.26364
 20
3.94533
 30
0.0
 11
5.06293
 21
3.94533
 31
0.0
  0
LINE
  8
0
 62
     0
 10
5.06293
 20
3.94533
 30
0.0
 11
5.06293
 21
2.94487
 31
0.0
  0
LINE
  8
0
 62
     0
 10
5.06293
 20
2.94487
 30
0.0
 11
18.813
 21
2.94487
 31
0.0
  0
LINE
  8
0
 62
     0
 10
18.813
 20
2.94487
 30
0.0
 11
18.813
 21
3.94533
 31
0.0
  0
LINE
  8
0
 62
     0
 10
18.813
 20
3.94533
 30
0.0
 11
19.6136
 21
3.94533
 31
0.0
  0
LINE
  8
0
 62
     0
 10
19.6136
 20
3.94533
 30
0.0
 11
19.6136
 21
6.79372
 31
0.0
  0
LINE
  8
0
 62
     0
 10
19.6136
 20
6.79372
 30
0.0
 11
18.813
 21
6.79372
 31
0.0
  0
LINE
  8
0
 62
     0
 10
18.813
 20
6.79372
 30
0.0
 11
18.813
 21
12.8447
 31
0.0
  0
LINE
  8
0
 62
     0
 10
18.813
 20
12.8447
 30
0.0
 11
19.6136
 21
12.8447
 31
0.0
  0
LINE
  8
0
 62
     0
 10
19.6136
 20
12.8447
 30
0.0
 11
19.6136
 21
15.6959
 31
0.0
  0
LINE
  8
0
 62
     0
 10
19.6136
 20
15.6959
 30
0.0
 11
18.813
 21
15.6959
 31
0.0
  0
LINE
  8
0
 62
     0
 10
18.813
 20
15.6959
 30
0.0
 11
18.813
 21
16.6949
 31
0.0
  0
LINE
  8
0
 62
     0
 10
18.813
 20
16.6949
 30
0.0
 11
5.06293
 21
16.6949
 31
0.0
  0
LINE
  8
0
 62
     0
 10
28.8754
 20
16.6949
 30
0.0
 11
28.8754
 21
15.6959
 31
0.0
  0
LINE
  8
0
 62
     0
 10
28.8754
 20
15.6959
 30
0.0
 11
28.0761
 21
15.6959
 31
0.0
  0
LINE
  8
0
 62
     0
 10
28.0761
 20
15.6959
 30
0.0
 11
28.0761
 21
12.8447
 31
0.0
  0
LINE
  8
0
 62
     0
 10
28.0761
 20
12.8447
 30
0.0
 11
28.8754
 21
12.8447
 31
0.0
  0
LINE
  8
0
 62
     0
 10
28.8754
 20
12.8447
 30
0.0
 11
28.8754
 21
6.79372
 31
0.0
  0
LINE
  8
0
 62
     0
 10
28.8754
 20
6.79372
 30
0.0
 11
28.0761
 21
6.79372
 31
0.0
  0
LINE
  8
0
 62
     0
 10
28.0761
 20
6.79372
 30
0.0
 11
28.0761
 21
3.94533
 31
0.0
  0
LINE
  8
0
 62
     0
 10
28.0761
 20
3.94533
 30
0.0
 11
28.8754
 21
3.94533
 31
0.0
  0
LINE
  8
0
 62
     0
 10
28.8754
 20
3.94533
 30
0.0
 11
28.8754
 21
2.94487
 31
0.0
  0
LINE
  8
0
 62
     0
 10
28.8754
 20
2.94487
 30
0.0
 11
42.6254
 21
2.94487
 31
0.0
  0
LINE
  8
0
 62
     0
 10
42.6254
 20
2.94487
 30
0.0
 11
42.6254
 21
3.94533
 31
0.0
  0
LINE
  8
0
 62
     0
 10
42.6254
 20
3.94533
 30
0.0
 11
43.4262
 21
3.94533
 31
0.0
  0
LINE
  8
0
 62
     0
 10
43.4262
 20
3.94533
 30
0.0
 11
43.4262
 21
6.79372
 31
0.0
  0
LINE
  8
0
 62
     0
 10
43.4262
 20
6.79372
 30
0.0
 11
42.6254
 21
6.79372
 31
0.0
  0
LINE
  8
0
 62
     0
 10
42.6254
 20
6.79372
 30
0.0
 11
42.6254
 21
12.8447
 31
0.0
  0
LINE
  8
0
 62
     0
 10
42.6254
 20
12.8447
 30
0.0
 11
43.4262
 21
12.8447
 31
0.0
  0
LINE
  8
0
 62
     0
 10
43.4262
 20
12.8447
 30
0.0
 11
43.4262
 21
15.6959
 31
0.0
  0
LINE
  8
0
 62
     0
 10
43.4262
 20
15.6959
 30
0.0
 11
42.6254
 21
15.6959
 31
0.0
  0
LINE
  8
0
 62
     0
 10
42.6254
 20
15.6959
 30
0.0
 11
42.6254
 21
16.6949
 31
0.0
  0
LINE
  8
0
 62
     0
 10
42.6254
 20
16.6949
 30
0.0
 11
28.8754
 21
16.6949
 31
0.0
  0
LINE
  8
0
 62
     0
 10
52.6881
 20
16.6949
 30
0.0
 11
52.6881
 21
15.6959
 31
0.0
  0
LINE
  8
0
 62
     0
 10
52.6881
 20
15.6959
 30
0.0
 11
51.8873
 21
15.6959
 31
0.0
  0
LINE
  8
0
 62
     0
 10
51.8873
 20
15.6959
 30
0.0
 11
51.8873
 21
12.8447
 31
0.0
  0
LINE
  8
0
 62
     0
 10
51.8873
 20
12.8447
 30
0.0
 11
52.6881
 21
12.8447
 31
0.0
  0
LINE
  8
0
 62
     0
 10
52.6881
 20
12.8447
 30
0.0
 11
52.6881
 21
6.79372
 31
0.0
  0
LINE
  8
0
 62
     0
 10
52.6881
 20
6.79372
 30
0.0
 11
51.8873
 21
6.79372
 31
0.0
  0
LINE
  8
0
 62
     0
 10
51.8873
 20
6.79372
 30
0.0
 11
51.8873
 21
3.94533
 31
0.0
  0
LINE
  8
0
 62
     0
 10
51.8873
 20
3.94533
 30
0.0
 11
52.6881
 21
3.94533
 31
0.0
  0
LINE
  8
0
 62
     0
 10
52.6881
 20
3.94533
 30
0.0
 11
52.6881
 21
2.94487
 31
0.0
  0
LINE
  8
0
 62
     0
 10
52.6881
 20
2.94487
 30
0.0
 11
66.4379
 21
2.94487
 31
0.0
  0
LINE
  8
0
 62
     0
 10
66.4379
 20
2.94487
 30
0.0
 11
66.4379
 21
3.94533
 31
0.0
  0
LINE
  8
0
 62
     0
 10
66.4379
 20
3.94533
 30
0.0
 11
67.2387
 21
3.94533
 31
0.0
  0
LINE
  8
0
 62
     0
 10
67.2387
 20
3.94533
 30
0.0
 11
67.2387
 21
6.79372
 31
0.0
  0
LINE
  8
0
 62
     0
 10
67.2387
 20
6.79372
 30
0.0
 11
66.4379
 21
6.79372
 31
0.0
  0
LINE
  8
0
 62
     0
 10
66.4379
 20
6.79372
 30
0.0
 11
66.4379
 21
12.8447
 31
0.0
  0
LINE
  8
0
 62
     0
 10
66.4379
 20
12.8447
 30
0.0
 11
67.2387
 21
12.8447
 31
0.0
  0
LINE
  8
0
 62
     0
 10
67.2387
 20
12.8447
 30
0.0
 11
67.2387
 21
15.6959
 31
0.0
  0
LINE
  8
0
 62
     0
 10
67.2387
 20
15.6959
 30
0.0
 11
66.4379
 21
15.6959
 31
0.0
  0
LINE
  8
0
 62
     0
 10
66.4379
 20
15.6959
 30
0.0
 11
66.4379
 21
16.6949
 31
0.0
  0
LINE
  8
0
 62
     0
 10
66.4379
 20
16.6949
 30
0.0
 11
52.6881
 21
16.6949
 31
0.0
  0
LINE
  8
0
 62
     0
 10
193.182
 20
16.6949
 30
0.0
 11
193.182
 21
15.6959
 31
0.0
  0
LINE
  8
0
 62
     0
 10
193.182
 20
15.6959
 30
0.0
 11
192.382
 21
15.6959
 31
0.0
  0
LINE
  8
0
 62
     0
 10
192.382
 20
15.6959
 30
0.0
 11
192.382
 21
12.8447
 31
0.0
  0
LINE
  8
0
 62
     0
 10
192.382
 20
12.8447
 30
0.0
 11
193.182
 21
12.8447
 31
0.0
  0
LINE
  8
0
 62
     0
 10
193.182
 20
12.8447
 30
0.0
 11
193.182
 21
11.7602
 31
0.0
  0
LINE
  8
0
 62
     0
 10
193.182
 20
11.7602
 30
0.0
 11
192.597
 21
12.3445
 31
0.0
  0
LINE
  8
0
 62
     0
 10
192.597
 20
12.3445
 30
0.0
 11
191.795
 21
12.7537
 31
0.0
  0
LINE
  8
0
 62
     0
 10
191.795
 20
12.7537
 30
0.0
 11
190.908
 21
12.8943
 31
0.0
  0
LINE
  8
0
 62
     0
 10
190.908
 20
12.8943
 30
0.0
 11
190.019
 21
12.7537
 31
0.0
  0
LINE
  8
0
 62
     0
 10
190.019
 20
12.7537
 30
0.0
 11
189.217
 21
12.3445
 31
0.0
  0
LINE
  8
0
 62
     0
 10
189.217
 20
12.3445
 30
0.0
 11
188.582
 21
11.7078
 31
0.0
  0
LINE
  8
0
 62
     0
 10
188.582
 20
11.7078
 30
0.0
 11
188.174
 21
10.9072
 31
0.0
  0
LINE
  8
0
 62
     0
 10
188.174
 20
10.9072
 30
0.0
 11
188.032
 21
10.0197
 31
0.0
  0
LINE
  8
0
 62
     0
 10
188.032
 20
10.0197
 30
0.0
 11
188.174
 21
9.13088
 31
0.0
  0
LINE
  8
0
 62
     0
 10
188.174
 20
9.13088
 30
0.0
 11
188.582
 21
8.32887
 31
0.0
  0
LINE
  8
0
 62
     0
 10
188.582
 20
8.32887
 30
0.0
 11
189.217
 21
7.69359
 31
0.0
  0
LINE
  8
0
 62
     0
 10
189.217
 20
7.69359
 30
0.0
 11
190.019
 21
7.28567
 31
0.0
  0
LINE
  8
0
 62
     0
 10
190.019
 20
7.28567
 30
0.0
 11
190.908
 21
7.14375
 31
0.0
  0
LINE
  8
0
 62
     0
 10
190.908
 20
7.14375
 30
0.0
 11
191.795
 21
7.28567
 31
0.0
  0
LINE
  8
0
 62
     0
 10
191.795
 20
7.28567
 30
0.0
 11
192.597
 21
7.69359
 31
0.0
  0
LINE
  8
0
 62
     0
 10
192.597
 20
7.69359
 30
0.0
 11
193.182
 21
8.27927
 31
0.0
  0
LINE
  8
0
 62
     0
 10
193.182
 20
8.27927
 30
0.0
 11
193.182
 21
6.79372
 31
0.0
  0
LINE
  8
0
 62
     0
 10
193.182
 20
6.79372
 30
0.0
 11
192.382
 21
6.79372
 31
0.0
  0
LINE
  8
0
 62
     0
 10
192.382
 20
6.79372
 30
0.0
 11
192.382
 21
3.94533
 31
0.0
  0
LINE
  8
0
 62
     0
 10
192.382
 20
3.94533
 30
0.0
 11
193.182
 21
3.94533
 31
0.0
  0
LINE
  8
0
 62
     0
 10
193.182
 20
3.94533
 30
0.0
 11
193.182
 21
2.94487
 31
0.0
  0
LINE
  8
0
 62
     0
 10
193.182
 20
2.94487
 30
0.0
 11
206.932
 21
2.94487
 31
0.0
  0
LINE
  8
0
 62
     0
 10
206.932
 20
2.94487
 30
0.0
 11
206.932
 21
3.94533
 31
0.0
  0
LINE
  8
0
 62
     0
 10
206.932
 20
3.94533
 30
0.0
 11
207.732
 21
3.94533
 31
0.0
  0
LINE
  8
0
 62
     0
 10
207.732
 20
3.94533
 30
0.0
 11
207.732
 21
6.79372
 31
0.0
  0
LINE
  8
0
 62
     0
 10
207.732
 20
6.79372
 30
0.0
 11
206.932
 21
6.79372
 31
0.0
  0
LINE
  8
0
 62
     0
 10
206.932
 20
6.79372
 30
0.0
 11
206.932
 21
12.8447
 31
0.0
  0
LINE
  8
0
 62
     0
 10
206.932
 20
12.8447
 30
0.0
 11
207.732
 21
12.8447
 31
0.0
  0
LINE
  8
0
 62
     0
 10
207.732
 20
12.8447
 30
0.0
 11
207.732
 21
15.6959
 31
0.0
  0
LINE
  8
0
 62
     0
 10
207.732
 20
15.6959
 30
0.0
 11
206.932
 21
15.6959
 31
0.0
  0
LINE
  8
0
 62
     0
 10
206.932
 20
15.6959
 30
0.0
 11
206.932
 21
16.6949
 31
0.0
  0
LINE
  8
0
 62
     0
 10
206.932
 20
16.6949
 30
0.0
 11
193.182
 21
16.6949
 31
0.0
  0
LINE
  8
0
 62
     0
 10
212.233
 20
16.6949
 30
0.0
 11
212.233
 21
15.6959
 31
0.0
  0
LINE
  8
0
 62
     0
 10
212.233
 20
15.6959
 30
0.0
 11
211.431
 21
15.6959
 31
0.0
  0
LINE
  8
0
 62
     0
 10
211.431
 20
15.6959
 30
0.0
 11
211.431
 21
12.8447
 31
0.0
  0
LINE
  8
0
 62
     0
 10
211.431
 20
12.8447
 30
0.0
 11
212.233
 21
12.8447
 31
0.0
  0
LINE
  8
0
 62
     0
 10
212.233
 20
12.8447
 30
0.0
 11
212.233
 21
6.79372
 31
0.0
  0
LINE
  8
0
 62
     0
 10
212.233
 20
6.79372
 30
0.0
 11
211.431
 21
6.79372
 31
0.0
  0
LINE
  8
0
 62
     0
 10
211.431
 20
6.79372
 30
0.0
 11
211.431
 21
3.94533
 31
0.0
  0
LINE
  8
0
 62
     0
 10
211.431
 20
3.94533
 30
0.0
 11
212.233
 21
3.94533
 31
0.0
  0
LINE
  8
0
 62
     0
 10
212.233
 20
3.94533
 30
0.0
 11
212.233
 21
2.94487
 31
0.0
  0
LINE
  8
0
 62
     0
 10
212.233
 20
2.94487
 30
0.0
 11
225.983
 21
2.94487
 31
0.0
  0
LINE
  8
0
 62
     0
 10
225.983
 20
2.94487
 30
0.0
 11
225.983
 21
3.94533
 31
0.0
  0
LINE
  8
0
 62
     0
 10
225.983
 20
3.94533
 30
0.0
 11
226.782
 21
3.94533
 31
0.0
  0
LINE
  8
0
 62
     0
 10
226.782
 20
3.94533
 30
0.0
 11
226.782
 21
6.79372
 31
0.0
  0
LINE
  8
0
 62
     0
 10
226.782
 20
6.79372
 30
0.0
 11
225.983
 21
6.79372
 31
0.0
  0
LINE
  8
0
 62
     0
 10
225.983
 20
6.79372
 30
0.0
 11
225.983
 21
12.8447
 31
0.0
  0
LINE
  8
0
 62
     0
 10
225.983
 20
12.8447
 30
0.0
 11
226.782
 21
12.8447
 31
0.0
  0
LINE
  8
0
 62
     0
 10
226.782
 20
12.8447
 30
0.0
 11
226.782
 21
15.6959
 31
0.0
  0
LINE
  8
0
 62
     0
 10
226.782
 20
15.6959
 30
0.0
 11
225.983
 21
15.6959
 31
0.0
  0
LINE
  8
0
 62
     0
 10
225.983
 20
15.6959
 30
0.0
 11
225.983
 21
16.6949
 31
0.0
  0
LINE
  8
0
 62
     0
 10
225.983
 20
16.6949
 30
0.0
 11
212.233
 21
16.6949
 31
0.0
  0
LINE
  8
0
 62
     0
 10
231.283
 20
16.6949
 30
0.0
 11
231.283
 21
15.6959
 31
0.0
  0
LINE
  8
0
 62
     0
 10
231.283
 20
15.6959
 30
0.0
 11
230.482
 21
15.6959
 31
0.0
  0
LINE
  8
0
 62
     0
 10
230.482
 20
15.6959
 30
0.0
 11
230.482
 21
12.8447
 31
0.0
  0
LINE
  8
0
 62
     0
 10
230.482
 20
12.8447
 30
0.0
 11
231.283
 21
12.8447
 31
0.0
  0
LINE
  8
0
 62
     0
 10
231.283
 20
12.8447
 30
0.0
 11
231.283
 21
6.79372
 31
0.0
  0
LINE
  8
0
 62
     0
 10
231.283
 20
6.79372
 30
0.0
 11
230.482
 21
6.79372
 31
0.0
  0
LINE
  8
0
 62
     0
 10
230.482
 20
6.79372
 30
0.0
 11
230.482
 21
3.94533
 31
0.0
  0
LINE
  8
0
 62
     0
 10
230.482
 20
3.94533
 30
0.0
 11
231.283
 21
3.94533
 31
0.0
  0
LINE
  8
0
 62
     0
 10
231.283
 20
3.94533
 30
0.0
 11
231.283
 21
2.94487
 31
0.0
  0
LINE
  8
0
 62
     0
 10
231.283
 20
2.94487
 30
0.0
 11
245.033
 21
2.94487
 31
0.0
  0
LINE
  8
0
 62
     0
 10
245.033
 20
2.94487
 30
0.0
 11
245.033
 21
3.94533
 31
0.0
  0
LINE
  8
0
 62
     0
 10
245.033
 20
3.94533
 30
0.0
 11
245.831
 21
3.94533
 31
0.0
  0
LINE
  8
0
 62
     0
 10
245.831
 20
3.94533
 30
0.0
 11
245.831
 21
6.79372
 31
0.0
  0
LINE
  8
0
 62
     0
 10
245.831
 20
6.79372
 30
0.0
 11
245.033
 21
6.79372
 31
0.0
  0
LINE
  8
0
 62
     0
 10
245.033
 20
6.79372
 30
0.0
 11
245.033
 21
12.8447
 31
0.0
  0
LINE
  8
0
 62
     0
 10
245.033
 20
12.8447
 30
0.0
 11
245.831
 21
12.8447
 31
0.0
  0
LINE
  8
0
 62
     0
 10
245.831
 20
12.8447
 30
0.0
 11
245.831
 21
15.6959
 31
0.0
  0
LINE
  8
0
 62
     0
 10
245.831
 20
15.6959
 30
0.0
 11
245.033
 21
15.6959
 31
0.0
  0
LINE
  8
0
 62
     0
 10
245.033
 20
15.6959
 30
0.0
 11
245.033
 21
16.6949
 31
0.0
  0
LINE
  8
0
 62
     0
 10
245.033
 20
16.6949
 30
0.0
 11
231.283
 21
16.6949
 31
0.0
  0
LINE
  8
0
 62
     0
 10
250.332
 20
16.6949
 30
0.0
 11
250.332
 21
15.6959
 31
0.0
  0
LINE
  8
0
 62
     0
 10
250.332
 20
15.6959
 30
0.0
 11
249.532
 21
15.6959
 31
0.0
  0
LINE
  8
0
 62
     0
 10
249.532
 20
15.6959
 30
0.0
 11
249.532
 21
12.8447
 31
0.0
  0
LINE
  8
0
 62
     0
 10
249.532
 20
12.8447
 30
0.0
 11
250.332
 21
12.8447
 31
0.0
  0
LINE
  8
0
 62
     0
 10
250.332
 20
12.8447
 30
0.0
 11
250.332
 21
6.79372
 31
0.0
  0
LINE
  8
0
 62
     0
 10
250.332
 20
6.79372
 30
0.0
 11
249.532
 21
6.79372
 31
0.0
  0
LINE
  8
0
 62
     0
 10
249.532
 20
6.79372
 30
0.0
 11
249.532
 21
3.94533
 31
0.0
  0
LINE
  8
0
 62
     0
 10
249.532
 20
3.94533
 30
0.0
 11
250.332
 21
3.94533
 31
0.0
  0
LINE
  8
0
 62
     0
 10
250.332
 20
3.94533
 30
0.0
 11
250.332
 21
2.94487
 31
0.0
  0
LINE
  8
0
 62
     0
 10
250.332
 20
2.94487
 30
0.0
 11
264.082
 21
2.94487
 31
0.0
  0
LINE
  8
0
 62
     0
 10
264.082
 20
2.94487
 30
0.0
 11
264.082
 21
3.94533
 31
0.0
  0
LINE
  8
0
 62
     0
 10
264.082
 20
3.94533
 30
0.0
 11
264.881
 21
3.94533
 31
0.0
  0
LINE
  8
0
 62
     0
 10
264.881
 20
3.94533
 30
0.0
 11
264.881
 21
6.79372
 31
0.0
  0
LINE
  8
0
 62
     0
 10
264.881
 20
6.79372
 30
0.0
 11
264.082
 21
6.79372
 31
0.0
  0
LINE
  8
0
 62
     0
 10
264.082
 20
6.79372
 30
0.0
 11
264.082
 21
12.8447
 31
0.0
  0
LINE
  8
0
 62
     0
 10
264.082
 20
12.8447
 30
0.0
 11
264.881
 21
12.8447
 31
0.0
  0
LINE
  8
0
 62
     0
 10
264.881
 20
12.8447
 30
0.0
 11
264.881
 21
15.6959
 31
0.0
  0
LINE
  8
0
 62
     0
 10
264.881
 20
15.6959
 30
0.0
 11
264.082
 21
15.6959
 31
0.0
  0
LINE
  8
0
 62
     0
 10
264.082
 20
15.6959
 30
0.0
 11
264.082
 21
16.6949
 31
0.0
  0
LINE
  8
0
 62
     0
 10
264.082
 20
16.6949
 30
0.0
 11
250.332
 21
16.6949
 31
0.0
  0
LINE
  8
0
 62
     0
 10
269.382
 20
16.6949
 30
0.0
 11
269.382
 21
15.6959
 31
0.0
  0
LINE
  8
0
 62
     0
 10
269.382
 20
15.6959
 30
0.0
 11
268.581
 21
15.6959
 31
0.0
  0
LINE
  8
0
 62
     0
 10
268.581
 20
15.6959
 30
0.0
 11
268.581
 21
12.8447
 31
0.0
  0
LINE
  8
0
 62
     0
 10
268.581
 20
12.8447
 30
0.0
 11
269.382
 21
12.8447
 31
0.0
  0
LINE
  8
0
 62
     0
 10
269.382
 20
12.8447
 30
0.0
 11
269.382
 21
6.79372
 31
0.0
  0
LINE
  8
0
 62
     0
 10
269.382
 20
6.79372
 30
0.0
 11
268.581
 21
6.79372
 31
0.0
  0
LINE
  8
0
 62
     0
 10
268.581
 20
6.79372
 30
0.0
 11
268.581
 21
3.94533
 31
0.0
  0
LINE
  8
0
 62
     0
 10
268.581
 20
3.94533
 30
0.0
 11
269.382
 21
3.94533
 31
0.0
  0
LINE
  8
0
 62
     0
 10
269.382
 20
3.94533
 30
0.0
 11
269.382
 21
2.94487
 31
0.0
  0
LINE
  8
0
 62
     0
 10
269.382
 20
2.94487
 30
0.0
 11
283.132
 21
2.94487
 31
0.0
  0
LINE
  8
0
 62
     0
 10
283.132
 20
2.94487
 30
0.0
 11
283.132
 21
3.94533
 31
0.0
  0
LINE
  8
0
 62
     0
 10
283.132
 20
3.94533
 30
0.0
 11
283.931
 21
3.94533
 31
0.0
  0
LINE
  8
0
 62
     0
 10
283.931
 20
3.94533
 30
0.0
 11
283.931
 21
6.79372
 31
0.0
  0
LINE
  8
0
 62
     0
 10
283.931
 20
6.79372
 30
0.0
 11
283.132
 21
6.79372
 31
0.0
  0
LINE
  8
0
 62
     0
 10
283.132
 20
6.79372
 30
0.0
 11
283.132
 21
12.8447
 31
0.0
  0
LINE
  8
0
 62
     0
 10
283.132
 20
12.8447
 30
0.0
 11
283.931
 21
12.8447
 31
0.0
  0
LINE
  8
0
 62
     0
 10
283.931
 20
12.8447
 30
0.0
 11
283.931
 21
15.6959
 31
0.0
  0
LINE
  8
0
 62
     0
 10
283.931
 20
15.6959
 30
0.0
 11
283.132
 21
15.6959
 31
0.0
  0
LINE
  8
0
 62
     0
 10
283.132
 20
15.6959
 30
0.0
 11
283.132
 21
16.6949
 31
0.0
  0
LINE
  8
0
 62
     0
 10
283.132
 20
16.6949
 30
0.0
 11
269.382
 21
16.6949
 31
0.0
  0
LINE
  8
0
 62
     0
 10
12.2067
 20
35.7449
 30
0.0
 11
12.2067
 21
34.7459
 31
0.0
  0
LINE
  8
0
 62
     0
 10
12.2067
 20
34.7459
 30
0.0
 11
11.4074
 21
34.7459
 31
0.0
  0
LINE
  8
0
 62
     0
 10
11.4074
 20
34.7459
 30
0.0
 11
11.4074
 21
31.8947
 31
0.0
  0
LINE
  8
0
 62
     0
 10
11.4074
 20
31.8947
 30
0.0
 11
12.2067
 21
31.8947
 31
0.0
  0
LINE
  8
0
 62
     0
 10
12.2067
 20
31.8947
 30
0.0
 11
12.2067
 21
31.0444
 31
0.0
  0
LINE
  8
0
 62
     0
 10
12.2067
 20
31.0444
 30
0.0
 11
10.4331
 21
31.0444
 31
0.0
  0
LINE
  8
0
 62
     0
 10
10.4331
 20
31.0444
 30
0.0
 11
10.4331
 21
34.276
 31
0.0
  0
LINE
  8
0
 62
     0
 10
10.4331
 20
34.276
 30
0.0
 11
3.93291
 21
34.276
 31
0.0
  0
LINE
  8
0
 62
     0
 10
3.93291
 20
34.276
 30
0.0
 11
3.93291
 21
31.0444
 31
0.0
  0
LINE
  8
0
 62
     0
 10
3.93291
 20
31.0444
 30
0.0
 11
3.10747
 21
31.0444
 31
0.0
  0
LINE
  8
0
 62
     0
 10
3.10747
 20
31.0444
 30
0.0
 11
3.10747
 21
28.4951
 31
0.0
  0
LINE
  8
0
 62
     0
 10
3.10747
 20
28.4951
 30
0.0
 11
3.93291
 21
28.4951
 31
0.0
  0
LINE
  8
0
 62
     0
 10
3.93291
 20
28.4951
 30
0.0
 11
3.93291
 21
22.225
 31
0.0
  0
LINE
  8
0
 62
     0
 10
3.93291
 20
22.225
 30
0.0
 11
5.65686
 21
22.225
 31
0.0
  0
LINE
  8
0
 62
     0
 10
5.65686
 20
22.225
 30
0.0
 11
5.65686
 21
21.0247
 31
0.0
  0
LINE
  8
0
 62
     0
 10
5.65686
 20
21.0247
 30
0.0
 11
8.70783
 21
21.0247
 31
0.0
  0
LINE
  8
0
 62
     0
 10
8.70783
 20
21.0247
 30
0.0
 11
8.70783
 21
22.225
 31
0.0
  0
LINE
  8
0
 62
     0
 10
8.70783
 20
22.225
 30
0.0
 11
10.4331
 21
22.225
 31
0.0
  0
LINE
  8
0
 62
     0
 10
10.4331
 20
22.225
 30
0.0
 11
10.4331
 21
26.6954
 31
0.0
  0
LINE
  8
0
 62
     0
 10
10.4331
 20
26.6954
 30
0.0
 11
12.2067
 21
26.6954
 31
0.0
  0
LINE
  8
0
 62
     0
 10
12.2067
 20
26.6954
 30
0.0
 11
12.2067
 21
25.8437
 31
0.0
  0
LINE
  8
0
 62
     0
 10
12.2067
 20
25.8437
 30
0.0
 11
11.4074
 21
25.8437
 31
0.0
  0
LINE
  8
0
 62
     0
 10
11.4074
 20
25.8437
 30
0.0
 11
11.4074
 21
22.9953
 31
0.0
  0
LINE
  8
0
 62
     0
 10
11.4074
 20
22.9953
 30
0.0
 11
12.2067
 21
22.9953
 31
0.0
  0
LINE
  8
0
 62
     0
 10
12.2067
 20
22.9953
 30
0.0
 11
12.2067
 21
21.9949
 31
0.0
  0
LINE
  8
0
 62
     0
 10
12.2067
 20
21.9949
 30
0.0
 11
25.9567
 21
21.9949
 31
0.0
  0
LINE
  8
0
 62
     0
 10
25.9567
 20
21.9949
 30
0.0
 11
25.9567
 21
22.9953
 31
0.0
  0
LINE
  8
0
 62
     0
 10
25.9567
 20
22.9953
 30
0.0
 11
26.7574
 21
22.9953
 31
0.0
  0
LINE
  8
0
 62
     0
 10
26.7574
 20
22.9953
 30
0.0
 11
26.7574
 21
25.8437
 31
0.0
  0
LINE
  8
0
 62
     0
 10
26.7574
 20
25.8437
 30
0.0
 11
25.9567
 21
25.8437
 31
0.0
  0
LINE
  8
0
 62
     0
 10
25.9567
 20
25.8437
 30
0.0
 11
25.9567
 21
26.6954
 31
0.0
  0
LINE
  8
0
 62
     0
 10
25.9567
 20
26.6954
 30
0.0
 11
27.733
 21
26.6954
 31
0.0
  0
LINE
  8
0
 62
     0
 10
27.733
 20
26.6954
 30
0.0
 11
27.733
 21
22.225
 31
0.0
  0
LINE
  8
0
 62
     0
 10
27.733
 20
22.225
 30
0.0
 11
29.4569
 21
22.225
 31
0.0
  0
LINE
  8
0
 62
     0
 10
29.4569
 20
22.225
 30
0.0
 11
29.4569
 21
21.0247
 31
0.0
  0
LINE
  8
0
 62
     0
 10
29.4569
 20
21.0247
 30
0.0
 11
32.5065
 21
21.0247
 31
0.0
  0
LINE
  8
0
 62
     0
 10
32.5065
 20
21.0247
 30
0.0
 11
32.5065
 21
22.225
 31
0.0
  0
LINE
  8
0
 62
     0
 10
32.5065
 20
22.225
 30
0.0
 11
34.2319
 21
22.225
 31
0.0
  0
LINE
  8
0
 62
     0
 10
34.2319
 20
22.225
 30
0.0
 11
34.2319
 21
28.4951
 31
0.0
  0
LINE
  8
0
 62
     0
 10
34.2319
 20
28.4951
 30
0.0
 11
35.0573
 21
28.4951
 31
0.0
  0
LINE
  8
0
 62
     0
 10
35.0573
 20
28.4951
 30
0.0
 11
35.0573
 21
31.0444
 31
0.0
  0
LINE
  8
0
 62
     0
 10
35.0573
 20
31.0444
 30
0.0
 11
34.2319
 21
31.0444
 31
0.0
  0
LINE
  8
0
 62
     0
 10
34.2319
 20
31.0444
 30
0.0
 11
34.2319
 21
34.276
 31
0.0
  0
LINE
  8
0
 62
     0
 10
34.2319
 20
34.276
 30
0.0
 11
27.733
 21
34.276
 31
0.0
  0
LINE
  8
0
 62
     0
 10
27.733
 20
34.276
 30
0.0
 11
27.733
 21
31.0444
 31
0.0
  0
LINE
  8
0
 62
     0
 10
27.733
 20
31.0444
 30
0.0
 11
25.9567
 21
31.0444
 31
0.0
  0
LINE
  8
0
 62
     0
 10
25.9567
 20
31.0444
 30
0.0
 11
25.9567
 21
31.8947
 31
0.0
  0
LINE
  8
0
 62
     0
 10
25.9567
 20
31.8947
 30
0.0
 11
26.7574
 21
31.8947
 31
0.0
  0
LINE
  8
0
 62
     0
 10
26.7574
 20
31.8947
 30
0.0
 11
26.7574
 21
34.7459
 31
0.0
  0
LINE
  8
0
 62
     0
 10
26.7574
 20
34.7459
 30
0.0
 11
25.9567
 21
34.7459
 31
0.0
  0
LINE
  8
0
 62
     0
 10
25.9567
 20
34.7459
 30
0.0
 11
25.9567
 21
35.7449
 31
0.0
  0
LINE
  8
0
 62
     0
 10
25.9567
 20
35.7449
 30
0.0
 11
12.2067
 21
35.7449
 31
0.0
  0
LINE
  8
0
 62
     0
 10
40.7829
 20
35.7449
 30
0.0
 11
40.7829
 21
34.7459
 31
0.0
  0
LINE
  8
0
 62
     0
 10
40.7829
 20
34.7459
 30
0.0
 11
39.9824
 21
34.7459
 31
0.0
  0
LINE
  8
0
 62
     0
 10
39.9824
 20
34.7459
 30
0.0
 11
39.9824
 21
31.8947
 31
0.0
  0
LINE
  8
0
 62
     0
 10
39.9824
 20
31.8947
 30
0.0
 11
40.7829
 21
31.8947
 31
0.0
  0
LINE
  8
0
 62
     0
 10
40.7829
 20
31.8947
 30
0.0
 11
40.7829
 21
25.8437
 31
0.0
  0
LINE
  8
0
 62
     0
 10
40.7829
 20
25.8437
 30
0.0
 11
39.9824
 21
25.8437
 31
0.0
  0
LINE
  8
0
 62
     0
 10
39.9824
 20
25.8437
 30
0.0
 11
39.9824
 21
22.9953
 31
0.0
  0
LINE
  8
0
 62
     0
 10
39.9824
 20
22.9953
 30
0.0
 11
40.7829
 21
22.9953
 31
0.0
  0
LINE
  8
0
 62
     0
 10
40.7829
 20
22.9953
 30
0.0
 11
40.7829
 21
21.9949
 31
0.0
  0
LINE
  8
0
 62
     0
 10
40.7829
 20
21.9949
 30
0.0
 11
54.5331
 21
21.9949
 31
0.0
  0
LINE
  8
0
 62
     0
 10
54.5331
 20
21.9949
 30
0.0
 11
54.5331
 21
22.9953
 31
0.0
  0
LINE
  8
0
 62
     0
 10
54.5331
 20
22.9953
 30
0.0
 11
55.3311
 21
22.9953
 31
0.0
  0
LINE
  8
0
 62
     0
 10
55.3311
 20
22.9953
 30
0.0
 11
55.3311
 21
25.8437
 31
0.0
  0
LINE
  8
0
 62
     0
 10
55.3311
 20
25.8437
 30
0.0
 11
54.5331
 21
25.8437
 31
0.0
  0
LINE
  8
0
 62
     0
 10
54.5331
 20
25.8437
 30
0.0
 11
54.5331
 21
31.8947
 31
0.0
  0
LINE
  8
0
 62
     0
 10
54.5331
 20
31.8947
 30
0.0
 11
55.3311
 21
31.8947
 31
0.0
  0
LINE
  8
0
 62
     0
 10
55.3311
 20
31.8947
 30
0.0
 11
55.3311
 21
34.7459
 31
0.0
  0
LINE
  8
0
 62
     0
 10
55.3311
 20
34.7459
 30
0.0
 11
54.5331
 21
34.7459
 31
0.0
  0
LINE
  8
0
 62
     0
 10
54.5331
 20
34.7459
 30
0.0
 11
54.5331
 21
35.7449
 31
0.0
  0
LINE
  8
0
 62
     0
 10
54.5331
 20
35.7449
 30
0.0
 11
40.7829
 21
35.7449
 31
0.0
  0
LINE
  8
0
 62
     0
 10
59.8318
 20
35.7449
 30
0.0
 11
59.8318
 21
34.7459
 31
0.0
  0
LINE
  8
0
 62
     0
 10
59.8318
 20
34.7459
 30
0.0
 11
59.0324
 21
34.7459
 31
0.0
  0
LINE
  8
0
 62
     0
 10
59.0324
 20
34.7459
 30
0.0
 11
59.0324
 21
31.8947
 31
0.0
  0
LINE
  8
0
 62
     0
 10
59.0324
 20
31.8947
 30
0.0
 11
59.8318
 21
31.8947
 31
0.0
  0
LINE
  8
0
 62
     0
 10
59.8318
 20
31.8947
 30
0.0
 11
59.8318
 21
25.8437
 31
0.0
  0
LINE
  8
0
 62
     0
 10
59.8318
 20
25.8437
 30
0.0
 11
59.0324
 21
25.8437
 31
0.0
  0
LINE
  8
0
 62
     0
 10
59.0324
 20
25.8437
 30
0.0
 11
59.0324
 21
22.9953
 31
0.0
  0
LINE
  8
0
 62
     0
 10
59.0324
 20
22.9953
 30
0.0
 11
59.8318
 21
22.9953
 31
0.0
  0
LINE
  8
0
 62
     0
 10
59.8318
 20
22.9953
 30
0.0
 11
59.8318
 21
21.9949
 31
0.0
  0
LINE
  8
0
 62
     0
 10
59.8318
 20
21.9949
 30
0.0
 11
73.5817
 21
21.9949
 31
0.0
  0
LINE
  8
0
 62
     0
 10
73.5817
 20
21.9949
 30
0.0
 11
73.5817
 21
22.9953
 31
0.0
  0
LINE
  8
0
 62
     0
 10
73.5817
 20
22.9953
 30
0.0
 11
74.3825
 21
22.9953
 31
0.0
  0
LINE
  8
0
 62
     0
 10
74.3825
 20
22.9953
 30
0.0
 11
74.3825
 21
25.8437
 31
0.0
  0
LINE
  8
0
 62
     0
 10
74.3825
 20
25.8437
 30
0.0
 11
73.5817
 21
25.8437
 31
0.0
  0
LINE
  8
0
 62
     0
 10
73.5817
 20
25.8437
 30
0.0
 11
73.5817
 21
31.8947
 31
0.0
  0
LINE
  8
0
 62
     0
 10
73.5817
 20
31.8947
 30
0.0
 11
74.3825
 21
31.8947
 31
0.0
  0
LINE
  8
0
 62
     0
 10
74.3825
 20
31.8947
 30
0.0
 11
74.3825
 21
34.7459
 31
0.0
  0
LINE
  8
0
 62
     0
 10
74.3825
 20
34.7459
 30
0.0
 11
73.5817
 21
34.7459
 31
0.0
  0
LINE
  8
0
 62
     0
 10
73.5817
 20
34.7459
 30
0.0
 11
73.5817
 21
35.7449
 31
0.0
  0
LINE
  8
0
 62
     0
 10
73.5817
 20
35.7449
 30
0.0
 11
59.8318
 21
35.7449
 31
0.0
  0
LINE
  8
0
 62
     0
 10
78.8829
 20
35.7449
 30
0.0
 11
78.8829
 21
34.7459
 31
0.0
  0
LINE
  8
0
 62
     0
 10
78.8829
 20
34.7459
 30
0.0
 11
78.081
 21
34.7459
 31
0.0
  0
LINE
  8
0
 62
     0
 10
78.081
 20
34.7459
 30
0.0
 11
78.081
 21
31.8947
 31
0.0
  0
LINE
  8
0
 62
     0
 10
78.081
 20
31.8947
 30
0.0
 11
78.8829
 21
31.8947
 31
0.0
  0
LINE
  8
0
 62
     0
 10
78.8829
 20
31.8947
 30
0.0
 11
78.8829
 21
25.8437
 31
0.0
  0
LINE
  8
0
 62
     0
 10
78.8829
 20
25.8437
 30
0.0
 11
78.081
 21
25.8437
 31
0.0
  0
LINE
  8
0
 62
     0
 10
78.081
 20
25.8437
 30
0.0
 11
78.081
 21
22.9953
 31
0.0
  0
LINE
  8
0
 62
     0
 10
78.081
 20
22.9953
 30
0.0
 11
78.8829
 21
22.9953
 31
0.0
  0
LINE
  8
0
 62
     0
 10
78.8829
 20
22.9953
 30
0.0
 11
78.8829
 21
21.9949
 31
0.0
  0
LINE
  8
0
 62
     0
 10
78.8829
 20
21.9949
 30
0.0
 11
92.6331
 21
21.9949
 31
0.0
  0
LINE
  8
0
 62
     0
 10
92.6331
 20
21.9949
 30
0.0
 11
92.6331
 21
22.9953
 31
0.0
  0
LINE
  8
0
 62
     0
 10
92.6331
 20
22.9953
 30
0.0
 11
93.4325
 21
22.9953
 31
0.0
  0
LINE
  8
0
 62
     0
 10
93.4325
 20
22.9953
 30
0.0
 11
93.4325
 21
25.8437
 31
0.0
  0
LINE
  8
0
 62
     0
 10
93.4325
 20
25.8437
 30
0.0
 11
92.6331
 21
25.8437
 31
0.0
  0
LINE
  8
0
 62
     0
 10
92.6331
 20
25.8437
 30
0.0
 11
92.6331
 21
31.8947
 31
0.0
  0
LINE
  8
0
 62
     0
 10
92.6331
 20
31.8947
 30
0.0
 11
93.4325
 21
31.8947
 31
0.0
  0
LINE
  8
0
 62
     0
 10
93.4325
 20
31.8947
 30
0.0
 11
93.4325
 21
34.7459
 31
0.0
  0
LINE
  8
0
 62
     0
 10
93.4325
 20
34.7459
 30
0.0
 11
92.6331
 21
34.7459
 31
0.0
  0
LINE
  8
0
 62
     0
 10
92.6331
 20
34.7459
 30
0.0
 11
92.6331
 21
35.7449
 31
0.0
  0
LINE
  8
0
 62
     0
 10
92.6331
 20
35.7449
 30
0.0
 11
78.8829
 21
35.7449
 31
0.0
  0
LINE
  8
0
 62
     0
 10
97.9329
 20
35.7449
 30
0.0
 11
97.9329
 21
34.7459
 31
0.0
  0
LINE
  8
0
 62
     0
 10
97.9329
 20
34.7459
 30
0.0
 11
97.1324
 21
34.7459
 31
0.0
  0
LINE
  8
0
 62
     0
 10
97.1324
 20
34.7459
 30
0.0
 11
97.1324
 21
31.8947
 31
0.0
  0
LINE
  8
0
 62
     0
 10
97.1324
 20
31.8947
 30
0.0
 11
97.9329
 21
31.8947
 31
0.0
  0
LINE
  8
0
 62
     0
 10
97.9329
 20
31.8947
 30
0.0
 11
97.9329
 21
25.8437
 31
0.0
  0
LINE
  8
0
 62
     0
 10
97.9329
 20
25.8437
 30
0.0
 11
97.1324
 21
25.8437
 31
0.0
  0
LINE
  8
0
 62
     0
 10
97.1324
 20
25.8437
 30
0.0
 11
97.1324
 21
22.9953
 31
0.0
  0
LINE
  8
0
 62
     0
 10
97.1324
 20
22.9953
 30
0.0
 11
97.9329
 21
22.9953
 31
0.0
  0
LINE
  8
0
 62
     0
 10
97.9329
 20
22.9953
 30
0.0
 11
97.9329
 21
21.9949
 31
0.0
  0
LINE
  8
0
 62
     0
 10
97.9329
 20
21.9949
 30
0.0
 11
111.683
 21
21.9949
 31
0.0
  0
LINE
  8
0
 62
     0
 10
111.683
 20
21.9949
 30
0.0
 11
111.683
 21
22.9953
 31
0.0
  0
LINE
  8
0
 62
     0
 10
111.683
 20
22.9953
 30
0.0
 11
112.482
 21
22.9953
 31
0.0
  0
LINE
  8
0
 62
     0
 10
112.482
 20
22.9953
 30
0.0
 11
112.482
 21
25.8437
 31
0.0
  0
LINE
  8
0
 62
     0
 10
112.482
 20
25.8437
 30
0.0
 11
111.683
 21
25.8437
 31
0.0
  0
LINE
  8
0
 62
     0
 10
111.683
 20
25.8437
 30
0.0
 11
111.683
 21
31.8947
 31
0.0
  0
LINE
  8
0
 62
     0
 10
111.683
 20
31.8947
 30
0.0
 11
112.482
 21
31.8947
 31
0.0
  0
LINE
  8
0
 62
     0
 10
112.482
 20
31.8947
 30
0.0
 11
112.482
 21
34.7459
 31
0.0
  0
LINE
  8
0
 62
     0
 10
112.482
 20
34.7459
 30
0.0
 11
111.683
 21
34.7459
 31
0.0
  0
LINE
  8
0
 62
     0
 10
111.683
 20
34.7459
 30
0.0
 11
111.683
 21
35.7449
 31
0.0
  0
LINE
  8
0
 62
     0
 10
111.683
 20
35.7449
 30
0.0
 11
97.9329
 21
35.7449
 31
0.0
  0
LINE
  8
0
 62
     0
 10
116.983
 20
35.7449
 30
0.0
 11
116.983
 21
34.7459
 31
0.0
  0
LINE
  8
0
 62
     0
 10
116.983
 20
34.7459
 30
0.0
 11
116.182
 21
34.7459
 31
0.0
  0
LINE
  8
0
 62
     0
 10
116.182
 20
34.7459
 30
0.0
 11
116.182
 21
31.8947
 31
0.0
  0
LINE
  8
0
 62
     0
 10
116.182
 20
31.8947
 30
0.0
 11
116.983
 21
31.8947
 31
0.0
  0
LINE
  8
0
 62
     0
 10
116.983
 20
31.8947
 30
0.0
 11
116.983
 21
25.8437
 31
0.0
  0
LINE
  8
0
 62
     0
 10
116.983
 20
25.8437
 30
0.0
 11
116.182
 21
25.8437
 31
0.0
  0
LINE
  8
0
 62
     0
 10
116.182
 20
25.8437
 30
0.0
 11
116.182
 21
22.9953
 31
0.0
  0
LINE
  8
0
 62
     0
 10
116.182
 20
22.9953
 30
0.0
 11
116.983
 21
22.9953
 31
0.0
  0
LINE
  8
0
 62
     0
 10
116.983
 20
22.9953
 30
0.0
 11
116.983
 21
21.9949
 31
0.0
  0
LINE
  8
0
 62
     0
 10
116.983
 20
21.9949
 30
0.0
 11
130.733
 21
21.9949
 31
0.0
  0
LINE
  8
0
 62
     0
 10
130.733
 20
21.9949
 30
0.0
 11
130.733
 21
22.9953
 31
0.0
  0
LINE
  8
0
 62
     0
 10
130.733
 20
22.9953
 30
0.0
 11
131.532
 21
22.9953
 31
0.0
  0
LINE
  8
0
 62
     0
 10
131.532
 20
22.9953
 30
0.0
 11
131.532
 21
25.8437
 31
0.0
  0
LINE
  8
0
 62
     0
 10
131.532
 20
25.8437
 30
0.0
 11
130.733
 21
25.8437
 31
0.0
  0
LINE
  8
0
 62
     0
 10
130.733
 20
25.8437
 30
0.0
 11
130.733
 21
31.8947
 31
0.0
  0
LINE
  8
0
 62
     0
 10
130.733
 20
31.8947
 30
0.0
 11
131.532
 21
31.8947
 31
0.0
  0
LINE
  8
0
 62
     0
 10
131.532
 20
31.8947
 30
0.0
 11
131.532
 21
34.7459
 31
0.0
  0
LINE
  8
0
 62
     0
 10
131.532
 20
34.7459
 30
0.0
 11
130.733
 21
34.7459
 31
0.0
  0
LINE
  8
0
 62
     0
 10
130.733
 20
34.7459
 30
0.0
 11
130.733
 21
35.7449
 31
0.0
  0
LINE
  8
0
 62
     0
 10
130.733
 20
35.7449
 30
0.0
 11
116.983
 21
35.7449
 31
0.0
  0
LINE
  8
0
 62
     0
 10
136.033
 20
35.7449
 30
0.0
 11
136.033
 21
34.7459
 31
0.0
  0
LINE
  8
0
 62
     0
 10
136.033
 20
34.7459
 30
0.0
 11
135.232
 21
34.7459
 31
0.0
  0
LINE
  8
0
 62
     0
 10
135.232
 20
34.7459
 30
0.0
 11
135.232
 21
31.8947
 31
0.0
  0
LINE
  8
0
 62
     0
 10
135.232
 20
31.8947
 30
0.0
 11
136.033
 21
31.8947
 31
0.0
  0
LINE
  8
0
 62
     0
 10
136.033
 20
31.8947
 30
0.0
 11
136.033
 21
25.8437
 31
0.0
  0
LINE
  8
0
 62
     0
 10
136.033
 20
25.8437
 30
0.0
 11
135.232
 21
25.8437
 31
0.0
  0
LINE
  8
0
 62
     0
 10
135.232
 20
25.8437
 30
0.0
 11
135.232
 21
22.9953
 31
0.0
  0
LINE
  8
0
 62
     0
 10
135.232
 20
22.9953
 30
0.0
 11
136.033
 21
22.9953
 31
0.0
  0
LINE
  8
0
 62
     0
 10
136.033
 20
22.9953
 30
0.0
 11
136.033
 21
21.9949
 31
0.0
  0
LINE
  8
0
 62
     0
 10
136.033
 20
21.9949
 30
0.0
 11
149.783
 21
21.9949
 31
0.0
  0
LINE
  8
0
 62
     0
 10
149.783
 20
21.9949
 30
0.0
 11
149.783
 21
22.9953
 31
0.0
  0
LINE
  8
0
 62
     0
 10
149.783
 20
22.9953
 30
0.0
 11
150.581
 21
22.9953
 31
0.0
  0
LINE
  8
0
 62
     0
 10
150.581
 20
22.9953
 30
0.0
 11
150.581
 21
25.8437
 31
0.0
  0
LINE
  8
0
 62
     0
 10
150.581
 20
25.8437
 30
0.0
 11
149.783
 21
25.8437
 31
0.0
  0
LINE
  8
0
 62
     0
 10
149.783
 20
25.8437
 30
0.0
 11
149.783
 21
31.8947
 31
0.0
  0
LINE
  8
0
 62
     0
 10
149.783
 20
31.8947
 30
0.0
 11
150.581
 21
31.8947
 31
0.0
  0
LINE
  8
0
 62
     0
 10
150.581
 20
31.8947
 30
0.0
 11
150.581
 21
34.7459
 31
0.0
  0
LINE
  8
0
 62
     0
 10
150.581
 20
34.7459
 30
0.0
 11
149.783
 21
34.7459
 31
0.0
  0
LINE
  8
0
 62
     0
 10
149.783
 20
34.7459
 30
0.0
 11
149.783
 21
35.7449
 31
0.0
  0
LINE
  8
0
 62
     0
 10
149.783
 20
35.7449
 30
0.0
 11
136.033
 21
35.7449
 31
0.0
  0
LINE
  8
0
 62
     0
 10
155.082
 20
35.7449
 30
0.0
 11
155.082
 21
34.7459
 31
0.0
  0
LINE
  8
0
 62
     0
 10
155.082
 20
34.7459
 30
0.0
 11
154.282
 21
34.7459
 31
0.0
  0
LINE
  8
0
 62
     0
 10
154.282
 20
34.7459
 30
0.0
 11
154.282
 21
31.8947
 31
0.0
  0
LINE
  8
0
 62
     0
 10
154.282
 20
31.8947
 30
0.0
 11
155.082
 21
31.8947
 31
0.0
  0
LINE
  8
0
 62
     0
 10
155.082
 20
31.8947
 30
0.0
 11
155.082
 21
25.8437
 31
0.0
  0
LINE
  8
0
 62
     0
 10
155.082
 20
25.8437
 30
0.0
 11
154.282
 21
25.8437
 31
0.0
  0
LINE
  8
0
 62
     0
 10
154.282
 20
25.8437
 30
0.0
 11
154.282
 21
22.9953
 31
0.0
  0
LINE
  8
0
 62
     0
 10
154.282
 20
22.9953
 30
0.0
 11
155.082
 21
22.9953
 31
0.0
  0
LINE
  8
0
 62
     0
 10
155.082
 20
22.9953
 30
0.0
 11
155.082
 21
21.9949
 31
0.0
  0
LINE
  8
0
 62
     0
 10
155.082
 20
21.9949
 30
0.0
 11
168.832
 21
21.9949
 31
0.0
  0
LINE
  8
0
 62
     0
 10
168.832
 20
21.9949
 30
0.0
 11
168.832
 21
22.9953
 31
0.0
  0
LINE
  8
0
 62
     0
 10
168.832
 20
22.9953
 30
0.0
 11
169.632
 21
22.9953
 31
0.0
  0
LINE
  8
0
 62
     0
 10
169.632
 20
22.9953
 30
0.0
 11
169.632
 21
25.8437
 31
0.0
  0
LINE
  8
0
 62
     0
 10
169.632
 20
25.8437
 30
0.0
 11
168.832
 21
25.8437
 31
0.0
  0
LINE
  8
0
 62
     0
 10
168.832
 20
25.8437
 30
0.0
 11
168.832
 21
31.8947
 31
0.0
  0
LINE
  8
0
 62
     0
 10
168.832
 20
31.8947
 30
0.0
 11
169.632
 21
31.8947
 31
0.0
  0
LINE
  8
0
 62
     0
 10
169.632
 20
31.8947
 30
0.0
 11
169.632
 21
34.7459
 31
0.0
  0
LINE
  8
0
 62
     0
 10
169.632
 20
34.7459
 30
0.0
 11
168.832
 21
34.7459
 31
0.0
  0
LINE
  8
0
 62
     0
 10
168.832
 20
34.7459
 30
0.0
 11
168.832
 21
35.7449
 31
0.0
  0
LINE
  8
0
 62
     0
 10
168.832
 20
35.7449
 30
0.0
 11
155.082
 21
35.7449
 31
0.0
  0
LINE
  8
0
 62
     0
 10
174.133
 20
35.7449
 30
0.0
 11
174.133
 21
34.7459
 31
0.0
  0
LINE
  8
0
 62
     0
 10
174.133
 20
34.7459
 30
0.0
 11
173.331
 21
34.7459
 31
0.0
  0
LINE
  8
0
 62
     0
 10
173.331
 20
34.7459
 30
0.0
 11
173.331
 21
31.8947
 31
0.0
  0
LINE
  8
0
 62
     0
 10
173.331
 20
31.8947
 30
0.0
 11
174.133
 21
31.8947
 31
0.0
  0
LINE
  8
0
 62
     0
 10
174.133
 20
31.8947
 30
0.0
 11
174.133
 21
25.8437
 31
0.0
  0
LINE
  8
0
 62
     0
 10
174.133
 20
25.8437
 30
0.0
 11
173.331
 21
25.8437
 31
0.0
  0
LINE
  8
0
 62
     0
 10
173.331
 20
25.8437
 30
0.0
 11
173.331
 21
22.9953
 31
0.0
  0
LINE
  8
0
 62
     0
 10
173.331
 20
22.9953
 30
0.0
 11
174.133
 21
22.9953
 31
0.0
  0
LINE
  8
0
 62
     0
 10
174.133
 20
22.9953
 30
0.0
 11
174.133
 21
21.9949
 31
0.0
  0
LINE
  8
0
 62
     0
 10
174.133
 20
21.9949
 30
0.0
 11
187.883
 21
21.9949
 31
0.0
  0
LINE
  8
0
 62
     0
 10
187.883
 20
21.9949
 30
0.0
 11
187.883
 21
22.9953
 31
0.0
  0
LINE
  8
0
 62
     0
 10
187.883
 20
22.9953
 30
0.0
 11
188.681
 21
22.9953
 31
0.0
  0
LINE
  8
0
 62
     0
 10
188.681
 20
22.9953
 30
0.0
 11
188.681
 21
25.8437
 31
0.0
  0
LINE
  8
0
 62
     0
 10
188.681
 20
25.8437
 30
0.0
 11
187.883
 21
25.8437
 31
0.0
  0
LINE
  8
0
 62
     0
 10
187.883
 20
25.8437
 30
0.0
 11
187.883
 21
31.8947
 31
0.0
  0
LINE
  8
0
 62
     0
 10
187.883
 20
31.8947
 30
0.0
 11
188.681
 21
31.8947
 31
0.0
  0
LINE
  8
0
 62
     0
 10
188.681
 20
31.8947
 30
0.0
 11
188.681
 21
34.7459
 31
0.0
  0
LINE
  8
0
 62
     0
 10
188.681
 20
34.7459
 30
0.0
 11
187.883
 21
34.7459
 31
0.0
  0
LINE
  8
0
 62
     0
 10
187.883
 20
34.7459
 30
0.0
 11
187.883
 21
35.7449
 31
0.0
  0
LINE
  8
0
 62
     0
 10
187.883
 20
35.7449
 30
0.0
 11
174.133
 21
35.7449
 31
0.0
  0
LINE
  8
0
 62
     0
 10
193.182
 20
35.7449
 30
0.0
 11
193.182
 21
34.7459
 31
0.0
  0
LINE
  8
0
 62
     0
 10
193.182
 20
34.7459
 30
0.0
 11
192.382
 21
34.7459
 31
0.0
  0
LINE
  8
0
 62
     0
 10
192.382
 20
34.7459
 30
0.0
 11
192.382
 21
31.8947
 31
0.0
  0
LINE
  8
0
 62
     0
 10
192.382
 20
31.8947
 30
0.0
 11
193.182
 21
31.8947
 31
0.0
  0
LINE
  8
0
 62
     0
 10
193.182
 20
31.8947
 30
0.0
 11
193.182
 21
25.8437
 31
0.0
  0
LINE
  8
0
 62
     0
 10
193.182
 20
25.8437
 30
0.0
 11
192.382
 21
25.8437
 31
0.0
  0
LINE
  8
0
 62
     0
 10
192.382
 20
25.8437
 30
0.0
 11
192.382
 21
22.9953
 31
0.0
  0
LINE
  8
0
 62
     0
 10
192.382
 20
22.9953
 30
0.0
 11
193.182
 21
22.9953
 31
0.0
  0
LINE
  8
0
 62
     0
 10
193.182
 20
22.9953
 30
0.0
 11
193.182
 21
21.9949
 31
0.0
  0
LINE
  8
0
 62
     0
 10
193.182
 20
21.9949
 30
0.0
 11
206.932
 21
21.9949
 31
0.0
  0
LINE
  8
0
 62
     0
 10
206.932
 20
21.9949
 30
0.0
 11
206.932
 21
22.9953
 31
0.0
  0
LINE
  8
0
 62
     0
 10
206.932
 20
22.9953
 30
0.0
 11
207.732
 21
22.9953
 31
0.0
  0
LINE
  8
0
 62
     0
 10
207.732
 20
22.9953
 30
0.0
 11
207.732
 21
25.8437
 31
0.0
  0
LINE
  8
0
 62
     0
 10
207.732
 20
25.8437
 30
0.0
 11
206.932
 21
25.8437
 31
0.0
  0
LINE
  8
0
 62
     0
 10
206.932
 20
25.8437
 30
0.0
 11
206.932
 21
31.8947
 31
0.0
  0
LINE
  8
0
 62
     0
 10
206.932
 20
31.8947
 30
0.0
 11
207.732
 21
31.8947
 31
0.0
  0
LINE
  8
0
 62
     0
 10
207.732
 20
31.8947
 30
0.0
 11
207.732
 21
34.7459
 31
0.0
  0
LINE
  8
0
 62
     0
 10
207.732
 20
34.7459
 30
0.0
 11
206.932
 21
34.7459
 31
0.0
  0
LINE
  8
0
 62
     0
 10
206.932
 20
34.7459
 30
0.0
 11
206.932
 21
35.7449
 31
0.0
  0
LINE
  8
0
 62
     0
 10
206.932
 20
35.7449
 30
0.0
 11
193.182
 21
35.7449
 31
0.0
  0
LINE
  8
0
 62
     0
 10
212.233
 20
35.7449
 30
0.0
 11
212.233
 21
34.7459
 31
0.0
  0
LINE
  8
0
 62
     0
 10
212.233
 20
34.7459
 30
0.0
 11
211.431
 21
34.7459
 31
0.0
  0
LINE
  8
0
 62
     0
 10
211.431
 20
34.7459
 30
0.0
 11
211.431
 21
31.8947
 31
0.0
  0
LINE
  8
0
 62
     0
 10
211.431
 20
31.8947
 30
0.0
 11
212.233
 21
31.8947
 31
0.0
  0
LINE
  8
0
 62
     0
 10
212.233
 20
31.8947
 30
0.0
 11
212.233
 21
25.8437
 31
0.0
  0
LINE
  8
0
 62
     0
 10
212.233
 20
25.8437
 30
0.0
 11
211.431
 21
25.8437
 31
0.0
  0
LINE
  8
0
 62
     0
 10
211.431
 20
25.8437
 30
0.0
 11
211.431
 21
22.9953
 31
0.0
  0
LINE
  8
0
 62
     0
 10
211.431
 20
22.9953
 30
0.0
 11
212.233
 21
22.9953
 31
0.0
  0
LINE
  8
0
 62
     0
 10
212.233
 20
22.9953
 30
0.0
 11
212.233
 21
21.9949
 31
0.0
  0
LINE
  8
0
 62
     0
 10
212.233
 20
21.9949
 30
0.0
 11
225.983
 21
21.9949
 31
0.0
  0
LINE
  8
0
 62
     0
 10
225.983
 20
21.9949
 30
0.0
 11
225.983
 21
22.9953
 31
0.0
  0
LINE
  8
0
 62
     0
 10
225.983
 20
22.9953
 30
0.0
 11
226.782
 21
22.9953
 31
0.0
  0
LINE
  8
0
 62
     0
 10
226.782
 20
22.9953
 30
0.0
 11
226.782
 21
25.8437
 31
0.0
  0
LINE
  8
0
 62
     0
 10
226.782
 20
25.8437
 30
0.0
 11
225.983
 21
25.8437
 31
0.0
  0
LINE
  8
0
 62
     0
 10
225.983
 20
25.8437
 30
0.0
 11
225.983
 21
31.8947
 31
0.0
  0
LINE
  8
0
 62
     0
 10
225.983
 20
31.8947
 30
0.0
 11
226.782
 21
31.8947
 31
0.0
  0
LINE
  8
0
 62
     0
 10
226.782
 20
31.8947
 30
0.0
 11
226.782
 21
34.7459
 31
0.0
  0
LINE
  8
0
 62
     0
 10
226.782
 20
34.7459
 30
0.0
 11
225.983
 21
34.7459
 31
0.0
  0
LINE
  8
0
 62
     0
 10
225.983
 20
34.7459
 30
0.0
 11
225.983
 21
35.7449
 31
0.0
  0
LINE
  8
0
 62
     0
 10
225.983
 20
35.7449
 30
0.0
 11
212.233
 21
35.7449
 31
0.0
  0
LINE
  8
0
 62
     0
 10
231.283
 20
35.7449
 30
0.0
 11
231.283
 21
34.7459
 31
0.0
  0
LINE
  8
0
 62
     0
 10
231.283
 20
34.7459
 30
0.0
 11
230.482
 21
34.7459
 31
0.0
  0
LINE
  8
0
 62
     0
 10
230.482
 20
34.7459
 30
0.0
 11
230.482
 21
31.8947
 31
0.0
  0
LINE
  8
0
 62
     0
 10
230.482
 20
31.8947
 30
0.0
 11
231.283
 21
31.8947
 31
0.0
  0
LINE
  8
0
 62
     0
 10
231.283
 20
31.8947
 30
0.0
 11
231.283
 21
25.8437
 31
0.0
  0
LINE
  8
0
 62
     0
 10
231.283
 20
25.8437
 30
0.0
 11
230.482
 21
25.8437
 31
0.0
  0
LINE
  8
0
 62
     0
 10
230.482
 20
25.8437
 30
0.0
 11
230.482
 21
22.9953
 31
0.0
  0
LINE
  8
0
 62
     0
 10
230.482
 20
22.9953
 30
0.0
 11
231.283
 21
22.9953
 31
0.0
  0
LINE
  8
0
 62
     0
 10
231.283
 20
22.9953
 30
0.0
 11
231.283
 21
21.9949
 31
0.0
  0
LINE
  8
0
 62
     0
 10
231.283
 20
21.9949
 30
0.0
 11
245.033
 21
21.9949
 31
0.0
  0
LINE
  8
0
 62
     0
 10
245.033
 20
21.9949
 30
0.0
 11
245.033
 21
22.9953
 31
0.0
  0
LINE
  8
0
 62
     0
 10
245.033
 20
22.9953
 30
0.0
 11
245.831
 21
22.9953
 31
0.0
  0
LINE
  8
0
 62
     0
 10
245.831
 20
22.9953
 30
0.0
 11
245.831
 21
25.8437
 31
0.0
  0
LINE
  8
0
 62
     0
 10
245.831
 20
25.8437
 30
0.0
 11
245.033
 21
25.8437
 31
0.0
  0
LINE
  8
0
 62
     0
 10
245.033
 20
25.8437
 30
0.0
 11
245.033
 21
31.8947
 31
0.0
  0
LINE
  8
0
 62
     0
 10
245.033
 20
31.8947
 30
0.0
 11
245.831
 21
31.8947
 31
0.0
  0
LINE
  8
0
 62
     0
 10
245.831
 20
31.8947
 30
0.0
 11
245.831
 21
34.7459
 31
0.0
  0
LINE
  8
0
 62
     0
 10
245.831
 20
34.7459
 30
0.0
 11
245.033
 21
34.7459
 31
0.0
  0
LINE
  8
0
 62
     0
 10
245.033
 20
34.7459
 30
0.0
 11
245.033
 21
35.7449
 31
0.0
  0
LINE
  8
0
 62
     0
 10
245.033
 20
35.7449
 30
0.0
 11
231.283
 21
35.7449
 31
0.0
  0
LINE
  8
0
 62
     0
 10
250.332
 20
35.7449
 30
0.0
 11
250.332
 21
34.7459
 31
0.0
  0
LINE
  8
0
 62
     0
 10
250.332
 20
34.7459
 30
0.0
 11
249.532
 21
34.7459
 31
0.0
  0
LINE
  8
0
 62
     0
 10
249.532
 20
34.7459
 30
0.0
 11
249.532
 21
31.8947
 31
0.0
  0
LINE
  8
0
 62
     0
 10
249.532
 20
31.8947
 30
0.0
 11
250.332
 21
31.8947
 31
0.0
  0
LINE
  8
0
 62
     0
 10
250.332
 20
31.8947
 30
0.0
 11
250.332
 21
25.8437
 31
0.0
  0
LINE
  8
0
 62
     0
 10
250.332
 20
25.8437
 30
0.0
 11
249.532
 21
25.8437
 31
0.0
  0
LINE
  8
0
 62
     0
 10
249.532
 20
25.8437
 30
0.0
 11
249.532
 21
22.9953
 31
0.0
  0
LINE
  8
0
 62
     0
 10
249.532
 20
22.9953
 30
0.0
 11
250.332
 21
22.9953
 31
0.0
  0
LINE
  8
0
 62
     0
 10
250.332
 20
22.9953
 30
0.0
 11
250.332
 21
21.9949
 31
0.0
  0
LINE
  8
0
 62
     0
 10
250.332
 20
21.9949
 30
0.0
 11
264.082
 21
21.9949
 31
0.0
  0
LINE
  8
0
 62
     0
 10
264.082
 20
21.9949
 30
0.0
 11
264.082
 21
22.9953
 31
0.0
  0
LINE
  8
0
 62
     0
 10
264.082
 20
22.9953
 30
0.0
 11
264.881
 21
22.9953
 31
0.0
  0
LINE
  8
0
 62
     0
 10
264.881
 20
22.9953
 30
0.0
 11
264.881
 21
25.8437
 31
0.0
  0
LINE
  8
0
 62
     0
 10
264.881
 20
25.8437
 30
0.0
 11
264.082
 21
25.8437
 31
0.0
  0
LINE
  8
0
 62
     0
 10
264.082
 20
25.8437
 30
0.0
 11
264.082
 21
31.8947
 31
0.0
  0
LINE
  8
0
 62
     0
 10
264.082
 20
31.8947
 30
0.0
 11
264.881
 21
31.8947
 31
0.0
  0
LINE
  8
0
 62
     0
 10
264.881
 20
31.8947
 30
0.0
 11
264.881
 21
34.7459
 31
0.0
  0
LINE
  8
0
 62
     0
 10
264.881
 20
34.7459
 30
0.0
 11
264.082
 21
34.7459
 31
0.0
  0
LINE
  8
0
 62
     0
 10
264.082
 20
34.7459
 30
0.0
 11
264.082
 21
35.7449
 31
0.0
  0
LINE
  8
0
 62
     0
 10
264.082
 20
35.7449
 30
0.0
 11
250.332
 21
35.7449
 31
0.0
  0
LINE
  8
0
 62
     0
 10
269.382
 20
35.7449
 30
0.0
 11
269.382
 21
34.7459
 31
0.0
  0
LINE
  8
0
 62
     0
 10
269.382
 20
34.7459
 30
0.0
 11
268.581
 21
34.7459
 31
0.0
  0
LINE
  8
0
 62
     0
 10
268.581
 20
34.7459
 30
0.0
 11
268.581
 21
31.8947
 31
0.0
  0
LINE
  8
0
 62
     0
 10
268.581
 20
31.8947
 30
0.0
 11
269.382
 21
31.8947
 31
0.0
  0
LINE
  8
0
 62
     0
 10
269.382
 20
31.8947
 30
0.0
 11
269.382
 21
25.8437
 31
0.0
  0
LINE
  8
0
 62
     0
 10
269.382
 20
25.8437
 30
0.0
 11
268.581
 21
25.8437
 31
0.0
  0
LINE
  8
0
 62
     0
 10
268.581
 20
25.8437
 30
0.0
 11
268.581
 21
22.9953
 31
0.0
  0
LINE
  8
0
 62
     0
 10
268.581
 20
22.9953
 30
0.0
 11
269.382
 21
22.9953
 31
0.0
  0
LINE
  8
0
 62
     0
 10
269.382
 20
22.9953
 30
0.0
 11
269.382
 21
21.9949
 31
0.0
  0
LINE
  8
0
 62
     0
 10
269.382
 20
21.9949
 30
0.0
 11
283.132
 21
21.9949
 31
0.0
  0
LINE
  8
0
 62
     0
 10
283.132
 20
21.9949
 30
0.0
 11
283.132
 21
22.9953
 31
0.0
  0
LINE
  8
0
 62
     0
 10
283.132
 20
22.9953
 30
0.0
 11
283.931
 21
22.9953
 31
0.0
  0
LINE
  8
0
 62
     0
 10
283.931
 20
22.9953
 30
0.0
 11
283.931
 21
25.8437
 31
0.0
  0
LINE
  8
0
 62
     0
 10
283.931
 20
25.8437
 30
0.0
 11
283.132
 21
25.8437
 31
0.0
  0
LINE
  8
0
 62
     0
 10
283.132
 20
25.8437
 30
0.0
 11
283.132
 21
31.8947
 31
0.0
  0
LINE
  8
0
 62
     0
 10
283.132
 20
31.8947
 30
0.0
 11
283.931
 21
31.8947
 31
0.0
  0
LINE
  8
0
 62
     0
 10
283.931
 20
31.8947
 30
0.0
 11
283.931
 21
34.7459
 31
0.0
  0
LINE
  8
0
 62
     0
 10
283.931
 20
34.7459
 30
0.0
 11
283.132
 21
34.7459
 31
0.0
  0
LINE
  8
0
 62
     0
 10
283.132
 20
34.7459
 30
0.0
 11
283.132
 21
35.7449
 31
0.0
  0
LINE
  8
0
 62
     0
 10
283.132
 20
35.7449
 30
0.0
 11
269.382
 21
35.7449
 31
0.0
  0
LINE
  8
0
 62
     0
 10
5.06293
 20
54.7949
 30
0.0
 11
5.06293
 21
53.7944
 31
0.0
  0
LINE
  8
0
 62
     0
 10
5.06293
 20
53.7944
 30
0.0
 11
4.26364
 21
53.7944
 31
0.0
  0
LINE
  8
0
 62
     0
 10
4.26364
 20
53.7944
 30
0.0
 11
4.26364
 21
50.9446
 31
0.0
  0
LINE
  8
0
 62
     0
 10
4.26364
 20
50.9446
 30
0.0
 11
5.06293
 21
50.9446
 31
0.0
  0
LINE
  8
0
 62
     0
 10
5.06293
 20
50.9446
 30
0.0
 11
5.06293
 21
44.8938
 31
0.0
  0
LINE
  8
0
 62
     0
 10
5.06293
 20
44.8938
 30
0.0
 11
4.26364
 21
44.8938
 31
0.0
  0
LINE
  8
0
 62
     0
 10
4.26364
 20
44.8938
 30
0.0
 11
4.26364
 21
42.0441
 31
0.0
  0
LINE
  8
0
 62
     0
 10
4.26364
 20
42.0441
 30
0.0
 11
5.06293
 21
42.0441
 31
0.0
  0
LINE
  8
0
 62
     0
 10
5.06293
 20
42.0441
 30
0.0
 11
5.06293
 21
41.045
 31
0.0
  0
LINE
  8
0
 62
     0
 10
5.06293
 20
41.045
 30
0.0
 11
23.5768
 21
41.045
 31
0.0
  0
LINE
  8
0
 62
     0
 10
23.5768
 20
41.045
 30
0.0
 11
23.5768
 21
42.0441
 31
0.0
  0
LINE
  8
0
 62
     0
 10
23.5768
 20
42.0441
 30
0.0
 11
24.3761
 21
42.0441
 31
0.0
  0
LINE
  8
0
 62
     0
 10
24.3761
 20
42.0441
 30
0.0
 11
24.3761
 21
44.8938
 31
0.0
  0
LINE
  8
0
 62
     0
 10
24.3761
 20
44.8938
 30
0.0
 11
23.5768
 21
44.8938
 31
0.0
  0
LINE
  8
0
 62
     0
 10
23.5768
 20
44.8938
 30
0.0
 11
23.5768
 21
50.9446
 31
0.0
  0
LINE
  8
0
 62
     0
 10
23.5768
 20
50.9446
 30
0.0
 11
24.3761
 21
50.9446
 31
0.0
  0
LINE
  8
0
 62
     0
 10
24.3761
 20
50.9446
 30
0.0
 11
24.3761
 21
53.7944
 31
0.0
  0
LINE
  8
0
 62
     0
 10
24.3761
 20
53.7944
 30
0.0
 11
23.5768
 21
53.7944
 31
0.0
  0
LINE
  8
0
 62
     0
 10
23.5768
 20
53.7944
 30
0.0
 11
23.5768
 21
54.7949
 31
0.0
  0
LINE
  8
0
 62
     0
 10
23.5768
 20
54.7949
 30
0.0
 11
5.06293
 21
54.7949
 31
0.0
  0
LINE
  8
0
 62
     0
 10
36.0204
 20
54.7949
 30
0.0
 11
36.0204
 21
53.7944
 31
0.0
  0
LINE
  8
0
 62
     0
 10
36.0204
 20
53.7944
 30
0.0
 11
35.2199
 21
53.7944
 31
0.0
  0
LINE
  8
0
 62
     0
 10
35.2199
 20
53.7944
 30
0.0
 11
35.2199
 21
50.9446
 31
0.0
  0
LINE
  8
0
 62
     0
 10
35.2199
 20
50.9446
 30
0.0
 11
36.0204
 21
50.9446
 31
0.0
  0
LINE
  8
0
 62
     0
 10
36.0204
 20
50.9446
 30
0.0
 11
36.0204
 21
44.8938
 31
0.0
  0
LINE
  8
0
 62
     0
 10
36.0204
 20
44.8938
 30
0.0
 11
35.2199
 21
44.8938
 31
0.0
  0
LINE
  8
0
 62
     0
 10
35.2199
 20
44.8938
 30
0.0
 11
35.2199
 21
42.0441
 31
0.0
  0
LINE
  8
0
 62
     0
 10
35.2199
 20
42.0441
 30
0.0
 11
36.0204
 21
42.0441
 31
0.0
  0
LINE
  8
0
 62
     0
 10
36.0204
 20
42.0441
 30
0.0
 11
36.0204
 21
41.045
 31
0.0
  0
LINE
  8
0
 62
     0
 10
36.0204
 20
41.045
 30
0.0
 11
49.7706
 21
41.045
 31
0.0
  0
LINE
  8
0
 62
     0
 10
49.7706
 20
41.045
 30
0.0
 11
49.7706
 21
42.0441
 31
0.0
  0
LINE
  8
0
 62
     0
 10
49.7706
 20
42.0441
 30
0.0
 11
50.5686
 21
42.0441
 31
0.0
  0
LINE
  8
0
 62
     0
 10
50.5686
 20
42.0441
 30
0.0
 11
50.5686
 21
44.8938
 31
0.0
  0
LINE
  8
0
 62
     0
 10
50.5686
 20
44.8938
 30
0.0
 11
49.7706
 21
44.8938
 31
0.0
  0
LINE
  8
0
 62
     0
 10
49.7706
 20
44.8938
 30
0.0
 11
49.7706
 21
50.9446
 31
0.0
  0
LINE
  8
0
 62
     0
 10
49.7706
 20
50.9446
 30
0.0
 11
50.5686
 21
50.9446
 31
0.0
  0
LINE
  8
0
 62
     0
 10
50.5686
 20
50.9446
 30
0.0
 11
50.5686
 21
53.7944
 31
0.0
  0
LINE
  8
0
 62
     0
 10
50.5686
 20
53.7944
 30
0.0
 11
49.7706
 21
53.7944
 31
0.0
  0
LINE
  8
0
 62
     0
 10
49.7706
 20
53.7944
 30
0.0
 11
49.7706
 21
54.7949
 31
0.0
  0
LINE
  8
0
 62
     0
 10
49.7706
 20
54.7949
 30
0.0
 11
36.0204
 21
54.7949
 31
0.0
  0
LINE
  8
0
 62
     0
 10
55.0693
 20
54.7949
 30
0.0
 11
55.0693
 21
53.7944
 31
0.0
  0
LINE
  8
0
 62
     0
 10
55.0693
 20
53.7944
 30
0.0
 11
54.2699
 21
53.7944
 31
0.0
  0
LINE
  8
0
 62
     0
 10
54.2699
 20
53.7944
 30
0.0
 11
54.2699
 21
50.9446
 31
0.0
  0
LINE
  8
0
 62
     0
 10
54.2699
 20
50.9446
 30
0.0
 11
55.0693
 21
50.9446
 31
0.0
  0
LINE
  8
0
 62
     0
 10
55.0693
 20
50.9446
 30
0.0
 11
55.0693
 21
44.8938
 31
0.0
  0
LINE
  8
0
 62
     0
 10
55.0693
 20
44.8938
 30
0.0
 11
54.2699
 21
44.8938
 31
0.0
  0
LINE
  8
0
 62
     0
 10
54.2699
 20
44.8938
 30
0.0
 11
54.2699
 21
42.0441
 31
0.0
  0
LINE
  8
0
 62
     0
 10
54.2699
 20
42.0441
 30
0.0
 11
55.0693
 21
42.0441
 31
0.0
  0
LINE
  8
0
 62
     0
 10
55.0693
 20
42.0441
 30
0.0
 11
55.0693
 21
41.045
 31
0.0
  0
LINE
  8
0
 62
     0
 10
55.0693
 20
41.045
 30
0.0
 11
68.8192
 21
41.045
 31
0.0
  0
LINE
  8
0
 62
     0
 10
68.8192
 20
41.045
 30
0.0
 11
68.8192
 21
42.0441
 31
0.0
  0
LINE
  8
0
 62
     0
 10
68.8192
 20
42.0441
 30
0.0
 11
69.62
 21
42.0441
 31
0.0
  0
LINE
  8
0
 62
     0
 10
69.62
 20
42.0441
 30
0.0
 11
69.62
 21
44.8938
 31
0.0
  0
LINE
  8
0
 62
     0
 10
69.62
 20
44.8938
 30
0.0
 11
68.8192
 21
44.8938
 31
0.0
  0
LINE
  8
0
 62
     0
 10
68.8192
 20
44.8938
 30
0.0
 11
68.8192
 21
50.9446
 31
0.0
  0
LINE
  8
0
 62
     0
 10
68.8192
 20
50.9446
 30
0.0
 11
69.62
 21
50.9446
 31
0.0
  0
LINE
  8
0
 62
     0
 10
69.62
 20
50.9446
 30
0.0
 11
69.62
 21
53.7944
 31
0.0
  0
LINE
  8
0
 62
     0
 10
69.62
 20
53.7944
 30
0.0
 11
68.8192
 21
53.7944
 31
0.0
  0
LINE
  8
0
 62
     0
 10
68.8192
 20
53.7944
 30
0.0
 11
68.8192
 21
54.7949
 31
0.0
  0
LINE
  8
0
 62
     0
 10
68.8192
 20
54.7949
 30
0.0
 11
55.0693
 21
54.7949
 31
0.0
  0
LINE
  8
0
 62
     0
 10
74.1193
 20
54.7949
 30
0.0
 11
74.1193
 21
53.7944
 31
0.0
  0
LINE
  8
0
 62
     0
 10
74.1193
 20
53.7944
 30
0.0
 11
73.3199
 21
53.7944
 31
0.0
  0
LINE
  8
0
 62
     0
 10
73.3199
 20
53.7944
 30
0.0
 11
73.3199
 21
50.9446
 31
0.0
  0
LINE
  8
0
 62
     0
 10
73.3199
 20
50.9446
 30
0.0
 11
74.1193
 21
50.9446
 31
0.0
  0
LINE
  8
0
 62
     0
 10
74.1193
 20
50.9446
 30
0.0
 11
74.1193
 21
44.8938
 31
0.0
  0
LINE
  8
0
 62
     0
 10
74.1193
 20
44.8938
 30
0.0
 11
73.3199
 21
44.8938
 31
0.0
  0
LINE
  8
0
 62
     0
 10
73.3199
 20
44.8938
 30
0.0
 11
73.3199
 21
42.0441
 31
0.0
  0
LINE
  8
0
 62
     0
 10
73.3199
 20
42.0441
 30
0.0
 11
74.1193
 21
42.0441
 31
0.0
  0
LINE
  8
0
 62
     0
 10
74.1193
 20
42.0441
 30
0.0
 11
74.1193
 21
41.045
 31
0.0
  0
LINE
  8
0
 62
     0
 10
74.1193
 20
41.045
 30
0.0
 11
87.8692
 21
41.045
 31
0.0
  0
LINE
  8
0
 62
     0
 10
87.8692
 20
41.045
 30
0.0
 11
87.8692
 21
42.0441
 31
0.0
  0
LINE
  8
0
 62
     0
 10
87.8692
 20
42.0441
 30
0.0
 11
88.67
 21
42.0441
 31
0.0
  0
LINE
  8
0
 62
     0
 10
88.67
 20
42.0441
 30
0.0
 11
88.67
 21
44.8938
 31
0.0
  0
LINE
  8
0
 62
     0
 10
88.67
 20
44.8938
 30
0.0
 11
87.8692
 21
44.8938
 31
0.0
  0
LINE
  8
0
 62
     0
 10
87.8692
 20
44.8938
 30
0.0
 11
87.8692
 21
50.9446
 31
0.0
  0
LINE
  8
0
 62
     0
 10
87.8692
 20
50.9446
 30
0.0
 11
88.67
 21
50.9446
 31
0.0
  0
LINE
  8
0
 62
     0
 10
88.67
 20
50.9446
 30
0.0
 11
88.67
 21
53.7944
 31
0.0
  0
LINE
  8
0
 62
     0
 10
88.67
 20
53.7944
 30
0.0
 11
87.8692
 21
53.7944
 31
0.0
  0
LINE
  8
0
 62
     0
 10
87.8692
 20
53.7944
 30
0.0
 11
87.8692
 21
54.7949
 31
0.0
  0
LINE
  8
0
 62
     0
 10
87.8692
 20
54.7949
 30
0.0
 11
74.1193
 21
54.7949
 31
0.0
  0
LINE
  8
0
 62
     0
 10
93.1693
 20
54.7949
 30
0.0
 11
93.1693
 21
53.7944
 31
0.0
  0
LINE
  8
0
 62
     0
 10
93.1693
 20
53.7944
 30
0.0
 11
92.3699
 21
53.7944
 31
0.0
  0
LINE
  8
0
 62
     0
 10
92.3699
 20
53.7944
 30
0.0
 11
92.3699
 21
50.9446
 31
0.0
  0
LINE
  8
0
 62
     0
 10
92.3699
 20
50.9446
 30
0.0
 11
93.1693
 21
50.9446
 31
0.0
  0
LINE
  8
0
 62
     0
 10
93.1693
 20
50.9446
 30
0.0
 11
93.1693
 21
44.8938
 31
0.0
  0
LINE
  8
0
 62
     0
 10
93.1693
 20
44.8938
 30
0.0
 11
92.3699
 21
44.8938
 31
0.0
  0
LINE
  8
0
 62
     0
 10
92.3699
 20
44.8938
 30
0.0
 11
92.3699
 21
42.0441
 31
0.0
  0
LINE
  8
0
 62
     0
 10
92.3699
 20
42.0441
 30
0.0
 11
93.1693
 21
42.0441
 31
0.0
  0
LINE
  8
0
 62
     0
 10
93.1693
 20
42.0441
 30
0.0
 11
93.1693
 21
41.045
 31
0.0
  0
LINE
  8
0
 62
     0
 10
93.1693
 20
41.045
 30
0.0
 11
106.919
 21
41.045
 31
0.0
  0
LINE
  8
0
 62
     0
 10
106.919
 20
41.045
 30
0.0
 11
106.919
 21
42.0441
 31
0.0
  0
LINE
  8
0
 62
     0
 10
106.919
 20
42.0441
 30
0.0
 11
107.72
 21
42.0441
 31
0.0
  0
LINE
  8
0
 62
     0
 10
107.72
 20
42.0441
 30
0.0
 11
107.72
 21
44.8938
 31
0.0
  0
LINE
  8
0
 62
     0
 10
107.72
 20
44.8938
 30
0.0
 11
106.919
 21
44.8938
 31
0.0
  0
LINE
  8
0
 62
     0
 10
106.919
 20
44.8938
 30
0.0
 11
106.919
 21
50.9446
 31
0.0
  0
LINE
  8
0
 62
     0
 10
106.919
 20
50.9446
 30
0.0
 11
107.72
 21
50.9446
 31
0.0
  0
LINE
  8
0
 62
     0
 10
107.72
 20
50.9446
 30
0.0
 11
107.72
 21
53.7944
 31
0.0
  0
LINE
  8
0
 62
     0
 10
107.72
 20
53.7944
 30
0.0
 11
106.919
 21
53.7944
 31
0.0
  0
LINE
  8
0
 62
     0
 10
106.919
 20
53.7944
 30
0.0
 11
106.919
 21
54.7949
 31
0.0
  0
LINE
  8
0
 62
     0
 10
106.919
 20
54.7949
 30
0.0
 11
93.1693
 21
54.7949
 31
0.0
  0
LINE
  8
0
 62
     0
 10
112.219
 20
54.7949
 30
0.0
 11
112.219
 21
53.7944
 31
0.0
  0
LINE
  8
0
 62
     0
 10
112.219
 20
53.7944
 30
0.0
 11
111.42
 21
53.7944
 31
0.0
  0
LINE
  8
0
 62
     0
 10
111.42
 20
53.7944
 30
0.0
 11
111.42
 21
50.9446
 31
0.0
  0
LINE
  8
0
 62
     0
 10
111.42
 20
50.9446
 30
0.0
 11
112.219
 21
50.9446
 31
0.0
  0
LINE
  8
0
 62
     0
 10
112.219
 20
50.9446
 30
0.0
 11
112.219
 21
44.8938
 31
0.0
  0
LINE
  8
0
 62
     0
 10
112.219
 20
44.8938
 30
0.0
 11
111.42
 21
44.8938
 31
0.0
  0
LINE
  8
0
 62
     0
 10
111.42
 20
44.8938
 30
0.0
 11
111.42
 21
42.0441
 31
0.0
  0
LINE
  8
0
 62
     0
 10
111.42
 20
42.0441
 30
0.0
 11
112.219
 21
42.0441
 31
0.0
  0
LINE
  8
0
 62
     0
 10
112.219
 20
42.0441
 30
0.0
 11
112.219
 21
41.045
 31
0.0
  0
LINE
  8
0
 62
     0
 10
112.219
 20
41.045
 30
0.0
 11
125.971
 21
41.045
 31
0.0
  0
LINE
  8
0
 62
     0
 10
125.971
 20
41.045
 30
0.0
 11
125.971
 21
42.0441
 31
0.0
  0
LINE
  8
0
 62
     0
 10
125.971
 20
42.0441
 30
0.0
 11
126.77
 21
42.0441
 31
0.0
  0
LINE
  8
0
 62
     0
 10
126.77
 20
42.0441
 30
0.0
 11
126.77
 21
44.8938
 31
0.0
  0
LINE
  8
0
 62
     0
 10
126.77
 20
44.8938
 30
0.0
 11
125.971
 21
44.8938
 31
0.0
  0
LINE
  8
0
 62
     0
 10
125.971
 20
44.8938
 30
0.0
 11
125.971
 21
46.8408
 31
0.0
  0
LINE
  8
0
 62
     0
 10
125.971
 20
46.8408
 30
0.0
 11
126.282
 21
46.2291
 31
0.0
  0
LINE
  8
0
 62
     0
 10
126.282
 20
46.2291
 30
0.0
 11
126.919
 21
45.5937
 31
0.0
  0
LINE
  8
0
 62
     0
 10
126.919
 20
45.5937
 30
0.0
 11
127.719
 21
45.1845
 31
0.0
  0
LINE
  8
0
 62
     0
 10
127.719
 20
45.1845
 30
0.0
 11
128.608
 21
45.0441
 31
0.0
  0
LINE
  8
0
 62
     0
 10
128.608
 20
45.0441
 30
0.0
 11
129.497
 21
45.1845
 31
0.0
  0
LINE
  8
0
 62
     0
 10
129.497
 20
45.1845
 30
0.0
 11
130.298
 21
45.5937
 31
0.0
  0
LINE
  8
0
 62
     0
 10
130.298
 20
45.5937
 30
0.0
 11
130.933
 21
46.2291
 31
0.0
  0
LINE
  8
0
 62
     0
 10
130.933
 20
46.2291
 30
0.0
 11
131.269
 21
46.8877
 31
0.0
  0
LINE
  8
0
 62
     0
 10
131.269
 20
46.8877
 30
0.0
 11
131.269
 21
44.8938
 31
0.0
  0
LINE
  8
0
 62
     0
 10
131.269
 20
44.8938
 30
0.0
 11
130.47
 21
44.8938
 31
0.0
  0
LINE
  8
0
 62
     0
 10
130.47
 20
44.8938
 30
0.0
 11
130.47
 21
42.0441
 31
0.0
  0
LINE
  8
0
 62
     0
 10
130.47
 20
42.0441
 30
0.0
 11
131.269
 21
42.0441
 31
0.0
  0
LINE
  8
0
 62
     0
 10
131.269
 20
42.0441
 30
0.0
 11
131.269
 21
41.045
 31
0.0
  0
LINE
  8
0
 62
     0
 10
131.269
 20
41.045
 30
0.0
 11
145.019
 21
41.045
 31
0.0
  0
LINE
  8
0
 62
     0
 10
145.019
 20
41.045
 30
0.0
 11
145.019
 21
42.0441
 31
0.0
  0
LINE
  8
0
 62
     0
 10
145.019
 20
42.0441
 30
0.0
 11
145.82
 21
42.0441
 31
0.0
  0
LINE
  8
0
 62
     0
 10
145.82
 20
42.0441
 30
0.0
 11
145.82
 21
44.8938
 31
0.0
  0
LINE
  8
0
 62
     0
 10
145.82
 20
44.8938
 30
0.0
 11
145.019
 21
44.8938
 31
0.0
  0
LINE
  8
0
 62
     0
 10
145.019
 20
44.8938
 30
0.0
 11
145.019
 21
50.9446
 31
0.0
  0
LINE
  8
0
 62
     0
 10
145.019
 20
50.9446
 30
0.0
 11
145.82
 21
50.9446
 31
0.0
  0
LINE
  8
0
 62
     0
 10
145.82
 20
50.9446
 30
0.0
 11
145.82
 21
53.7944
 31
0.0
  0
LINE
  8
0
 62
     0
 10
145.82
 20
53.7944
 30
0.0
 11
145.019
 21
53.7944
 31
0.0
  0
LINE
  8
0
 62
     0
 10
145.019
 20
53.7944
 30
0.0
 11
145.019
 21
54.7949
 31
0.0
  0
LINE
  8
0
 62
     0
 10
145.019
 20
54.7949
 30
0.0
 11
131.269
 21
54.7949
 31
0.0
  0
LINE
  8
0
 62
     0
 10
131.269
 20
54.7949
 30
0.0
 11
131.269
 21
53.7944
 31
0.0
  0
LINE
  8
0
 62
     0
 10
131.269
 20
53.7944
 30
0.0
 11
130.47
 21
53.7944
 31
0.0
  0
LINE
  8
0
 62
     0
 10
130.47
 20
53.7944
 30
0.0
 11
130.47
 21
50.9446
 31
0.0
  0
LINE
  8
0
 62
     0
 10
130.47
 20
50.9446
 30
0.0
 11
131.269
 21
50.9446
 31
0.0
  0
LINE
  8
0
 62
     0
 10
131.269
 20
50.9446
 30
0.0
 11
131.269
 21
48.9507
 31
0.0
  0
LINE
  8
0
 62
     0
 10
131.269
 20
48.9507
 30
0.0
 11
130.933
 21
49.608
 31
0.0
  0
LINE
  8
0
 62
     0
 10
130.933
 20
49.608
 30
0.0
 11
130.298
 21
50.2447
 31
0.0
  0
LINE
  8
0
 62
     0
 10
130.298
 20
50.2447
 30
0.0
 11
129.497
 21
50.6539
 31
0.0
  0
LINE
  8
0
 62
     0
 10
129.497
 20
50.6539
 30
0.0
 11
128.608
 21
50.7929
 31
0.0
  0
LINE
  8
0
 62
     0
 10
128.608
 20
50.7929
 30
0.0
 11
127.719
 21
50.6539
 31
0.0
  0
LINE
  8
0
 62
     0
 10
127.719
 20
50.6539
 30
0.0
 11
126.919
 21
50.2447
 31
0.0
  0
LINE
  8
0
 62
     0
 10
126.919
 20
50.2447
 30
0.0
 11
126.282
 21
49.608
 31
0.0
  0
LINE
  8
0
 62
     0
 10
126.282
 20
49.608
 30
0.0
 11
125.971
 21
48.9991
 31
0.0
  0
LINE
  8
0
 62
     0
 10
125.971
 20
48.9991
 30
0.0
 11
125.971
 21
50.9446
 31
0.0
  0
LINE
  8
0
 62
     0
 10
125.971
 20
50.9446
 30
0.0
 11
126.77
 21
50.9446
 31
0.0
  0
LINE
  8
0
 62
     0
 10
126.77
 20
50.9446
 30
0.0
 11
126.77
 21
53.7944
 31
0.0
  0
LINE
  8
0
 62
     0
 10
126.77
 20
53.7944
 30
0.0
 11
125.971
 21
53.7944
 31
0.0
  0
LINE
  8
0
 62
     0
 10
125.971
 20
53.7944
 30
0.0
 11
125.971
 21
54.7949
 31
0.0
  0
LINE
  8
0
 62
     0
 10
125.971
 20
54.7949
 30
0.0
 11
112.219
 21
54.7949
 31
0.0
  0
LINE
  8
0
 62
     0
 10
150.319
 20
54.7949
 30
0.0
 11
150.319
 21
53.7944
 31
0.0
  0
LINE
  8
0
 62
     0
 10
150.319
 20
53.7944
 30
0.0
 11
149.52
 21
53.7944
 31
0.0
  0
LINE
  8
0
 62
     0
 10
149.52
 20
53.7944
 30
0.0
 11
149.52
 21
50.9446
 31
0.0
  0
LINE
  8
0
 62
     0
 10
149.52
 20
50.9446
 30
0.0
 11
150.319
 21
50.9446
 31
0.0
  0
LINE
  8
0
 62
     0
 10
150.319
 20
50.9446
 30
0.0
 11
150.319
 21
44.8938
 31
0.0
  0
LINE
  8
0
 62
     0
 10
150.319
 20
44.8938
 30
0.0
 11
149.52
 21
44.8938
 31
0.0
  0
LINE
  8
0
 62
     0
 10
149.52
 20
44.8938
 30
0.0
 11
149.52
 21
42.0441
 31
0.0
  0
LINE
  8
0
 62
     0
 10
149.52
 20
42.0441
 30
0.0
 11
150.319
 21
42.0441
 31
0.0
  0
LINE
  8
0
 62
     0
 10
150.319
 20
42.0441
 30
0.0
 11
150.319
 21
41.045
 31
0.0
  0
LINE
  8
0
 62
     0
 10
150.319
 20
41.045
 30
0.0
 11
164.069
 21
41.045
 31
0.0
  0
LINE
  8
0
 62
     0
 10
164.069
 20
41.045
 30
0.0
 11
164.069
 21
42.0441
 31
0.0
  0
LINE
  8
0
 62
     0
 10
164.069
 20
42.0441
 30
0.0
 11
164.87
 21
42.0441
 31
0.0
  0
LINE
  8
0
 62
     0
 10
164.87
 20
42.0441
 30
0.0
 11
164.87
 21
44.8938
 31
0.0
  0
LINE
  8
0
 62
     0
 10
164.87
 20
44.8938
 30
0.0
 11
164.069
 21
44.8938
 31
0.0
  0
LINE
  8
0
 62
     0
 10
164.069
 20
44.8938
 30
0.0
 11
164.069
 21
50.9446
 31
0.0
  0
LINE
  8
0
 62
     0
 10
164.069
 20
50.9446
 30
0.0
 11
164.87
 21
50.9446
 31
0.0
  0
LINE
  8
0
 62
     0
 10
164.87
 20
50.9446
 30
0.0
 11
164.87
 21
53.7944
 31
0.0
  0
LINE
  8
0
 62
     0
 10
164.87
 20
53.7944
 30
0.0
 11
164.069
 21
53.7944
 31
0.0
  0
LINE
  8
0
 62
     0
 10
164.069
 20
53.7944
 30
0.0
 11
164.069
 21
54.7949
 31
0.0
  0
LINE
  8
0
 62
     0
 10
164.069
 20
54.7949
 30
0.0
 11
150.319
 21
54.7949
 31
0.0
  0
LINE
  8
0
 62
     0
 10
169.37
 20
54.7949
 30
0.0
 11
169.37
 21
53.7944
 31
0.0
  0
LINE
  8
0
 62
     0
 10
169.37
 20
53.7944
 30
0.0
 11
168.57
 21
53.7944
 31
0.0
  0
LINE
  8
0
 62
     0
 10
168.57
 20
53.7944
 30
0.0
 11
168.57
 21
50.9446
 31
0.0
  0
LINE
  8
0
 62
     0
 10
168.57
 20
50.9446
 30
0.0
 11
169.37
 21
50.9446
 31
0.0
  0
LINE
  8
0
 62
     0
 10
169.37
 20
50.9446
 30
0.0
 11
169.37
 21
44.8938
 31
0.0
  0
LINE
  8
0
 62
     0
 10
169.37
 20
44.8938
 30
0.0
 11
168.57
 21
44.8938
 31
0.0
  0
LINE
  8
0
 62
     0
 10
168.57
 20
44.8938
 30
0.0
 11
168.57
 21
42.0441
 31
0.0
  0
LINE
  8
0
 62
     0
 10
168.57
 20
42.0441
 30
0.0
 11
169.37
 21
42.0441
 31
0.0
  0
LINE
  8
0
 62
     0
 10
169.37
 20
42.0441
 30
0.0
 11
169.37
 21
41.045
 31
0.0
  0
LINE
  8
0
 62
     0
 10
169.37
 20
41.045
 30
0.0
 11
183.121
 21
41.045
 31
0.0
  0
LINE
  8
0
 62
     0
 10
183.121
 20
41.045
 30
0.0
 11
183.121
 21
42.0441
 31
0.0
  0
LINE
  8
0
 62
     0
 10
183.121
 20
42.0441
 30
0.0
 11
183.92
 21
42.0441
 31
0.0
  0
LINE
  8
0
 62
     0
 10
183.92
 20
42.0441
 30
0.0
 11
183.92
 21
44.8938
 31
0.0
  0
LINE
  8
0
 62
     0
 10
183.92
 20
44.8938
 30
0.0
 11
183.121
 21
44.8938
 31
0.0
  0
LINE
  8
0
 62
     0
 10
183.121
 20
44.8938
 30
0.0
 11
183.121
 21
50.9446
 31
0.0
  0
LINE
  8
0
 62
     0
 10
183.121
 20
50.9446
 30
0.0
 11
183.92
 21
50.9446
 31
0.0
  0
LINE
  8
0
 62
     0
 10
183.92
 20
50.9446
 30
0.0
 11
183.92
 21
53.7944
 31
0.0
  0
LINE
  8
0
 62
     0
 10
183.92
 20
53.7944
 30
0.0
 11
183.121
 21
53.7944
 31
0.0
  0
LINE
  8
0
 62
     0
 10
183.121
 20
53.7944
 30
0.0
 11
183.121
 21
54.7949
 31
0.0
  0
LINE
  8
0
 62
     0
 10
183.121
 20
54.7949
 30
0.0
 11
169.37
 21
54.7949
 31
0.0
  0
LINE
  8
0
 62
     0
 10
188.419
 20
54.7949
 30
0.0
 11
188.419
 21
53.7944
 31
0.0
  0
LINE
  8
0
 62
     0
 10
188.419
 20
53.7944
 30
0.0
 11
187.62
 21
53.7944
 31
0.0
  0
LINE
  8
0
 62
     0
 10
187.62
 20
53.7944
 30
0.0
 11
187.62
 21
50.9446
 31
0.0
  0
LINE
  8
0
 62
     0
 10
187.62
 20
50.9446
 30
0.0
 11
188.419
 21
50.9446
 31
0.0
  0
LINE
  8
0
 62
     0
 10
188.419
 20
50.9446
 30
0.0
 11
188.419
 21
44.8938
 31
0.0
  0
LINE
  8
0
 62
     0
 10
188.419
 20
44.8938
 30
0.0
 11
187.62
 21
44.8938
 31
0.0
  0
LINE
  8
0
 62
     0
 10
187.62
 20
44.8938
 30
0.0
 11
187.62
 21
42.0441
 31
0.0
  0
LINE
  8
0
 62
     0
 10
187.62
 20
42.0441
 30
0.0
 11
188.419
 21
42.0441
 31
0.0
  0
LINE
  8
0
 62
     0
 10
188.419
 20
42.0441
 30
0.0
 11
188.419
 21
41.045
 31
0.0
  0
LINE
  8
0
 62
     0
 10
188.419
 20
41.045
 30
0.0
 11
202.169
 21
41.045
 31
0.0
  0
LINE
  8
0
 62
     0
 10
202.169
 20
41.045
 30
0.0
 11
202.169
 21
42.0441
 31
0.0
  0
LINE
  8
0
 62
     0
 10
202.169
 20
42.0441
 30
0.0
 11
202.97
 21
42.0441
 31
0.0
  0
LINE
  8
0
 62
     0
 10
202.97
 20
42.0441
 30
0.0
 11
202.97
 21
44.8938
 31
0.0
  0
LINE
  8
0
 62
     0
 10
202.97
 20
44.8938
 30
0.0
 11
202.169
 21
44.8938
 31
0.0
  0
LINE
  8
0
 62
     0
 10
202.169
 20
44.8938
 30
0.0
 11
202.169
 21
50.9446
 31
0.0
  0
LINE
  8
0
 62
     0
 10
202.169
 20
50.9446
 30
0.0
 11
202.97
 21
50.9446
 31
0.0
  0
LINE
  8
0
 62
     0
 10
202.97
 20
50.9446
 30
0.0
 11
202.97
 21
53.7944
 31
0.0
  0
LINE
  8
0
 62
     0
 10
202.97
 20
53.7944
 30
0.0
 11
202.169
 21
53.7944
 31
0.0
  0
LINE
  8
0
 62
     0
 10
202.169
 20
53.7944
 30
0.0
 11
202.169
 21
54.7949
 31
0.0
  0
LINE
  8
0
 62
     0
 10
202.169
 20
54.7949
 30
0.0
 11
188.419
 21
54.7949
 31
0.0
  0
LINE
  8
0
 62
     0
 10
207.47
 20
54.7949
 30
0.0
 11
207.47
 21
53.7944
 31
0.0
  0
LINE
  8
0
 62
     0
 10
207.47
 20
53.7944
 30
0.0
 11
206.67
 21
53.7944
 31
0.0
  0
LINE
  8
0
 62
     0
 10
206.67
 20
53.7944
 30
0.0
 11
206.67
 21
50.9446
 31
0.0
  0
LINE
  8
0
 62
     0
 10
206.67
 20
50.9446
 30
0.0
 11
207.47
 21
50.9446
 31
0.0
  0
LINE
  8
0
 62
     0
 10
207.47
 20
50.9446
 30
0.0
 11
207.47
 21
44.8938
 31
0.0
  0
LINE
  8
0
 62
     0
 10
207.47
 20
44.8938
 30
0.0
 11
206.67
 21
44.8938
 31
0.0
  0
LINE
  8
0
 62
     0
 10
206.67
 20
44.8938
 30
0.0
 11
206.67
 21
42.0441
 31
0.0
  0
LINE
  8
0
 62
     0
 10
206.67
 20
42.0441
 30
0.0
 11
207.47
 21
42.0441
 31
0.0
  0
LINE
  8
0
 62
     0
 10
207.47
 20
42.0441
 30
0.0
 11
207.47
 21
41.045
 31
0.0
  0
LINE
  8
0
 62
     0
 10
207.47
 20
41.045
 30
0.0
 11
221.221
 21
41.045
 31
0.0
  0
LINE
  8
0
 62
     0
 10
221.221
 20
41.045
 30
0.0
 11
221.221
 21
42.0441
 31
0.0
  0
LINE
  8
0
 62
     0
 10
221.221
 20
42.0441
 30
0.0
 11
222.02
 21
42.0441
 31
0.0
  0
LINE
  8
0
 62
     0
 10
222.02
 20
42.0441
 30
0.0
 11
222.02
 21
44.8938
 31
0.0
  0
LINE
  8
0
 62
     0
 10
222.02
 20
44.8938
 30
0.0
 11
221.221
 21
44.8938
 31
0.0
  0
LINE
  8
0
 62
     0
 10
221.221
 20
44.8938
 30
0.0
 11
221.221
 21
50.9446
 31
0.0
  0
LINE
  8
0
 62
     0
 10
221.221
 20
50.9446
 30
0.0
 11
222.02
 21
50.9446
 31
0.0
  0
LINE
  8
0
 62
     0
 10
222.02
 20
50.9446
 30
0.0
 11
222.02
 21
53.7944
 31
0.0
  0
LINE
  8
0
 62
     0
 10
222.02
 20
53.7944
 30
0.0
 11
221.221
 21
53.7944
 31
0.0
  0
LINE
  8
0
 62
     0
 10
221.221
 20
53.7944
 30
0.0
 11
221.221
 21
54.7949
 31
0.0
  0
LINE
  8
0
 62
     0
 10
221.221
 20
54.7949
 30
0.0
 11
207.47
 21
54.7949
 31
0.0
  0
LINE
  8
0
 62
     0
 10
226.52
 20
54.7949
 30
0.0
 11
226.52
 21
53.7944
 31
0.0
  0
LINE
  8
0
 62
     0
 10
226.52
 20
53.7944
 30
0.0
 11
225.72
 21
53.7944
 31
0.0
  0
LINE
  8
0
 62
     0
 10
225.72
 20
53.7944
 30
0.0
 11
225.72
 21
50.9446
 31
0.0
  0
LINE
  8
0
 62
     0
 10
225.72
 20
50.9446
 30
0.0
 11
226.52
 21
50.9446
 31
0.0
  0
LINE
  8
0
 62
     0
 10
226.52
 20
50.9446
 30
0.0
 11
226.52
 21
44.8938
 31
0.0
  0
LINE
  8
0
 62
     0
 10
226.52
 20
44.8938
 30
0.0
 11
225.72
 21
44.8938
 31
0.0
  0
LINE
  8
0
 62
     0
 10
225.72
 20
44.8938
 30
0.0
 11
225.72
 21
42.0441
 31
0.0
  0
LINE
  8
0
 62
     0
 10
225.72
 20
42.0441
 30
0.0
 11
226.52
 21
42.0441
 31
0.0
  0
LINE
  8
0
 62
     0
 10
226.52
 20
42.0441
 30
0.0
 11
226.52
 21
41.045
 31
0.0
  0
LINE
  8
0
 62
     0
 10
226.52
 20
41.045
 30
0.0
 11
240.271
 21
41.045
 31
0.0
  0
LINE
  8
0
 62
     0
 10
240.271
 20
41.045
 30
0.0
 11
240.271
 21
42.0441
 31
0.0
  0
LINE
  8
0
 62
     0
 10
240.271
 20
42.0441
 30
0.0
 11
241.07
 21
42.0441
 31
0.0
  0
LINE
  8
0
 62
     0
 10
241.07
 20
42.0441
 30
0.0
 11
241.07
 21
44.8938
 31
0.0
  0
LINE
  8
0
 62
     0
 10
241.07
 20
44.8938
 30
0.0
 11
240.271
 21
44.8938
 31
0.0
  0
LINE
  8
0
 62
     0
 10
240.271
 20
44.8938
 30
0.0
 11
240.271
 21
50.9446
 31
0.0
  0
LINE
  8
0
 62
     0
 10
240.271
 20
50.9446
 30
0.0
 11
241.07
 21
50.9446
 31
0.0
  0
LINE
  8
0
 62
     0
 10
241.07
 20
50.9446
 30
0.0
 11
241.07
 21
53.7944
 31
0.0
  0
LINE
  8
0
 62
     0
 10
241.07
 20
53.7944
 30
0.0
 11
240.271
 21
53.7944
 31
0.0
  0
LINE
  8
0
 62
     0
 10
240.271
 20
53.7944
 30
0.0
 11
240.271
 21
54.7949
 31
0.0
  0
LINE
  8
0
 62
     0
 10
240.271
 20
54.7949
 30
0.0
 11
226.52
 21
54.7949
 31
0.0
  0
LINE
  8
0
 62
     0
 10
245.569
 20
54.7949
 30
0.0
 11
245.569
 21
53.7944
 31
0.0
  0
LINE
  8
0
 62
     0
 10
245.569
 20
53.7944
 30
0.0
 11
244.77
 21
53.7944
 31
0.0
  0
LINE
  8
0
 62
     0
 10
244.77
 20
53.7944
 30
0.0
 11
244.77
 21
50.9446
 31
0.0
  0
LINE
  8
0
 62
     0
 10
244.77
 20
50.9446
 30
0.0
 11
245.569
 21
50.9446
 31
0.0
  0
LINE
  8
0
 62
     0
 10
245.569
 20
50.9446
 30
0.0
 11
245.569
 21
44.8938
 31
0.0
  0
LINE
  8
0
 62
     0
 10
245.569
 20
44.8938
 30
0.0
 11
244.77
 21
44.8938
 31
0.0
  0
LINE
  8
0
 62
     0
 10
244.77
 20
44.8938
 30
0.0
 11
244.77
 21
42.0441
 31
0.0
  0
LINE
  8
0
 62
     0
 10
244.77
 20
42.0441
 30
0.0
 11
245.569
 21
42.0441
 31
0.0
  0
LINE
  8
0
 62
     0
 10
245.569
 20
42.0441
 30
0.0
 11
245.569
 21
41.045
 31
0.0
  0
LINE
  8
0
 62
     0
 10
245.569
 20
41.045
 30
0.0
 11
259.319
 21
41.045
 31
0.0
  0
LINE
  8
0
 62
     0
 10
259.319
 20
41.045
 30
0.0
 11
259.319
 21
42.0441
 31
0.0
  0
LINE
  8
0
 62
     0
 10
259.319
 20
42.0441
 30
0.0
 11
260.12
 21
42.0441
 31
0.0
  0
LINE
  8
0
 62
     0
 10
260.12
 20
42.0441
 30
0.0
 11
260.12
 21
44.8938
 31
0.0
  0
LINE
  8
0
 62
     0
 10
260.12
 20
44.8938
 30
0.0
 11
259.319
 21
44.8938
 31
0.0
  0
LINE
  8
0
 62
     0
 10
259.319
 20
44.8938
 30
0.0
 11
259.319
 21
50.9446
 31
0.0
  0
LINE
  8
0
 62
     0
 10
259.319
 20
50.9446
 30
0.0
 11
260.12
 21
50.9446
 31
0.0
  0
LINE
  8
0
 62
     0
 10
260.12
 20
50.9446
 30
0.0
 11
260.12
 21
53.7944
 31
0.0
  0
LINE
  8
0
 62
     0
 10
260.12
 20
53.7944
 30
0.0
 11
259.319
 21
53.7944
 31
0.0
  0
LINE
  8
0
 62
     0
 10
259.319
 20
53.7944
 30
0.0
 11
259.319
 21
54.7949
 31
0.0
  0
LINE
  8
0
 62
     0
 10
259.319
 20
54.7949
 30
0.0
 11
245.569
 21
54.7949
 31
0.0
  0
LINE
  8
0
 62
     0
 10
273.5
 20
73.4205
 30
0.0
 11
273.5
 21
72.595
 31
0.0
  0
LINE
  8
0
 62
     0
 10
273.5
 20
72.595
 30
0.0
 11
267.232
 21
72.595
 31
0.0
  0
LINE
  8
0
 62
     0
 10
267.232
 20
72.595
 30
0.0
 11
267.232
 21
70.8699
 31
0.0
  0
LINE
  8
0
 62
     0
 10
267.232
 20
70.8699
 30
0.0
 11
266.03
 21
70.8699
 31
0.0
  0
LINE
  8
0
 62
     0
 10
266.03
 20
70.8699
 30
0.0
 11
266.03
 21
67.8215
 31
0.0
  0
LINE
  8
0
 62
     0
 10
266.03
 20
67.8215
 30
0.0
 11
267.232
 21
67.8215
 31
0.0
  0
LINE
  8
0
 62
     0
 10
267.232
 20
67.8215
 30
0.0
 11
267.232
 21
66.0947
 31
0.0
  0
LINE
  8
0
 62
     0
 10
267.232
 20
66.0947
 30
0.0
 11
271.701
 21
66.0947
 31
0.0
  0
LINE
  8
0
 62
     0
 10
271.701
 20
66.0947
 30
0.0
 11
271.701
 21
64.3199
 31
0.0
  0
LINE
  8
0
 62
     0
 10
271.701
 20
64.3199
 30
0.0
 11
270.851
 21
64.3199
 31
0.0
  0
LINE
  8
0
 62
     0
 10
270.851
 20
64.3199
 30
0.0
 11
270.851
 21
65.1207
 31
0.0
  0
LINE
  8
0
 62
     0
 10
270.851
 20
65.1207
 30
0.0
 11
268.001
 21
65.1207
 31
0.0
  0
LINE
  8
0
 62
     0
 10
268.001
 20
65.1207
 30
0.0
 11
268.001
 21
64.3199
 31
0.0
  0
LINE
  8
0
 62
     0
 10
268.001
 20
64.3199
 30
0.0
 11
267.001
 21
64.3199
 31
0.0
  0
LINE
  8
0
 62
     0
 10
267.001
 20
64.3199
 30
0.0
 11
267.001
 21
50.57
 31
0.0
  0
LINE
  8
0
 62
     0
 10
267.001
 20
50.57
 30
0.0
 11
268.001
 21
50.57
 31
0.0
  0
LINE
  8
0
 62
     0
 10
268.001
 20
50.57
 30
0.0
 11
268.001
 21
49.7692
 31
0.0
  0
LINE
  8
0
 62
     0
 10
268.001
 20
49.7692
 30
0.0
 11
270.851
 21
49.7692
 31
0.0
  0
LINE
  8
0
 62
     0
 10
270.851
 20
49.7692
 30
0.0
 11
270.851
 21
50.57
 31
0.0
  0
LINE
  8
0
 62
     0
 10
270.851
 20
50.57
 30
0.0
 11
271.701
 21
50.57
 31
0.0
  0
LINE
  8
0
 62
     0
 10
271.701
 20
50.57
 30
0.0
 11
271.701
 21
48.7948
 31
0.0
  0
LINE
  8
0
 62
     0
 10
271.701
 20
48.7948
 30
0.0
 11
267.232
 21
48.7948
 31
0.0
  0
LINE
  8
0
 62
     0
 10
267.232
 20
48.7948
 30
0.0
 11
267.232
 21
47.0697
 31
0.0
  0
LINE
  8
0
 62
     0
 10
267.232
 20
47.0697
 30
0.0
 11
266.03
 21
47.0697
 31
0.0
  0
LINE
  8
0
 62
     0
 10
266.03
 20
47.0697
 30
0.0
 11
266.03
 21
44.0186
 31
0.0
  0
LINE
  8
0
 62
     0
 10
266.03
 20
44.0186
 30
0.0
 11
267.232
 21
44.0186
 31
0.0
  0
LINE
  8
0
 62
     0
 10
267.232
 20
44.0186
 30
0.0
 11
267.232
 21
42.2949
 31
0.0
  0
LINE
  8
0
 62
     0
 10
267.232
 20
42.2949
 30
0.0
 11
273.5
 21
42.2949
 31
0.0
  0
LINE
  8
0
 62
     0
 10
273.5
 20
42.2949
 30
0.0
 11
273.5
 21
41.4708
 31
0.0
  0
LINE
  8
0
 62
     0
 10
273.5
 20
41.4708
 30
0.0
 11
276.05
 21
41.4708
 31
0.0
  0
LINE
  8
0
 62
     0
 10
276.05
 20
41.4708
 30
0.0
 11
276.05
 21
42.2949
 31
0.0
  0
LINE
  8
0
 62
     0
 10
276.05
 20
42.2949
 30
0.0
 11
279.28
 21
42.2949
 31
0.0
  0
LINE
  8
0
 62
     0
 10
279.28
 20
42.2949
 30
0.0
 11
279.28
 21
48.7948
 31
0.0
  0
LINE
  8
0
 62
     0
 10
279.28
 20
48.7948
 30
0.0
 11
276.05
 21
48.7948
 31
0.0
  0
LINE
  8
0
 62
     0
 10
276.05
 20
48.7948
 30
0.0
 11
276.05
 21
50.57
 31
0.0
  0
LINE
  8
0
 62
     0
 10
276.05
 20
50.57
 30
0.0
 11
276.9
 21
50.57
 31
0.0
  0
LINE
  8
0
 62
     0
 10
276.9
 20
50.57
 30
0.0
 11
276.9
 21
49.7692
 31
0.0
  0
LINE
  8
0
 62
     0
 10
276.9
 20
49.7692
 30
0.0
 11
279.75
 21
49.7692
 31
0.0
  0
LINE
  8
0
 62
     0
 10
279.75
 20
49.7692
 30
0.0
 11
279.75
 21
50.57
 31
0.0
  0
LINE
  8
0
 62
     0
 10
279.75
 20
50.57
 30
0.0
 11
280.75
 21
50.57
 31
0.0
  0
LINE
  8
0
 62
     0
 10
280.75
 20
50.57
 30
0.0
 11
280.75
 21
64.3199
 31
0.0
  0
LINE
  8
0
 62
     0
 10
280.75
 20
64.3199
 30
0.0
 11
279.75
 21
64.3199
 31
0.0
  0
LINE
  8
0
 62
     0
 10
279.75
 20
64.3199
 30
0.0
 11
279.75
 21
65.1207
 31
0.0
  0
LINE
  8
0
 62
     0
 10
279.75
 20
65.1207
 30
0.0
 11
276.9
 21
65.1207
 31
0.0
  0
LINE
  8
0
 62
     0
 10
276.9
 20
65.1207
 30
0.0
 11
276.9
 21
64.3199
 31
0.0
  0
LINE
  8
0
 62
     0
 10
276.9
 20
64.3199
 30
0.0
 11
276.05
 21
64.3199
 31
0.0
  0
LINE
  8
0
 62
     0
 10
276.05
 20
64.3199
 30
0.0
 11
276.05
 21
66.0947
 31
0.0
  0
LINE
  8
0
 62
     0
 10
276.05
 20
66.0947
 30
0.0
 11
279.28
 21
66.0947
 31
0.0
  0
LINE
  8
0
 62
     0
 10
279.28
 20
66.0947
 30
0.0
 11
279.28
 21
72.595
 31
0.0
  0
LINE
  8
0
 62
     0
 10
279.28
 20
72.595
 30
0.0
 11
276.05
 21
72.595
 31
0.0
  0
LINE
  8
0
 62
     0
 10
276.05
 20
72.595
 30
0.0
 11
276.05
 21
73.4205
 31
0.0
  0
LINE
  8
0
 62
     0
 10
276.05
 20
73.4205
 30
0.0
 11
273.5
 21
73.4205
 31
0.0
  0
LINE
  8
0
 62
     0
 10
7.44555
 20
73.8449
 30
0.0
 11
7.44555
 21
72.8458
 31
0.0
  0
LINE
  8
0
 62
     0
 10
7.44555
 20
72.8458
 30
0.0
 11
6.64489
 21
72.8458
 31
0.0
  0
LINE
  8
0
 62
     0
 10
6.64489
 20
72.8458
 30
0.0
 11
6.64489
 21
69.9946
 31
0.0
  0
LINE
  8
0
 62
     0
 10
6.64489
 20
69.9946
 30
0.0
 11
7.44555
 21
69.9946
 31
0.0
  0
LINE
  8
0
 62
     0
 10
7.44555
 20
69.9946
 30
0.0
 11
7.44555
 21
63.9452
 31
0.0
  0
LINE
  8
0
 62
     0
 10
7.44555
 20
63.9452
 30
0.0
 11
6.64489
 21
63.9452
 31
0.0
  0
LINE
  8
0
 62
     0
 10
6.64489
 20
63.9452
 30
0.0
 11
6.64489
 21
61.0955
 31
0.0
  0
LINE
  8
0
 62
     0
 10
6.64489
 20
61.0955
 30
0.0
 11
7.44555
 21
61.0955
 31
0.0
  0
LINE
  8
0
 62
     0
 10
7.44555
 20
61.0955
 30
0.0
 11
7.44555
 21
60.095
 31
0.0
  0
LINE
  8
0
 62
     0
 10
7.44555
 20
60.095
 30
0.0
 11
21.1956
 21
60.095
 31
0.0
  0
LINE
  8
0
 62
     0
 10
21.1956
 20
60.095
 30
0.0
 11
21.1956
 21
61.0955
 31
0.0
  0
LINE
  8
0
 62
     0
 10
21.1956
 20
61.0955
 30
0.0
 11
21.9949
 21
61.0955
 31
0.0
  0
LINE
  8
0
 62
     0
 10
21.9949
 20
61.0955
 30
0.0
 11
21.9949
 21
63.9452
 31
0.0
  0
LINE
  8
0
 62
     0
 10
21.9949
 20
63.9452
 30
0.0
 11
21.1956
 21
63.9452
 31
0.0
  0
LINE
  8
0
 62
     0
 10
21.1956
 20
63.9452
 30
0.0
 11
21.1956
 21
69.9946
 31
0.0
  0
LINE
  8
0
 62
     0
 10
21.1956
 20
69.9946
 30
0.0
 11
21.9949
 21
69.9946
 31
0.0
  0
LINE
  8
0
 62
     0
 10
21.9949
 20
69.9946
 30
0.0
 11
21.9949
 21
72.8458
 31
0.0
  0
LINE
  8
0
 62
     0
 10
21.9949
 20
72.8458
 30
0.0
 11
21.1956
 21
72.8458
 31
0.0
  0
LINE
  8
0
 62
     0
 10
21.1956
 20
72.8458
 30
0.0
 11
21.1956
 21
73.8449
 31
0.0
  0
LINE
  8
0
 62
     0
 10
21.1956
 20
73.8449
 30
0.0
 11
7.44555
 21
73.8449
 31
0.0
  0
LINE
  8
0
 62
     0
 10
31.2567
 20
73.8449
 30
0.0
 11
31.2567
 21
72.8458
 31
0.0
  0
LINE
  8
0
 62
     0
 10
31.2567
 20
72.8458
 30
0.0
 11
30.456
 21
72.8458
 31
0.0
  0
LINE
  8
0
 62
     0
 10
30.456
 20
72.8458
 30
0.0
 11
30.456
 21
69.9946
 31
0.0
  0
LINE
  8
0
 62
     0
 10
30.456
 20
69.9946
 30
0.0
 11
31.2567
 21
69.9946
 31
0.0
  0
LINE
  8
0
 62
     0
 10
31.2567
 20
69.9946
 30
0.0
 11
31.2567
 21
63.9452
 31
0.0
  0
LINE
  8
0
 62
     0
 10
31.2567
 20
63.9452
 30
0.0
 11
30.456
 21
63.9452
 31
0.0
  0
LINE
  8
0
 62
     0
 10
30.456
 20
63.9452
 30
0.0
 11
30.456
 21
61.0955
 31
0.0
  0
LINE
  8
0
 62
     0
 10
30.456
 20
61.0955
 30
0.0
 11
31.2567
 21
61.0955
 31
0.0
  0
LINE
  8
0
 62
     0
 10
31.2567
 20
61.0955
 30
0.0
 11
31.2567
 21
60.095
 31
0.0
  0
LINE
  8
0
 62
     0
 10
31.2567
 20
60.095
 30
0.0
 11
45.0067
 21
60.095
 31
0.0
  0
LINE
  8
0
 62
     0
 10
45.0067
 20
60.095
 30
0.0
 11
45.0067
 21
61.0955
 31
0.0
  0
LINE
  8
0
 62
     0
 10
45.0067
 20
61.0955
 30
0.0
 11
45.8075
 21
61.0955
 31
0.0
  0
LINE
  8
0
 62
     0
 10
45.8075
 20
61.0955
 30
0.0
 11
45.8075
 21
63.9452
 31
0.0
  0
LINE
  8
0
 62
     0
 10
45.8075
 20
63.9452
 30
0.0
 11
45.0067
 21
63.9452
 31
0.0
  0
LINE
  8
0
 62
     0
 10
45.0067
 20
63.9452
 30
0.0
 11
45.0067
 21
69.9946
 31
0.0
  0
LINE
  8
0
 62
     0
 10
45.0067
 20
69.9946
 30
0.0
 11
45.8075
 21
69.9946
 31
0.0
  0
LINE
  8
0
 62
     0
 10
45.8075
 20
69.9946
 30
0.0
 11
45.8075
 21
72.8458
 31
0.0
  0
LINE
  8
0
 62
     0
 10
45.8075
 20
72.8458
 30
0.0
 11
45.0067
 21
72.8458
 31
0.0
  0
LINE
  8
0
 62
     0
 10
45.0067
 20
72.8458
 30
0.0
 11
45.0067
 21
73.8449
 31
0.0
  0
LINE
  8
0
 62
     0
 10
45.0067
 20
73.8449
 30
0.0
 11
31.2567
 21
73.8449
 31
0.0
  0
LINE
  8
0
 62
     0
 10
50.3079
 20
73.8449
 30
0.0
 11
50.3079
 21
72.8458
 31
0.0
  0
LINE
  8
0
 62
     0
 10
50.3079
 20
72.8458
 30
0.0
 11
49.506
 21
72.8458
 31
0.0
  0
LINE
  8
0
 62
     0
 10
49.506
 20
72.8458
 30
0.0
 11
49.506
 21
69.9946
 31
0.0
  0
LINE
  8
0
 62
     0
 10
49.506
 20
69.9946
 30
0.0
 11
50.3079
 21
69.9946
 31
0.0
  0
LINE
  8
0
 62
     0
 10
50.3079
 20
69.9946
 30
0.0
 11
50.3079
 21
63.9452
 31
0.0
  0
LINE
  8
0
 62
     0
 10
50.3079
 20
63.9452
 30
0.0
 11
49.506
 21
63.9452
 31
0.0
  0
LINE
  8
0
 62
     0
 10
49.506
 20
63.9452
 30
0.0
 11
49.506
 21
61.0955
 31
0.0
  0
LINE
  8
0
 62
     0
 10
49.506
 20
61.0955
 30
0.0
 11
50.3079
 21
61.0955
 31
0.0
  0
LINE
  8
0
 62
     0
 10
50.3079
 20
61.0955
 30
0.0
 11
50.3079
 21
60.095
 31
0.0
  0
LINE
  8
0
 62
     0
 10
50.3079
 20
60.095
 30
0.0
 11
64.0581
 21
60.095
 31
0.0
  0
LINE
  8
0
 62
     0
 10
64.0581
 20
60.095
 30
0.0
 11
64.0581
 21
61.0955
 31
0.0
  0
LINE
  8
0
 62
     0
 10
64.0581
 20
61.0955
 30
0.0
 11
64.8575
 21
61.0955
 31
0.0
  0
LINE
  8
0
 62
     0
 10
64.8575
 20
61.0955
 30
0.0
 11
64.8575
 21
63.9452
 31
0.0
  0
LINE
  8
0
 62
     0
 10
64.8575
 20
63.9452
 30
0.0
 11
64.0581
 21
63.9452
 31
0.0
  0
LINE
  8
0
 62
     0
 10
64.0581
 20
63.9452
 30
0.0
 11
64.0581
 21
69.9946
 31
0.0
  0
LINE
  8
0
 62
     0
 10
64.0581
 20
69.9946
 30
0.0
 11
64.8575
 21
69.9946
 31
0.0
  0
LINE
  8
0
 62
     0
 10
64.8575
 20
69.9946
 30
0.0
 11
64.8575
 21
72.8458
 31
0.0
  0
LINE
  8
0
 62
     0
 10
64.8575
 20
72.8458
 30
0.0
 11
64.0581
 21
72.8458
 31
0.0
  0
LINE
  8
0
 62
     0
 10
64.0581
 20
72.8458
 30
0.0
 11
64.0581
 21
73.8449
 31
0.0
  0
LINE
  8
0
 62
     0
 10
64.0581
 20
73.8449
 30
0.0
 11
50.3079
 21
73.8449
 31
0.0
  0
LINE
  8
0
 62
     0
 10
69.3579
 20
73.8449
 30
0.0
 11
69.3579
 21
72.8458
 31
0.0
  0
LINE
  8
0
 62
     0
 10
69.3579
 20
72.8458
 30
0.0
 11
68.5574
 21
72.8458
 31
0.0
  0
LINE
  8
0
 62
     0
 10
68.5574
 20
72.8458
 30
0.0
 11
68.5574
 21
69.9946
 31
0.0
  0
LINE
  8
0
 62
     0
 10
68.5574
 20
69.9946
 30
0.0
 11
69.3579
 21
69.9946
 31
0.0
  0
LINE
  8
0
 62
     0
 10
69.3579
 20
69.9946
 30
0.0
 11
69.3579
 21
63.9452
 31
0.0
  0
LINE
  8
0
 62
     0
 10
69.3579
 20
63.9452
 30
0.0
 11
68.5574
 21
63.9452
 31
0.0
  0
LINE
  8
0
 62
     0
 10
68.5574
 20
63.9452
 30
0.0
 11
68.5574
 21
61.0955
 31
0.0
  0
LINE
  8
0
 62
     0
 10
68.5574
 20
61.0955
 30
0.0
 11
69.3579
 21
61.0955
 31
0.0
  0
LINE
  8
0
 62
     0
 10
69.3579
 20
61.0955
 30
0.0
 11
69.3579
 21
60.095
 31
0.0
  0
LINE
  8
0
 62
     0
 10
69.3579
 20
60.095
 30
0.0
 11
83.1081
 21
60.095
 31
0.0
  0
LINE
  8
0
 62
     0
 10
83.1081
 20
60.095
 30
0.0
 11
83.1081
 21
61.0955
 31
0.0
  0
LINE
  8
0
 62
     0
 10
83.1081
 20
61.0955
 30
0.0
 11
83.9075
 21
61.0955
 31
0.0
  0
LINE
  8
0
 62
     0
 10
83.9075
 20
61.0955
 30
0.0
 11
83.9075
 21
63.9452
 31
0.0
  0
LINE
  8
0
 62
     0
 10
83.9075
 20
63.9452
 30
0.0
 11
83.1081
 21
63.9452
 31
0.0
  0
LINE
  8
0
 62
     0
 10
83.1081
 20
63.9452
 30
0.0
 11
83.1081
 21
69.9946
 31
0.0
  0
LINE
  8
0
 62
     0
 10
83.1081
 20
69.9946
 30
0.0
 11
83.9075
 21
69.9946
 31
0.0
  0
LINE
  8
0
 62
     0
 10
83.9075
 20
69.9946
 30
0.0
 11
83.9075
 21
72.8458
 31
0.0
  0
LINE
  8
0
 62
     0
 10
83.9075
 20
72.8458
 30
0.0
 11
83.1081
 21
72.8458
 31
0.0
  0
LINE
  8
0
 62
     0
 10
83.1081
 20
72.8458
 30
0.0
 11
83.1081
 21
73.8449
 31
0.0
  0
LINE
  8
0
 62
     0
 10
83.1081
 20
73.8449
 30
0.0
 11
69.3579
 21
73.8449
 31
0.0
  0
LINE
  8
0
 62
     0
 10
88.4079
 20
73.8449
 30
0.0
 11
88.4079
 21
72.8458
 31
0.0
  0
LINE
  8
0
 62
     0
 10
88.4079
 20
72.8458
 30
0.0
 11
87.6074
 21
72.8458
 31
0.0
  0
LINE
  8
0
 62
     0
 10
87.6074
 20
72.8458
 30
0.0
 11
87.6074
 21
69.9946
 31
0.0
  0
LINE
  8
0
 62
     0
 10
87.6074
 20
69.9946
 30
0.0
 11
88.4079
 21
69.9946
 31
0.0
  0
LINE
  8
0
 62
     0
 10
88.4079
 20
69.9946
 30
0.0
 11
88.4079
 21
63.9452
 31
0.0
  0
LINE
  8
0
 62
     0
 10
88.4079
 20
63.9452
 30
0.0
 11
87.6074
 21
63.9452
 31
0.0
  0
LINE
  8
0
 62
     0
 10
87.6074
 20
63.9452
 30
0.0
 11
87.6074
 21
61.0955
 31
0.0
  0
LINE
  8
0
 62
     0
 10
87.6074
 20
61.0955
 30
0.0
 11
88.4079
 21
61.0955
 31
0.0
  0
LINE
  8
0
 62
     0
 10
88.4079
 20
61.0955
 30
0.0
 11
88.4079
 21
60.095
 31
0.0
  0
LINE
  8
0
 62
     0
 10
88.4079
 20
60.095
 30
0.0
 11
102.158
 21
60.095
 31
0.0
  0
LINE
  8
0
 62
     0
 10
102.158
 20
60.095
 30
0.0
 11
102.158
 21
61.0955
 31
0.0
  0
LINE
  8
0
 62
     0
 10
102.158
 20
61.0955
 30
0.0
 11
102.956
 21
61.0955
 31
0.0
  0
LINE
  8
0
 62
     0
 10
102.956
 20
61.0955
 30
0.0
 11
102.956
 21
63.9452
 31
0.0
  0
LINE
  8
0
 62
     0
 10
102.956
 20
63.9452
 30
0.0
 11
102.158
 21
63.9452
 31
0.0
  0
LINE
  8
0
 62
     0
 10
102.158
 20
63.9452
 30
0.0
 11
102.158
 21
69.9946
 31
0.0
  0
LINE
  8
0
 62
     0
 10
102.158
 20
69.9946
 30
0.0
 11
102.956
 21
69.9946
 31
0.0
  0
LINE
  8
0
 62
     0
 10
102.956
 20
69.9946
 30
0.0
 11
102.956
 21
72.8458
 31
0.0
  0
LINE
  8
0
 62
     0
 10
102.956
 20
72.8458
 30
0.0
 11
102.158
 21
72.8458
 31
0.0
  0
LINE
  8
0
 62
     0
 10
102.158
 20
72.8458
 30
0.0
 11
102.158
 21
73.8449
 31
0.0
  0
LINE
  8
0
 62
     0
 10
102.158
 20
73.8449
 30
0.0
 11
88.4079
 21
73.8449
 31
0.0
  0
LINE
  8
0
 62
     0
 10
107.457
 20
73.8449
 30
0.0
 11
107.457
 21
72.8458
 31
0.0
  0
LINE
  8
0
 62
     0
 10
107.457
 20
72.8458
 30
0.0
 11
106.657
 21
72.8458
 31
0.0
  0
LINE
  8
0
 62
     0
 10
106.657
 20
72.8458
 30
0.0
 11
106.657
 21
69.9946
 31
0.0
  0
LINE
  8
0
 62
     0
 10
106.657
 20
69.9946
 30
0.0
 11
107.457
 21
69.9946
 31
0.0
  0
LINE
  8
0
 62
     0
 10
107.457
 20
69.9946
 30
0.0
 11
107.457
 21
63.9452
 31
0.0
  0
LINE
  8
0
 62
     0
 10
107.457
 20
63.9452
 30
0.0
 11
106.657
 21
63.9452
 31
0.0
  0
LINE
  8
0
 62
     0
 10
106.657
 20
63.9452
 30
0.0
 11
106.657
 21
61.0955
 31
0.0
  0
LINE
  8
0
 62
     0
 10
106.657
 20
61.0955
 30
0.0
 11
107.457
 21
61.0955
 31
0.0
  0
LINE
  8
0
 62
     0
 10
107.457
 20
61.0955
 30
0.0
 11
107.457
 21
60.095
 31
0.0
  0
LINE
  8
0
 62
     0
 10
107.457
 20
60.095
 30
0.0
 11
121.207
 21
60.095
 31
0.0
  0
LINE
  8
0
 62
     0
 10
121.207
 20
60.095
 30
0.0
 11
121.207
 21
61.0955
 31
0.0
  0
LINE
  8
0
 62
     0
 10
121.207
 20
61.0955
 30
0.0
 11
122.007
 21
61.0955
 31
0.0
  0
LINE
  8
0
 62
     0
 10
122.007
 20
61.0955
 30
0.0
 11
122.007
 21
63.9452
 31
0.0
  0
LINE
  8
0
 62
     0
 10
122.007
 20
63.9452
 30
0.0
 11
121.207
 21
63.9452
 31
0.0
  0
LINE
  8
0
 62
     0
 10
121.207
 20
63.9452
 30
0.0
 11
121.207
 21
69.9946
 31
0.0
  0
LINE
  8
0
 62
     0
 10
121.207
 20
69.9946
 30
0.0
 11
122.007
 21
69.9946
 31
0.0
  0
LINE
  8
0
 62
     0
 10
122.007
 20
69.9946
 30
0.0
 11
122.007
 21
72.8458
 31
0.0
  0
LINE
  8
0
 62
     0
 10
122.007
 20
72.8458
 30
0.0
 11
121.207
 21
72.8458
 31
0.0
  0
LINE
  8
0
 62
     0
 10
121.207
 20
72.8458
 30
0.0
 11
121.207
 21
73.8449
 31
0.0
  0
LINE
  8
0
 62
     0
 10
121.207
 20
73.8449
 30
0.0
 11
107.457
 21
73.8449
 31
0.0
  0
LINE
  8
0
 62
     0
 10
126.508
 20
73.8449
 30
0.0
 11
126.508
 21
72.8458
 31
0.0
  0
LINE
  8
0
 62
     0
 10
126.508
 20
72.8458
 30
0.0
 11
125.706
 21
72.8458
 31
0.0
  0
LINE
  8
0
 62
     0
 10
125.706
 20
72.8458
 30
0.0
 11
125.706
 21
69.9946
 31
0.0
  0
LINE
  8
0
 62
     0
 10
125.706
 20
69.9946
 30
0.0
 11
126.508
 21
69.9946
 31
0.0
  0
LINE
  8
0
 62
     0
 10
126.508
 20
69.9946
 30
0.0
 11
126.508
 21
63.9452
 31
0.0
  0
LINE
  8
0
 62
     0
 10
126.508
 20
63.9452
 30
0.0
 11
125.706
 21
63.9452
 31
0.0
  0
LINE
  8
0
 62
     0
 10
125.706
 20
63.9452
 30
0.0
 11
125.706
 21
61.0955
 31
0.0
  0
LINE
  8
0
 62
     0
 10
125.706
 20
61.0955
 30
0.0
 11
126.508
 21
61.0955
 31
0.0
  0
LINE
  8
0
 62
     0
 10
126.508
 20
61.0955
 30
0.0
 11
126.508
 21
60.095
 31
0.0
  0
LINE
  8
0
 62
     0
 10
126.508
 20
60.095
 30
0.0
 11
140.258
 21
60.095
 31
0.0
  0
LINE
  8
0
 62
     0
 10
140.258
 20
60.095
 30
0.0
 11
140.258
 21
61.0955
 31
0.0
  0
LINE
  8
0
 62
     0
 10
140.258
 20
61.0955
 30
0.0
 11
141.056
 21
61.0955
 31
0.0
  0
LINE
  8
0
 62
     0
 10
141.056
 20
61.0955
 30
0.0
 11
141.056
 21
63.9452
 31
0.0
  0
LINE
  8
0
 62
     0
 10
141.056
 20
63.9452
 30
0.0
 11
140.258
 21
63.9452
 31
0.0
  0
LINE
  8
0
 62
     0
 10
140.258
 20
63.9452
 30
0.0
 11
140.258
 21
69.9946
 31
0.0
  0
LINE
  8
0
 62
     0
 10
140.258
 20
69.9946
 30
0.0
 11
141.056
 21
69.9946
 31
0.0
  0
LINE
  8
0
 62
     0
 10
141.056
 20
69.9946
 30
0.0
 11
141.056
 21
72.8458
 31
0.0
  0
LINE
  8
0
 62
     0
 10
141.056
 20
72.8458
 30
0.0
 11
140.258
 21
72.8458
 31
0.0
  0
LINE
  8
0
 62
     0
 10
140.258
 20
72.8458
 30
0.0
 11
140.258
 21
73.8449
 31
0.0
  0
LINE
  8
0
 62
     0
 10
140.258
 20
73.8449
 30
0.0
 11
126.508
 21
73.8449
 31
0.0
  0
LINE
  8
0
 62
     0
 10
145.557
 20
73.8449
 30
0.0
 11
145.557
 21
72.8458
 31
0.0
  0
LINE
  8
0
 62
     0
 10
145.557
 20
72.8458
 30
0.0
 11
144.757
 21
72.8458
 31
0.0
  0
LINE
  8
0
 62
     0
 10
144.757
 20
72.8458
 30
0.0
 11
144.757
 21
69.9946
 31
0.0
  0
LINE
  8
0
 62
     0
 10
144.757
 20
69.9946
 30
0.0
 11
145.557
 21
69.9946
 31
0.0
  0
LINE
  8
0
 62
     0
 10
145.557
 20
69.9946
 30
0.0
 11
145.557
 21
63.9452
 31
0.0
  0
LINE
  8
0
 62
     0
 10
145.557
 20
63.9452
 30
0.0
 11
144.757
 21
63.9452
 31
0.0
  0
LINE
  8
0
 62
     0
 10
144.757
 20
63.9452
 30
0.0
 11
144.757
 21
61.0955
 31
0.0
  0
LINE
  8
0
 62
     0
 10
144.757
 20
61.0955
 30
0.0
 11
145.557
 21
61.0955
 31
0.0
  0
LINE
  8
0
 62
     0
 10
145.557
 20
61.0955
 30
0.0
 11
145.557
 21
60.095
 31
0.0
  0
LINE
  8
0
 62
     0
 10
145.557
 20
60.095
 30
0.0
 11
159.307
 21
60.095
 31
0.0
  0
LINE
  8
0
 62
     0
 10
159.307
 20
60.095
 30
0.0
 11
159.307
 21
61.0955
 31
0.0
  0
LINE
  8
0
 62
     0
 10
159.307
 20
61.0955
 30
0.0
 11
160.107
 21
61.0955
 31
0.0
  0
LINE
  8
0
 62
     0
 10
160.107
 20
61.0955
 30
0.0
 11
160.107
 21
63.9452
 31
0.0
  0
LINE
  8
0
 62
     0
 10
160.107
 20
63.9452
 30
0.0
 11
159.307
 21
63.9452
 31
0.0
  0
LINE
  8
0
 62
     0
 10
159.307
 20
63.9452
 30
0.0
 11
159.307
 21
69.9946
 31
0.0
  0
LINE
  8
0
 62
     0
 10
159.307
 20
69.9946
 30
0.0
 11
160.107
 21
69.9946
 31
0.0
  0
LINE
  8
0
 62
     0
 10
160.107
 20
69.9946
 30
0.0
 11
160.107
 21
72.8458
 31
0.0
  0
LINE
  8
0
 62
     0
 10
160.107
 20
72.8458
 30
0.0
 11
159.307
 21
72.8458
 31
0.0
  0
LINE
  8
0
 62
     0
 10
159.307
 20
72.8458
 30
0.0
 11
159.307
 21
73.8449
 31
0.0
  0
LINE
  8
0
 62
     0
 10
159.307
 20
73.8449
 30
0.0
 11
145.557
 21
73.8449
 31
0.0
  0
LINE
  8
0
 62
     0
 10
164.608
 20
73.8449
 30
0.0
 11
164.608
 21
72.8458
 31
0.0
  0
LINE
  8
0
 62
     0
 10
164.608
 20
72.8458
 30
0.0
 11
163.806
 21
72.8458
 31
0.0
  0
LINE
  8
0
 62
     0
 10
163.806
 20
72.8458
 30
0.0
 11
163.806
 21
69.9946
 31
0.0
  0
LINE
  8
0
 62
     0
 10
163.806
 20
69.9946
 30
0.0
 11
164.608
 21
69.9946
 31
0.0
  0
LINE
  8
0
 62
     0
 10
164.608
 20
69.9946
 30
0.0
 11
164.608
 21
63.9452
 31
0.0
  0
LINE
  8
0
 62
     0
 10
164.608
 20
63.9452
 30
0.0
 11
163.806
 21
63.9452
 31
0.0
  0
LINE
  8
0
 62
     0
 10
163.806
 20
63.9452
 30
0.0
 11
163.806
 21
61.0955
 31
0.0
  0
LINE
  8
0
 62
     0
 10
163.806
 20
61.0955
 30
0.0
 11
164.608
 21
61.0955
 31
0.0
  0
LINE
  8
0
 62
     0
 10
164.608
 20
61.0955
 30
0.0
 11
164.608
 21
60.095
 31
0.0
  0
LINE
  8
0
 62
     0
 10
164.608
 20
60.095
 30
0.0
 11
178.358
 21
60.095
 31
0.0
  0
LINE
  8
0
 62
     0
 10
178.358
 20
60.095
 30
0.0
 11
178.358
 21
61.0955
 31
0.0
  0
LINE
  8
0
 62
     0
 10
178.358
 20
61.0955
 30
0.0
 11
179.157
 21
61.0955
 31
0.0
  0
LINE
  8
0
 62
     0
 10
179.157
 20
61.0955
 30
0.0
 11
179.157
 21
63.9452
 31
0.0
  0
LINE
  8
0
 62
     0
 10
179.157
 20
63.9452
 30
0.0
 11
178.358
 21
63.9452
 31
0.0
  0
LINE
  8
0
 62
     0
 10
178.358
 20
63.9452
 30
0.0
 11
178.358
 21
69.9946
 31
0.0
  0
LINE
  8
0
 62
     0
 10
178.358
 20
69.9946
 30
0.0
 11
179.157
 21
69.9946
 31
0.0
  0
LINE
  8
0
 62
     0
 10
179.157
 20
69.9946
 30
0.0
 11
179.157
 21
72.8458
 31
0.0
  0
LINE
  8
0
 62
     0
 10
179.157
 20
72.8458
 30
0.0
 11
178.358
 21
72.8458
 31
0.0
  0
LINE
  8
0
 62
     0
 10
178.358
 20
72.8458
 30
0.0
 11
178.358
 21
73.8449
 31
0.0
  0
LINE
  8
0
 62
     0
 10
178.358
 20
73.8449
 30
0.0
 11
164.608
 21
73.8449
 31
0.0
  0
LINE
  8
0
 62
     0
 10
183.658
 20
73.8449
 30
0.0
 11
183.658
 21
72.8458
 31
0.0
  0
LINE
  8
0
 62
     0
 10
183.658
 20
72.8458
 30
0.0
 11
182.857
 21
72.8458
 31
0.0
  0
LINE
  8
0
 62
     0
 10
182.857
 20
72.8458
 30
0.0
 11
182.857
 21
69.9946
 31
0.0
  0
LINE
  8
0
 62
     0
 10
182.857
 20
69.9946
 30
0.0
 11
183.658
 21
69.9946
 31
0.0
  0
LINE
  8
0
 62
     0
 10
183.658
 20
69.9946
 30
0.0
 11
183.658
 21
63.9452
 31
0.0
  0
LINE
  8
0
 62
     0
 10
183.658
 20
63.9452
 30
0.0
 11
182.857
 21
63.9452
 31
0.0
  0
LINE
  8
0
 62
     0
 10
182.857
 20
63.9452
 30
0.0
 11
182.857
 21
61.0955
 31
0.0
  0
LINE
  8
0
 62
     0
 10
182.857
 20
61.0955
 30
0.0
 11
183.658
 21
61.0955
 31
0.0
  0
LINE
  8
0
 62
     0
 10
183.658
 20
61.0955
 30
0.0
 11
183.658
 21
60.095
 31
0.0
  0
LINE
  8
0
 62
     0
 10
183.658
 20
60.095
 30
0.0
 11
197.408
 21
60.095
 31
0.0
  0
LINE
  8
0
 62
     0
 10
197.408
 20
60.095
 30
0.0
 11
197.408
 21
61.0955
 31
0.0
  0
LINE
  8
0
 62
     0
 10
197.408
 20
61.0955
 30
0.0
 11
198.206
 21
61.0955
 31
0.0
  0
LINE
  8
0
 62
     0
 10
198.206
 20
61.0955
 30
0.0
 11
198.206
 21
63.9452
 31
0.0
  0
LINE
  8
0
 62
     0
 10
198.206
 20
63.9452
 30
0.0
 11
197.408
 21
63.9452
 31
0.0
  0
LINE
  8
0
 62
     0
 10
197.408
 20
63.9452
 30
0.0
 11
197.408
 21
69.9946
 31
0.0
  0
LINE
  8
0
 62
     0
 10
197.408
 20
69.9946
 30
0.0
 11
198.206
 21
69.9946
 31
0.0
  0
LINE
  8
0
 62
     0
 10
198.206
 20
69.9946
 30
0.0
 11
198.206
 21
72.8458
 31
0.0
  0
LINE
  8
0
 62
     0
 10
198.206
 20
72.8458
 30
0.0
 11
197.408
 21
72.8458
 31
0.0
  0
LINE
  8
0
 62
     0
 10
197.408
 20
72.8458
 30
0.0
 11
197.408
 21
73.8449
 31
0.0
  0
LINE
  8
0
 62
     0
 10
197.408
 20
73.8449
 30
0.0
 11
183.658
 21
73.8449
 31
0.0
  0
LINE
  8
0
 62
     0
 10
202.707
 20
73.8449
 30
0.0
 11
202.707
 21
72.8458
 31
0.0
  0
LINE
  8
0
 62
     0
 10
202.707
 20
72.8458
 30
0.0
 11
201.907
 21
72.8458
 31
0.0
  0
LINE
  8
0
 62
     0
 10
201.907
 20
72.8458
 30
0.0
 11
201.907
 21
69.9946
 31
0.0
  0
LINE
  8
0
 62
     0
 10
201.907
 20
69.9946
 30
0.0
 11
202.707
 21
69.9946
 31
0.0
  0
LINE
  8
0
 62
     0
 10
202.707
 20
69.9946
 30
0.0
 11
202.707
 21
63.9452
 31
0.0
  0
LINE
  8
0
 62
     0
 10
202.707
 20
63.9452
 30
0.0
 11
201.907
 21
63.9452
 31
0.0
  0
LINE
  8
0
 62
     0
 10
201.907
 20
63.9452
 30
0.0
 11
201.907
 21
61.0955
 31
0.0
  0
LINE
  8
0
 62
     0
 10
201.907
 20
61.0955
 30
0.0
 11
202.707
 21
61.0955
 31
0.0
  0
LINE
  8
0
 62
     0
 10
202.707
 20
61.0955
 30
0.0
 11
202.707
 21
60.095
 31
0.0
  0
LINE
  8
0
 62
     0
 10
202.707
 20
60.095
 30
0.0
 11
216.457
 21
60.095
 31
0.0
  0
LINE
  8
0
 62
     0
 10
216.457
 20
60.095
 30
0.0
 11
216.457
 21
61.0955
 31
0.0
  0
LINE
  8
0
 62
     0
 10
216.457
 20
61.0955
 30
0.0
 11
217.257
 21
61.0955
 31
0.0
  0
LINE
  8
0
 62
     0
 10
217.257
 20
61.0955
 30
0.0
 11
217.257
 21
63.9452
 31
0.0
  0
LINE
  8
0
 62
     0
 10
217.257
 20
63.9452
 30
0.0
 11
216.457
 21
63.9452
 31
0.0
  0
LINE
  8
0
 62
     0
 10
216.457
 20
63.9452
 30
0.0
 11
216.457
 21
69.9946
 31
0.0
  0
LINE
  8
0
 62
     0
 10
216.457
 20
69.9946
 30
0.0
 11
217.257
 21
69.9946
 31
0.0
  0
LINE
  8
0
 62
     0
 10
217.257
 20
69.9946
 30
0.0
 11
217.257
 21
72.8458
 31
0.0
  0
LINE
  8
0
 62
     0
 10
217.257
 20
72.8458
 30
0.0
 11
216.457
 21
72.8458
 31
0.0
  0
LINE
  8
0
 62
     0
 10
216.457
 20
72.8458
 30
0.0
 11
216.457
 21
73.8449
 31
0.0
  0
LINE
  8
0
 62
     0
 10
216.457
 20
73.8449
 30
0.0
 11
202.707
 21
73.8449
 31
0.0
  0
LINE
  8
0
 62
     0
 10
221.758
 20
73.8449
 30
0.0
 11
221.758
 21
72.8458
 31
0.0
  0
LINE
  8
0
 62
     0
 10
221.758
 20
72.8458
 30
0.0
 11
220.956
 21
72.8458
 31
0.0
  0
LINE
  8
0
 62
     0
 10
220.956
 20
72.8458
 30
0.0
 11
220.956
 21
69.9946
 31
0.0
  0
LINE
  8
0
 62
     0
 10
220.956
 20
69.9946
 30
0.0
 11
221.758
 21
69.9946
 31
0.0
  0
LINE
  8
0
 62
     0
 10
221.758
 20
69.9946
 30
0.0
 11
221.758
 21
63.9452
 31
0.0
  0
LINE
  8
0
 62
     0
 10
221.758
 20
63.9452
 30
0.0
 11
220.956
 21
63.9452
 31
0.0
  0
LINE
  8
0
 62
     0
 10
220.956
 20
63.9452
 30
0.0
 11
220.956
 21
61.0955
 31
0.0
  0
LINE
  8
0
 62
     0
 10
220.956
 20
61.0955
 30
0.0
 11
221.758
 21
61.0955
 31
0.0
  0
LINE
  8
0
 62
     0
 10
221.758
 20
61.0955
 30
0.0
 11
221.758
 21
60.095
 31
0.0
  0
LINE
  8
0
 62
     0
 10
221.758
 20
60.095
 30
0.0
 11
235.508
 21
60.095
 31
0.0
  0
LINE
  8
0
 62
     0
 10
235.508
 20
60.095
 30
0.0
 11
235.508
 21
61.0955
 31
0.0
  0
LINE
  8
0
 62
     0
 10
235.508
 20
61.0955
 30
0.0
 11
236.306
 21
61.0955
 31
0.0
  0
LINE
  8
0
 62
     0
 10
236.306
 20
61.0955
 30
0.0
 11
236.306
 21
63.9452
 31
0.0
  0
LINE
  8
0
 62
     0
 10
236.306
 20
63.9452
 30
0.0
 11
235.508
 21
63.9452
 31
0.0
  0
LINE
  8
0
 62
     0
 10
235.508
 20
63.9452
 30
0.0
 11
235.508
 21
69.9946
 31
0.0
  0
LINE
  8
0
 62
     0
 10
235.508
 20
69.9946
 30
0.0
 11
236.306
 21
69.9946
 31
0.0
  0
LINE
  8
0
 62
     0
 10
236.306
 20
69.9946
 30
0.0
 11
236.306
 21
72.8458
 31
0.0
  0
LINE
  8
0
 62
     0
 10
236.306
 20
72.8458
 30
0.0
 11
235.508
 21
72.8458
 31
0.0
  0
LINE
  8
0
 62
     0
 10
235.508
 20
72.8458
 30
0.0
 11
235.508
 21
73.8449
 31
0.0
  0
LINE
  8
0
 62
     0
 10
235.508
 20
73.8449
 30
0.0
 11
221.758
 21
73.8449
 31
0.0
  0
LINE
  8
0
 62
     0
 10
240.807
 20
73.8449
 30
0.0
 11
240.807
 21
72.8458
 31
0.0
  0
LINE
  8
0
 62
     0
 10
240.807
 20
72.8458
 30
0.0
 11
240.007
 21
72.8458
 31
0.0
  0
LINE
  8
0
 62
     0
 10
240.007
 20
72.8458
 30
0.0
 11
240.007
 21
69.9946
 31
0.0
  0
LINE
  8
0
 62
     0
 10
240.007
 20
69.9946
 30
0.0
 11
240.807
 21
69.9946
 31
0.0
  0
LINE
  8
0
 62
     0
 10
240.807
 20
69.9946
 30
0.0
 11
240.807
 21
63.9452
 31
0.0
  0
LINE
  8
0
 62
     0
 10
240.807
 20
63.9452
 30
0.0
 11
240.007
 21
63.9452
 31
0.0
  0
LINE
  8
0
 62
     0
 10
240.007
 20
63.9452
 30
0.0
 11
240.007
 21
61.0955
 31
0.0
  0
LINE
  8
0
 62
     0
 10
240.007
 20
61.0955
 30
0.0
 11
240.807
 21
61.0955
 31
0.0
  0
LINE
  8
0
 62
     0
 10
240.807
 20
61.0955
 30
0.0
 11
240.807
 21
60.095
 31
0.0
  0
LINE
  8
0
 62
     0
 10
240.807
 20
60.095
 30
0.0
 11
254.557
 21
60.095
 31
0.0
  0
LINE
  8
0
 62
     0
 10
254.557
 20
60.095
 30
0.0
 11
254.557
 21
61.0955
 31
0.0
  0
LINE
  8
0
 62
     0
 10
254.557
 20
61.0955
 30
0.0
 11
255.356
 21
61.0955
 31
0.0
  0
LINE
  8
0
 62
     0
 10
255.356
 20
61.0955
 30
0.0
 11
255.356
 21
63.9452
 31
0.0
  0
LINE
  8
0
 62
     0
 10
255.356
 20
63.9452
 30
0.0
 11
254.557
 21
63.9452
 31
0.0
  0
LINE
  8
0
 62
     0
 10
254.557
 20
63.9452
 30
0.0
 11
254.557
 21
69.9946
 31
0.0
  0
LINE
  8
0
 62
     0
 10
254.557
 20
69.9946
 30
0.0
 11
255.356
 21
69.9946
 31
0.0
  0
LINE
  8
0
 62
     0
 10
255.356
 20
69.9946
 30
0.0
 11
255.356
 21
72.8458
 31
0.0
  0
LINE
  8
0
 62
     0
 10
255.356
 20
72.8458
 30
0.0
 11
254.557
 21
72.8458
 31
0.0
  0
LINE
  8
0
 62
     0
 10
254.557
 20
72.8458
 30
0.0
 11
254.557
 21
73.8449
 31
0.0
  0
LINE
  8
0
 62
     0
 10
254.557
 20
73.8449
 30
0.0
 11
240.807
 21
73.8449
 31
0.0
  0
LINE
  8
0
 62
     0
 10
24.7192
 20
70.0539
 30
0.0
 11
23.9186
 21
69.6447
 31
0.0
  0
LINE
  8
0
 62
     0
 10
23.9186
 20
69.6447
 30
0.0
 11
23.282
 21
69.0079
 31
0.0
  0
LINE
  8
0
 62
     0
 10
23.282
 20
69.0079
 30
0.0
 11
22.8727
 21
68.2089
 31
0.0
  0
LINE
  8
0
 62
     0
 10
22.8727
 20
68.2089
 30
0.0
 11
22.7335
 21
67.3185
 31
0.0
  0
LINE
  8
0
 62
     0
 10
22.7335
 20
67.3185
 30
0.0
 11
22.8727
 21
66.4312
 31
0.0
  0
LINE
  8
0
 62
     0
 10
22.8727
 20
66.4312
 30
0.0
 11
23.282
 21
65.629
 31
0.0
  0
LINE
  8
0
 62
     0
 10
23.282
 20
65.629
 30
0.0
 11
23.9186
 21
64.9937
 31
0.0
  0
LINE
  8
0
 62
     0
 10
23.9186
 20
64.9937
 30
0.0
 11
24.7192
 21
64.5859
 31
0.0
  0
LINE
  8
0
 62
     0
 10
24.7192
 20
64.5859
 30
0.0
 11
25.6081
 21
64.444
 31
0.0
  0
LINE
  8
0
 62
     0
 10
25.6081
 20
64.444
 30
0.0
 11
26.4969
 21
64.5859
 31
0.0
  0
LINE
  8
0
 62
     0
 10
26.4969
 20
64.5859
 30
0.0
 11
27.2976
 21
64.9937
 31
0.0
  0
LINE
  8
0
 62
     0
 10
27.2976
 20
64.9937
 30
0.0
 11
27.9328
 21
65.629
 31
0.0
  0
LINE
  8
0
 62
     0
 10
27.9328
 20
65.629
 30
0.0
 11
28.3421
 21
66.4312
 31
0.0
  0
LINE
  8
0
 62
     0
 10
28.3421
 20
66.4312
 30
0.0
 11
28.4827
 21
67.3185
 31
0.0
  0
LINE
  8
0
 62
     0
 10
28.4827
 20
67.3185
 30
0.0
 11
28.3421
 21
68.2089
 31
0.0
  0
LINE
  8
0
 62
     0
 10
28.3421
 20
68.2089
 30
0.0
 11
27.9328
 21
69.0079
 31
0.0
  0
LINE
  8
0
 62
     0
 10
27.9328
 20
69.0079
 30
0.0
 11
27.2976
 21
69.6447
 31
0.0
  0
LINE
  8
0
 62
     0
 10
27.2976
 20
69.6447
 30
0.0
 11
26.4969
 21
70.0539
 31
0.0
  0
LINE
  8
0
 62
     0
 10
26.4969
 20
70.0539
 30
0.0
 11
25.6081
 21
70.1947
 31
0.0
  0
LINE
  8
0
 62
     0
 10
25.6081
 20
70.1947
 30
0.0
 11
24.7192
 21
70.0539
 31
0.0
  0
LINE
  8
0
 62
     0
 10
259.569
 20
70.0539
 30
0.0
 11
258.768
 21
69.6447
 31
0.0
  0
LINE
  8
0
 62
     0
 10
258.768
 20
69.6447
 30
0.0
 11
258.131
 21
69.0079
 31
0.0
  0
LINE
  8
0
 62
     0
 10
258.131
 20
69.0079
 30
0.0
 11
257.722
 21
68.2089
 31
0.0
  0
LINE
  8
0
 62
     0
 10
257.722
 20
68.2089
 30
0.0
 11
257.583
 21
67.3185
 31
0.0
  0
LINE
  8
0
 62
     0
 10
257.583
 20
67.3185
 30
0.0
 11
257.722
 21
66.4312
 31
0.0
  0
LINE
  8
0
 62
     0
 10
257.722
 20
66.4312
 30
0.0
 11
258.131
 21
65.629
 31
0.0
  0
LINE
  8
0
 62
     0
 10
258.131
 20
65.629
 30
0.0
 11
258.768
 21
64.9937
 31
0.0
  0
LINE
  8
0
 62
     0
 10
258.768
 20
64.9937
 30
0.0
 11
259.569
 21
64.5859
 31
0.0
  0
LINE
  8
0
 62
     0
 10
259.569
 20
64.5859
 30
0.0
 11
260.458
 21
64.444
 31
0.0
  0
LINE
  8
0
 62
     0
 10
260.458
 20
64.444
 30
0.0
 11
261.345
 21
64.5859
 31
0.0
  0
LINE
  8
0
 62
     0
 10
261.345
 20
64.5859
 30
0.0
 11
262.147
 21
64.9937
 31
0.0
  0
LINE
  8
0
 62
     0
 10
262.147
 20
64.9937
 30
0.0
 11
262.782
 21
65.629
 31
0.0
  0
LINE
  8
0
 62
     0
 10
262.782
 20
65.629
 30
0.0
 11
263.192
 21
66.4312
 31
0.0
  0
LINE
  8
0
 62
     0
 10
263.192
 20
66.4312
 30
0.0
 11
263.332
 21
67.3185
 31
0.0
  0
LINE
  8
0
 62
     0
 10
263.332
 20
67.3185
 30
0.0
 11
263.192
 21
68.2089
 31
0.0
  0
LINE
  8
0
 62
     0
 10
263.192
 20
68.2089
 30
0.0
 11
262.782
 21
69.0079
 31
0.0
  0
LINE
  8
0
 62
     0
 10
262.782
 20
69.0079
 30
0.0
 11
262.147
 21
69.6447
 31
0.0
  0
LINE
  8
0
 62
     0
 10
262.147
 20
69.6447
 30
0.0
 11
261.345
 21
70.0539
 31
0.0
  0
LINE
  8
0
 62
     0
 10
261.345
 20
70.0539
 30
0.0
 11
260.458
 21
70.1947
 31
0.0
  0
LINE
  8
0
 62
     0
 10
260.458
 20
70.1947
 30
0.0
 11
259.569
 21
70.0539
 31
0.0
  0
LINE
  8
0
 62
     0
 10
2.68304
 20
92.8949
 30
0.0
 11
2.68304
 21
91.8958
 31
0.0
  0
LINE
  8
0
 62
     0
 10
2.68304
 20
91.8958
 30
0.0
 11
1.8824
 21
91.8958
 31
0.0
  0
LINE
  8
0
 62
     0
 10
1.8824
 20
91.8958
 30
0.0
 11
1.8824
 21
89.0446
 31
0.0
  0
LINE
  8
0
 62
     0
 10
1.8824
 20
89.0446
 30
0.0
 11
2.68304
 21
89.0446
 31
0.0
  0
LINE
  8
0
 62
     0
 10
2.68304
 20
89.0446
 30
0.0
 11
2.68304
 21
82.9952
 31
0.0
  0
LINE
  8
0
 62
     0
 10
2.68304
 20
82.9952
 30
0.0
 11
1.8824
 21
82.9952
 31
0.0
  0
LINE
  8
0
 62
     0
 10
1.8824
 20
82.9952
 30
0.0
 11
1.8824
 21
80.1455
 31
0.0
  0
LINE
  8
0
 62
     0
 10
1.8824
 20
80.1455
 30
0.0
 11
2.68304
 21
80.1455
 31
0.0
  0
LINE
  8
0
 62
     0
 10
2.68304
 20
80.1455
 30
0.0
 11
2.68304
 21
79.145
 31
0.0
  0
LINE
  8
0
 62
     0
 10
2.68304
 20
79.145
 30
0.0
 11
16.4331
 21
79.145
 31
0.0
  0
LINE
  8
0
 62
     0
 10
16.4331
 20
79.145
 30
0.0
 11
16.4331
 21
80.1455
 31
0.0
  0
LINE
  8
0
 62
     0
 10
16.4331
 20
80.1455
 30
0.0
 11
17.2324
 21
80.1455
 31
0.0
  0
LINE
  8
0
 62
     0
 10
17.2324
 20
80.1455
 30
0.0
 11
17.2324
 21
82.9952
 31
0.0
  0
LINE
  8
0
 62
     0
 10
17.2324
 20
82.9952
 30
0.0
 11
16.4331
 21
82.9952
 31
0.0
  0
LINE
  8
0
 62
     0
 10
16.4331
 20
82.9952
 30
0.0
 11
16.4331
 21
89.0446
 31
0.0
  0
LINE
  8
0
 62
     0
 10
16.4331
 20
89.0446
 30
0.0
 11
17.2324
 21
89.0446
 31
0.0
  0
LINE
  8
0
 62
     0
 10
17.2324
 20
89.0446
 30
0.0
 11
17.2324
 21
91.8958
 31
0.0
  0
LINE
  8
0
 62
     0
 10
17.2324
 20
91.8958
 30
0.0
 11
16.4331
 21
91.8958
 31
0.0
  0
LINE
  8
0
 62
     0
 10
16.4331
 20
91.8958
 30
0.0
 11
16.4331
 21
92.8949
 31
0.0
  0
LINE
  8
0
 62
     0
 10
16.4331
 20
92.8949
 30
0.0
 11
2.68304
 21
92.8949
 31
0.0
  0
LINE
  8
0
 62
     0
 10
21.7331
 20
92.8949
 30
0.0
 11
21.7331
 21
91.8958
 31
0.0
  0
LINE
  8
0
 62
     0
 10
21.7331
 20
91.8958
 30
0.0
 11
20.9324
 21
91.8958
 31
0.0
  0
LINE
  8
0
 62
     0
 10
20.9324
 20
91.8958
 30
0.0
 11
20.9324
 21
89.0446
 31
0.0
  0
LINE
  8
0
 62
     0
 10
20.9324
 20
89.0446
 30
0.0
 11
21.7331
 21
89.0446
 31
0.0
  0
LINE
  8
0
 62
     0
 10
21.7331
 20
89.0446
 30
0.0
 11
21.7331
 21
82.9952
 31
0.0
  0
LINE
  8
0
 62
     0
 10
21.7331
 20
82.9952
 30
0.0
 11
20.9324
 21
82.9952
 31
0.0
  0
LINE
  8
0
 62
     0
 10
20.9324
 20
82.9952
 30
0.0
 11
20.9324
 21
80.1455
 31
0.0
  0
LINE
  8
0
 62
     0
 10
20.9324
 20
80.1455
 30
0.0
 11
21.7331
 21
80.1455
 31
0.0
  0
LINE
  8
0
 62
     0
 10
21.7331
 20
80.1455
 30
0.0
 11
21.7331
 21
79.145
 31
0.0
  0
LINE
  8
0
 62
     0
 10
21.7331
 20
79.145
 30
0.0
 11
35.4831
 21
79.145
 31
0.0
  0
LINE
  8
0
 62
     0
 10
35.4831
 20
79.145
 30
0.0
 11
35.4831
 21
80.1455
 31
0.0
  0
LINE
  8
0
 62
     0
 10
35.4831
 20
80.1455
 30
0.0
 11
36.2825
 21
80.1455
 31
0.0
  0
LINE
  8
0
 62
     0
 10
36.2825
 20
80.1455
 30
0.0
 11
36.2825
 21
82.9952
 31
0.0
  0
LINE
  8
0
 62
     0
 10
36.2825
 20
82.9952
 30
0.0
 11
35.4831
 21
82.9952
 31
0.0
  0
LINE
  8
0
 62
     0
 10
35.4831
 20
82.9952
 30
0.0
 11
35.4831
 21
89.0446
 31
0.0
  0
LINE
  8
0
 62
     0
 10
35.4831
 20
89.0446
 30
0.0
 11
36.2825
 21
89.0446
 31
0.0
  0
LINE
  8
0
 62
     0
 10
36.2825
 20
89.0446
 30
0.0
 11
36.2825
 21
91.8958
 31
0.0
  0
LINE
  8
0
 62
     0
 10
36.2825
 20
91.8958
 30
0.0
 11
35.4831
 21
91.8958
 31
0.0
  0
LINE
  8
0
 62
     0
 10
35.4831
 20
91.8958
 30
0.0
 11
35.4831
 21
92.8949
 31
0.0
  0
LINE
  8
0
 62
     0
 10
35.4831
 20
92.8949
 30
0.0
 11
21.7331
 21
92.8949
 31
0.0
  0
LINE
  8
0
 62
     0
 10
40.7829
 20
92.8949
 30
0.0
 11
40.7829
 21
91.8958
 31
0.0
  0
LINE
  8
0
 62
     0
 10
40.7829
 20
91.8958
 30
0.0
 11
39.9824
 21
91.8958
 31
0.0
  0
LINE
  8
0
 62
     0
 10
39.9824
 20
91.8958
 30
0.0
 11
39.9824
 21
89.0446
 31
0.0
  0
LINE
  8
0
 62
     0
 10
39.9824
 20
89.0446
 30
0.0
 11
40.7829
 21
89.0446
 31
0.0
  0
LINE
  8
0
 62
     0
 10
40.7829
 20
89.0446
 30
0.0
 11
40.7829
 21
82.9952
 31
0.0
  0
LINE
  8
0
 62
     0
 10
40.7829
 20
82.9952
 30
0.0
 11
39.9824
 21
82.9952
 31
0.0
  0
LINE
  8
0
 62
     0
 10
39.9824
 20
82.9952
 30
0.0
 11
39.9824
 21
80.1455
 31
0.0
  0
LINE
  8
0
 62
     0
 10
39.9824
 20
80.1455
 30
0.0
 11
40.7829
 21
80.1455
 31
0.0
  0
LINE
  8
0
 62
     0
 10
40.7829
 20
80.1455
 30
0.0
 11
40.7829
 21
79.145
 31
0.0
  0
LINE
  8
0
 62
     0
 10
40.7829
 20
79.145
 30
0.0
 11
54.5331
 21
79.145
 31
0.0
  0
LINE
  8
0
 62
     0
 10
54.5331
 20
79.145
 30
0.0
 11
54.5331
 21
80.1455
 31
0.0
  0
LINE
  8
0
 62
     0
 10
54.5331
 20
80.1455
 30
0.0
 11
55.3311
 21
80.1455
 31
0.0
  0
LINE
  8
0
 62
     0
 10
55.3311
 20
80.1455
 30
0.0
 11
55.3311
 21
82.9952
 31
0.0
  0
LINE
  8
0
 62
     0
 10
55.3311
 20
82.9952
 30
0.0
 11
54.5331
 21
82.9952
 31
0.0
  0
LINE
  8
0
 62
     0
 10
54.5331
 20
82.9952
 30
0.0
 11
54.5331
 21
89.0446
 31
0.0
  0
LINE
  8
0
 62
     0
 10
54.5331
 20
89.0446
 30
0.0
 11
55.3311
 21
89.0446
 31
0.0
  0
LINE
  8
0
 62
     0
 10
55.3311
 20
89.0446
 30
0.0
 11
55.3311
 21
91.8958
 31
0.0
  0
LINE
  8
0
 62
     0
 10
55.3311
 20
91.8958
 30
0.0
 11
54.5331
 21
91.8958
 31
0.0
  0
LINE
  8
0
 62
     0
 10
54.5331
 20
91.8958
 30
0.0
 11
54.5331
 21
92.8949
 31
0.0
  0
LINE
  8
0
 62
     0
 10
54.5331
 20
92.8949
 30
0.0
 11
40.7829
 21
92.8949
 31
0.0
  0
LINE
  8
0
 62
     0
 10
59.8318
 20
92.8949
 30
0.0
 11
59.8318
 21
91.8958
 31
0.0
  0
LINE
  8
0
 62
     0
 10
59.8318
 20
91.8958
 30
0.0
 11
59.0324
 21
91.8958
 31
0.0
  0
LINE
  8
0
 62
     0
 10
59.0324
 20
91.8958
 30
0.0
 11
59.0324
 21
89.0446
 31
0.0
  0
LINE
  8
0
 62
     0
 10
59.0324
 20
89.0446
 30
0.0
 11
59.8318
 21
89.0446
 31
0.0
  0
LINE
  8
0
 62
     0
 10
59.8318
 20
89.0446
 30
0.0
 11
59.8318
 21
82.9952
 31
0.0
  0
LINE
  8
0
 62
     0
 10
59.8318
 20
82.9952
 30
0.0
 11
59.0324
 21
82.9952
 31
0.0
  0
LINE
  8
0
 62
     0
 10
59.0324
 20
82.9952
 30
0.0
 11
59.0324
 21
80.1455
 31
0.0
  0
LINE
  8
0
 62
     0
 10
59.0324
 20
80.1455
 30
0.0
 11
59.8318
 21
80.1455
 31
0.0
  0
LINE
  8
0
 62
     0
 10
59.8318
 20
80.1455
 30
0.0
 11
59.8318
 21
79.145
 31
0.0
  0
LINE
  8
0
 62
     0
 10
59.8318
 20
79.145
 30
0.0
 11
73.5817
 21
79.145
 31
0.0
  0
LINE
  8
0
 62
     0
 10
73.5817
 20
79.145
 30
0.0
 11
73.5817
 21
80.1455
 31
0.0
  0
LINE
  8
0
 62
     0
 10
73.5817
 20
80.1455
 30
0.0
 11
74.3825
 21
80.1455
 31
0.0
  0
LINE
  8
0
 62
     0
 10
74.3825
 20
80.1455
 30
0.0
 11
74.3825
 21
82.9952
 31
0.0
  0
LINE
  8
0
 62
     0
 10
74.3825
 20
82.9952
 30
0.0
 11
73.5817
 21
82.9952
 31
0.0
  0
LINE
  8
0
 62
     0
 10
73.5817
 20
82.9952
 30
0.0
 11
73.5817
 21
89.0446
 31
0.0
  0
LINE
  8
0
 62
     0
 10
73.5817
 20
89.0446
 30
0.0
 11
74.3825
 21
89.0446
 31
0.0
  0
LINE
  8
0
 62
     0
 10
74.3825
 20
89.0446
 30
0.0
 11
74.3825
 21
91.8958
 31
0.0
  0
LINE
  8
0
 62
     0
 10
74.3825
 20
91.8958
 30
0.0
 11
73.5817
 21
91.8958
 31
0.0
  0
LINE
  8
0
 62
     0
 10
73.5817
 20
91.8958
 30
0.0
 11
73.5817
 21
92.8949
 31
0.0
  0
LINE
  8
0
 62
     0
 10
73.5817
 20
92.8949
 30
0.0
 11
59.8318
 21
92.8949
 31
0.0
  0
LINE
  8
0
 62
     0
 10
78.8829
 20
92.8949
 30
0.0
 11
78.8829
 21
91.8958
 31
0.0
  0
LINE
  8
0
 62
     0
 10
78.8829
 20
91.8958
 30
0.0
 11
78.081
 21
91.8958
 31
0.0
  0
LINE
  8
0
 62
     0
 10
78.081
 20
91.8958
 30
0.0
 11
78.081
 21
89.0446
 31
0.0
  0
LINE
  8
0
 62
     0
 10
78.081
 20
89.0446
 30
0.0
 11
78.8829
 21
89.0446
 31
0.0
  0
LINE
  8
0
 62
     0
 10
78.8829
 20
89.0446
 30
0.0
 11
78.8829
 21
82.9952
 31
0.0
  0
LINE
  8
0
 62
     0
 10
78.8829
 20
82.9952
 30
0.0
 11
78.081
 21
82.9952
 31
0.0
  0
LINE
  8
0
 62
     0
 10
78.081
 20
82.9952
 30
0.0
 11
78.081
 21
80.1455
 31
0.0
  0
LINE
  8
0
 62
     0
 10
78.081
 20
80.1455
 30
0.0
 11
78.8829
 21
80.1455
 31
0.0
  0
LINE
  8
0
 62
     0
 10
78.8829
 20
80.1455
 30
0.0
 11
78.8829
 21
79.145
 31
0.0
  0
LINE
  8
0
 62
     0
 10
78.8829
 20
79.145
 30
0.0
 11
92.6331
 21
79.145
 31
0.0
  0
LINE
  8
0
 62
     0
 10
92.6331
 20
79.145
 30
0.0
 11
92.6331
 21
80.1455
 31
0.0
  0
LINE
  8
0
 62
     0
 10
92.6331
 20
80.1455
 30
0.0
 11
93.4325
 21
80.1455
 31
0.0
  0
LINE
  8
0
 62
     0
 10
93.4325
 20
80.1455
 30
0.0
 11
93.4325
 21
82.9952
 31
0.0
  0
LINE
  8
0
 62
     0
 10
93.4325
 20
82.9952
 30
0.0
 11
92.6331
 21
82.9952
 31
0.0
  0
LINE
  8
0
 62
     0
 10
92.6331
 20
82.9952
 30
0.0
 11
92.6331
 21
89.0446
 31
0.0
  0
LINE
  8
0
 62
     0
 10
92.6331
 20
89.0446
 30
0.0
 11
93.4325
 21
89.0446
 31
0.0
  0
LINE
  8
0
 62
     0
 10
93.4325
 20
89.0446
 30
0.0
 11
93.4325
 21
91.8958
 31
0.0
  0
LINE
  8
0
 62
     0
 10
93.4325
 20
91.8958
 30
0.0
 11
92.6331
 21
91.8958
 31
0.0
  0
LINE
  8
0
 62
     0
 10
92.6331
 20
91.8958
 30
0.0
 11
92.6331
 21
92.8949
 31
0.0
  0
LINE
  8
0
 62
     0
 10
92.6331
 20
92.8949
 30
0.0
 11
78.8829
 21
92.8949
 31
0.0
  0
LINE
  8
0
 62
     0
 10
97.9329
 20
92.8949
 30
0.0
 11
97.9329
 21
91.8958
 31
0.0
  0
LINE
  8
0
 62
     0
 10
97.9329
 20
91.8958
 30
0.0
 11
97.1324
 21
91.8958
 31
0.0
  0
LINE
  8
0
 62
     0
 10
97.1324
 20
91.8958
 30
0.0
 11
97.1324
 21
89.0446
 31
0.0
  0
LINE
  8
0
 62
     0
 10
97.1324
 20
89.0446
 30
0.0
 11
97.9329
 21
89.0446
 31
0.0
  0
LINE
  8
0
 62
     0
 10
97.9329
 20
89.0446
 30
0.0
 11
97.9329
 21
82.9952
 31
0.0
  0
LINE
  8
0
 62
     0
 10
97.9329
 20
82.9952
 30
0.0
 11
97.1324
 21
82.9952
 31
0.0
  0
LINE
  8
0
 62
     0
 10
97.1324
 20
82.9952
 30
0.0
 11
97.1324
 21
80.1455
 31
0.0
  0
LINE
  8
0
 62
     0
 10
97.1324
 20
80.1455
 30
0.0
 11
97.9329
 21
80.1455
 31
0.0
  0
LINE
  8
0
 62
     0
 10
97.9329
 20
80.1455
 30
0.0
 11
97.9329
 21
79.145
 31
0.0
  0
LINE
  8
0
 62
     0
 10
97.9329
 20
79.145
 30
0.0
 11
111.683
 21
79.145
 31
0.0
  0
LINE
  8
0
 62
     0
 10
111.683
 20
79.145
 30
0.0
 11
111.683
 21
80.1455
 31
0.0
  0
LINE
  8
0
 62
     0
 10
111.683
 20
80.1455
 30
0.0
 11
112.482
 21
80.1455
 31
0.0
  0
LINE
  8
0
 62
     0
 10
112.482
 20
80.1455
 30
0.0
 11
112.482
 21
82.9952
 31
0.0
  0
LINE
  8
0
 62
     0
 10
112.482
 20
82.9952
 30
0.0
 11
111.683
 21
82.9952
 31
0.0
  0
LINE
  8
0
 62
     0
 10
111.683
 20
82.9952
 30
0.0
 11
111.683
 21
89.0446
 31
0.0
  0
LINE
  8
0
 62
     0
 10
111.683
 20
89.0446
 30
0.0
 11
112.482
 21
89.0446
 31
0.0
  0
LINE
  8
0
 62
     0
 10
112.482
 20
89.0446
 30
0.0
 11
112.482
 21
91.8958
 31
0.0
  0
LINE
  8
0
 62
     0
 10
112.482
 20
91.8958
 30
0.0
 11
111.683
 21
91.8958
 31
0.0
  0
LINE
  8
0
 62
     0
 10
111.683
 20
91.8958
 30
0.0
 11
111.683
 21
92.8949
 31
0.0
  0
LINE
  8
0
 62
     0
 10
111.683
 20
92.8949
 30
0.0
 11
97.9329
 21
92.8949
 31
0.0
  0
LINE
  8
0
 62
     0
 10
116.983
 20
92.8949
 30
0.0
 11
116.983
 21
91.8958
 31
0.0
  0
LINE
  8
0
 62
     0
 10
116.983
 20
91.8958
 30
0.0
 11
116.182
 21
91.8958
 31
0.0
  0
LINE
  8
0
 62
     0
 10
116.182
 20
91.8958
 30
0.0
 11
116.182
 21
89.0446
 31
0.0
  0
LINE
  8
0
 62
     0
 10
116.182
 20
89.0446
 30
0.0
 11
116.983
 21
89.0446
 31
0.0
  0
LINE
  8
0
 62
     0
 10
116.983
 20
89.0446
 30
0.0
 11
116.983
 21
82.9952
 31
0.0
  0
LINE
  8
0
 62
     0
 10
116.983
 20
82.9952
 30
0.0
 11
116.182
 21
82.9952
 31
0.0
  0
LINE
  8
0
 62
     0
 10
116.182
 20
82.9952
 30
0.0
 11
116.182
 21
80.1455
 31
0.0
  0
LINE
  8
0
 62
     0
 10
116.182
 20
80.1455
 30
0.0
 11
116.983
 21
80.1455
 31
0.0
  0
LINE
  8
0
 62
     0
 10
116.983
 20
80.1455
 30
0.0
 11
116.983
 21
79.145
 31
0.0
  0
LINE
  8
0
 62
     0
 10
116.983
 20
79.145
 30
0.0
 11
130.733
 21
79.145
 31
0.0
  0
LINE
  8
0
 62
     0
 10
130.733
 20
79.145
 30
0.0
 11
130.733
 21
80.1455
 31
0.0
  0
LINE
  8
0
 62
     0
 10
130.733
 20
80.1455
 30
0.0
 11
131.532
 21
80.1455
 31
0.0
  0
LINE
  8
0
 62
     0
 10
131.532
 20
80.1455
 30
0.0
 11
131.532
 21
82.9952
 31
0.0
  0
LINE
  8
0
 62
     0
 10
131.532
 20
82.9952
 30
0.0
 11
130.733
 21
82.9952
 31
0.0
  0
LINE
  8
0
 62
     0
 10
130.733
 20
82.9952
 30
0.0
 11
130.733
 21
89.0446
 31
0.0
  0
LINE
  8
0
 62
     0
 10
130.733
 20
89.0446
 30
0.0
 11
131.532
 21
89.0446
 31
0.0
  0
LINE
  8
0
 62
     0
 10
131.532
 20
89.0446
 30
0.0
 11
131.532
 21
91.8958
 31
0.0
  0
LINE
  8
0
 62
     0
 10
131.532
 20
91.8958
 30
0.0
 11
130.733
 21
91.8958
 31
0.0
  0
LINE
  8
0
 62
     0
 10
130.733
 20
91.8958
 30
0.0
 11
130.733
 21
92.8949
 31
0.0
  0
LINE
  8
0
 62
     0
 10
130.733
 20
92.8949
 30
0.0
 11
116.983
 21
92.8949
 31
0.0
  0
LINE
  8
0
 62
     0
 10
136.033
 20
92.8949
 30
0.0
 11
136.033
 21
91.8958
 31
0.0
  0
LINE
  8
0
 62
     0
 10
136.033
 20
91.8958
 30
0.0
 11
135.232
 21
91.8958
 31
0.0
  0
LINE
  8
0
 62
     0
 10
135.232
 20
91.8958
 30
0.0
 11
135.232
 21
89.0446
 31
0.0
  0
LINE
  8
0
 62
     0
 10
135.232
 20
89.0446
 30
0.0
 11
136.033
 21
89.0446
 31
0.0
  0
LINE
  8
0
 62
     0
 10
136.033
 20
89.0446
 30
0.0
 11
136.033
 21
82.9952
 31
0.0
  0
LINE
  8
0
 62
     0
 10
136.033
 20
82.9952
 30
0.0
 11
135.232
 21
82.9952
 31
0.0
  0
LINE
  8
0
 62
     0
 10
135.232
 20
82.9952
 30
0.0
 11
135.232
 21
80.1455
 31
0.0
  0
LINE
  8
0
 62
     0
 10
135.232
 20
80.1455
 30
0.0
 11
136.033
 21
80.1455
 31
0.0
  0
LINE
  8
0
 62
     0
 10
136.033
 20
80.1455
 30
0.0
 11
136.033
 21
79.145
 31
0.0
  0
LINE
  8
0
 62
     0
 10
136.033
 20
79.145
 30
0.0
 11
149.783
 21
79.145
 31
0.0
  0
LINE
  8
0
 62
     0
 10
149.783
 20
79.145
 30
0.0
 11
149.783
 21
80.1455
 31
0.0
  0
LINE
  8
0
 62
     0
 10
149.783
 20
80.1455
 30
0.0
 11
150.581
 21
80.1455
 31
0.0
  0
LINE
  8
0
 62
     0
 10
150.581
 20
80.1455
 30
0.0
 11
150.581
 21
82.9952
 31
0.0
  0
LINE
  8
0
 62
     0
 10
150.581
 20
82.9952
 30
0.0
 11
149.783
 21
82.9952
 31
0.0
  0
LINE
  8
0
 62
     0
 10
149.783
 20
82.9952
 30
0.0
 11
149.783
 21
89.0446
 31
0.0
  0
LINE
  8
0
 62
     0
 10
149.783
 20
89.0446
 30
0.0
 11
150.581
 21
89.0446
 31
0.0
  0
LINE
  8
0
 62
     0
 10
150.581
 20
89.0446
 30
0.0
 11
150.581
 21
91.8958
 31
0.0
  0
LINE
  8
0
 62
     0
 10
150.581
 20
91.8958
 30
0.0
 11
149.783
 21
91.8958
 31
0.0
  0
LINE
  8
0
 62
     0
 10
149.783
 20
91.8958
 30
0.0
 11
149.783
 21
92.8949
 31
0.0
  0
LINE
  8
0
 62
     0
 10
149.783
 20
92.8949
 30
0.0
 11
136.033
 21
92.8949
 31
0.0
  0
LINE
  8
0
 62
     0
 10
155.082
 20
92.8949
 30
0.0
 11
155.082
 21
91.8958
 31
0.0
  0
LINE
  8
0
 62
     0
 10
155.082
 20
91.8958
 30
0.0
 11
154.282
 21
91.8958
 31
0.0
  0
LINE
  8
0
 62
     0
 10
154.282
 20
91.8958
 30
0.0
 11
154.282
 21
89.0446
 31
0.0
  0
LINE
  8
0
 62
     0
 10
154.282
 20
89.0446
 30
0.0
 11
155.082
 21
89.0446
 31
0.0
  0
LINE
  8
0
 62
     0
 10
155.082
 20
89.0446
 30
0.0
 11
155.082
 21
82.9952
 31
0.0
  0
LINE
  8
0
 62
     0
 10
155.082
 20
82.9952
 30
0.0
 11
154.282
 21
82.9952
 31
0.0
  0
LINE
  8
0
 62
     0
 10
154.282
 20
82.9952
 30
0.0
 11
154.282
 21
80.1455
 31
0.0
  0
LINE
  8
0
 62
     0
 10
154.282
 20
80.1455
 30
0.0
 11
155.082
 21
80.1455
 31
0.0
  0
LINE
  8
0
 62
     0
 10
155.082
 20
80.1455
 30
0.0
 11
155.082
 21
79.145
 31
0.0
  0
LINE
  8
0
 62
     0
 10
155.082
 20
79.145
 30
0.0
 11
168.832
 21
79.145
 31
0.0
  0
LINE
  8
0
 62
     0
 10
168.832
 20
79.145
 30
0.0
 11
168.832
 21
80.1455
 31
0.0
  0
LINE
  8
0
 62
     0
 10
168.832
 20
80.1455
 30
0.0
 11
169.632
 21
80.1455
 31
0.0
  0
LINE
  8
0
 62
     0
 10
169.632
 20
80.1455
 30
0.0
 11
169.632
 21
82.9952
 31
0.0
  0
LINE
  8
0
 62
     0
 10
169.632
 20
82.9952
 30
0.0
 11
168.832
 21
82.9952
 31
0.0
  0
LINE
  8
0
 62
     0
 10
168.832
 20
82.9952
 30
0.0
 11
168.832
 21
89.0446
 31
0.0
  0
LINE
  8
0
 62
     0
 10
168.832
 20
89.0446
 30
0.0
 11
169.632
 21
89.0446
 31
0.0
  0
LINE
  8
0
 62
     0
 10
169.632
 20
89.0446
 30
0.0
 11
169.632
 21
91.8958
 31
0.0
  0
LINE
  8
0
 62
     0
 10
169.632
 20
91.8958
 30
0.0
 11
168.832
 21
91.8958
 31
0.0
  0
LINE
  8
0
 62
     0
 10
168.832
 20
91.8958
 30
0.0
 11
168.832
 21
92.8949
 31
0.0
  0
LINE
  8
0
 62
     0
 10
168.832
 20
92.8949
 30
0.0
 11
155.082
 21
92.8949
 31
0.0
  0
LINE
  8
0
 62
     0
 10
174.133
 20
92.8949
 30
0.0
 11
174.133
 21
91.8958
 31
0.0
  0
LINE
  8
0
 62
     0
 10
174.133
 20
91.8958
 30
0.0
 11
173.331
 21
91.8958
 31
0.0
  0
LINE
  8
0
 62
     0
 10
173.331
 20
91.8958
 30
0.0
 11
173.331
 21
89.0446
 31
0.0
  0
LINE
  8
0
 62
     0
 10
173.331
 20
89.0446
 30
0.0
 11
174.133
 21
89.0446
 31
0.0
  0
LINE
  8
0
 62
     0
 10
174.133
 20
89.0446
 30
0.0
 11
174.133
 21
82.9952
 31
0.0
  0
LINE
  8
0
 62
     0
 10
174.133
 20
82.9952
 30
0.0
 11
173.331
 21
82.9952
 31
0.0
  0
LINE
  8
0
 62
     0
 10
173.331
 20
82.9952
 30
0.0
 11
173.331
 21
80.1455
 31
0.0
  0
LINE
  8
0
 62
     0
 10
173.331
 20
80.1455
 30
0.0
 11
174.133
 21
80.1455
 31
0.0
  0
LINE
  8
0
 62
     0
 10
174.133
 20
80.1455
 30
0.0
 11
174.133
 21
79.145
 31
0.0
  0
LINE
  8
0
 62
     0
 10
174.133
 20
79.145
 30
0.0
 11
187.883
 21
79.145
 31
0.0
  0
LINE
  8
0
 62
     0
 10
187.883
 20
79.145
 30
0.0
 11
187.883
 21
80.1455
 31
0.0
  0
LINE
  8
0
 62
     0
 10
187.883
 20
80.1455
 30
0.0
 11
188.681
 21
80.1455
 31
0.0
  0
LINE
  8
0
 62
     0
 10
188.681
 20
80.1455
 30
0.0
 11
188.681
 21
82.9952
 31
0.0
  0
LINE
  8
0
 62
     0
 10
188.681
 20
82.9952
 30
0.0
 11
187.883
 21
82.9952
 31
0.0
  0
LINE
  8
0
 62
     0
 10
187.883
 20
82.9952
 30
0.0
 11
187.883
 21
89.0446
 31
0.0
  0
LINE
  8
0
 62
     0
 10
187.883
 20
89.0446
 30
0.0
 11
188.681
 21
89.0446
 31
0.0
  0
LINE
  8
0
 62
     0
 10
188.681
 20
89.0446
 30
0.0
 11
188.681
 21
91.8958
 31
0.0
  0
LINE
  8
0
 62
     0
 10
188.681
 20
91.8958
 30
0.0
 11
187.883
 21
91.8958
 31
0.0
  0
LINE
  8
0
 62
     0
 10
187.883
 20
91.8958
 30
0.0
 11
187.883
 21
92.8949
 31
0.0
  0
LINE
  8
0
 62
     0
 10
187.883
 20
92.8949
 30
0.0
 11
174.133
 21
92.8949
 31
0.0
  0
LINE
  8
0
 62
     0
 10
193.182
 20
92.8949
 30
0.0
 11
193.182
 21
91.8958
 31
0.0
  0
LINE
  8
0
 62
     0
 10
193.182
 20
91.8958
 30
0.0
 11
192.382
 21
91.8958
 31
0.0
  0
LINE
  8
0
 62
     0
 10
192.382
 20
91.8958
 30
0.0
 11
192.382
 21
89.0446
 31
0.0
  0
LINE
  8
0
 62
     0
 10
192.382
 20
89.0446
 30
0.0
 11
193.182
 21
89.0446
 31
0.0
  0
LINE
  8
0
 62
     0
 10
193.182
 20
89.0446
 30
0.0
 11
193.182
 21
82.9952
 31
0.0
  0
LINE
  8
0
 62
     0
 10
193.182
 20
82.9952
 30
0.0
 11
192.382
 21
82.9952
 31
0.0
  0
LINE
  8
0
 62
     0
 10
192.382
 20
82.9952
 30
0.0
 11
192.382
 21
80.1455
 31
0.0
  0
LINE
  8
0
 62
     0
 10
192.382
 20
80.1455
 30
0.0
 11
193.182
 21
80.1455
 31
0.0
  0
LINE
  8
0
 62
     0
 10
193.182
 20
80.1455
 30
0.0
 11
193.182
 21
79.145
 31
0.0
  0
LINE
  8
0
 62
     0
 10
193.182
 20
79.145
 30
0.0
 11
206.932
 21
79.145
 31
0.0
  0
LINE
  8
0
 62
     0
 10
206.932
 20
79.145
 30
0.0
 11
206.932
 21
80.1455
 31
0.0
  0
LINE
  8
0
 62
     0
 10
206.932
 20
80.1455
 30
0.0
 11
207.732
 21
80.1455
 31
0.0
  0
LINE
  8
0
 62
     0
 10
207.732
 20
80.1455
 30
0.0
 11
207.732
 21
82.9952
 31
0.0
  0
LINE
  8
0
 62
     0
 10
207.732
 20
82.9952
 30
0.0
 11
206.932
 21
82.9952
 31
0.0
  0
LINE
  8
0
 62
     0
 10
206.932
 20
82.9952
 30
0.0
 11
206.932
 21
89.0446
 31
0.0
  0
LINE
  8
0
 62
     0
 10
206.932
 20
89.0446
 30
0.0
 11
207.732
 21
89.0446
 31
0.0
  0
LINE
  8
0
 62
     0
 10
207.732
 20
89.0446
 30
0.0
 11
207.732
 21
91.8958
 31
0.0
  0
LINE
  8
0
 62
     0
 10
207.732
 20
91.8958
 30
0.0
 11
206.932
 21
91.8958
 31
0.0
  0
LINE
  8
0
 62
     0
 10
206.932
 20
91.8958
 30
0.0
 11
206.932
 21
92.8949
 31
0.0
  0
LINE
  8
0
 62
     0
 10
206.932
 20
92.8949
 30
0.0
 11
193.182
 21
92.8949
 31
0.0
  0
LINE
  8
0
 62
     0
 10
212.233
 20
92.8949
 30
0.0
 11
212.233
 21
91.8958
 31
0.0
  0
LINE
  8
0
 62
     0
 10
212.233
 20
91.8958
 30
0.0
 11
211.431
 21
91.8958
 31
0.0
  0
LINE
  8
0
 62
     0
 10
211.431
 20
91.8958
 30
0.0
 11
211.431
 21
89.0446
 31
0.0
  0
LINE
  8
0
 62
     0
 10
211.431
 20
89.0446
 30
0.0
 11
212.233
 21
89.0446
 31
0.0
  0
LINE
  8
0
 62
     0
 10
212.233
 20
89.0446
 30
0.0
 11
212.233
 21
82.9952
 31
0.0
  0
LINE
  8
0
 62
     0
 10
212.233
 20
82.9952
 30
0.0
 11
211.431
 21
82.9952
 31
0.0
  0
LINE
  8
0
 62
     0
 10
211.431
 20
82.9952
 30
0.0
 11
211.431
 21
80.1455
 31
0.0
  0
LINE
  8
0
 62
     0
 10
211.431
 20
80.1455
 30
0.0
 11
212.233
 21
80.1455
 31
0.0
  0
LINE
  8
0
 62
     0
 10
212.233
 20
80.1455
 30
0.0
 11
212.233
 21
79.145
 31
0.0
  0
LINE
  8
0
 62
     0
 10
212.233
 20
79.145
 30
0.0
 11
225.983
 21
79.145
 31
0.0
  0
LINE
  8
0
 62
     0
 10
225.983
 20
79.145
 30
0.0
 11
225.983
 21
80.1455
 31
0.0
  0
LINE
  8
0
 62
     0
 10
225.983
 20
80.1455
 30
0.0
 11
226.782
 21
80.1455
 31
0.0
  0
LINE
  8
0
 62
     0
 10
226.782
 20
80.1455
 30
0.0
 11
226.782
 21
82.9952
 31
0.0
  0
LINE
  8
0
 62
     0
 10
226.782
 20
82.9952
 30
0.0
 11
225.983
 21
82.9952
 31
0.0
  0
LINE
  8
0
 62
     0
 10
225.983
 20
82.9952
 30
0.0
 11
225.983
 21
89.0446
 31
0.0
  0
LINE
  8
0
 62
     0
 10
225.983
 20
89.0446
 30
0.0
 11
226.782
 21
89.0446
 31
0.0
  0
LINE
  8
0
 62
     0
 10
226.782
 20
89.0446
 30
0.0
 11
226.782
 21
91.8958
 31
0.0
  0
LINE
  8
0
 62
     0
 10
226.782
 20
91.8958
 30
0.0
 11
225.983
 21
91.8958
 31
0.0
  0
LINE
  8
0
 62
     0
 10
225.983
 20
91.8958
 30
0.0
 11
225.983
 21
92.8949
 31
0.0
  0
LINE
  8
0
 62
     0
 10
225.983
 20
92.8949
 30
0.0
 11
212.233
 21
92.8949
 31
0.0
  0
LINE
  8
0
 62
     0
 10
231.283
 20
92.8949
 30
0.0
 11
231.283
 21
91.8958
 31
0.0
  0
LINE
  8
0
 62
     0
 10
231.283
 20
91.8958
 30
0.0
 11
230.482
 21
91.8958
 31
0.0
  0
LINE
  8
0
 62
     0
 10
230.482
 20
91.8958
 30
0.0
 11
230.482
 21
89.0446
 31
0.0
  0
LINE
  8
0
 62
     0
 10
230.482
 20
89.0446
 30
0.0
 11
231.283
 21
89.0446
 31
0.0
  0
LINE
  8
0
 62
     0
 10
231.283
 20
89.0446
 30
0.0
 11
231.283
 21
82.9952
 31
0.0
  0
LINE
  8
0
 62
     0
 10
231.283
 20
82.9952
 30
0.0
 11
230.482
 21
82.9952
 31
0.0
  0
LINE
  8
0
 62
     0
 10
230.482
 20
82.9952
 30
0.0
 11
230.482
 21
80.1455
 31
0.0
  0
LINE
  8
0
 62
     0
 10
230.482
 20
80.1455
 30
0.0
 11
231.283
 21
80.1455
 31
0.0
  0
LINE
  8
0
 62
     0
 10
231.283
 20
80.1455
 30
0.0
 11
231.283
 21
79.145
 31
0.0
  0
LINE
  8
0
 62
     0
 10
231.283
 20
79.145
 30
0.0
 11
245.033
 21
79.145
 31
0.0
  0
LINE
  8
0
 62
     0
 10
245.033
 20
79.145
 30
0.0
 11
245.033
 21
80.1455
 31
0.0
  0
LINE
  8
0
 62
     0
 10
245.033
 20
80.1455
 30
0.0
 11
245.831
 21
80.1455
 31
0.0
  0
LINE
  8
0
 62
     0
 10
245.831
 20
80.1455
 30
0.0
 11
245.831
 21
82.9952
 31
0.0
  0
LINE
  8
0
 62
     0
 10
245.831
 20
82.9952
 30
0.0
 11
245.033
 21
82.9952
 31
0.0
  0
LINE
  8
0
 62
     0
 10
245.033
 20
82.9952
 30
0.0
 11
245.033
 21
89.0446
 31
0.0
  0
LINE
  8
0
 62
     0
 10
245.033
 20
89.0446
 30
0.0
 11
245.831
 21
89.0446
 31
0.0
  0
LINE
  8
0
 62
     0
 10
245.831
 20
89.0446
 30
0.0
 11
245.831
 21
91.8958
 31
0.0
  0
LINE
  8
0
 62
     0
 10
245.831
 20
91.8958
 30
0.0
 11
245.033
 21
91.8958
 31
0.0
  0
LINE
  8
0
 62
     0
 10
245.033
 20
91.8958
 30
0.0
 11
245.033
 21
92.8949
 31
0.0
  0
LINE
  8
0
 62
     0
 10
245.033
 20
92.8949
 30
0.0
 11
231.283
 21
92.8949
 31
0.0
  0
LINE
  8
0
 62
     0
 10
250.332
 20
92.8949
 30
0.0
 11
250.332
 21
91.8958
 31
0.0
  0
LINE
  8
0
 62
     0
 10
250.332
 20
91.8958
 30
0.0
 11
249.532
 21
91.8958
 31
0.0
  0
LINE
  8
0
 62
     0
 10
249.532
 20
91.8958
 30
0.0
 11
249.532
 21
89.0446
 31
0.0
  0
LINE
  8
0
 62
     0
 10
249.532
 20
89.0446
 30
0.0
 11
250.332
 21
89.0446
 31
0.0
  0
LINE
  8
0
 62
     0
 10
250.332
 20
89.0446
 30
0.0
 11
250.332
 21
82.9952
 31
0.0
  0
LINE
  8
0
 62
     0
 10
250.332
 20
82.9952
 30
0.0
 11
249.532
 21
82.9952
 31
0.0
  0
LINE
  8
0
 62
     0
 10
249.532
 20
82.9952
 30
0.0
 11
249.532
 21
80.1455
 31
0.0
  0
LINE
  8
0
 62
     0
 10
249.532
 20
80.1455
 30
0.0
 11
250.332
 21
80.1455
 31
0.0
  0
LINE
  8
0
 62
     0
 10
250.332
 20
80.1455
 30
0.0
 11
250.332
 21
79.145
 31
0.0
  0
LINE
  8
0
 62
     0
 10
250.332
 20
79.145
 30
0.0
 11
264.082
 21
79.145
 31
0.0
  0
LINE
  8
0
 62
     0
 10
264.082
 20
79.145
 30
0.0
 11
264.082
 21
80.1455
 31
0.0
  0
LINE
  8
0
 62
     0
 10
264.082
 20
80.1455
 30
0.0
 11
264.881
 21
80.1455
 31
0.0
  0
LINE
  8
0
 62
     0
 10
264.881
 20
80.1455
 30
0.0
 11
264.881
 21
82.9952
 31
0.0
  0
LINE
  8
0
 62
     0
 10
264.881
 20
82.9952
 30
0.0
 11
264.082
 21
82.9952
 31
0.0
  0
LINE
  8
0
 62
     0
 10
264.082
 20
82.9952
 30
0.0
 11
264.082
 21
89.0446
 31
0.0
  0
LINE
  8
0
 62
     0
 10
264.082
 20
89.0446
 30
0.0
 11
264.881
 21
89.0446
 31
0.0
  0
LINE
  8
0
 62
     0
 10
264.881
 20
89.0446
 30
0.0
 11
264.881
 21
91.8958
 31
0.0
  0
LINE
  8
0
 62
     0
 10
264.881
 20
91.8958
 30
0.0
 11
264.082
 21
91.8958
 31
0.0
  0
LINE
  8
0
 62
     0
 10
264.082
 20
91.8958
 30
0.0
 11
264.082
 21
92.8949
 31
0.0
  0
LINE
  8
0
 62
     0
 10
264.082
 20
92.8949
 30
0.0
 11
250.332
 21
92.8949
 31
0.0
  0
LINE
  8
0
 62
     0
 10
269.382
 20
92.8949
 30
0.0
 11
269.382
 21
91.8958
 31
0.0
  0
LINE
  8
0
 62
     0
 10
269.382
 20
91.8958
 30
0.0
 11
268.581
 21
91.8958
 31
0.0
  0
LINE
  8
0
 62
     0
 10
268.581
 20
91.8958
 30
0.0
 11
268.581
 21
89.0446
 31
0.0
  0
LINE
  8
0
 62
     0
 10
268.581
 20
89.0446
 30
0.0
 11
269.382
 21
89.0446
 31
0.0
  0
LINE
  8
0
 62
     0
 10
269.382
 20
89.0446
 30
0.0
 11
269.382
 21
82.9952
 31
0.0
  0
LINE
  8
0
 62
     0
 10
269.382
 20
82.9952
 30
0.0
 11
268.581
 21
82.9952
 31
0.0
  0
LINE
  8
0
 62
     0
 10
268.581
 20
82.9952
 30
0.0
 11
268.581
 21
80.1455
 31
0.0
  0
LINE
  8
0
 62
     0
 10
268.581
 20
80.1455
 30
0.0
 11
269.382
 21
80.1455
 31
0.0
  0
LINE
  8
0
 62
     0
 10
269.382
 20
80.1455
 30
0.0
 11
269.382
 21
79.145
 31
0.0
  0
LINE
  8
0
 62
     0
 10
269.382
 20
79.145
 30
0.0
 11
283.132
 21
79.145
 31
0.0
  0
LINE
  8
0
 62
     0
 10
283.132
 20
79.145
 30
0.0
 11
283.132
 21
80.1455
 31
0.0
  0
LINE
  8
0
 62
     0
 10
283.132
 20
80.1455
 30
0.0
 11
283.931
 21
80.1455
 31
0.0
  0
LINE
  8
0
 62
     0
 10
283.931
 20
80.1455
 30
0.0
 11
283.931
 21
82.9952
 31
0.0
  0
LINE
  8
0
 62
     0
 10
283.931
 20
82.9952
 30
0.0
 11
283.132
 21
82.9952
 31
0.0
  0
LINE
  8
0
 62
     0
 10
283.132
 20
82.9952
 30
0.0
 11
283.132
 21
89.0446
 31
0.0
  0
LINE
  8
0
 62
     0
 10
283.132
 20
89.0446
 30
0.0
 11
283.931
 21
89.0446
 31
0.0
  0
LINE
  8
0
 62
     0
 10
283.931
 20
89.0446
 30
0.0
 11
283.931
 21
91.8958
 31
0.0
  0
LINE
  8
0
 62
     0
 10
283.931
 20
91.8958
 30
0.0
 11
283.132
 21
91.8958
 31
0.0
  0
LINE
  8
0
 62
     0
 10
283.132
 20
91.8958
 30
0.0
 11
283.132
 21
92.8949
 31
0.0
  0
LINE
  8
0
 62
     0
 10
283.132
 20
92.8949
 30
0.0
 11
269.382
 21
92.8949
 31
0.0
  0
ENDSEC
  0
EOF
