<?xml version="1.0" standalone="no"?>
 <!DOCTYPE svg PUBLIC "-//W3C//DTD SVG 1.1//EN" 
 "http://www.w3.org/Graphics/SVG/1.1/DTD/svg11.dtd"> 
<svg
  xmlns:svg="http://www.w3.org/2000/svg"
  xmlns="http://www.w3.org/2000/svg"
  xmlns:xlink="http://www.w3.org/1999/xlink"
  version="1.1"
  width="297.002200mm" height="210.007200mm" viewBox="0.000000 0.000000 297.002200 210.007200">
<title>SVG Image created as 2choc2flat-extmcu-ansi-User_Eco2.svg date 2024/11/04 13:04:15 </title>
  <desc>Image generated by PCBNEW </desc>
<g style="fill:#000000; fill-opacity:1.000000;stroke:#000000; stroke-opacity:1.000000;
stroke-linecap:round; stroke-linejoin:round;"
 transform="translate(0 0) scale(1 1)">
</g>
<g style="fill:#000000; fill-opacity:0.0; 
stroke:#000000; stroke-width:0.000000; stroke-opacity:1; 
stroke-linecap:round; stroke-linejoin:round;">
</g>
<g style="fill:#000000; fill-opacity:0.0; 
stroke:#000000; stroke-width:0.200000; stroke-opacity:1; 
stroke-linecap:round; stroke-linejoin:round;">
<path d="M1.525000 94.725064
L77.469000 94.725064
" />
<path d="M77.469000 79.600000
L77.469000 94.725064
" />
<path d="M84.469000 79.600000
L84.469000 89.000000
" />
<path d="M84.469000 89.000000
L177.469000 89.000000
" />
<path d="M184.469000 79.600000
L177.469000 79.600000
" />
<path d="M286.225000 55.125000
L281.500000 55.125000
" />
<path d="M-0.425000 59.125000
L-0.425000 92.725064
" />
<path d="M-0.425000 55.125000
L4.300000 55.125000
" />
<path d="M184.469000 94.725064
L284.225000 94.725064
" />
<path d="M-0.425001 92.725064 A1.975160 1.975160 0.0 0 0 1.524999 94.725064" />
<path d="M286.225000 2.525000
L286.225000 55.125000
" />
<path d="M77.469000 79.600000
L84.469000 79.600000
" />
<path d="M4.300000 59.125000 A2.000000 2.000000 0.0 0 0 4.300000 55.125000" />
<path d="M-0.425000 59.125000
L4.300000 59.125000
" />
<path d="M1.525000 0.525000 A1.975158 1.975158 0.0 0 0 -0.425000 2.525000" />
<path d="M1.525000 0.525000
L284.225000 0.525000
" />
<path d="M286.225000 59.125000
L286.225000 92.725064
" />
<path d="M177.469000 79.600000
L177.469000 89.000000
" />
<path d="M-0.425000 2.525000
L-0.425000 55.125000
" />
<path d="M281.500000 59.125000
L286.225000 59.125000
" />
<path d="M281.500000 55.125000 A2.000000 2.000000 0.0 0 0 281.500000 59.125000" />
<path d="M284.225000 94.725064 A1.999982 1.999982 0.0 0 0 286.225000 92.725064" />
<path d="M184.469000 94.725064
L184.469000 79.600000
" />
<path d="M286.225000 2.525000 A2.000000 2.000000 0.0 0 0 284.225000 0.525000" />
</g>
<g style="fill:#000000; fill-opacity:0.0; 
stroke:#000000; stroke-width:0.120000; stroke-opacity:1; 
stroke-linecap:round; stroke-linejoin:round;">
<circle cx="11.906250" cy="53.525000" r="1.502500" /> 
<circle cx="11.906250" cy="47.625000" r="2.502500" /> 
<circle cx="6.906250" cy="51.425000" r="1.502500" /> 
<circle cx="16.668750" cy="41.725000" r="1.502500" /> 
<circle cx="16.668750" cy="47.625000" r="2.502500" /> 
<circle cx="21.668750" cy="43.825000" r="1.502500" /> 
<path d="M248.818750 57.475000
L255.818750 57.475000
" />
<path d="M255.818750 57.475000
L272.818750 57.475000
" />
<path d="M279.818750 57.475000
L272.818750 57.475000
" />
<path d="M255.818750 51.475000
L272.818750 51.475000
" />
<path d="M272.818750 51.475000
L272.818750 41.475000
" />
<path d="M248.818750 41.475000
L248.818750 57.475000
" />
<path d="M248.818750 41.475000
L255.818750 41.475000
" />
<path d="M255.818750 41.475000
L255.818750 51.475000
" />
<path d="M272.818750 41.475000
L279.818750 41.475000
" />
<path d="M279.818750 41.475000
L279.818750 57.475000
" />
<circle cx="258.418750" cy="47.625000" r="1.505000" /> 
<circle cx="264.318750" cy="47.625000" r="2.500000" /> 
<circle cx="260.518750" cy="42.625000" r="1.505000" /> 
<circle cx="130.968750" cy="79.825000" r="1.502400" /> 
<circle cx="130.968750" cy="85.725000" r="2.500000" /> 
<circle cx="135.968750" cy="81.925000" r="1.502500" /> 
<circle cx="76.200000" cy="22.675000" r="1.502500" /> 
<circle cx="81.200000" cy="24.775000" r="1.502500" /> 
<circle cx="76.200000" cy="28.575000" r="2.502500" /> 
<circle cx="95.250000" cy="22.675000" r="1.502500" /> 
<circle cx="100.250000" cy="24.775000" r="1.502500" /> 
<circle cx="95.250000" cy="28.575000" r="2.502500" /> 
<circle cx="152.400000" cy="22.675000" r="1.502500" /> 
<circle cx="157.400000" cy="24.775000" r="1.502500" /> 
<circle cx="152.400000" cy="28.575000" r="2.502500" /> 
<circle cx="171.450000" cy="22.675000" r="1.502500" /> 
<circle cx="176.450000" cy="24.775000" r="1.502500" /> 
<circle cx="171.450000" cy="28.575000" r="2.502500" /> 
<circle cx="38.100000" cy="22.675000" r="1.502500" /> 
<circle cx="43.100000" cy="24.775000" r="1.502500" /> 
<circle cx="38.100000" cy="28.575000" r="2.502500" /> 
<circle cx="133.350000" cy="22.675000" r="1.502500" /> 
<circle cx="138.350000" cy="24.775000" r="1.502500" /> 
<circle cx="133.350000" cy="28.575000" r="2.502500" /> 
<circle cx="114.300000" cy="22.675000" r="1.502500" /> 
<circle cx="119.300000" cy="24.775000" r="1.502500" /> 
<circle cx="114.300000" cy="28.575000" r="2.502500" /> 
<circle cx="57.150000" cy="22.675000" r="1.502500" /> 
<circle cx="62.150000" cy="24.775000" r="1.502500" /> 
<circle cx="57.150000" cy="28.575000" r="2.502500" /> 
<circle cx="14.287500" cy="28.575000" r="2.502500" /> 
<circle cx="19.287500" cy="24.775000" r="1.502500" /> 
<circle cx="14.287500" cy="22.675000" r="1.502500" /> 
<circle cx="142.875000" cy="3.625000" r="1.502500" /> 
<circle cx="147.875000" cy="5.725000" r="1.502500" /> 
<circle cx="142.875000" cy="9.525000" r="2.502500" /> 
<circle cx="180.975000" cy="3.625000" r="1.502500" /> 
<circle cx="185.975000" cy="5.725000" r="1.502500" /> 
<circle cx="180.975000" cy="9.525000" r="2.502500" /> 
<path d="M282.200000 3.375000
L275.200000 3.375000
" />
<path d="M282.200000 3.375000
L282.200000 19.375000
" />
<path d="M275.200000 3.375000
L275.200000 17.125000
" />
<path d="M258.200000 3.375000
L251.200000 3.375000
" />
<path d="M251.200000 3.375000
L251.200000 19.375000
" />
<path d="M258.200000 17.125000
L258.200000 3.375000
" />
<path d="M258.200000 17.125000
L275.200000 17.125000
" />
<path d="M282.200000 19.375000
L275.200000 19.375000
" />
<path d="M275.200000 19.375000
L258.200000 19.375000
" />
<path d="M251.200000 19.375000
L258.200000 19.375000
" />
<circle cx="272.600000" cy="9.525000" r="1.505000" /> 
<circle cx="266.700000" cy="9.525000" r="2.505000" /> 
<circle cx="270.500000" cy="14.525000" r="1.505000" /> 
<circle cx="85.725000" cy="3.625000" r="1.502500" /> 
<circle cx="90.725000" cy="5.725000" r="1.502500" /> 
<circle cx="85.725000" cy="9.525000" r="2.502500" /> 
<circle cx="238.125000" cy="3.625000" r="1.502500" /> 
<circle cx="243.125000" cy="5.725000" r="1.502500" /> 
<circle cx="238.125000" cy="9.525000" r="2.502500" /> 
<circle cx="219.075000" cy="3.625000" r="1.502500" /> 
<circle cx="224.075000" cy="5.725000" r="1.502500" /> 
<circle cx="219.075000" cy="9.525000" r="2.502500" /> 
<circle cx="200.025000" cy="3.625000" r="1.502500" /> 
<circle cx="205.025000" cy="5.725000" r="1.502500" /> 
<circle cx="200.025000" cy="9.525000" r="2.502500" /> 
<circle cx="161.925000" cy="3.625000" r="1.502500" /> 
<circle cx="166.925000" cy="5.725000" r="1.502500" /> 
<circle cx="161.925000" cy="9.525000" r="2.502500" /> 
<circle cx="123.825000" cy="3.625000" r="1.502500" /> 
<circle cx="128.825000" cy="5.725000" r="1.502500" /> 
<circle cx="123.825000" cy="9.525000" r="2.502500" /> 
<circle cx="104.775000" cy="3.625000" r="1.502500" /> 
<circle cx="109.775000" cy="5.725000" r="1.502500" /> 
<circle cx="104.775000" cy="9.525000" r="2.502500" /> 
<circle cx="66.675000" cy="3.625000" r="1.502500" /> 
<circle cx="71.675000" cy="5.725000" r="1.502500" /> 
<circle cx="66.675000" cy="9.525000" r="2.502500" /> 
<circle cx="28.575000" cy="3.625000" r="1.502500" /> 
<circle cx="33.575000" cy="5.725000" r="1.502500" /> 
<circle cx="28.575000" cy="9.525000" r="2.502500" /> 
<circle cx="9.525000" cy="15.425000" r="1.502500" /> 
<circle cx="4.525000" cy="13.325000" r="1.502500" /> 
<circle cx="9.525000" cy="9.525000" r="2.502500" /> 
<circle cx="47.625000" cy="3.625000" r="1.502500" /> 
<circle cx="52.625000" cy="5.725000" r="1.502500" /> 
<circle cx="47.625000" cy="9.525000" r="2.502500" /> 
<circle cx="200.025000" cy="79.825000" r="1.502500" /> 
<circle cx="205.025000" cy="81.925000" r="1.502500" /> 
<circle cx="200.025000" cy="85.725000" r="2.502500" /> 
<circle cx="161.925000" cy="60.775000" r="1.502500" /> 
<circle cx="166.925000" cy="62.875000" r="1.502500" /> 
<circle cx="161.925000" cy="66.675000" r="2.502500" /> 
<circle cx="257.175210" cy="60.775056" r="1.502500" /> 
<circle cx="262.175210" cy="62.875056" r="1.502500" /> 
<circle cx="257.175210" cy="66.675056" r="2.502500" /> 
<circle cx="238.125000" cy="60.775000" r="1.502500" /> 
<circle cx="243.125000" cy="62.875000" r="1.502500" /> 
<circle cx="238.125000" cy="66.675000" r="2.502500" /> 
<circle cx="180.975000" cy="60.775000" r="1.502500" /> 
<circle cx="185.975000" cy="62.875000" r="1.502500" /> 
<circle cx="180.975000" cy="66.675000" r="2.502500" /> 
<circle cx="219.075000" cy="60.775000" r="1.502500" /> 
<circle cx="224.075000" cy="62.875000" r="1.502500" /> 
<circle cx="219.075000" cy="66.675000" r="2.502500" /> 
<circle cx="142.875000" cy="60.775000" r="1.502500" /> 
<circle cx="147.875000" cy="62.875000" r="1.502500" /> 
<circle cx="142.875000" cy="66.675000" r="2.502500" /> 
<circle cx="200.025000" cy="60.775000" r="1.502500" /> 
<circle cx="205.025000" cy="62.875000" r="1.502500" /> 
<circle cx="200.025000" cy="66.675000" r="2.502500" /> 
<circle cx="257.175000" cy="79.825072" r="1.502500" /> 
<circle cx="262.175000" cy="81.925072" r="1.502500" /> 
<circle cx="257.175000" cy="85.725072" r="2.502500" /> 
<circle cx="238.125000" cy="79.825000" r="1.502500" /> 
<circle cx="243.125000" cy="81.925000" r="1.502500" /> 
<circle cx="238.125000" cy="85.725000" r="2.502500" /> 
<circle cx="247.650000" cy="22.675000" r="1.502500" /> 
<circle cx="252.650000" cy="24.775000" r="1.502500" /> 
<circle cx="247.650000" cy="28.575000" r="2.502500" /> 
<circle cx="66.675000" cy="60.775000" r="1.502500" /> 
<circle cx="71.675000" cy="62.875000" r="1.502500" /> 
<circle cx="66.675000" cy="66.675000" r="2.502500" /> 
<circle cx="190.500000" cy="22.675000" r="1.502500" /> 
<circle cx="195.500000" cy="24.775000" r="1.502500" /> 
<circle cx="190.500000" cy="28.575000" r="2.502500" /> 
<circle cx="119.062500" cy="41.725000" r="1.502500" /> 
<circle cx="124.062500" cy="43.825000" r="1.502500" /> 
<circle cx="119.062500" cy="47.625000" r="2.502500" /> 
<circle cx="61.912500" cy="41.725000" r="1.502500" /> 
<circle cx="66.912500" cy="43.825000" r="1.502500" /> 
<circle cx="61.912500" cy="47.625000" r="2.502500" /> 
<circle cx="64.531250" cy="81.925000" r="1.502500" /> 
<circle cx="59.531250" cy="79.825000" r="1.502500" /> 
<circle cx="59.531250" cy="85.725000" r="2.502500" /> 
<circle cx="219.075000" cy="79.825000" r="1.502500" /> 
<circle cx="224.075000" cy="81.925000" r="1.502500" /> 
<circle cx="219.075000" cy="85.725000" r="2.502500" /> 
<circle cx="276.225000" cy="60.775000" r="1.502500" /> 
<circle cx="281.225000" cy="62.875000" r="1.502500" /> 
<circle cx="276.225000" cy="66.675000" r="2.502500" /> 
<circle cx="176.212500" cy="41.725000" r="1.502500" /> 
<circle cx="181.212500" cy="43.825000" r="1.502500" /> 
<circle cx="176.212500" cy="47.625000" r="2.502500" /> 
<circle cx="16.906250" cy="81.925000" r="1.502500" /> 
<circle cx="11.906250" cy="79.825000" r="1.502500" /> 
<circle cx="11.906250" cy="85.725000" r="2.502500" /> 
<circle cx="271.462500" cy="28.575000" r="2.502500" /> 
<circle cx="276.462500" cy="24.775000" r="1.502500" /> 
<circle cx="271.462500" cy="22.675000" r="1.502500" /> 
<circle cx="228.600000" cy="22.675000" r="1.502500" /> 
<circle cx="233.600000" cy="24.775000" r="1.502500" /> 
<circle cx="228.600000" cy="28.575000" r="2.502500" /> 
<circle cx="104.775000" cy="60.775000" r="1.502500" /> 
<circle cx="109.775000" cy="62.875000" r="1.502500" /> 
<circle cx="104.775000" cy="66.675000" r="2.502500" /> 
<circle cx="80.962500" cy="41.725000" r="1.502500" /> 
<circle cx="85.962500" cy="43.825000" r="1.502500" /> 
<circle cx="80.962500" cy="47.625000" r="2.502500" /> 
<circle cx="157.162500" cy="41.725000" r="1.502500" /> 
<circle cx="162.162500" cy="43.825000" r="1.502500" /> 
<circle cx="157.162500" cy="47.625000" r="2.502500" /> 
<circle cx="100.012500" cy="41.725000" r="1.502500" /> 
<circle cx="105.012500" cy="43.825000" r="1.502500" /> 
<circle cx="100.012500" cy="47.625000" r="2.502500" /> 
<circle cx="42.862500" cy="41.725000" r="1.502500" /> 
<circle cx="47.862500" cy="43.825000" r="1.502500" /> 
<circle cx="42.862500" cy="47.625000" r="2.502500" /> 
<circle cx="195.262500" cy="41.725000" r="1.502500" /> 
<circle cx="200.262500" cy="43.825000" r="1.502500" /> 
<circle cx="195.262500" cy="47.625000" r="2.502500" /> 
<path d="M3.550000 76.525000
L3.550000 60.525000
" />
<path d="M10.550000 76.525000
L27.550000 76.525000
" />
<path d="M34.550000 76.525000
L27.550000 76.525000
" />
<path d="M27.550000 70.525000
L27.550000 60.525000
" />
<path d="M27.550000 60.525000
L34.550000 60.525000
" />
<path d="M10.550000 60.525000
L10.550000 70.525000
" />
<path d="M10.550000 76.525000
L3.550000 76.525000
" />
<path d="M3.550000 60.525000
L10.550000 60.525000
" />
<path d="M34.550000 60.525000
L34.550000 76.525000
" />
<path d="M10.550000 70.525000
L27.550000 70.525000
" />
<circle cx="15.250000" cy="61.675000" r="1.502500" /> 
<circle cx="19.050000" cy="66.675000" r="2.502500" /> 
<circle cx="13.150000" cy="66.675000" r="1.502500" /> 
<circle cx="233.362500" cy="41.725000" r="1.502500" /> 
<circle cx="238.362500" cy="43.825000" r="1.502500" /> 
<circle cx="233.362500" cy="47.625000" r="2.502500" /> 
<circle cx="209.550000" cy="22.675000" r="1.502500" /> 
<circle cx="214.550000" cy="24.775000" r="1.502500" /> 
<circle cx="209.550000" cy="28.575000" r="2.502500" /> 
<circle cx="138.112500" cy="41.725000" r="1.502500" /> 
<circle cx="143.112500" cy="43.825000" r="1.502500" /> 
<circle cx="138.112500" cy="47.625000" r="2.502500" /> 
<circle cx="123.825000" cy="60.775000" r="1.502500" /> 
<circle cx="128.825000" cy="62.875000" r="1.502500" /> 
<circle cx="123.825000" cy="66.675000" r="2.502500" /> 
<circle cx="40.718750" cy="81.925000" r="1.502500" /> 
<circle cx="35.718750" cy="79.825000" r="1.502500" /> 
<circle cx="35.718750" cy="85.725000" r="2.502500" /> 
<circle cx="85.725000" cy="60.775000" r="1.502500" /> 
<circle cx="90.725000" cy="62.875000" r="1.502500" /> 
<circle cx="85.725000" cy="66.675000" r="2.502500" /> 
</g>
<g style="fill:#000000; fill-opacity:0.0; 
stroke:#000000; stroke-width:0.200000; stroke-opacity:1; 
stroke-linecap:round; stroke-linejoin:round;">
<circle cx="260.425000" cy="28.227050" r="2.750000" /> 
<circle cx="25.600000" cy="28.575024" r="2.750000" /> 
<circle cx="128.587608" cy="47.425040" r="2.450000" /> 
<circle cx="190.500160" cy="85.525000" r="2.750000" /> 
</g>
<g style="fill:#000000; fill-opacity:0.0; 
stroke:#000000; stroke-width:0.120000; stroke-opacity:1; 
stroke-linecap:round; stroke-linejoin:round;">
<circle cx="276.225000" cy="79.825072" r="1.502500" /> 
<circle cx="281.225000" cy="81.925072" r="1.502500" /> 
<circle cx="276.225000" cy="85.725072" r="2.502500" /> 
<circle cx="214.312500" cy="41.725000" r="1.502500" /> 
<circle cx="219.312500" cy="43.825000" r="1.502500" /> 
<circle cx="214.312500" cy="47.625000" r="2.502500" /> 
<circle cx="47.625000" cy="60.775000" r="1.502500" /> 
<circle cx="52.625000" cy="62.875000" r="1.502500" /> 
<circle cx="47.625000" cy="66.675000" r="2.502500" /> 
<path d="M10.964000 42.506000
L9.864000 42.506000
" />
<path d="M10.964000 40.806000
L9.864000 40.806000
" />
<path d="M10.964000 42.506000 A0.879985 0.879985 0.0 0 0 10.964000 40.806000" />
<path d="M9.864000 40.806000 A0.879985 0.879985 0.0 0 0 9.864000 42.506000" />
<path d="M17.738000 52.744000
L18.838000 52.744000
" />
<path d="M17.738000 54.444000
L18.838000 54.444000
" />
<path d="M17.738000 52.744000 A0.879985 0.879985 0.0 0 0 17.738000 54.444000" />
<path d="M18.838000 54.444000 A0.879985 0.879985 0.0 0 0 18.838000 52.744000" />
<g >
</g>
<g >
</g>
<g >
</g>
<g >
</g>
<g >
</g>
<g >
</g>
<g >
</g>
<g >
</g>
<g >
</g>
<g >
</g>
<g >
</g>
<g >
</g>
<g >
</g>
<g >
</g>
<g >
</g>
<g >
</g>
<g >
</g>
<g >
</g>
<g >
</g>
<g >
</g>
<g >
</g>
<g >
</g>
<g >
</g>
<g >
</g>
<g >
</g>
<g >
</g>
<g >
</g>
<g >
</g>
<g >
</g>
<g >
</g>
<g >
</g>
<g >
</g>
<g >
</g>
<g >
</g>
<g >
</g>
<g >
</g>
<g >
</g>
<g >
</g>
<g >
</g>
<g >
</g>
<g >
</g>
<g >
</g>
<g >
</g>
<g >
</g>
<g >
</g>
<g >
</g>
<g >
</g>
<g >
</g>
<g >
</g>
<g >
</g>
<g >
</g>
<g >
</g>
<g >
</g>
<g >
</g>
<g >
</g>
<g >
</g>
<g >
</g>
<g >
</g>
<g >
</g>
<g >
</g>
<g >
</g>
<g >
</g>
<g >
</g>
<g >
</g>
<g >
</g>
<g >
</g>
<g >
</g>
<g >
</g>
<g >
</g>
<g >
</g>
<g >
</g>
<g >
</g>
<g >
</g>
<g >
</g>
<g >
</g>
<g >
</g>
<g >
</g>
<g >
</g>
<g >
</g>
<g >
</g>
<g >
</g>
<g >
</g>
<g >
</g>
<g >
</g>
<g >
</g>
<g >
</g>
<g >
</g>
<g >
</g>
<g >
</g>
<g >
</g>
<g >
</g>
<g >
</g>
<g >
</g>
<g >
</g>
<g >
</g>
<g >
</g>
<g >
</g>
<g >
</g>
<g >
</g>
<g >
</g>
<g >
</g>
<g >
</g>
<g >
</g>
<g >
</g>
<g >
</g>
<g >
</g>
<g >
</g>
<g >
</g>
<g >
</g>
<g >
</g>
<g >
</g>
<g >
</g>
<g >
</g>
<g >
</g>
<g >
</g>
<g >
</g>
<g >
</g>
<g >
</g>
<g >
</g>
<g >
</g>
<g >
</g>
<g >
</g>
<g >
</g>
<g >
</g>
<g >
</g>
<g >
</g>
<g >
</g>
<g >
</g>
<g >
</g>
<g >
</g>
<g >
</g>
<g >
</g>
<g >
</g>
<g >
</g>
<g >
</g>
<g >
</g>
<g >
</g>
<g >
</g>
<g >
</g>
<g >
</g>
<g >
</g>
<g >
</g>
<g >
</g>
</g> 
</svg>
