<?xml version="1.0" standalone="no"?>
 <!DOCTYPE svg PUBLIC "-//W3C//DTD SVG 1.1//EN" 
 "http://www.w3.org/Graphics/SVG/1.1/DTD/svg11.dtd"> 
<svg
  xmlns:svg="http://www.w3.org/2000/svg"
  xmlns="http://www.w3.org/2000/svg"
  xmlns:xlink="http://www.w3.org/1999/xlink"
  version="1.1"
  width="297.002200mm" height="210.007200mm" viewBox="0.000000 0.000000 297.002200 210.007200">
<title>SVG Image created as 2choc2flat-extmcu-iso-rgb-User_Eco1.svg date 2024/10/09 20:56:05 </title>
  <desc>Image generated by PCBNEW </desc>
<g style="fill:#000000; fill-opacity:1.000000;stroke:#000000; stroke-opacity:1.000000;
stroke-linecap:round; stroke-linejoin:round;"
 transform="translate(0 0) scale(1 1)">
</g>
<g style="fill:#000000; fill-opacity:0.0; 
stroke:#000000; stroke-width:0.000000; stroke-opacity:1; 
stroke-linecap:round; stroke-linejoin:round;">
</g>
<g style="fill:#000000; fill-opacity:0.0; 
stroke:#000000; stroke-width:0.200000; stroke-opacity:1; 
stroke-linecap:round; stroke-linejoin:round;">
<path d="M286.225000 2.525000
L286.225000 55.125000
" />
<path d="M-0.425000 55.125000
L4.300000 55.125000
" />
<path d="M281.500000 55.125000 A2.000000 2.000000 0.0 0 0 281.500000 59.125000" />
<path d="M286.225000 2.525000 A2.000000 2.000000 0.0 0 0 284.225000 0.525000" />
<path d="M184.469000 79.600000
L177.469000 79.600000
" />
<path d="M184.469000 95.725064
L284.225000 95.725064
" />
<path d="M84.469000 78.475000
L177.469000 78.475000
" />
<path d="M286.225000 55.125000
L281.500000 55.125000
" />
<path d="M84.469000 79.600000
L84.469000 78.475000
" />
<path d="M177.469000 79.600000
L177.469000 78.475000
" />
<path d="M286.225000 59.125000
L286.225000 93.725064
" />
<path d="M-0.425001 93.725064 A1.975160 1.975160 0.0 0 0 1.524999 95.725064" />
<path d="M1.525000 0.525000 A1.975158 1.975158 0.0 0 0 -0.425000 2.525000" />
<path d="M-0.425000 59.125000
L-0.425000 93.725064
" />
<path d="M-0.425000 59.125000
L4.300000 59.125000
" />
<path d="M1.525000 0.525000
L284.225000 0.525000
" />
<path d="M77.469000 79.600000
L84.469000 79.600000
" />
<path d="M184.469000 95.725064
L184.469000 79.600000
" />
<path d="M1.525000 95.725064
L77.469000 95.725064
" />
<path d="M281.500000 59.125000
L286.225000 59.125000
" />
<path d="M284.225000 95.725064 A1.999982 1.999982 0.0 0 0 286.225000 93.725064" />
<path d="M4.300000 59.125000 A2.000000 2.000000 0.0 0 0 4.300000 55.125000" />
<path d="M77.469000 79.600000
L77.469000 95.725064
" />
<path d="M-0.425000 2.525000
L-0.425000 55.125000
" />
</g>
<g style="fill:#000000; fill-opacity:0.0; 
stroke:#000000; stroke-width:0.100000; stroke-opacity:1; 
stroke-linecap:round; stroke-linejoin:round;">
<path d="M68.950000 35.825000
L83.450000 35.825000
" />
<path d="M83.450000 21.325000
L68.950000 21.325000
" />
<path d="M68.950000 21.325000
L68.950000 35.825000
" />
<path d="M83.450000 35.825000
L83.450000 21.325000
" />
<path d="M88.000000 35.825000
L102.500000 35.825000
" />
<path d="M102.500000 21.325000
L88.000000 21.325000
" />
<path d="M88.000000 21.325000
L88.000000 35.825000
" />
<path d="M102.500000 35.825000
L102.500000 21.325000
" />
<path d="M145.150000 35.825000
L159.650000 35.825000
" />
<path d="M159.650000 21.325000
L145.150000 21.325000
" />
<path d="M145.150000 21.325000
L145.150000 35.825000
" />
<path d="M159.650000 35.825000
L159.650000 21.325000
" />
<path d="M164.200000 35.825000
L178.700000 35.825000
" />
<path d="M178.700000 21.325000
L164.200000 21.325000
" />
<path d="M164.200000 21.325000
L164.200000 35.825000
" />
<path d="M178.700000 35.825000
L178.700000 21.325000
" />
<path d="M30.850000 35.825000
L45.350000 35.825000
" />
<path d="M45.350000 21.325000
L30.850000 21.325000
" />
<path d="M30.850000 21.325000
L30.850000 35.825000
" />
<path d="M45.350000 35.825000
L45.350000 21.325000
" />
<path d="M126.100000 35.825000
L140.600000 35.825000
" />
<path d="M140.600000 21.325000
L126.100000 21.325000
" />
<path d="M126.100000 21.325000
L126.100000 35.825000
" />
<path d="M140.600000 35.825000
L140.600000 21.325000
" />
<path d="M107.050000 35.825000
L121.550000 35.825000
" />
<path d="M121.550000 21.325000
L107.050000 21.325000
" />
<path d="M107.050000 21.325000
L107.050000 35.825000
" />
<path d="M121.550000 35.825000
L121.550000 21.325000
" />
<path d="M49.900000 35.825000
L64.400000 35.825000
" />
<path d="M64.400000 21.325000
L49.900000 21.325000
" />
<path d="M49.900000 21.325000
L49.900000 35.825000
" />
<path d="M64.400000 35.825000
L64.400000 21.325000
" />
<path d="M7.037500 35.825000
L21.537500 35.825000
" />
<path d="M21.537500 21.325000
L7.037500 21.325000
" />
<path d="M21.537500 35.825000
L21.537500 21.325000
" />
<path d="M7.037500 21.325000
L7.037500 35.825000
" />
<path d="M135.625000 16.775000
L150.125000 16.775000
" />
<path d="M150.125000 2.275000
L135.625000 2.275000
" />
<path d="M135.625000 2.275000
L135.625000 16.775000
" />
<path d="M150.125000 16.775000
L150.125000 2.275000
" />
<path d="M173.725000 16.775000
L188.225000 16.775000
" />
<path d="M188.225000 2.275000
L173.725000 2.275000
" />
<path d="M173.725000 2.275000
L173.725000 16.775000
" />
<path d="M188.225000 16.775000
L188.225000 2.275000
" />
<path d="M249.925000 16.775000
L264.425000 16.775000
" />
<path d="M264.425000 2.275000
L249.925000 2.275000
" />
<path d="M249.925000 2.275000
L249.925000 16.775000
" />
<path d="M264.425000 16.775000
L264.425000 2.275000
" />
<path d="M78.475000 16.775000
L92.975000 16.775000
" />
<path d="M92.975000 2.275000
L78.475000 2.275000
" />
<path d="M78.475000 2.275000
L78.475000 16.775000
" />
<path d="M92.975000 16.775000
L92.975000 2.275000
" />
<path d="M230.875000 16.775000
L245.375000 16.775000
" />
<path d="M245.375000 2.275000
L230.875000 2.275000
" />
<path d="M230.875000 2.275000
L230.875000 16.775000
" />
<path d="M245.375000 16.775000
L245.375000 2.275000
" />
<path d="M211.825000 16.775000
L226.325000 16.775000
" />
<path d="M226.325000 2.275000
L211.825000 2.275000
" />
<path d="M211.825000 2.275000
L211.825000 16.775000
" />
<path d="M226.325000 16.775000
L226.325000 2.275000
" />
<path d="M192.775000 16.775000
L207.275000 16.775000
" />
<path d="M207.275000 2.275000
L192.775000 2.275000
" />
<path d="M192.775000 2.275000
L192.775000 16.775000
" />
<path d="M207.275000 16.775000
L207.275000 2.275000
" />
<path d="M154.675000 16.775000
L169.175000 16.775000
" />
<path d="M169.175000 2.275000
L154.675000 2.275000
" />
<path d="M154.675000 2.275000
L154.675000 16.775000
" />
<path d="M169.175000 16.775000
L169.175000 2.275000
" />
<path d="M116.575000 16.775000
L131.075000 16.775000
" />
<path d="M131.075000 2.275000
L116.575000 2.275000
" />
<path d="M116.575000 2.275000
L116.575000 16.775000
" />
<path d="M131.075000 16.775000
L131.075000 2.275000
" />
<path d="M97.525000 16.775000
L112.025000 16.775000
" />
<path d="M112.025000 2.275000
L97.525000 2.275000
" />
<path d="M97.525000 2.275000
L97.525000 16.775000
" />
<path d="M112.025000 16.775000
L112.025000 2.275000
" />
<path d="M59.425000 16.775000
L73.925000 16.775000
" />
<path d="M73.925000 2.275000
L59.425000 2.275000
" />
<path d="M59.425000 2.275000
L59.425000 16.775000
" />
<path d="M73.925000 16.775000
L73.925000 2.275000
" />
<path d="M21.325000 16.775000
L35.825000 16.775000
" />
<path d="M35.825000 2.275000
L21.325000 2.275000
" />
<path d="M21.325000 2.275000
L21.325000 16.775000
" />
<path d="M35.825000 16.775000
L35.825000 2.275000
" />
<path d="M2.275000 16.775000
L16.775000 16.775000
" />
<path d="M16.775000 2.275000
L2.275000 2.275000
" />
<path d="M2.275000 2.275000
L2.275000 16.775000
" />
<path d="M16.775000 16.775000
L16.775000 2.275000
" />
<path d="M40.375000 16.775000
L54.875000 16.775000
" />
<path d="M54.875000 2.275000
L40.375000 2.275000
" />
<path d="M40.375000 2.275000
L40.375000 16.775000
" />
<path d="M54.875000 16.775000
L54.875000 2.275000
" />
<path d="M192.775000 92.975000
L207.275000 92.975000
" />
<path d="M207.275000 78.475000
L192.775000 78.475000
" />
<path d="M192.775000 78.475000
L192.775000 92.975000
" />
<path d="M207.275000 92.975000
L207.275000 78.475000
" />
<path d="M154.675000 73.925000
L169.175000 73.925000
" />
<path d="M169.175000 59.425000
L154.675000 59.425000
" />
<path d="M154.675000 59.425000
L154.675000 73.925000
" />
<path d="M169.175000 73.925000
L169.175000 59.425000
" />
<path d="M249.925210 73.925056
L264.425210 73.925056
" />
<path d="M264.425210 59.425056
L249.925210 59.425056
" />
<path d="M249.925210 59.425056
L249.925210 73.925056
" />
<path d="M264.425210 73.925056
L264.425210 59.425056
" />
<path d="M230.875000 73.925000
L245.375000 73.925000
" />
<path d="M245.375000 59.425000
L230.875000 59.425000
" />
<path d="M230.875000 59.425000
L230.875000 73.925000
" />
<path d="M245.375000 73.925000
L245.375000 59.425000
" />
<path d="M173.725000 73.925000
L188.225000 73.925000
" />
<path d="M188.225000 59.425000
L173.725000 59.425000
" />
<path d="M173.725000 59.425000
L173.725000 73.925000
" />
<path d="M188.225000 73.925000
L188.225000 59.425000
" />
<path d="M211.825000 73.925000
L226.325000 73.925000
" />
<path d="M226.325000 59.425000
L211.825000 59.425000
" />
<path d="M211.825000 59.425000
L211.825000 73.925000
" />
<path d="M226.325000 73.925000
L226.325000 59.425000
" />
<path d="M135.625000 73.925000
L150.125000 73.925000
" />
<path d="M150.125000 59.425000
L135.625000 59.425000
" />
<path d="M135.625000 59.425000
L135.625000 73.925000
" />
<path d="M150.125000 73.925000
L150.125000 59.425000
" />
<path d="M192.775000 73.925000
L207.275000 73.925000
" />
<path d="M207.275000 59.425000
L192.775000 59.425000
" />
<path d="M192.775000 59.425000
L192.775000 73.925000
" />
<path d="M207.275000 73.925000
L207.275000 59.425000
" />
<path d="M249.925000 92.975000
L264.425000 92.975000
" />
<path d="M264.425000 78.475000
L249.925000 78.475000
" />
<path d="M249.925000 78.475000
L249.925000 92.975000
" />
<path d="M264.425000 92.975000
L264.425000 78.475000
" />
<path d="M230.875000 92.975000
L245.375000 92.975000
" />
<path d="M245.375000 78.475000
L230.875000 78.475000
" />
<path d="M230.875000 78.475000
L230.875000 92.975000
" />
<path d="M245.375000 92.975000
L245.375000 78.475000
" />
<path d="M240.400000 35.825000
L254.900000 35.825000
" />
<path d="M254.900000 21.325000
L240.400000 21.325000
" />
<path d="M240.400000 21.325000
L240.400000 35.825000
" />
<path d="M254.900000 35.825000
L254.900000 21.325000
" />
<path d="M59.425000 73.925000
L73.925000 73.925000
" />
<path d="M73.925000 59.425000
L59.425000 59.425000
" />
<path d="M59.425000 59.425000
L59.425000 73.925000
" />
<path d="M73.925000 73.925000
L73.925000 59.425000
" />
<path d="M183.250000 35.825000
L197.750000 35.825000
" />
<path d="M197.750000 21.325000
L183.250000 21.325000
" />
<path d="M183.250000 21.325000
L183.250000 35.825000
" />
<path d="M197.750000 35.825000
L197.750000 21.325000
" />
<path d="M111.812500 54.875000
L126.312500 54.875000
" />
<path d="M126.312500 40.375000
L111.812500 40.375000
" />
<path d="M111.812500 40.375000
L111.812500 54.875000
" />
<path d="M126.312500 54.875000
L126.312500 40.375000
" />
<path d="M54.662500 54.875000
L69.162500 54.875000
" />
<path d="M69.162500 40.375000
L54.662500 40.375000
" />
<path d="M54.662500 40.375000
L54.662500 54.875000
" />
<path d="M69.162500 54.875000
L69.162500 40.375000
" />
<path d="M66.781250 78.475000
L52.281250 78.475000
" />
<path d="M66.781250 92.975000
L66.781250 78.475000
" />
<path d="M52.281250 78.475000
L52.281250 92.975000
" />
<path d="M52.281250 92.975000
L66.781250 92.975000
" />
<path d="M211.825000 92.975000
L226.325000 92.975000
" />
<path d="M226.325000 78.475000
L211.825000 78.475000
" />
<path d="M211.825000 78.475000
L211.825000 92.975000
" />
<path d="M226.325000 92.975000
L226.325000 78.475000
" />
<path d="M268.975000 73.925000
L283.475000 73.925000
" />
<path d="M283.475000 59.425000
L268.975000 59.425000
" />
<path d="M268.975000 59.425000
L268.975000 73.925000
" />
<path d="M283.475000 73.925000
L283.475000 59.425000
" />
<path d="M168.962500 54.875000
L183.462500 54.875000
" />
<path d="M183.462500 40.375000
L168.962500 40.375000
" />
<path d="M168.962500 40.375000
L168.962500 54.875000
" />
<path d="M183.462500 54.875000
L183.462500 40.375000
" />
<path d="M19.156250 78.475000
L4.656250 78.475000
" />
<path d="M19.156250 92.975000
L19.156250 78.475000
" />
<path d="M4.656250 78.475000
L4.656250 92.975000
" />
<path d="M4.656250 92.975000
L19.156250 92.975000
" />
<path d="M221.350000 35.825000
L235.850000 35.825000
" />
<path d="M235.850000 21.325000
L221.350000 21.325000
" />
<path d="M221.350000 21.325000
L221.350000 35.825000
" />
<path d="M235.850000 35.825000
L235.850000 21.325000
" />
<path d="M97.525000 73.925000
L112.025000 73.925000
" />
<path d="M112.025000 59.425000
L97.525000 59.425000
" />
<path d="M97.525000 59.425000
L97.525000 73.925000
" />
<path d="M112.025000 73.925000
L112.025000 59.425000
" />
<path d="M73.712500 54.875000
L88.212500 54.875000
" />
<path d="M88.212500 40.375000
L73.712500 40.375000
" />
<path d="M73.712500 40.375000
L73.712500 54.875000
" />
<path d="M88.212500 54.875000
L88.212500 40.375000
" />
<path d="M245.162500 54.875000
L259.662500 54.875000
" />
<path d="M259.662500 40.375000
L245.162500 40.375000
" />
<path d="M245.162500 40.375000
L245.162500 54.875000
" />
<path d="M259.662500 54.875000
L259.662500 40.375000
" />
<path d="M149.912500 54.875000
L164.412500 54.875000
" />
<path d="M164.412500 40.375000
L149.912500 40.375000
" />
<path d="M149.912500 40.375000
L149.912500 54.875000
" />
<path d="M164.412500 54.875000
L164.412500 40.375000
" />
<path d="M92.762500 54.875000
L107.262500 54.875000
" />
<path d="M107.262500 40.375000
L92.762500 40.375000
" />
<path d="M92.762500 40.375000
L92.762500 54.875000
" />
<path d="M107.262500 54.875000
L107.262500 40.375000
" />
<path d="M35.612500 54.875000
L50.112500 54.875000
" />
<path d="M50.112500 40.375000
L35.612500 40.375000
" />
<path d="M35.612500 40.375000
L35.612500 54.875000
" />
<path d="M50.112500 54.875000
L50.112500 40.375000
" />
<path d="M188.012500 54.875000
L202.512500 54.875000
" />
<path d="M202.512500 40.375000
L188.012500 40.375000
" />
<path d="M188.012500 40.375000
L188.012500 54.875000
" />
<path d="M202.512500 54.875000
L202.512500 40.375000
" />
</g>
<g style="fill:#000000; fill-opacity:0.0; 
stroke:#000000; stroke-width:0.120000; stroke-opacity:1; 
stroke-linecap:round; stroke-linejoin:round;">
<path d="M27.550000 59.425000
L10.550000 59.425000
" />
<path d="M10.550000 59.425000
L10.550000 60.525000
" />
<path d="M34.550000 60.525000
L27.550000 60.525000
" />
<path d="M34.550000 60.525000
L34.550000 76.525000
" />
<path d="M27.550000 60.525000
L27.550000 59.425000
" />
<path d="M10.550000 60.525000
L3.550000 60.525000
" />
<path d="M3.550000 60.525000
L3.550000 76.525000
" />
<path d="M34.550000 76.525000
L27.550000 76.525000
" />
<path d="M27.550000 76.525000
L10.550000 76.525000
" />
<path d="M3.550000 76.525000
L10.550000 76.525000
" />
</g>
<g style="fill:#000000; fill-opacity:0.0; 
stroke:#000000; stroke-width:0.100000; stroke-opacity:1; 
stroke-linecap:round; stroke-linejoin:round;">
<path d="M226.112500 54.875000
L240.612500 54.875000
" />
<path d="M240.612500 40.375000
L226.112500 40.375000
" />
<path d="M226.112500 40.375000
L226.112500 54.875000
" />
<path d="M240.612500 54.875000
L240.612500 40.375000
" />
<path d="M207.062500 54.875000
L221.562500 54.875000
" />
<path d="M221.562500 40.375000
L207.062500 40.375000
" />
<path d="M207.062500 40.375000
L207.062500 54.875000
" />
<path d="M221.562500 54.875000
L221.562500 40.375000
" />
<path d="M202.300000 35.825000
L216.800000 35.825000
" />
<path d="M216.800000 21.325000
L202.300000 21.325000
" />
<path d="M202.300000 21.325000
L202.300000 35.825000
" />
<path d="M216.800000 35.825000
L216.800000 21.325000
" />
<path d="M130.862500 54.875000
L145.362500 54.875000
" />
<path d="M145.362500 40.375000
L130.862500 40.375000
" />
<path d="M130.862500 40.375000
L130.862500 54.875000
" />
<path d="M145.362500 54.875000
L145.362500 40.375000
" />
<path d="M9.418750 40.375000
L9.418750 54.875000
" />
<path d="M9.418750 54.875000
L23.918750 54.875000
" />
<path d="M23.918750 54.875000
L23.918750 40.375000
" />
<path d="M23.918750 40.375000
L9.418750 40.375000
" />
<path d="M116.575000 73.925000
L131.075000 73.925000
" />
<path d="M131.075000 59.425000
L116.575000 59.425000
" />
<path d="M116.575000 59.425000
L116.575000 73.925000
" />
<path d="M131.075000 73.925000
L131.075000 59.425000
" />
<path d="M42.968750 78.475000
L28.468750 78.475000
" />
<path d="M42.968750 92.975000
L42.968750 78.475000
" />
<path d="M28.468750 78.475000
L28.468750 92.975000
" />
<path d="M28.468750 92.975000
L42.968750 92.975000
" />
<path d="M78.475000 73.925000
L92.975000 73.925000
" />
<path d="M92.975000 59.425000
L78.475000 59.425000
" />
<path d="M78.475000 59.425000
L78.475000 73.925000
" />
<path d="M92.975000 73.925000
L92.975000 59.425000
" />
</g>
<g style="fill:#000000; fill-opacity:0.0; 
stroke:#000000; stroke-width:0.200000; stroke-opacity:1; 
stroke-linecap:round; stroke-linejoin:round;">
<circle cx="260.425000" cy="28.227050" r="2.750000" /> 
<circle cx="25.600000" cy="28.575024" r="2.750000" /> 
<circle cx="128.587608" cy="47.425040" r="2.450000" /> 
<circle cx="190.500160" cy="85.525000" r="2.750000" /> 
</g>
<g style="fill:#000000; fill-opacity:0.0; 
stroke:#000000; stroke-width:0.120000; stroke-opacity:1; 
stroke-linecap:round; stroke-linejoin:round;">
<path d="M281.093980 46.600000
L281.093980 29.600000
" />
<path d="M281.093980 29.600000
L279.993980 29.600000
" />
<path d="M279.993980 53.600000
L279.993980 46.600000
" />
<path d="M279.993980 53.600000
L263.993980 53.600000
" />
<path d="M279.993980 46.600000
L281.093980 46.600000
" />
<path d="M279.993980 29.600000
L279.993980 22.600000
" />
<path d="M279.993980 22.600000
L263.993980 22.600000
" />
<path d="M263.993980 53.600000
L263.993980 46.600000
" />
<path d="M263.993980 46.600000
L263.993980 29.600000
" />
<path d="M263.993980 22.600000
L263.993980 29.600000
" />
</g>
<g style="fill:#000000; fill-opacity:0.0; 
stroke:#000000; stroke-width:0.100000; stroke-opacity:1; 
stroke-linecap:round; stroke-linejoin:round;">
<path d="M40.375000 73.925000
L54.875000 73.925000
" />
<path d="M54.875000 59.425000
L40.375000 59.425000
" />
<path d="M40.375000 59.425000
L40.375000 73.925000
" />
<path d="M54.875000 73.925000
L54.875000 59.425000
" />
<path d="M268.975000 92.975000
L283.475000 92.975000
" />
<path d="M283.475000 78.475000
L268.975000 78.475000
" />
<path d="M268.975000 78.475000
L268.975000 92.975000
" />
<path d="M283.475000 92.975000
L283.475000 78.475000
" />
<path d="M268.975000 16.775000
L283.475000 16.775000
" />
<path d="M283.475000 2.275000
L268.975000 2.275000
" />
<path d="M268.975000 2.275000
L268.975000 16.775000
" />
<path d="M283.475000 16.775000
L283.475000 2.275000
" />
<g >
</g>
<g >
</g>
<g >
</g>
<g >
</g>
<g >
</g>
<g >
</g>
<g >
</g>
<g >
</g>
<g >
</g>
<g >
</g>
<g >
</g>
<g >
</g>
<g >
</g>
<g >
</g>
<g >
</g>
<g >
</g>
<g >
</g>
<g >
</g>
<g >
</g>
<g >
</g>
<g >
</g>
<g >
</g>
<g >
</g>
<g >
</g>
<g >
</g>
<g >
</g>
<g >
</g>
<g >
</g>
<g >
</g>
<g >
</g>
<g >
</g>
<g >
</g>
<g >
</g>
<g >
</g>
<g >
</g>
<g >
</g>
<g >
</g>
<g >
</g>
<g >
</g>
<g >
</g>
<g >
</g>
<g >
</g>
<g >
</g>
<g >
</g>
<g >
</g>
<g >
</g>
<g >
</g>
<g >
</g>
<g >
</g>
<g >
</g>
<g >
</g>
<g >
</g>
<g >
</g>
<g >
</g>
<g >
</g>
<g >
</g>
<g >
</g>
<g >
</g>
<g >
</g>
<g >
</g>
<g >
</g>
<g >
</g>
<g >
</g>
<g >
</g>
<g >
</g>
<g >
</g>
<g >
</g>
<g >
</g>
<g >
</g>
<g >
</g>
<g >
</g>
<g >
</g>
<g >
</g>
<g >
</g>
<g >
</g>
<g >
</g>
<g >
</g>
<g >
</g>
<g >
</g>
<g >
</g>
<g >
</g>
<g >
</g>
<g >
</g>
<g >
</g>
<g >
</g>
<g >
</g>
<g >
</g>
<g >
</g>
<g >
</g>
<g >
</g>
<g >
</g>
<g >
</g>
<g >
</g>
<g >
</g>
<g >
</g>
<g >
</g>
<g >
</g>
<g >
</g>
<g >
</g>
<g >
</g>
<g >
</g>
<g >
</g>
<g >
</g>
<g >
</g>
<g >
</g>
<g >
</g>
<g >
</g>
<g >
</g>
<g >
</g>
<g >
</g>
<g >
</g>
<g >
</g>
<g >
</g>
<g >
</g>
<g >
</g>
<g >
</g>
<g >
</g>
<g >
</g>
<g >
</g>
<g >
</g>
<g >
</g>
<g >
</g>
<g >
</g>
<g >
</g>
<g >
</g>
<g >
</g>
<g >
</g>
<g >
</g>
<g >
</g>
<g >
</g>
<g >
</g>
<g >
</g>
<g >
</g>
<g >
</g>
<g >
</g>
<g >
</g>
<g >
</g>
<g >
</g>
<g >
</g>
<g >
</g>
<g >
</g>
<g >
</g>
<g >
</g>
<g >
</g>
<g >
</g>
<g >
</g>
<g >
</g>
<g >
</g>
<g >
</g>
<g >
</g>
<g >
</g>
<g >
</g>
<g >
</g>
<g >
</g>
<g >
</g>
<g >
</g>
<g >
</g>
<g >
</g>
<g >
</g>
<g >
</g>
<g >
</g>
<g >
</g>
<g >
</g>
<g >
</g>
<g >
</g>
<g >
</g>
<g >
</g>
<g >
</g>
<g >
</g>
<g >
</g>
<g >
</g>
<g >
</g>
<g >
</g>
<g >
</g>
<g >
</g>
<g >
</g>
<g >
</g>
<g >
</g>
<g >
</g>
<g >
</g>
<g >
</g>
<g >
</g>
<g >
</g>
<g >
</g>
<g >
</g>
<g >
</g>
<g >
</g>
<g >
</g>
<g >
</g>
<g >
</g>
<g >
</g>
<g >
</g>
<g >
</g>
<g >
</g>
<g >
</g>
<g >
</g>
<g >
</g>
<g >
</g>
<g >
</g>
<g >
</g>
<g >
</g>
<g >
</g>
<g >
</g>
<g >
</g>
<g >
</g>
<g >
</g>
<g >
</g>
<g >
</g>
<g >
</g>
<g >
</g>
<g >
</g>
<g >
</g>
<g >
</g>
<g >
</g>
<g >
</g>
<g >
</g>
<g >
</g>
<g >
</g>
<g >
</g>
<g >
</g>
<g >
</g>
<g >
</g>
<g >
</g>
</g> 
</svg>
