<?xml version="1.0" standalone="no"?>
 <!DOCTYPE svg PUBLIC "-//W3C//DTD SVG 1.1//EN" 
 "http://www.w3.org/Graphics/SVG/1.1/DTD/svg11.dtd"> 
<svg
  xmlns:svg="http://www.w3.org/2000/svg"
  xmlns="http://www.w3.org/2000/svg"
  xmlns:xlink="http://www.w3.org/1999/xlink"
  version="1.1"
  width="29.700220cm" height="21.000720cm" viewBox="0 0 11693000 8268000">
<title>SVG Picture created as 2choc2flat-extmcu-iso-User_Eco2.svg date 2024/10/01 15:16:40 </title>
  <desc>Picture generated by PCBNEW </desc>
<g style="fill:#000000; fill-opacity:1.000000;stroke:#000000; stroke-opacity:1.000000;
stroke-linecap:round; stroke-linejoin:round;"
 transform="translate(0 0) scale(1 1)">
</g>
<g style="fill:#000000; fill-opacity:0.0; 
stroke:#000000; stroke-width:0.000000; stroke-opacity:1; 
stroke-linecap:round; stroke-linejoin:round;">
</g>
<g style="fill:#000000; fill-opacity:0.0; 
stroke:#000000; stroke-width:7874.015748; stroke-opacity:1; 
stroke-linecap:round; stroke-linejoin:round;">
<path d="M5015748 3503937
L6986968 3503937
" />
<path d="M5015748.039153 3503937.004702 A61257.440945 61257.440945 0.0 0 0 4902559.047461 3503937.004702" />
<path d="M60039 3768703
L3049960 3768703
" />
<path d="M3049960 3133858
L3049960 3768703
" />
<path d="M3325551 3133858
L3325551 3503937
" />
<path d="M3325551 3503937
L4902559 3503937
" />
<path d="M7262559 3133858
L6986968 3133858
" />
<path d="M11268700 2170275
L11082677 2170275
" />
<path d="M-16732 2327755
L-16732 3689963
" />
<path d="M-16732 2170275
L169291 2170275
" />
<path d="M7262559 3768703
L11189960 3768703
" />
<path d="M-16732.274744 3689963.149717 A77762.125984 77762.125984 0.0 0 0 60039.370189 3768703.298366" />
<path d="M11268700 99409
L11268700 2170275
" />
<path d="M3049960 3133858
L3325551 3133858
" />
<path d="M169291.338583 2327755.905512 A78740.157480 78740.157480 0.0 0 0 169291.338583 2170275.590551" />
<path d="M-16732 2327755
L169291 2327755
" />
<path d="M60039.370189 20669.300059 A77762.125984 77762.125984 0.0 0 0 -16732.274744 99409.448709" />
<path d="M60039 20669
L11189960 20669
" />
<path d="M11268700 2327755
L11268700 3689963
" />
<path d="M6986968 3133858
L6986968 3503937
" />
<path d="M-16732 99409
L-16732 2170275
" />
<path d="M11082677 2327755
L11268700 2327755
" />
<path d="M11082677.165354 2170275.590551 A78740.157480 78740.157480 0.0 0 0 11082677.165354 2327755.905512" />
<path d="M11189960.629921 3768703.307087 A78740.118110 78740.118110 0.0 0 0 11268700.787402 3689963.149606" />
<path d="M7262559 3768703
L7262559 3133858
" />
<path d="M11268700.787402 99409.448819 A78740.118110 78740.118110 0.0 0 0 11189960.629921 20669.291339" />
</g>
<g style="fill:#000000; fill-opacity:0.0; 
stroke:#000000; stroke-width:4724.409449; stroke-opacity:1; 
stroke-linecap:round; stroke-linejoin:round;">
<circle cx="5156250.000000" cy="3375000.000000" r="98425.196850" /> 
<path d="M10808070 3121850
L10808070 3239960
" />
<path d="M10941929 3239960
L10941929 3121850
" />
<path d="M10941929 3121850
L10808070 3121850
" />
<path d="M10808070 3239960
L10941929 3239960
" />
<path d="M10058079 3121850
L10058079 3239960
" />
<path d="M10191937 3239960
L10191937 3121850
" />
<path d="M10191937 3121850
L10058079 3121850
" />
<path d="M10058079 3239960
L10191937 3239960
" />
<path d="M9308070 3121850
L9308070 3239960
" />
<path d="M9441929 3239960
L9441929 3121850
" />
<path d="M9441929 3121850
L9308070 3121850
" />
<path d="M9308070 3239960
L9441929 3239960
" />
<path d="M8558070 3121850
L8558070 3239960
" />
<path d="M8691929 3239960
L8691929 3121850
" />
<path d="M8691929 3121850
L8558070 3121850
" />
<path d="M8558070 3239960
L8691929 3239960
" />
<path d="M7808070 3121850
L7808070 3239960
" />
<path d="M7941929 3239960
L7941929 3121850
" />
<path d="M7941929 3121850
L7808070 3121850
" />
<path d="M7808070 3239960
L7941929 3239960
" />
<path d="M5089320 3121850
L5089320 3239960
" />
<path d="M5223179 3239960
L5223179 3121850
" />
<path d="M5223179 3121850
L5089320 3121850
" />
<path d="M5089320 3239960
L5223179 3239960
" />
<path d="M2276820 3121850
L2276820 3239960
" />
<path d="M2410679 3239960
L2410679 3121850
" />
<path d="M2410679 3121850
L2276820 3121850
" />
<path d="M2276820 3239960
L2410679 3239960
" />
<path d="M1339320 3121850
L1339320 3239960
" />
<path d="M1473179 3239960
L1473179 3121850
" />
<path d="M1473179 3121850
L1339320 3121850
" />
<path d="M1339320 3239960
L1473179 3239960
" />
<path d="M401820 3121850
L401820 3239960
" />
<path d="M535679 3239960
L535679 3121850
" />
<path d="M535679 3121850
L401820 3121850
" />
<path d="M401820 3239960
L535679 3239960
" />
<path d="M10941929 2489960
L10941929 2371850
" />
<path d="M10808070 2371850
L10808070 2489960
" />
<path d="M10808070 2489960
L10941929 2489960
" />
<path d="M10941929 2371850
L10808070 2371850
" />
<path d="M10191937 2489960
L10191937 2371850
" />
<path d="M10058079 2371850
L10058079 2489960
" />
<path d="M10058079 2489960
L10191937 2489960
" />
<path d="M10191937 2371850
L10058079 2371850
" />
<path d="M9441929 2489960
L9441929 2371850
" />
<path d="M9308070 2371850
L9308070 2489960
" />
<path d="M9308070 2489960
L9441929 2489960
" />
<path d="M9441929 2371850
L9308070 2371850
" />
<path d="M8691929 2489960
L8691929 2371850
" />
<path d="M8558070 2371850
L8558070 2489960
" />
<path d="M8558070 2489960
L8691929 2489960
" />
<path d="M8691929 2371850
L8558070 2371850
" />
<path d="M7941929 2489960
L7941929 2371850
" />
<path d="M7808070 2371850
L7808070 2489960
" />
<path d="M7808070 2489960
L7941929 2489960
" />
<path d="M7941929 2371850
L7808070 2371850
" />
<path d="M7191929 2489960
L7191929 2371850
" />
<path d="M7058070 2371850
L7058070 2489960
" />
<path d="M7058070 2489960
L7191929 2489960
" />
<path d="M7191929 2371850
L7058070 2371850
" />
<path d="M6441929 2489960
L6441929 2371850
" />
<path d="M6308070 2371850
L6308070 2489960
" />
<path d="M6308070 2489960
L6441929 2489960
" />
<path d="M6441929 2371850
L6308070 2371850
" />
<path d="M5691929 2489960
L5691929 2371850
" />
<path d="M5558070 2371850
L5558070 2489960
" />
<path d="M5558070 2489960
L5691929 2489960
" />
<path d="M5691929 2371850
L5558070 2371850
" />
<path d="M4941929 2489960
L4941929 2371850
" />
<path d="M4808070 2371850
L4808070 2489960
" />
<path d="M4808070 2489960
L4941929 2489960
" />
<path d="M4941929 2371850
L4808070 2371850
" />
<path d="M4191929 2489960
L4191929 2371850
" />
<path d="M4058070 2371850
L4058070 2489960
" />
<path d="M4058070 2489960
L4191929 2489960
" />
<path d="M4191929 2371850
L4058070 2371850
" />
<path d="M3441929 2489960
L3441929 2371850
" />
<path d="M3308070 2371850
L3308070 2489960
" />
<path d="M3308070 2489960
L3441929 2489960
" />
<path d="M3441929 2371850
L3308070 2371850
" />
<path d="M2691929 2489960
L2691929 2371850
" />
<path d="M2558070 2371850
L2558070 2489960
" />
<path d="M2558070 2489960
L2691929 2489960
" />
<path d="M2691929 2371850
L2558070 2371850
" />
<path d="M1941929 2489960
L1941929 2371850
" />
<path d="M1808070 2371850
L1808070 2489960
" />
<path d="M1808070 2489960
L1941929 2489960
" />
<path d="M1941929 2371850
L1808070 2371850
" />
<path d="M816929 2489960
L816929 2371850
" />
<path d="M683070 2371850
L683070 2489960
" />
<path d="M683070 2489960
L816929 2489960
" />
<path d="M816929 2371850
L683070 2371850
" />
<path d="M10714329 1246850
L10714329 1364960
" />
<path d="M10848188 1364960
L10848188 1246850
" />
<path d="M10848188 1246850
L10714329 1246850
" />
<path d="M10714329 1364960
L10848188 1364960
" />
<path d="M9870570 1621850
L9870570 1739960
" />
<path d="M10004429 1739960
L10004429 1621850
" />
<path d="M10004429 1621850
L9870570 1621850
" />
<path d="M9870570 1739960
L10004429 1739960
" />
<path d="M9120570 1621850
L9120570 1739960
" />
<path d="M9254429 1739960
L9254429 1621850
" />
<path d="M9254429 1621850
L9120570 1621850
" />
<path d="M9120570 1739960
L9254429 1739960
" />
<path d="M8370570 1621850
L8370570 1739960
" />
<path d="M8504429 1739960
L8504429 1621850
" />
<path d="M8504429 1621850
L8370570 1621850
" />
<path d="M8370570 1739960
L8504429 1739960
" />
<path d="M7620570 1621850
L7620570 1739960
" />
<path d="M7754429 1739960
L7754429 1621850
" />
<path d="M7754429 1621850
L7620570 1621850
" />
<path d="M7620570 1739960
L7754429 1739960
" />
<path d="M6870570 1621850
L6870570 1739960
" />
<path d="M7004429 1739960
L7004429 1621850
" />
<path d="M7004429 1621850
L6870570 1621850
" />
<path d="M6870570 1739960
L7004429 1739960
" />
<path d="M6120570 1621850
L6120570 1739960
" />
<path d="M6254429 1739960
L6254429 1621850
" />
<path d="M6254429 1621850
L6120570 1621850
" />
<path d="M6120570 1739960
L6254429 1739960
" />
<path d="M5370570 1621850
L5370570 1739960
" />
<path d="M5504429 1739960
L5504429 1621850
" />
<path d="M5504429 1621850
L5370570 1621850
" />
<path d="M5370570 1739960
L5504429 1739960
" />
<path d="M4620570 1621850
L4620570 1739960
" />
<path d="M4754429 1739960
L4754429 1621850
" />
<path d="M4754429 1621850
L4620570 1621850
" />
<path d="M4620570 1739960
L4754429 1739960
" />
<path d="M3870570 1621850
L3870570 1739960
" />
<path d="M4004429 1739960
L4004429 1621850
" />
<path d="M4004429 1621850
L3870570 1621850
" />
<path d="M3870570 1739960
L4004429 1739960
" />
<path d="M3120570 1621850
L3120570 1739960
" />
<path d="M3254429 1739960
L3254429 1621850
" />
<path d="M3254429 1621850
L3120570 1621850
" />
<path d="M3120570 1739960
L3254429 1739960
" />
<path d="M2370570 1621850
L2370570 1739960
" />
<path d="M2504429 1739960
L2504429 1621850
" />
<path d="M2504429 1621850
L2370570 1621850
" />
<path d="M2370570 1739960
L2504429 1739960
" />
<path d="M1620570 1621850
L1620570 1739960
" />
<path d="M1754429 1739960
L1754429 1621850
" />
<path d="M1754429 1621850
L1620570 1621850
" />
<path d="M1620570 1739960
L1754429 1739960
" />
<path d="M589320 1621850
L589320 1739960
" />
<path d="M723179 1739960
L723179 1621850
" />
<path d="M723179 1621850
L589320 1621850
" />
<path d="M589320 1739960
L723179 1739960
" />
<path d="M9816929 989960
L9816929 871850
" />
<path d="M9683070 871850
L9683070 989960
" />
<path d="M9683070 989960
L9816929 989960
" />
<path d="M9816929 871850
L9683070 871850
" />
<path d="M9066929 989960
L9066929 871850
" />
<path d="M8933070 871850
L8933070 989960
" />
<path d="M8933070 989960
L9066929 989960
" />
<path d="M9066929 871850
L8933070 871850
" />
<path d="M8316929 989960
L8316929 871850
" />
<path d="M8183070 871850
L8183070 989960
" />
<path d="M8183070 989960
L8316929 989960
" />
<path d="M8316929 871850
L8183070 871850
" />
<path d="M7566929 989960
L7566929 871850
" />
<path d="M7433070 871850
L7433070 989960
" />
<path d="M7433070 989960
L7566929 989960
" />
<path d="M7566929 871850
L7433070 871850
" />
<path d="M6816929 989960
L6816929 871850
" />
<path d="M6683070 871850
L6683070 989960
" />
<path d="M6683070 989960
L6816929 989960
" />
<path d="M6816929 871850
L6683070 871850
" />
<path d="M6066929 989960
L6066929 871850
" />
<path d="M5933070 871850
L5933070 989960
" />
<path d="M5933070 989960
L6066929 989960
" />
<path d="M6066929 871850
L5933070 871850
" />
<path d="M5316929 989960
L5316929 871850
" />
<path d="M5183070 871850
L5183070 989960
" />
<path d="M5183070 989960
L5316929 989960
" />
<path d="M5316929 871850
L5183070 871850
" />
<path d="M4566929 989960
L4566929 871850
" />
<path d="M4433070 871850
L4433070 989960
" />
<path d="M4433070 989960
L4566929 989960
" />
<path d="M4566929 871850
L4433070 871850
" />
<path d="M3816929 989960
L3816929 871850
" />
<path d="M3683070 871850
L3683070 989960
" />
<path d="M3683070 989960
L3816929 989960
" />
<path d="M3816929 871850
L3683070 871850
" />
<path d="M3066929 989960
L3066929 871850
" />
<path d="M2933070 871850
L2933070 989960
" />
<path d="M2933070 989960
L3066929 989960
" />
<path d="M3066929 871850
L2933070 871850
" />
<path d="M2316929 989960
L2316929 871850
" />
<path d="M2183070 871850
L2183070 989960
" />
<path d="M2183070 989960
L2316929 989960
" />
<path d="M2316929 871850
L2183070 871850
" />
<path d="M1566929 989960
L1566929 871850
" />
<path d="M1433070 871850
L1433070 989960
" />
<path d="M1433070 989960
L1566929 989960
" />
<path d="M1566929 871850
L1433070 871850
" />
<path d="M629429 989960
L629429 871850
" />
<path d="M495570 871850
L495570 989960
" />
<path d="M495570 989960
L629429 989960
" />
<path d="M629429 871850
L495570 871850
" />
<path d="M10808070 121850
L10808070 239960
" />
<path d="M10941929 239960
L10941929 121850
" />
<path d="M10941929 121850
L10808070 121850
" />
<path d="M10808070 239960
L10941929 239960
" />
<path d="M10058070 121850
L10058070 239960
" />
<path d="M10191929 239960
L10191929 121850
" />
<path d="M10191929 121850
L10058070 121850
" />
<path d="M10058070 239960
L10191929 239960
" />
<path d="M9308070 121850
L9308070 239960
" />
<path d="M9441929 239960
L9441929 121850
" />
<path d="M9441929 121850
L9308070 121850
" />
<path d="M9308070 239960
L9441929 239960
" />
<path d="M8558070 121850
L8558070 239960
" />
<path d="M8691929 239960
L8691929 121850
" />
<path d="M8691929 121850
L8558070 121850
" />
<path d="M8558070 239960
L8691929 239960
" />
<path d="M7808070 121850
L7808070 239960
" />
<path d="M7941929 239960
L7941929 121850
" />
<path d="M7941929 121850
L7808070 121850
" />
<path d="M7808070 239960
L7941929 239960
" />
<path d="M7058070 121850
L7058070 239960
" />
<path d="M7191929 239960
L7191929 121850
" />
<path d="M7191929 121850
L7058070 121850
" />
<path d="M7058070 239960
L7191929 239960
" />
<path d="M6308070 121850
L6308070 239960
" />
<path d="M6441929 239960
L6441929 121850
" />
<path d="M6441929 121850
L6308070 121850
" />
<path d="M6308070 239960
L6441929 239960
" />
<path d="M5558070 121850
L5558070 239960
" />
<path d="M5691929 239960
L5691929 121850
" />
<path d="M5691929 121850
L5558070 121850
" />
<path d="M5558070 239960
L5691929 239960
" />
<path d="M4808070 121850
L4808070 239960
" />
<path d="M4941929 239960
L4941929 121850
" />
<path d="M4941929 121850
L4808070 121850
" />
<path d="M4808070 239960
L4941929 239960
" />
<path d="M4058070 121850
L4058070 239960
" />
<path d="M4191929 239960
L4191929 121850
" />
<path d="M4191929 121850
L4058070 121850
" />
<path d="M4058070 239960
L4191929 239960
" />
<path d="M3308070 121850
L3308070 239960
" />
<path d="M3441929 239960
L3441929 121850
" />
<path d="M3441929 121850
L3308070 121850
" />
<path d="M3308070 239960
L3441929 239960
" />
<path d="M2558070 121850
L2558070 239960
" />
<path d="M2691929 239960
L2691929 121850
" />
<path d="M2691929 121850
L2558070 121850
" />
<path d="M2558070 239960
L2691929 239960
" />
<path d="M1808070 121850
L1808070 239960
" />
<path d="M1941929 239960
L1941929 121850
" />
<path d="M1941929 121850
L1808070 121850
" />
<path d="M1808070 239960
L1941929 239960
" />
<path d="M1058070 121850
L1058070 239960
" />
<path d="M1191929 239960
L1191929 121850
" />
<path d="M1191929 121850
L1058070 121850
" />
<path d="M1058070 239960
L1191929 239960
" />
<path d="M313968 121850
L313968 239960
" />
<path d="M447826 239960
L447826 121850
" />
<path d="M447826 121850
L313968 121850
" />
<path d="M313968 239960
L447826 239960
" />
<circle cx="3000000.000000" cy="1357283.464567" r="59153.543307" /> 
<circle cx="2803149.606299" cy="1274606.299213" r="59153.543307" /> 
<circle cx="3000000.000000" cy="1125000.000000" r="98523.622047" /> 
<circle cx="3750000.000000" cy="1357283.464567" r="59153.543307" /> 
<circle cx="3553149.606299" cy="1274606.299213" r="59153.543307" /> 
<circle cx="3750000.000000" cy="1125000.000000" r="98523.622047" /> 
<circle cx="6000000.000000" cy="1357283.464567" r="59153.543307" /> 
<circle cx="5803149.606299" cy="1274606.299213" r="59153.543307" /> 
<circle cx="6000000.000000" cy="1125000.000000" r="98523.622047" /> 
<circle cx="6750000.000000" cy="1357283.464567" r="59153.543307" /> 
<circle cx="6553149.606299" cy="1274606.299213" r="59153.543307" /> 
<circle cx="6750000.000000" cy="1125000.000000" r="98523.622047" /> 
<circle cx="1500000.000000" cy="1357283.464567" r="59153.543307" /> 
<circle cx="1303149.606299" cy="1274606.299213" r="59153.543307" /> 
<circle cx="1500000.000000" cy="1125000.000000" r="98523.622047" /> 
<circle cx="5250000.000000" cy="1357283.464567" r="59153.543307" /> 
<circle cx="5053149.606299" cy="1274606.299213" r="59153.543307" /> 
<circle cx="5250000.000000" cy="1125000.000000" r="98523.622047" /> 
<circle cx="4500000.000000" cy="1357283.464567" r="59153.543307" /> 
<circle cx="4303149.606299" cy="1274606.299213" r="59153.543307" /> 
<circle cx="4500000.000000" cy="1125000.000000" r="98523.622047" /> 
<circle cx="2250000.000000" cy="1357283.464567" r="59153.543307" /> 
<circle cx="2053149.606299" cy="1274606.299213" r="59153.543307" /> 
<circle cx="2250000.000000" cy="1125000.000000" r="98523.622047" /> 
<circle cx="562500.000000" cy="1125000.000000" r="98523.622047" /> 
<circle cx="365649.606299" cy="1274606.299213" r="59153.543307" /> 
<circle cx="562500.000000" cy="1357283.464567" r="59153.543307" /> 
<circle cx="5625000.000000" cy="607283.464567" r="59153.543307" /> 
<circle cx="5428149.606299" cy="524606.299213" r="59153.543307" /> 
<circle cx="5625000.000000" cy="375000.000000" r="98523.622047" /> 
<circle cx="7125000.000000" cy="607283.464567" r="59153.543307" /> 
<circle cx="6928149.606299" cy="524606.299213" r="59153.543307" /> 
<circle cx="7125000.000000" cy="375000.000000" r="98523.622047" /> 
<circle cx="10125000.000000" cy="607283.464567" r="59153.543307" /> 
<circle cx="9928149.606299" cy="524606.299213" r="59153.543307" /> 
<circle cx="10125000.000000" cy="375000.000000" r="98523.622047" /> 
<circle cx="3375000.000000" cy="607283.464567" r="59153.543307" /> 
<circle cx="3178149.606299" cy="524606.299213" r="59153.543307" /> 
<circle cx="3375000.000000" cy="375000.000000" r="98523.622047" /> 
<circle cx="9375000.000000" cy="607283.464567" r="59153.543307" /> 
<circle cx="9178149.606299" cy="524606.299213" r="59153.543307" /> 
<circle cx="9375000.000000" cy="375000.000000" r="98523.622047" /> 
<circle cx="8625000.000000" cy="607283.464567" r="59153.543307" /> 
<circle cx="8428149.606299" cy="524606.299213" r="59153.543307" /> 
<circle cx="8625000.000000" cy="375000.000000" r="98523.622047" /> 
<circle cx="7875000.000000" cy="607283.464567" r="59153.543307" /> 
<circle cx="7678149.606299" cy="524606.299213" r="59153.543307" /> 
<circle cx="7875000.000000" cy="375000.000000" r="98523.622047" /> 
<circle cx="6375000.000000" cy="607283.464567" r="59153.543307" /> 
<circle cx="6178149.606299" cy="524606.299213" r="59153.543307" /> 
<circle cx="6375000.000000" cy="375000.000000" r="98523.622047" /> 
<circle cx="4875000.000000" cy="607283.464567" r="59153.543307" /> 
<circle cx="4678149.606299" cy="524606.299213" r="59153.543307" /> 
<circle cx="4875000.000000" cy="375000.000000" r="98523.622047" /> 
<circle cx="4125000.000000" cy="607283.464567" r="59153.543307" /> 
<circle cx="3928149.606299" cy="524606.299213" r="59153.543307" /> 
<circle cx="4125000.000000" cy="375000.000000" r="98523.622047" /> 
<circle cx="2625000.000000" cy="607283.464567" r="59153.543307" /> 
<circle cx="2428149.606299" cy="524606.299213" r="59153.543307" /> 
<circle cx="2625000.000000" cy="375000.000000" r="98523.622047" /> 
<circle cx="1125000.000000" cy="607283.464567" r="59153.543307" /> 
<circle cx="928149.606299" cy="524606.299213" r="59153.543307" /> 
<circle cx="1125000.000000" cy="375000.000000" r="98523.622047" /> 
<circle cx="375000.000000" cy="607283.464567" r="59153.543307" /> 
<circle cx="178149.606299" cy="524606.299213" r="59153.543307" /> 
<circle cx="375000.000000" cy="375000.000000" r="98523.622047" /> 
<circle cx="1875000.000000" cy="607283.464567" r="59153.543307" /> 
<circle cx="1678149.606299" cy="524606.299213" r="59153.543307" /> 
<circle cx="1875000.000000" cy="375000.000000" r="98523.622047" /> 
<circle cx="7875000.000000" cy="3607283.464567" r="59153.543307" /> 
<circle cx="7678149.606299" cy="3524606.299213" r="59153.543307" /> 
<circle cx="7875000.000000" cy="3375000.000000" r="98523.622047" /> 
<circle cx="6375000.000000" cy="2857283.464567" r="59153.543307" /> 
<circle cx="6178149.606299" cy="2774606.299213" r="59153.543307" /> 
<circle cx="6375000.000000" cy="2625000.000000" r="98523.622047" /> 
<circle cx="10125008.267717" cy="2857285.669291" r="59153.543307" /> 
<circle cx="9928157.874016" cy="2774608.503937" r="59153.543307" /> 
<circle cx="10125008.267717" cy="2625002.204724" r="98523.622047" /> 
<circle cx="9375000.000000" cy="2857283.464567" r="59153.543307" /> 
<circle cx="9178149.606299" cy="2774606.299213" r="59153.543307" /> 
<circle cx="9375000.000000" cy="2625000.000000" r="98523.622047" /> 
<circle cx="7125000.000000" cy="2857283.464567" r="59153.543307" /> 
<circle cx="6928149.606299" cy="2774606.299213" r="59153.543307" /> 
<circle cx="7125000.000000" cy="2625000.000000" r="98523.622047" /> 
<circle cx="8625000.000000" cy="2857283.464567" r="59153.543307" /> 
<circle cx="8428149.606299" cy="2774606.299213" r="59153.543307" /> 
<circle cx="8625000.000000" cy="2625000.000000" r="98523.622047" /> 
<circle cx="5625000.000000" cy="2857283.464567" r="59153.543307" /> 
<circle cx="5428149.606299" cy="2774606.299213" r="59153.543307" /> 
<circle cx="5625000.000000" cy="2625000.000000" r="98523.622047" /> 
<circle cx="7875000.000000" cy="2857283.464567" r="59153.543307" /> 
<circle cx="7678149.606299" cy="2774606.299213" r="59153.543307" /> 
<circle cx="7875000.000000" cy="2625000.000000" r="98523.622047" /> 
<circle cx="10125000.000000" cy="3607283.464567" r="59153.543307" /> 
<circle cx="9928149.606299" cy="3524606.299213" r="59153.543307" /> 
<circle cx="10125000.000000" cy="3375000.000000" r="98523.622047" /> 
<circle cx="9375000.000000" cy="3607283.464567" r="59153.543307" /> 
<circle cx="9178149.606299" cy="3524606.299213" r="59153.543307" /> 
<circle cx="9375000.000000" cy="3375000.000000" r="98523.622047" /> 
<circle cx="9750000.000000" cy="1357283.464567" r="59153.543307" /> 
<circle cx="9553149.606299" cy="1274606.299213" r="59153.543307" /> 
<circle cx="9750000.000000" cy="1125000.000000" r="98523.622047" /> 
<circle cx="2625000.000000" cy="2857283.464567" r="59153.543307" /> 
<circle cx="2428149.606299" cy="2774606.299213" r="59153.543307" /> 
<circle cx="2625000.000000" cy="2625000.000000" r="98523.622047" /> 
<circle cx="7500000.000000" cy="1357283.464567" r="59153.543307" /> 
<circle cx="7303149.606299" cy="1274606.299213" r="59153.543307" /> 
<circle cx="7500000.000000" cy="1125000.000000" r="98523.622047" /> 
<circle cx="4687500.000000" cy="2107283.464567" r="59153.543307" /> 
<circle cx="4490649.606299" cy="2024606.299213" r="59153.543307" /> 
<circle cx="4687500.000000" cy="1875000.000000" r="98523.622047" /> 
<circle cx="2437500.000000" cy="2107283.464567" r="59153.543307" /> 
<circle cx="2240649.606299" cy="2024606.299213" r="59153.543307" /> 
<circle cx="2437500.000000" cy="1875000.000000" r="98523.622047" /> 
<circle cx="2343750.000000" cy="3375000.000000" r="98523.622047" /> 
<circle cx="2343750.000000" cy="3607283.464567" r="59153.543307" /> 
<circle cx="2146899.606299" cy="3524606.299213" r="59153.543307" /> 
<circle cx="8625000.000000" cy="3607283.464567" r="59153.543307" /> 
<circle cx="8428149.606299" cy="3524606.299213" r="59153.543307" /> 
<circle cx="8625000.000000" cy="3375000.000000" r="98523.622047" /> 
<circle cx="10875000.000000" cy="2857283.464567" r="59153.543307" /> 
<circle cx="10678149.606299" cy="2774606.299213" r="59153.543307" /> 
<circle cx="10875000.000000" cy="2625000.000000" r="98523.622047" /> 
<circle cx="6937500.000000" cy="2107283.464567" r="59153.543307" /> 
<circle cx="6740649.606299" cy="2024606.299213" r="59153.543307" /> 
<circle cx="6937500.000000" cy="1875000.000000" r="98523.622047" /> 
<circle cx="271899.606299" cy="3524606.299213" r="59153.543307" /> 
<circle cx="468750.000000" cy="3607283.464567" r="59153.543307" /> 
<circle cx="468750.000000" cy="3375000.000000" r="98523.622047" /> 
<circle cx="9000000.000000" cy="1357283.464567" r="59153.543307" /> 
<circle cx="8803149.606299" cy="1274606.299213" r="59153.543307" /> 
<circle cx="9000000.000000" cy="1125000.000000" r="98523.622047" /> 
<circle cx="4125000.000000" cy="2857283.464567" r="59153.543307" /> 
<circle cx="3928149.606299" cy="2774606.299213" r="59153.543307" /> 
<circle cx="4125000.000000" cy="2625000.000000" r="98523.622047" /> 
<circle cx="3187500.000000" cy="2107283.464567" r="59153.543307" /> 
<circle cx="2990649.606299" cy="2024606.299213" r="59153.543307" /> 
<circle cx="3187500.000000" cy="1875000.000000" r="98523.622047" /> 
<circle cx="9937500.000000" cy="2107283.464567" r="59153.543307" /> 
<circle cx="9740649.606299" cy="2024606.299213" r="59153.543307" /> 
<circle cx="9937500.000000" cy="1875000.000000" r="98523.622047" /> 
<circle cx="6187500.000000" cy="2107283.464567" r="59153.543307" /> 
<circle cx="5990649.606299" cy="2024606.299213" r="59153.543307" /> 
<circle cx="6187500.000000" cy="1875000.000000" r="98523.622047" /> 
<circle cx="3937500.000000" cy="2107283.464567" r="59153.543307" /> 
<circle cx="3740649.606299" cy="2024606.299213" r="59153.543307" /> 
<circle cx="3937500.000000" cy="1875000.000000" r="98523.622047" /> 
<circle cx="1687500.000000" cy="2107283.464567" r="59153.543307" /> 
<circle cx="1490649.606299" cy="2024606.299213" r="59153.543307" /> 
<circle cx="1687500.000000" cy="1875000.000000" r="98523.622047" /> 
<circle cx="7687500.000000" cy="2107283.464567" r="59153.543307" /> 
<circle cx="7490649.606299" cy="2024606.299213" r="59153.543307" /> 
<circle cx="7687500.000000" cy="1875000.000000" r="98523.622047" /> 
<path d="M415354 2776574
L415354 2382874
" />
<path d="M1360236 2382874
L1360236 3012795
" />
<path d="M139763 3012795
L415354 3012795
" />
<path d="M1084645 2776574
L937992 2776574
" />
<path d="M139763 2382874
L139763 3012795
" />
<path d="M1360236 2382874
L1084645 2382874
" />
<path d="M1084645 2382874
L1084645 2776574
" />
<path d="M415354 2382874
L139763 2382874
" />
<path d="M415354 2776574
L861220 2776574
" />
<path d="M1084645 3012795
L415354 3012795
" />
<path d="M1360236 3012795
L1084645 3012795
" />
<path d="M937992.127452 2776574.801425 A59226.456693 59226.456693 0.0 0 0 861220.470974 2776574.801425" />
<circle cx="750000.000000" cy="2625000.000000" r="98622.047244" /> 
<circle cx="982283.464567" cy="2625000.000000" r="59251.968504" /> 
<circle cx="9187500.000000" cy="2107283.464567" r="59153.543307" /> 
<circle cx="8990649.606299" cy="2024606.299213" r="59153.543307" /> 
<circle cx="9187500.000000" cy="1875000.000000" r="98523.622047" /> 
<circle cx="8437500.000000" cy="2107283.464567" r="59153.543307" /> 
<circle cx="8240649.606299" cy="2024606.299213" r="59153.543307" /> 
<circle cx="8437500.000000" cy="1875000.000000" r="98523.622047" /> 
<circle cx="8250000.000000" cy="1357283.464567" r="59153.543307" /> 
<circle cx="8053149.606299" cy="1274606.299213" r="59153.543307" /> 
<circle cx="8250000.000000" cy="1125000.000000" r="98523.622047" /> 
<circle cx="5437500.000000" cy="2107283.464567" r="59153.543307" /> 
<circle cx="5240649.606299" cy="2024606.299213" r="59153.543307" /> 
<circle cx="5437500.000000" cy="1875000.000000" r="98523.622047" /> 
<circle cx="656250.000000" cy="2107283.464567" r="59153.543307" /> 
<circle cx="656250.000000" cy="1875000.000000" r="98523.622047" /> 
<circle cx="459399.606299" cy="2024606.299213" r="59153.543307" /> 
<circle cx="4875000.000000" cy="2857283.464567" r="59153.543307" /> 
<circle cx="4678149.606299" cy="2774606.299213" r="59153.543307" /> 
<circle cx="4875000.000000" cy="2625000.000000" r="98523.622047" /> 
<circle cx="1209399.606299" cy="3524606.299213" r="59153.543307" /> 
<circle cx="1406250.000000" cy="3607283.464567" r="59153.543307" /> 
<circle cx="1406250.000000" cy="3375000.000000" r="98523.622047" /> 
<circle cx="3375000.000000" cy="2857283.464567" r="59153.543307" /> 
<circle cx="3178149.606299" cy="2774606.299213" r="59153.543307" /> 
<circle cx="3375000.000000" cy="2625000.000000" r="98523.622047" /> 
</g>
<g style="fill:#000000; fill-opacity:0.0; 
stroke:#000000; stroke-width:7874.015748; stroke-opacity:1; 
stroke-linecap:round; stroke-linejoin:round;">
<circle cx="10252952.755906" cy="1111301.181102" r="108267.716535" /> 
<circle cx="1007874.015748" cy="1125000.944882" r="108267.716535" /> 
<circle cx="5062504.251969" cy="1867127.559055" r="96456.692913" /> 
<circle cx="7500006.299213" cy="3367125.984252" r="108267.716535" /> 
</g>
<g style="fill:#000000; fill-opacity:0.0; 
stroke:#000000; stroke-width:4724.409449; stroke-opacity:1; 
stroke-linecap:round; stroke-linejoin:round;">
<path d="M10629684 1687992
L10629684 1834645
" />
<path d="M10629684 1165354
L11023385 1165354
" />
<path d="M11023385 2110236
L10393463 2110236
" />
<path d="M10393463 889763
L10393463 1165354
" />
<path d="M11023385 889763
L10393463 889763
" />
<path d="M11023385 2110236
L11023385 1834645
" />
<path d="M10393463 1165354
L10393463 1834645
" />
<path d="M11023385 1834645
L10629684 1834645
" />
<path d="M11023385 1165354
L11023385 889763
" />
<path d="M10629684 1609251
L10629684 1165354
" />
<path d="M10393463 2110236
L10393463 1834645
" />
<path d="M10629684.253693 1686023.623515 A59226.456693 59226.456693 0.0 0 0 10629684.253693 1609251.967037" />
<circle cx="10781259.055118" cy="1732283.464567" r="59153.543307" /> 
<circle cx="10781259.055118" cy="1500000.000000" r="98523.622047" /> 
<circle cx="1875000.000000" cy="2857283.464567" r="59153.543307" /> 
<circle cx="1678149.606299" cy="2774606.299213" r="59153.543307" /> 
<circle cx="1875000.000000" cy="2625000.000000" r="98523.622047" /> 
<circle cx="10875000.000000" cy="3607283.464567" r="59153.543307" /> 
<circle cx="10678149.606299" cy="3524606.299213" r="59153.543307" /> 
<circle cx="10875000.000000" cy="3375000.000000" r="98523.622047" /> 
<circle cx="10875000.000000" cy="607283.464567" r="59153.543307" /> 
<circle cx="10678149.606299" cy="524606.299213" r="59153.543307" /> 
<circle cx="10875000.000000" cy="375000.000000" r="98523.622047" /> 
<g >
</g>
<g >
</g>
<g >
</g>
<g >
</g>
<g >
</g>
<g >
</g>
<g >
</g>
<g >
</g>
<g >
</g>
<g >
</g>
<g >
</g>
<g >
</g>
<g >
</g>
<g >
</g>
<g >
</g>
<g >
</g>
<g >
</g>
<g >
</g>
<g >
</g>
<g >
</g>
<g >
</g>
<g >
</g>
<g >
</g>
<g >
</g>
<g >
</g>
<g >
</g>
<g >
</g>
<g >
</g>
<g >
</g>
<g >
</g>
<g >
</g>
<g >
</g>
<g >
</g>
<g >
</g>
<g >
</g>
<g >
</g>
<g >
</g>
<g >
</g>
<g >
</g>
<g >
</g>
<g >
</g>
<g >
</g>
<g >
</g>
<g >
</g>
<g >
</g>
<g >
</g>
<g >
</g>
<g >
</g>
<g >
</g>
<g >
</g>
<g >
</g>
<g >
</g>
<g >
</g>
<g >
</g>
<g >
</g>
<g >
</g>
<g >
</g>
<g >
</g>
<g >
</g>
<g >
</g>
<g >
</g>
<g >
</g>
<g >
</g>
<g >
</g>
<g >
</g>
<g >
</g>
<g >
</g>
<g >
</g>
<g >
</g>
<g >
</g>
<g >
</g>
<g >
</g>
<g >
</g>
<g >
</g>
<g >
</g>
<g >
</g>
<g >
</g>
<g >
</g>
<g >
</g>
<g >
</g>
<g >
</g>
<g >
</g>
<g >
</g>
<g >
</g>
<g >
</g>
<g >
</g>
<g >
</g>
<g >
</g>
<g >
</g>
<g >
</g>
<g >
</g>
<g >
</g>
<g >
</g>
<g >
</g>
<g >
</g>
<g >
</g>
<g >
</g>
<g >
</g>
<g >
</g>
<g >
</g>
<g >
</g>
<g >
</g>
<g >
</g>
<g >
</g>
<g >
</g>
<g >
</g>
<g >
</g>
<g >
</g>
<g >
</g>
<g >
</g>
<g >
</g>
<g >
</g>
<g >
</g>
<g >
</g>
<g >
</g>
<g >
</g>
<g >
</g>
<g >
</g>
<g >
</g>
<g >
</g>
<g >
</g>
<g >
</g>
<g >
</g>
<g >
</g>
<g >
</g>
<g >
</g>
<g >
</g>
<g >
</g>
<g >
</g>
<g >
</g>
<g >
</g>
<g >
</g>
<g >
</g>
<g >
</g>
<g >
</g>
<g >
</g>
<g >
</g>
<g >
</g>
<g >
</g>
<g >
</g>
<g >
</g>
<g >
</g>
<g >
</g>
<g >
</g>
<g >
</g>
<g >
</g>
<g >
</g>
<g >
</g>
<g >
</g>
<g >
</g>
<g >
</g>
<g >
</g>
<g >
</g>
<g >
</g>
<g >
</g>
<g >
</g>
<g >
</g>
<g >
</g>
<g >
</g>
<g >
</g>
<g >
</g>
<g >
</g>
<g >
</g>
<g >
</g>
<g >
</g>
<g >
</g>
<g >
</g>
<g >
</g>
<g >
</g>
<g >
</g>
<g >
</g>
<g >
</g>
<g >
</g>
<g >
</g>
<g >
</g>
<g >
</g>
<g >
</g>
<g >
</g>
<g >
</g>
<g >
</g>
<g >
</g>
<g >
</g>
<g >
</g>
<g >
</g>
<g >
</g>
<g >
</g>
<g >
</g>
<g >
</g>
<g >
</g>
<g >
</g>
<g >
</g>
<g >
</g>
<g >
</g>
<g >
</g>
<g >
</g>
<g >
</g>
<g >
</g>
<g >
</g>
<g >
</g>
<g >
</g>
<g >
</g>
<g >
</g>
<g >
</g>
<g >
</g>
<g >
</g>
<g >
</g>
<g >
</g>
<g >
</g>
<g >
</g>
<g >
</g>
<g >
</g>
<g >
</g>
<g >
</g>
<g >
</g>
<g >
</g>
<g >
</g>
<g >
</g>
<g >
</g>
<g >
</g>
<g >
</g>
<g >
</g>
<g >
</g>
<g >
</g>
</g> 
</svg>
