<?xml version="1.0" standalone="no"?>
 <!DOCTYPE svg PUBLIC "-//W3C//DTD SVG 1.1//EN" 
 "http://www.w3.org/Graphics/SVG/1.1/DTD/svg11.dtd"> 
<svg
  xmlns:svg="http://www.w3.org/2000/svg"
  xmlns="http://www.w3.org/2000/svg"
  xmlns:xlink="http://www.w3.org/1999/xlink"
  version="1.1"
  width="297.002200mm" height="210.007200mm" viewBox="0.000000 0.000000 297.002200 210.007200">
<title>SVG Image created as 2choc2flat-extmcu-iso-rgb-User_Eco2.svg date 2024/10/09 20:56:17 </title>
  <desc>Image generated by PCBNEW </desc>
<g style="fill:#000000; fill-opacity:1.000000;stroke:#000000; stroke-opacity:1.000000;
stroke-linecap:round; stroke-linejoin:round;"
 transform="translate(0 0) scale(1 1)">
</g>
<g style="fill:#000000; fill-opacity:0.0; 
stroke:#000000; stroke-width:0.000000; stroke-opacity:1; 
stroke-linecap:round; stroke-linejoin:round;">
</g>
<g style="fill:#000000; fill-opacity:0.0; 
stroke:#000000; stroke-width:0.200000; stroke-opacity:1; 
stroke-linecap:round; stroke-linejoin:round;">
<path d="M138.568750 89.000000
L138.568750 93.825000
" />
<path d="M123.368750 89.000000
L123.368750 93.825000
" />
<path d="M123.368750 93.825000
L138.568750 93.825000
" />
<path d="M138.568750 89.000000
L177.469000 89.000000
" />
<path d="M1.525000 95.725064
L77.469000 95.725064
" />
<path d="M77.469000 79.600000
L77.469000 95.725064
" />
<path d="M84.469000 79.600000
L84.469000 89.000000
" />
<path d="M84.469000 89.000000
L123.368750 89.000000
" />
<path d="M184.469000 79.600000
L177.469000 79.600000
" />
<path d="M286.225000 55.125000
L281.500000 55.125000
" />
<path d="M-0.425000 59.125000
L-0.425000 93.725064
" />
<path d="M-0.425000 55.125000
L4.300000 55.125000
" />
<path d="M184.469000 95.725064
L284.225000 95.725064
" />
<path d="M-0.425001 93.725064 A1.975160 1.975160 0.0 0 0 1.524999 95.725064" />
<path d="M286.225000 2.525000
L286.225000 55.125000
" />
<path d="M77.469000 79.600000
L84.469000 79.600000
" />
<path d="M4.300000 59.125000 A2.000000 2.000000 0.0 0 0 4.300000 55.125000" />
<path d="M-0.425000 59.125000
L4.300000 59.125000
" />
<path d="M1.525000 0.525000 A1.975158 1.975158 0.0 0 0 -0.425000 2.525000" />
<path d="M1.525000 0.525000
L284.225000 0.525000
" />
<path d="M286.225000 59.125000
L286.225000 93.725064
" />
<path d="M177.469000 79.600000
L177.469000 89.000000
" />
<path d="M-0.425000 2.525000
L-0.425000 55.125000
" />
<path d="M281.500000 59.125000
L286.225000 59.125000
" />
<path d="M281.500000 55.125000 A2.000000 2.000000 0.0 0 0 281.500000 59.125000" />
<path d="M284.225000 95.725064 A1.999982 1.999982 0.0 0 0 286.225000 93.725064" />
<path d="M184.469000 95.725064
L184.469000 79.600000
" />
<path d="M286.225000 2.525000 A2.000000 2.000000 0.0 0 0 284.225000 0.525000" />
</g>
<g style="fill:#000000; fill-opacity:0.0; 
stroke:#000000; stroke-width:0.120000; stroke-opacity:1; 
stroke-linecap:round; stroke-linejoin:round;">
<circle cx="130.968750" cy="91.625000" r="1.502400" /> 
<circle cx="130.968750" cy="85.725000" r="2.500000" /> 
<circle cx="125.968750" cy="89.525000" r="1.502500" /> 
<circle cx="76.200000" cy="34.475000" r="1.502500" /> 
<circle cx="71.200000" cy="32.375000" r="1.502500" /> 
<circle cx="76.200000" cy="28.575000" r="2.502500" /> 
<circle cx="95.250000" cy="34.475000" r="1.502500" /> 
<circle cx="90.250000" cy="32.375000" r="1.502500" /> 
<circle cx="95.250000" cy="28.575000" r="2.502500" /> 
<circle cx="152.400000" cy="34.475000" r="1.502500" /> 
<circle cx="147.400000" cy="32.375000" r="1.502500" /> 
<circle cx="152.400000" cy="28.575000" r="2.502500" /> 
<circle cx="171.450000" cy="34.475000" r="1.502500" /> 
<circle cx="166.450000" cy="32.375000" r="1.502500" /> 
<circle cx="171.450000" cy="28.575000" r="2.502500" /> 
<circle cx="38.100000" cy="34.475000" r="1.502500" /> 
<circle cx="33.100000" cy="32.375000" r="1.502500" /> 
<circle cx="38.100000" cy="28.575000" r="2.502500" /> 
<circle cx="133.350000" cy="34.475000" r="1.502500" /> 
<circle cx="128.350000" cy="32.375000" r="1.502500" /> 
<circle cx="133.350000" cy="28.575000" r="2.502500" /> 
<circle cx="114.300000" cy="34.475000" r="1.502500" /> 
<circle cx="109.300000" cy="32.375000" r="1.502500" /> 
<circle cx="114.300000" cy="28.575000" r="2.502500" /> 
<circle cx="57.150000" cy="34.475000" r="1.502500" /> 
<circle cx="52.150000" cy="32.375000" r="1.502500" /> 
<circle cx="57.150000" cy="28.575000" r="2.502500" /> 
<circle cx="14.287500" cy="28.575000" r="2.502500" /> 
<circle cx="9.287500" cy="32.375000" r="1.502500" /> 
<circle cx="14.287500" cy="34.475000" r="1.502500" /> 
<circle cx="142.875000" cy="15.425000" r="1.502500" /> 
<circle cx="137.875000" cy="13.325000" r="1.502500" /> 
<circle cx="142.875000" cy="9.525000" r="2.502500" /> 
<circle cx="180.975000" cy="15.425000" r="1.502500" /> 
<circle cx="175.975000" cy="13.325000" r="1.502500" /> 
<circle cx="180.975000" cy="9.525000" r="2.502500" /> 
<circle cx="257.175000" cy="15.425000" r="1.502500" /> 
<circle cx="252.175000" cy="13.325000" r="1.502500" /> 
<circle cx="257.175000" cy="9.525000" r="2.502500" /> 
<circle cx="85.725000" cy="15.425000" r="1.502500" /> 
<circle cx="80.725000" cy="13.325000" r="1.502500" /> 
<circle cx="85.725000" cy="9.525000" r="2.502500" /> 
<circle cx="238.125000" cy="15.425000" r="1.502500" /> 
<circle cx="233.125000" cy="13.325000" r="1.502500" /> 
<circle cx="238.125000" cy="9.525000" r="2.502500" /> 
<circle cx="219.075000" cy="15.425000" r="1.502500" /> 
<circle cx="214.075000" cy="13.325000" r="1.502500" /> 
<circle cx="219.075000" cy="9.525000" r="2.502500" /> 
<circle cx="200.025000" cy="15.425000" r="1.502500" /> 
<circle cx="195.025000" cy="13.325000" r="1.502500" /> 
<circle cx="200.025000" cy="9.525000" r="2.502500" /> 
<circle cx="161.925000" cy="15.425000" r="1.502500" /> 
<circle cx="156.925000" cy="13.325000" r="1.502500" /> 
<circle cx="161.925000" cy="9.525000" r="2.502500" /> 
<circle cx="123.825000" cy="15.425000" r="1.502500" /> 
<circle cx="118.825000" cy="13.325000" r="1.502500" /> 
<circle cx="123.825000" cy="9.525000" r="2.502500" /> 
<circle cx="104.775000" cy="15.425000" r="1.502500" /> 
<circle cx="99.775000" cy="13.325000" r="1.502500" /> 
<circle cx="104.775000" cy="9.525000" r="2.502500" /> 
<circle cx="66.675000" cy="15.425000" r="1.502500" /> 
<circle cx="61.675000" cy="13.325000" r="1.502500" /> 
<circle cx="66.675000" cy="9.525000" r="2.502500" /> 
<circle cx="28.575000" cy="15.425000" r="1.502500" /> 
<circle cx="23.575000" cy="13.325000" r="1.502500" /> 
<circle cx="28.575000" cy="9.525000" r="2.502500" /> 
<circle cx="9.525000" cy="15.425000" r="1.502500" /> 
<circle cx="4.525000" cy="13.325000" r="1.502500" /> 
<circle cx="9.525000" cy="9.525000" r="2.502500" /> 
<circle cx="47.625000" cy="15.425000" r="1.502500" /> 
<circle cx="42.625000" cy="13.325000" r="1.502500" /> 
<circle cx="47.625000" cy="9.525000" r="2.502500" /> 
<circle cx="200.025000" cy="91.625000" r="1.502500" /> 
<circle cx="195.025000" cy="89.525000" r="1.502500" /> 
<circle cx="200.025000" cy="85.725000" r="2.502500" /> 
<circle cx="161.925000" cy="72.575000" r="1.502500" /> 
<circle cx="156.925000" cy="70.475000" r="1.502500" /> 
<circle cx="161.925000" cy="66.675000" r="2.502500" /> 
<circle cx="257.175210" cy="72.575056" r="1.502500" /> 
<circle cx="252.175210" cy="70.475056" r="1.502500" /> 
<circle cx="257.175210" cy="66.675056" r="2.502500" /> 
<circle cx="238.125000" cy="72.575000" r="1.502500" /> 
<circle cx="233.125000" cy="70.475000" r="1.502500" /> 
<circle cx="238.125000" cy="66.675000" r="2.502500" /> 
<circle cx="180.975000" cy="72.575000" r="1.502500" /> 
<circle cx="175.975000" cy="70.475000" r="1.502500" /> 
<circle cx="180.975000" cy="66.675000" r="2.502500" /> 
<circle cx="219.075000" cy="72.575000" r="1.502500" /> 
<circle cx="214.075000" cy="70.475000" r="1.502500" /> 
<circle cx="219.075000" cy="66.675000" r="2.502500" /> 
<circle cx="142.875000" cy="72.575000" r="1.502500" /> 
<circle cx="137.875000" cy="70.475000" r="1.502500" /> 
<circle cx="142.875000" cy="66.675000" r="2.502500" /> 
<circle cx="200.025000" cy="72.575000" r="1.502500" /> 
<circle cx="195.025000" cy="70.475000" r="1.502500" /> 
<circle cx="200.025000" cy="66.675000" r="2.502500" /> 
<circle cx="257.175000" cy="91.625000" r="1.502500" /> 
<circle cx="252.175000" cy="89.525000" r="1.502500" /> 
<circle cx="257.175000" cy="85.725000" r="2.502500" /> 
<circle cx="238.125000" cy="91.625000" r="1.502500" /> 
<circle cx="233.125000" cy="89.525000" r="1.502500" /> 
<circle cx="238.125000" cy="85.725000" r="2.502500" /> 
<circle cx="247.650000" cy="34.475000" r="1.502500" /> 
<circle cx="242.650000" cy="32.375000" r="1.502500" /> 
<circle cx="247.650000" cy="28.575000" r="2.502500" /> 
<circle cx="66.675000" cy="72.575000" r="1.502500" /> 
<circle cx="61.675000" cy="70.475000" r="1.502500" /> 
<circle cx="66.675000" cy="66.675000" r="2.502500" /> 
<circle cx="190.500000" cy="34.475000" r="1.502500" /> 
<circle cx="185.500000" cy="32.375000" r="1.502500" /> 
<circle cx="190.500000" cy="28.575000" r="2.502500" /> 
<circle cx="119.062500" cy="53.525000" r="1.502500" /> 
<circle cx="114.062500" cy="51.425000" r="1.502500" /> 
<circle cx="119.062500" cy="47.625000" r="2.502500" /> 
<circle cx="61.912500" cy="53.525000" r="1.502500" /> 
<circle cx="56.912500" cy="51.425000" r="1.502500" /> 
<circle cx="61.912500" cy="47.625000" r="2.502500" /> 
<circle cx="54.531250" cy="89.525000" r="1.502500" /> 
<circle cx="59.531250" cy="91.625000" r="1.502500" /> 
<circle cx="59.531250" cy="85.725000" r="2.502500" /> 
<circle cx="219.075000" cy="91.625000" r="1.502500" /> 
<circle cx="214.075000" cy="89.525000" r="1.502500" /> 
<circle cx="219.075000" cy="85.725000" r="2.502500" /> 
<circle cx="276.225000" cy="72.575000" r="1.502500" /> 
<circle cx="271.225000" cy="70.475000" r="1.502500" /> 
<circle cx="276.225000" cy="66.675000" r="2.502500" /> 
<circle cx="176.212500" cy="53.525000" r="1.502500" /> 
<circle cx="171.212500" cy="51.425000" r="1.502500" /> 
<circle cx="176.212500" cy="47.625000" r="2.502500" /> 
<circle cx="6.906250" cy="89.525000" r="1.502500" /> 
<circle cx="11.906250" cy="91.625000" r="1.502500" /> 
<circle cx="11.906250" cy="85.725000" r="2.502500" /> 
<circle cx="228.600000" cy="34.475000" r="1.502500" /> 
<circle cx="223.600000" cy="32.375000" r="1.502500" /> 
<circle cx="228.600000" cy="28.575000" r="2.502500" /> 
<circle cx="104.775000" cy="72.575000" r="1.502500" /> 
<circle cx="99.775000" cy="70.475000" r="1.502500" /> 
<circle cx="104.775000" cy="66.675000" r="2.502500" /> 
<circle cx="80.962500" cy="53.525000" r="1.502500" /> 
<circle cx="75.962500" cy="51.425000" r="1.502500" /> 
<circle cx="80.962500" cy="47.625000" r="2.502500" /> 
<circle cx="252.412500" cy="53.525000" r="1.502500" /> 
<circle cx="247.412500" cy="51.425000" r="1.502500" /> 
<circle cx="252.412500" cy="47.625000" r="2.502500" /> 
<circle cx="157.162500" cy="53.525000" r="1.502500" /> 
<circle cx="152.162500" cy="51.425000" r="1.502500" /> 
<circle cx="157.162500" cy="47.625000" r="2.502500" /> 
<circle cx="100.012500" cy="53.525000" r="1.502500" /> 
<circle cx="95.012500" cy="51.425000" r="1.502500" /> 
<circle cx="100.012500" cy="47.625000" r="2.502500" /> 
<circle cx="42.862500" cy="53.525000" r="1.502500" /> 
<circle cx="37.862500" cy="51.425000" r="1.502500" /> 
<circle cx="42.862500" cy="47.625000" r="2.502500" /> 
<circle cx="195.262500" cy="53.525000" r="1.502500" /> 
<circle cx="190.262500" cy="51.425000" r="1.502500" /> 
<circle cx="195.262500" cy="47.625000" r="2.502500" /> 
<path d="M34.550000 60.525000
L27.550000 60.525000
" />
<path d="M34.550000 60.525000
L34.550000 76.525000
" />
<path d="M27.550000 60.525000
L27.550000 74.275000
" />
<path d="M10.550000 60.525000
L3.550000 60.525000
" />
<path d="M3.550000 60.525000
L3.550000 76.525000
" />
<path d="M10.550000 74.275000
L10.550000 60.525000
" />
<path d="M10.550000 74.275000
L27.550000 74.275000
" />
<path d="M34.550000 76.525000
L27.550000 76.525000
" />
<path d="M27.550000 76.525000
L10.550000 76.525000
" />
<path d="M3.550000 76.525000
L10.550000 76.525000
" />
<circle cx="24.950000" cy="66.675000" r="1.505000" /> 
<circle cx="19.050000" cy="66.675000" r="2.505000" /> 
<circle cx="22.850000" cy="71.675000" r="1.505000" /> 
<circle cx="233.362500" cy="53.525000" r="1.502500" /> 
<circle cx="228.362500" cy="51.425000" r="1.502500" /> 
<circle cx="233.362500" cy="47.625000" r="2.502500" /> 
<circle cx="214.312500" cy="53.525000" r="1.502500" /> 
<circle cx="209.312500" cy="51.425000" r="1.502500" /> 
<circle cx="214.312500" cy="47.625000" r="2.502500" /> 
<circle cx="209.550000" cy="34.475000" r="1.502500" /> 
<circle cx="204.550000" cy="32.375000" r="1.502500" /> 
<circle cx="209.550000" cy="28.575000" r="2.502500" /> 
<circle cx="138.112500" cy="53.525000" r="1.502500" /> 
<circle cx="133.112500" cy="51.425000" r="1.502500" /> 
<circle cx="138.112500" cy="47.625000" r="2.502500" /> 
<circle cx="16.668750" cy="53.525000" r="1.502500" /> 
<circle cx="16.668750" cy="47.625000" r="2.502500" /> 
<circle cx="11.668750" cy="51.425000" r="1.502500" /> 
<circle cx="123.825000" cy="72.575000" r="1.502500" /> 
<circle cx="118.825000" cy="70.475000" r="1.502500" /> 
<circle cx="123.825000" cy="66.675000" r="2.502500" /> 
<circle cx="30.718750" cy="89.525000" r="1.502500" /> 
<circle cx="35.718750" cy="91.625000" r="1.502500" /> 
<circle cx="35.718750" cy="85.725000" r="2.502500" /> 
<circle cx="85.725000" cy="72.575000" r="1.502500" /> 
<circle cx="80.725000" cy="70.475000" r="1.502500" /> 
<circle cx="85.725000" cy="66.675000" r="2.502500" /> 
</g>
<g style="fill:#000000; fill-opacity:0.0; 
stroke:#000000; stroke-width:0.200000; stroke-opacity:1; 
stroke-linecap:round; stroke-linejoin:round;">
<circle cx="260.425000" cy="28.227050" r="2.750000" /> 
<circle cx="25.600000" cy="28.575024" r="2.750000" /> 
<circle cx="128.587608" cy="47.425040" r="2.450000" /> 
<circle cx="190.500160" cy="85.525000" r="2.750000" /> 
</g>
<g style="fill:#000000; fill-opacity:0.0; 
stroke:#000000; stroke-width:0.120000; stroke-opacity:1; 
stroke-linecap:round; stroke-linejoin:round;">
<path d="M279.993980 53.600000
L279.993980 46.600000
" />
<path d="M279.993980 53.600000
L263.993980 53.600000
" />
<path d="M279.993980 46.600000
L266.243980 46.600000
" />
<path d="M279.993980 29.600000
L279.993980 22.600000
" />
<path d="M279.993980 22.600000
L263.993980 22.600000
" />
<path d="M266.243980 46.600000
L266.243980 29.600000
" />
<path d="M266.243980 29.600000
L279.993980 29.600000
" />
<path d="M263.993980 53.600000
L263.993980 46.600000
" />
<path d="M263.993980 29.600000
L263.993980 46.600000
" />
<path d="M263.993980 22.600000
L263.993980 29.600000
" />
<circle cx="273.843980" cy="44.000000" r="1.502500" /> 
<circle cx="273.843980" cy="38.100000" r="2.502500" /> 
<circle cx="268.843980" cy="41.900000" r="1.502500" /> 
<circle cx="47.625000" cy="72.575000" r="1.502500" /> 
<circle cx="42.625000" cy="70.475000" r="1.502500" /> 
<circle cx="47.625000" cy="66.675000" r="2.502500" /> 
<circle cx="276.225000" cy="91.625000" r="1.502500" /> 
<circle cx="271.225000" cy="89.525000" r="1.502500" /> 
<circle cx="276.225000" cy="85.725000" r="2.502500" /> 
<circle cx="276.225000" cy="15.425000" r="1.502500" /> 
<circle cx="271.225000" cy="13.325000" r="1.502500" /> 
<circle cx="276.225000" cy="9.525000" r="2.502500" /> 
<path d="M112.600000 25.145000
L116.000000 25.145000
" />
<path d="M112.600000 22.145000
L112.600000 25.145000
" />
<path d="M116.000000 25.145000
L116.000000 22.145000
" />
<path d="M116.000000 22.145000
L112.600000 22.145000
" />
<path d="M275.543980 31.670000
L272.143980 31.670000
" />
<path d="M275.543980 34.670000
L275.543980 31.670000
" />
<path d="M272.143980 31.670000
L272.143980 34.670000
" />
<path d="M272.143980 34.670000
L275.543980 34.670000
" />
<path d="M68.375000 3.095000
L64.975000 3.095000
" />
<path d="M68.375000 6.095000
L68.375000 3.095000
" />
<path d="M64.975000 3.095000
L64.975000 6.095000
" />
<path d="M64.975000 6.095000
L68.375000 6.095000
" />
<path d="M274.525000 63.245000
L277.925000 63.245000
" />
<path d="M274.525000 60.245000
L274.525000 63.245000
" />
<path d="M277.925000 63.245000
L277.925000 60.245000
" />
<path d="M277.925000 60.245000
L274.525000 60.245000
" />
<path d="M207.850000 25.145000
L211.250000 25.145000
" />
<path d="M207.850000 22.145000
L207.850000 25.145000
" />
<path d="M211.250000 25.145000
L211.250000 22.145000
" />
<path d="M211.250000 22.145000
L207.850000 22.145000
" />
<path d="M139.812500 41.195000
L136.412500 41.195000
" />
<path d="M139.812500 44.195000
L139.812500 41.195000
" />
<path d="M136.412500 41.195000
L136.412500 44.195000
" />
<path d="M136.412500 44.195000
L139.812500 44.195000
" />
<path d="M226.900000 25.145000
L230.300000 25.145000
" />
<path d="M226.900000 22.145000
L226.900000 25.145000
" />
<path d="M230.300000 25.145000
L230.300000 22.145000
" />
<path d="M230.300000 22.145000
L226.900000 22.145000
" />
<path d="M122.125000 63.245000
L125.525000 63.245000
" />
<path d="M122.125000 60.245000
L122.125000 63.245000
" />
<path d="M125.525000 63.245000
L125.525000 60.245000
" />
<path d="M125.525000 60.245000
L122.125000 60.245000
" />
<path d="M201.725000 3.095000
L198.325000 3.095000
" />
<path d="M201.725000 6.095000
L201.725000 3.095000
" />
<path d="M198.325000 3.095000
L198.325000 6.095000
" />
<path d="M198.325000 6.095000
L201.725000 6.095000
" />
<path d="M179.275000 63.245000
L182.675000 63.245000
" />
<path d="M179.275000 60.245000
L179.275000 63.245000
" />
<path d="M182.675000 63.245000
L182.675000 60.245000
" />
<path d="M182.675000 60.245000
L179.275000 60.245000
" />
<path d="M277.925000 79.295000
L274.525000 79.295000
" />
<path d="M277.925000 82.295000
L277.925000 79.295000
" />
<path d="M274.525000 79.295000
L274.525000 82.295000
" />
<path d="M274.525000 82.295000
L277.925000 82.295000
" />
<path d="M220.775000 3.095000
L217.375000 3.095000
" />
<path d="M220.775000 6.095000
L220.775000 3.095000
" />
<path d="M217.375000 3.095000
L217.375000 6.095000
" />
<path d="M217.375000 6.095000
L220.775000 6.095000
" />
<path d="M239.825000 3.095000
L236.425000 3.095000
" />
<path d="M239.825000 6.095000
L239.825000 3.095000
" />
<path d="M236.425000 3.095000
L236.425000 6.095000
" />
<path d="M236.425000 6.095000
L239.825000 6.095000
" />
<path d="M188.800000 25.145000
L192.200000 25.145000
" />
<path d="M188.800000 22.145000
L188.800000 25.145000
" />
<path d="M192.200000 25.145000
L192.200000 22.145000
" />
<path d="M192.200000 22.145000
L188.800000 22.145000
" />
<path d="M74.500000 25.145000
L77.900000 25.145000
" />
<path d="M74.500000 22.145000
L74.500000 25.145000
" />
<path d="M77.900000 25.145000
L77.900000 22.145000
" />
<path d="M77.900000 22.145000
L74.500000 22.145000
" />
<path d="M158.862500 41.195000
L155.462500 41.195000
" />
<path d="M158.862500 44.195000
L158.862500 41.195000
" />
<path d="M155.462500 41.195000
L155.462500 44.195000
" />
<path d="M155.462500 44.195000
L158.862500 44.195000
" />
<path d="M55.450000 25.145000
L58.850000 25.145000
" />
<path d="M55.450000 22.145000
L55.450000 25.145000
" />
<path d="M58.850000 25.145000
L58.850000 22.145000
" />
<path d="M58.850000 22.145000
L55.450000 22.145000
" />
<path d="M12.587500 25.145000
L15.987500 25.145000
" />
<path d="M12.587500 22.145000
L12.587500 25.145000
" />
<path d="M15.987500 25.145000
L15.987500 22.145000
" />
<path d="M15.987500 22.145000
L12.587500 22.145000
" />
<path d="M11.374800 3.095000
L7.974800 3.095000
" />
<path d="M11.374800 6.095000
L11.374800 3.095000
" />
<path d="M7.974800 3.095000
L7.974800 6.095000
" />
<path d="M7.974800 6.095000
L11.374800 6.095000
" />
<path d="M160.225000 63.245000
L163.625000 63.245000
" />
<path d="M160.225000 60.245000
L160.225000 63.245000
" />
<path d="M163.625000 63.245000
L163.625000 60.245000
" />
<path d="M163.625000 60.245000
L160.225000 60.245000
" />
<path d="M17.350000 63.245000
L20.750000 63.245000
" />
<path d="M17.350000 60.245000
L17.350000 63.245000
" />
<path d="M20.750000 63.245000
L20.750000 60.245000
" />
<path d="M20.750000 60.245000
L17.350000 60.245000
" />
<path d="M258.875000 3.095000
L255.475000 3.095000
" />
<path d="M258.875000 6.095000
L258.875000 3.095000
" />
<path d="M255.475000 3.095000
L255.475000 6.095000
" />
<path d="M255.475000 6.095000
L258.875000 6.095000
" />
<path d="M220.775000 79.295000
L217.375000 79.295000
" />
<path d="M220.775000 82.295000
L220.775000 79.295000
" />
<path d="M217.375000 79.295000
L217.375000 82.295000
" />
<path d="M217.375000 82.295000
L220.775000 82.295000
" />
<path d="M235.062500 41.195000
L231.662500 41.195000
" />
<path d="M235.062500 44.195000
L235.062500 41.195000
" />
<path d="M231.662500 41.195000
L231.662500 44.195000
" />
<path d="M231.662500 44.195000
L235.062500 44.195000
" />
<path d="M103.075000 63.245000
L106.475000 63.245000
" />
<path d="M103.075000 60.245000
L103.075000 63.245000
" />
<path d="M106.475000 63.245000
L106.475000 60.245000
" />
<path d="M106.475000 60.245000
L103.075000 60.245000
" />
<path d="M106.475000 3.095000
L103.075000 3.095000
" />
<path d="M106.475000 6.095000
L106.475000 3.095000
" />
<path d="M103.075000 3.095000
L103.075000 6.095000
" />
<path d="M103.075000 6.095000
L106.475000 6.095000
" />
<path d="M177.912500 41.195000
L174.512500 41.195000
" />
<path d="M177.912500 44.195000
L177.912500 41.195000
" />
<path d="M174.512500 41.195000
L174.512500 44.195000
" />
<path d="M174.512500 44.195000
L177.912500 44.195000
" />
<path d="M61.231250 79.295000
L57.831250 79.295000
" />
<path d="M61.231250 82.295000
L61.231250 79.295000
" />
<path d="M57.831250 79.295000
L57.831250 82.295000
" />
<path d="M57.831250 82.295000
L61.231250 82.295000
" />
<path d="M44.562500 41.195000
L41.162500 41.195000
" />
<path d="M44.562500 44.195000
L44.562500 41.195000
" />
<path d="M41.162500 41.195000
L41.162500 44.195000
" />
<path d="M41.162500 44.195000
L44.562500 44.195000
" />
<path d="M120.762500 41.195000
L117.362500 41.195000
" />
<path d="M120.762500 44.195000
L120.762500 41.195000
" />
<path d="M117.362500 41.195000
L117.362500 44.195000
" />
<path d="M117.362500 44.195000
L120.762500 44.195000
" />
<path d="M245.950000 25.145000
L249.350000 25.145000
" />
<path d="M245.950000 22.145000
L245.950000 25.145000
" />
<path d="M249.350000 25.145000
L249.350000 22.145000
" />
<path d="M249.350000 22.145000
L245.950000 22.145000
" />
<path d="M101.712500 41.195000
L98.312500 41.195000
" />
<path d="M101.712500 44.195000
L101.712500 41.195000
" />
<path d="M98.312500 41.195000
L98.312500 44.195000
" />
<path d="M98.312500 44.195000
L101.712500 44.195000
" />
<path d="M144.575000 3.095000
L141.175000 3.095000
" />
<path d="M144.575000 6.095000
L144.575000 3.095000
" />
<path d="M141.175000 3.095000
L141.175000 6.095000
" />
<path d="M141.175000 6.095000
L144.575000 6.095000
" />
<path d="M198.325000 63.245000
L201.725000 63.245000
" />
<path d="M198.325000 60.245000
L198.325000 63.245000
" />
<path d="M201.725000 63.245000
L201.725000 60.245000
" />
<path d="M201.725000 60.245000
L198.325000 60.245000
" />
<path d="M131.650000 25.145000
L135.050000 25.145000
" />
<path d="M131.650000 22.145000
L131.650000 25.145000
" />
<path d="M135.050000 25.145000
L135.050000 22.145000
" />
<path d="M135.050000 22.145000
L131.650000 22.145000
" />
<path d="M258.875210 79.295000
L255.475210 79.295000
" />
<path d="M258.875210 82.295000
L258.875210 79.295000
" />
<path d="M255.475210 79.295000
L255.475210 82.295000
" />
<path d="M255.475210 82.295000
L258.875210 82.295000
" />
<path d="M236.425000 63.245000
L239.825000 63.245000
" />
<path d="M236.425000 60.245000
L236.425000 63.245000
" />
<path d="M239.825000 63.245000
L239.825000 60.245000
" />
<path d="M239.825000 60.245000
L236.425000 60.245000
" />
<path d="M13.606250 79.295000
L10.206250 79.295000
" />
<path d="M13.606250 82.295000
L13.606250 79.295000
" />
<path d="M10.206250 79.295000
L10.206250 82.295000
" />
<path d="M10.206250 82.295000
L13.606250 82.295000
" />
<path d="M255.475210 63.245000
L258.875210 63.245000
" />
<path d="M255.475210 60.245000
L255.475210 63.245000
" />
<path d="M258.875210 63.245000
L258.875210 60.245000
" />
<path d="M258.875210 60.245000
L255.475210 60.245000
" />
<path d="M37.418750 79.295000
L34.018750 79.295000
" />
<path d="M37.418750 82.295000
L37.418750 79.295000
" />
<path d="M34.018750 79.295000
L34.018750 82.295000
" />
<path d="M34.018750 82.295000
L37.418750 82.295000
" />
<path d="M239.825000 79.295000
L236.425000 79.295000
" />
<path d="M239.825000 82.295000
L239.825000 79.295000
" />
<path d="M236.425000 79.295000
L236.425000 82.295000
" />
<path d="M236.425000 82.295000
L239.825000 82.295000
" />
<path d="M93.550000 25.145000
L96.950000 25.145000
" />
<path d="M93.550000 22.145000
L93.550000 25.145000
" />
<path d="M96.950000 25.145000
L96.950000 22.145000
" />
<path d="M96.950000 22.145000
L93.550000 22.145000
" />
<path d="M18.368750 41.195000
L14.968750 41.195000
" />
<path d="M18.368750 44.195000
L18.368750 41.195000
" />
<path d="M14.968750 41.195000
L14.968750 44.195000
" />
<path d="M14.968750 44.195000
L18.368750 44.195000
" />
<path d="M82.662500 41.195000
L79.262500 41.195000
" />
<path d="M82.662500 44.195000
L82.662500 41.195000
" />
<path d="M79.262500 41.195000
L79.262500 44.195000
" />
<path d="M79.262500 44.195000
L82.662500 44.195000
" />
<path d="M216.012500 41.195000
L212.612500 41.195000
" />
<path d="M216.012500 44.195000
L216.012500 41.195000
" />
<path d="M212.612500 41.195000
L212.612500 44.195000
" />
<path d="M212.612500 44.195000
L216.012500 44.195000
" />
<path d="M150.700000 25.145000
L154.100000 25.145000
" />
<path d="M150.700000 22.145000
L150.700000 25.145000
" />
<path d="M154.100000 25.145000
L154.100000 22.145000
" />
<path d="M154.100000 22.145000
L150.700000 22.145000
" />
<path d="M45.925000 63.245000
L49.325000 63.245000
" />
<path d="M45.925000 60.245000
L45.925000 63.245000
" />
<path d="M49.325000 63.245000
L49.325000 60.245000
" />
<path d="M49.325000 60.245000
L45.925000 60.245000
" />
<path d="M125.525000 3.095000
L122.125000 3.095000
" />
<path d="M125.525000 6.095000
L125.525000 3.095000
" />
<path d="M122.125000 3.095000
L122.125000 6.095000
" />
<path d="M122.125000 6.095000
L125.525000 6.095000
" />
<path d="M182.675000 3.095000
L179.275000 3.095000
" />
<path d="M182.675000 6.095000
L182.675000 3.095000
" />
<path d="M179.275000 3.095000
L179.275000 6.095000
" />
<path d="M179.275000 6.095000
L182.675000 6.095000
" />
<path d="M132.668750 79.295000
L129.268750 79.295000
" />
<path d="M132.668750 82.295000
L132.668750 79.295000
" />
<path d="M129.268750 79.295000
L129.268750 82.295000
" />
<path d="M129.268750 82.295000
L132.668750 82.295000
" />
<path d="M141.175000 63.245000
L144.575000 63.245000
" />
<path d="M141.175000 60.245000
L141.175000 63.245000
" />
<path d="M144.575000 63.245000
L144.575000 60.245000
" />
<path d="M144.575000 60.245000
L141.175000 60.245000
" />
<path d="M87.425000 3.095000
L84.025000 3.095000
" />
<path d="M87.425000 6.095000
L87.425000 3.095000
" />
<path d="M84.025000 3.095000
L84.025000 6.095000
" />
<path d="M84.025000 6.095000
L87.425000 6.095000
" />
<path d="M254.112500 41.195000
L250.712500 41.195000
" />
<path d="M254.112500 44.195000
L254.112500 41.195000
" />
<path d="M250.712500 41.195000
L250.712500 44.195000
" />
<path d="M250.712500 44.195000
L254.112500 44.195000
" />
<path d="M201.725000 79.295000
L198.325000 79.295000
" />
<path d="M201.725000 82.295000
L201.725000 79.295000
" />
<path d="M198.325000 79.295000
L198.325000 82.295000
" />
<path d="M198.325000 82.295000
L201.725000 82.295000
" />
<path d="M30.275000 3.095000
L26.875000 3.095000
" />
<path d="M30.275000 6.095000
L30.275000 3.095000
" />
<path d="M26.875000 3.095000
L26.875000 6.095000
" />
<path d="M26.875000 6.095000
L30.275000 6.095000
" />
<path d="M277.925000 3.095000
L274.525000 3.095000
" />
<path d="M277.925000 6.095000
L277.925000 3.095000
" />
<path d="M274.525000 3.095000
L274.525000 6.095000
" />
<path d="M274.525000 6.095000
L277.925000 6.095000
" />
<path d="M169.750000 25.145000
L173.150000 25.145000
" />
<path d="M169.750000 22.145000
L169.750000 25.145000
" />
<path d="M173.150000 25.145000
L173.150000 22.145000
" />
<path d="M173.150000 22.145000
L169.750000 22.145000
" />
<path d="M217.375000 63.245000
L220.775000 63.245000
" />
<path d="M217.375000 60.245000
L217.375000 63.245000
" />
<path d="M220.775000 63.245000
L220.775000 60.245000
" />
<path d="M220.775000 60.245000
L217.375000 60.245000
" />
<path d="M49.325000 3.095000
L45.925000 3.095000
" />
<path d="M49.325000 6.095000
L49.325000 3.095000
" />
<path d="M45.925000 3.095000
L45.925000 6.095000
" />
<path d="M45.925000 6.095000
L49.325000 6.095000
" />
<path d="M36.400000 25.145000
L39.800000 25.145000
" />
<path d="M36.400000 22.145000
L36.400000 25.145000
" />
<path d="M39.800000 25.145000
L39.800000 22.145000
" />
<path d="M39.800000 22.145000
L36.400000 22.145000
" />
<path d="M196.962500 41.195000
L193.562500 41.195000
" />
<path d="M196.962500 44.195000
L196.962500 41.195000
" />
<path d="M193.562500 41.195000
L193.562500 44.195000
" />
<path d="M193.562500 44.195000
L196.962500 44.195000
" />
<path d="M163.625000 3.095000
L160.225000 3.095000
" />
<path d="M163.625000 6.095000
L163.625000 3.095000
" />
<path d="M160.225000 3.095000
L160.225000 6.095000
" />
<path d="M160.225000 6.095000
L163.625000 6.095000
" />
<path d="M63.612500 41.195000
L60.212500 41.195000
" />
<path d="M63.612500 44.195000
L63.612500 41.195000
" />
<path d="M60.212500 41.195000
L60.212500 44.195000
" />
<path d="M60.212500 44.195000
L63.612500 44.195000
" />
<path d="M84.025000 63.245000
L87.425000 63.245000
" />
<path d="M84.025000 60.245000
L84.025000 63.245000
" />
<path d="M87.425000 63.245000
L87.425000 60.245000
" />
<path d="M87.425000 60.245000
L84.025000 60.245000
" />
<path d="M64.975000 63.245000
L68.375000 63.245000
" />
<path d="M64.975000 60.245000
L64.975000 63.245000
" />
<path d="M68.375000 63.245000
L68.375000 60.245000
" />
<path d="M68.375000 60.245000
L64.975000 60.245000
" />
<g >
</g>
<g >
</g>
<g >
</g>
<g >
</g>
<g >
</g>
<g >
</g>
<g >
</g>
<g >
</g>
<g >
</g>
<g >
</g>
<g >
</g>
<g >
</g>
<g >
</g>
<g >
</g>
<g >
</g>
<g >
</g>
<g >
</g>
<g >
</g>
<g >
</g>
<g >
</g>
<g >
</g>
<g >
</g>
<g >
</g>
<g >
</g>
<g >
</g>
<g >
</g>
<g >
</g>
<g >
</g>
<g >
</g>
<g >
</g>
<g >
</g>
<g >
</g>
<g >
</g>
<g >
</g>
<g >
</g>
<g >
</g>
<g >
</g>
<g >
</g>
<g >
</g>
<g >
</g>
<g >
</g>
<g >
</g>
<g >
</g>
<g >
</g>
<g >
</g>
<g >
</g>
<g >
</g>
<g >
</g>
<g >
</g>
<g >
</g>
<g >
</g>
<g >
</g>
<g >
</g>
<g >
</g>
<g >
</g>
<g >
</g>
<g >
</g>
<g >
</g>
<g >
</g>
<g >
</g>
<g >
</g>
<g >
</g>
<g >
</g>
<g >
</g>
<g >
</g>
<g >
</g>
<g >
</g>
<g >
</g>
<g >
</g>
<g >
</g>
<g >
</g>
<g >
</g>
<g >
</g>
<g >
</g>
<g >
</g>
<g >
</g>
<g >
</g>
<g >
</g>
<g >
</g>
<g >
</g>
<g >
</g>
<g >
</g>
<g >
</g>
<g >
</g>
<g >
</g>
<g >
</g>
<g >
</g>
<g >
</g>
<g >
</g>
<g >
</g>
<g >
</g>
<g >
</g>
<g >
</g>
<g >
</g>
<g >
</g>
<g >
</g>
<g >
</g>
<g >
</g>
<g >
</g>
<g >
</g>
<g >
</g>
<g >
</g>
<g >
</g>
<g >
</g>
<g >
</g>
<g >
</g>
<g >
</g>
<g >
</g>
<g >
</g>
<g >
</g>
<g >
</g>
<g >
</g>
<g >
</g>
<g >
</g>
<g >
</g>
<g >
</g>
<g >
</g>
<g >
</g>
<g >
</g>
<g >
</g>
<g >
</g>
<g >
</g>
<g >
</g>
<g >
</g>
<g >
</g>
<g >
</g>
<g >
</g>
<g >
</g>
<g >
</g>
<g >
</g>
<g >
</g>
<g >
</g>
<g >
</g>
<g >
</g>
<g >
</g>
<g >
</g>
<g >
</g>
<g >
</g>
<g >
</g>
<g >
</g>
<g >
</g>
<g >
</g>
<g >
</g>
<g >
</g>
<g >
</g>
<g >
</g>
<g >
</g>
<g >
</g>
<g >
</g>
<g >
</g>
<g >
</g>
<g >
</g>
<g >
</g>
<g >
</g>
<g >
</g>
<g >
</g>
<g >
</g>
<g >
</g>
<g >
</g>
<g >
</g>
<g >
</g>
<g >
</g>
<g >
</g>
<g >
</g>
<g >
</g>
<g >
</g>
<g >
</g>
<g >
</g>
<g >
</g>
<g >
</g>
<g >
</g>
<g >
</g>
<g >
</g>
<g >
</g>
<g >
</g>
<g >
</g>
<g >
</g>
<g >
</g>
<g >
</g>
<g >
</g>
<g >
</g>
<g >
</g>
<g >
</g>
<g >
</g>
<g >
</g>
<g >
</g>
<g >
</g>
<g >
</g>
<g >
</g>
<g >
</g>
<g >
</g>
<g >
</g>
<g >
</g>
<g >
</g>
<g >
</g>
<g >
</g>
<g >
</g>
<g >
</g>
<g >
</g>
<g >
</g>
<g >
</g>
<g >
</g>
<g >
</g>
<g >
</g>
<g >
</g>
<g >
</g>
<g >
</g>
<g >
</g>
<g >
</g>
<g >
</g>
<g >
</g>
<g >
</g>
<g >
</g>
<g >
</g>
<g >
</g>
<g >
</g>
<g >
</g>
<g >
</g>
<g >
</g>
<g >
</g>
<g >
</g>
<g >
</g>
<g >
</g>
</g> 
</svg>
