<?xml version="1.0" standalone="no"?>
 <!DOCTYPE svg PUBLIC "-//W3C//DTD SVG 1.1//EN" 
 "http://www.w3.org/Graphics/SVG/1.1/DTD/svg11.dtd"> 
<svg
  xmlns:svg="http://www.w3.org/2000/svg"
  xmlns="http://www.w3.org/2000/svg"
  xmlns:xlink="http://www.w3.org/1999/xlink"
  version="1.1"
  width="29.217620cm" height="9.601200cm" viewBox="0 0 292176200 96012000">
<title>SVG Picture created as 2choc2flat-extmcu-iso-User_Eco2.svg date 2024/09/17 15:45:55 </title>
  <desc>Picture generated by PCBNEW </desc>
<g style="fill:#000000; fill-opacity:1.000000;stroke:#000000; stroke-opacity:1.000000;
stroke-linecap:round; stroke-linejoin:round;"
 transform="translate(0 0) scale(1 1)">
</g>
<g style="fill:#000000; fill-opacity:0.0; 
stroke:#000000; stroke-width:0.000000; stroke-opacity:1; 
stroke-linecap:round; stroke-linejoin:round;">
</g>
<g style="fill:#000000; fill-opacity:0.0; 
stroke:#000000; stroke-width:120000.000000; stroke-opacity:1; 
stroke-linecap:round; stroke-linejoin:round;">
<circle cx="263647000.000000" cy="28619550.000000" r="3000000.000000" /> 
<path d="M288464000 54748500
L282114000 54748500
" />
<path d="M282114000 54748500
L282114000 59828500
" />
<path d="M282114000 59828500
L288464000 59828500
" />
<path d="M288464000 59828500
L288464000 54748500
" />
<circle cx="193722160.000000" cy="85917500.000000" r="3000000.000000" /> 
<circle cx="131809608.000000" cy="47817540.000000" r="2500000.000000" /> 
<path d="M3730000 55002500
L10080000 55002500
" />
<path d="M10080000 55002500
L10080000 60082500
" />
<path d="M10080000 60082500
L3730000 60082500
" />
<path d="M3730000 60082500
L3730000 55002500
" />
<circle cx="28822000.000000" cy="28967524.000000" r="3000000.000000" /> 
<circle cx="277065980.000000" cy="38492500.000000" r="2502500.000000" /> 
<circle cx="277065980.000000" cy="32592500.000000" r="1502500.000000" /> 
<circle cx="282065980.000000" cy="34692500.000000" r="1502500.000000" /> 
<circle cx="79422000.000000" cy="23067500.000000" r="1502500.000000" /> 
<circle cx="84422000.000000" cy="25167500.000000" r="1502500.000000" /> 
<circle cx="79422000.000000" cy="28967500.000000" r="2502500.000000" /> 
<circle cx="98472000.000000" cy="23067500.000000" r="1502500.000000" /> 
<circle cx="103472000.000000" cy="25167500.000000" r="1502500.000000" /> 
<circle cx="98472000.000000" cy="28967500.000000" r="2502500.000000" /> 
<circle cx="155622000.000000" cy="23067500.000000" r="1502500.000000" /> 
<circle cx="160622000.000000" cy="25167500.000000" r="1502500.000000" /> 
<circle cx="155622000.000000" cy="28967500.000000" r="2502500.000000" /> 
<circle cx="174672000.000000" cy="23067500.000000" r="1502500.000000" /> 
<circle cx="179672000.000000" cy="25167500.000000" r="1502500.000000" /> 
<circle cx="174672000.000000" cy="28967500.000000" r="2502500.000000" /> 
<circle cx="41322000.000000" cy="23067500.000000" r="1502500.000000" /> 
<circle cx="46322000.000000" cy="25167500.000000" r="1502500.000000" /> 
<circle cx="41322000.000000" cy="28967500.000000" r="2502500.000000" /> 
<circle cx="136572000.000000" cy="23067500.000000" r="1502500.000000" /> 
<circle cx="141572000.000000" cy="25167500.000000" r="1502500.000000" /> 
<circle cx="136572000.000000" cy="28967500.000000" r="2502500.000000" /> 
<circle cx="117522000.000000" cy="23067500.000000" r="1502500.000000" /> 
<circle cx="122522000.000000" cy="25167500.000000" r="1502500.000000" /> 
<circle cx="117522000.000000" cy="28967500.000000" r="2502500.000000" /> 
<circle cx="60372000.000000" cy="23067500.000000" r="1502500.000000" /> 
<circle cx="65372000.000000" cy="25167500.000000" r="1502500.000000" /> 
<circle cx="60372000.000000" cy="28967500.000000" r="2502500.000000" /> 
<circle cx="17509500.000000" cy="28967500.000000" r="2502500.000000" /> 
<circle cx="22509500.000000" cy="25167500.000000" r="1502500.000000" /> 
<circle cx="17509500.000000" cy="23067500.000000" r="1502500.000000" /> 
<circle cx="146097000.000000" cy="4017500.000000" r="1502500.000000" /> 
<circle cx="151097000.000000" cy="6117500.000000" r="1502500.000000" /> 
<circle cx="146097000.000000" cy="9917500.000000" r="2502500.000000" /> 
<circle cx="184197000.000000" cy="4017500.000000" r="1502500.000000" /> 
<circle cx="189197000.000000" cy="6117500.000000" r="1502500.000000" /> 
<circle cx="184197000.000000" cy="9917500.000000" r="2502500.000000" /> 
<circle cx="260397000.000000" cy="4017500.000000" r="1502500.000000" /> 
<circle cx="265397000.000000" cy="6117500.000000" r="1502500.000000" /> 
<circle cx="260397000.000000" cy="9917500.000000" r="2502500.000000" /> 
<circle cx="88947000.000000" cy="4017500.000000" r="1502500.000000" /> 
<circle cx="93947000.000000" cy="6117500.000000" r="1502500.000000" /> 
<circle cx="88947000.000000" cy="9917500.000000" r="2502500.000000" /> 
<circle cx="241347000.000000" cy="4017500.000000" r="1502500.000000" /> 
<circle cx="246347000.000000" cy="6117500.000000" r="1502500.000000" /> 
<circle cx="241347000.000000" cy="9917500.000000" r="2502500.000000" /> 
<circle cx="222297000.000000" cy="4017500.000000" r="1502500.000000" /> 
<circle cx="227297000.000000" cy="6117500.000000" r="1502500.000000" /> 
<circle cx="222297000.000000" cy="9917500.000000" r="2502500.000000" /> 
<circle cx="203247000.000000" cy="4017500.000000" r="1502500.000000" /> 
<circle cx="208247000.000000" cy="6117500.000000" r="1502500.000000" /> 
<circle cx="203247000.000000" cy="9917500.000000" r="2502500.000000" /> 
<circle cx="165147000.000000" cy="4017500.000000" r="1502500.000000" /> 
<circle cx="170147000.000000" cy="6117500.000000" r="1502500.000000" /> 
<circle cx="165147000.000000" cy="9917500.000000" r="2502500.000000" /> 
<circle cx="127047000.000000" cy="4017500.000000" r="1502500.000000" /> 
<circle cx="132047000.000000" cy="6117500.000000" r="1502500.000000" /> 
<circle cx="127047000.000000" cy="9917500.000000" r="2502500.000000" /> 
<circle cx="107997000.000000" cy="4017500.000000" r="1502500.000000" /> 
<circle cx="112997000.000000" cy="6117500.000000" r="1502500.000000" /> 
<circle cx="107997000.000000" cy="9917500.000000" r="2502500.000000" /> 
<circle cx="69897000.000000" cy="4017500.000000" r="1502500.000000" /> 
<circle cx="74897000.000000" cy="6117500.000000" r="1502500.000000" /> 
<circle cx="69897000.000000" cy="9917500.000000" r="2502500.000000" /> 
<circle cx="31797000.000000" cy="4017500.000000" r="1502500.000000" /> 
<circle cx="36797000.000000" cy="6117500.000000" r="1502500.000000" /> 
<circle cx="31797000.000000" cy="9917500.000000" r="2502500.000000" /> 
<circle cx="12747000.000000" cy="4017500.000000" r="1502500.000000" /> 
<circle cx="17747000.000000" cy="6117500.000000" r="1502500.000000" /> 
<circle cx="12747000.000000" cy="9917500.000000" r="2502500.000000" /> 
<circle cx="50847000.000000" cy="4017500.000000" r="1502500.000000" /> 
<circle cx="55847000.000000" cy="6117500.000000" r="1502500.000000" /> 
<circle cx="50847000.000000" cy="9917500.000000" r="2502500.000000" /> 
<circle cx="203247000.000000" cy="80217500.000000" r="1502500.000000" /> 
<circle cx="208247000.000000" cy="82317500.000000" r="1502500.000000" /> 
<circle cx="203247000.000000" cy="86117500.000000" r="2502500.000000" /> 
<circle cx="165147000.000000" cy="61167500.000000" r="1502500.000000" /> 
<circle cx="170147000.000000" cy="63267500.000000" r="1502500.000000" /> 
<circle cx="165147000.000000" cy="67067500.000000" r="2502500.000000" /> 
<circle cx="260397210.000000" cy="61167556.000000" r="1502500.000000" /> 
<circle cx="265397210.000000" cy="63267556.000000" r="1502500.000000" /> 
<circle cx="260397210.000000" cy="67067556.000000" r="2502500.000000" /> 
<circle cx="10128250.000000" cy="51817500.000000" r="1502500.000000" /> 
<circle cx="15128250.000000" cy="53917500.000000" r="1502500.000000" /> 
<circle cx="15128250.000000" cy="48017500.000000" r="2502500.000000" /> 
<circle cx="241347000.000000" cy="61167500.000000" r="1502500.000000" /> 
<circle cx="246347000.000000" cy="63267500.000000" r="1502500.000000" /> 
<circle cx="241347000.000000" cy="67067500.000000" r="2502500.000000" /> 
<circle cx="184197000.000000" cy="61167500.000000" r="1502500.000000" /> 
<circle cx="189197000.000000" cy="63267500.000000" r="1502500.000000" /> 
<circle cx="184197000.000000" cy="67067500.000000" r="2502500.000000" /> 
<circle cx="222297000.000000" cy="61167500.000000" r="1502500.000000" /> 
<circle cx="227297000.000000" cy="63267500.000000" r="1502500.000000" /> 
<circle cx="222297000.000000" cy="67067500.000000" r="2502500.000000" /> 
<circle cx="146097000.000000" cy="61167500.000000" r="1502500.000000" /> 
<circle cx="151097000.000000" cy="63267500.000000" r="1502500.000000" /> 
<circle cx="146097000.000000" cy="67067500.000000" r="2502500.000000" /> 
<circle cx="203247000.000000" cy="61167500.000000" r="1502500.000000" /> 
<circle cx="208247000.000000" cy="63267500.000000" r="1502500.000000" /> 
<circle cx="203247000.000000" cy="67067500.000000" r="2502500.000000" /> 
<circle cx="260397000.000000" cy="80217572.000000" r="1502500.000000" /> 
<circle cx="265397000.000000" cy="82317572.000000" r="1502500.000000" /> 
<circle cx="260397000.000000" cy="86117572.000000" r="2502500.000000" /> 
<circle cx="241347000.000000" cy="80217500.000000" r="1502500.000000" /> 
<circle cx="246347000.000000" cy="82317500.000000" r="1502500.000000" /> 
<circle cx="241347000.000000" cy="86117500.000000" r="2502500.000000" /> 
<circle cx="250872000.000000" cy="23067500.000000" r="1502500.000000" /> 
<circle cx="255872000.000000" cy="25167500.000000" r="1502500.000000" /> 
<circle cx="250872000.000000" cy="28967500.000000" r="2502500.000000" /> 
<circle cx="69897000.000000" cy="61167500.000000" r="1502500.000000" /> 
<circle cx="74897000.000000" cy="63267500.000000" r="1502500.000000" /> 
<circle cx="69897000.000000" cy="67067500.000000" r="2502500.000000" /> 
<circle cx="193722000.000000" cy="23067500.000000" r="1502500.000000" /> 
<circle cx="198722000.000000" cy="25167500.000000" r="1502500.000000" /> 
<circle cx="193722000.000000" cy="28967500.000000" r="2502500.000000" /> 
<circle cx="122284500.000000" cy="42117500.000000" r="1502500.000000" /> 
<circle cx="127284500.000000" cy="44217500.000000" r="1502500.000000" /> 
<circle cx="122284500.000000" cy="48017500.000000" r="2502500.000000" /> 
<circle cx="65134500.000000" cy="42117500.000000" r="1502500.000000" /> 
<circle cx="70134500.000000" cy="44217500.000000" r="1502500.000000" /> 
<circle cx="65134500.000000" cy="48017500.000000" r="2502500.000000" /> 
<circle cx="67753250.000000" cy="82317500.000000" r="1502500.000000" /> 
<circle cx="62753250.000000" cy="80217500.000000" r="1502500.000000" /> 
<circle cx="62753250.000000" cy="86117500.000000" r="2502500.000000" /> 
<circle cx="222297000.000000" cy="80217500.000000" r="1502500.000000" /> 
<circle cx="227297000.000000" cy="82317500.000000" r="1502500.000000" /> 
<circle cx="222297000.000000" cy="86117500.000000" r="2502500.000000" /> 
<circle cx="279447000.000000" cy="72967500.000000" r="1502500.000000" /> 
<circle cx="274447000.000000" cy="70867500.000000" r="1502500.000000" /> 
<circle cx="279447000.000000" cy="67067500.000000" r="2502500.000000" /> 
<circle cx="179434500.000000" cy="42117500.000000" r="1502500.000000" /> 
<circle cx="184434500.000000" cy="44217500.000000" r="1502500.000000" /> 
<circle cx="179434500.000000" cy="48017500.000000" r="2502500.000000" /> 
<circle cx="20128250.000000" cy="82317500.000000" r="1502500.000000" /> 
<circle cx="15128250.000000" cy="80217500.000000" r="1502500.000000" /> 
<circle cx="15128250.000000" cy="86117500.000000" r="2502500.000000" /> 
<circle cx="231822000.000000" cy="23067500.000000" r="1502500.000000" /> 
<circle cx="236822000.000000" cy="25167500.000000" r="1502500.000000" /> 
<circle cx="231822000.000000" cy="28967500.000000" r="2502500.000000" /> 
<circle cx="107997000.000000" cy="61167500.000000" r="1502500.000000" /> 
<circle cx="112997000.000000" cy="63267500.000000" r="1502500.000000" /> 
<circle cx="107997000.000000" cy="67067500.000000" r="2502500.000000" /> 
<circle cx="84184500.000000" cy="42117500.000000" r="1502500.000000" /> 
<circle cx="89184500.000000" cy="44217500.000000" r="1502500.000000" /> 
<circle cx="84184500.000000" cy="48017500.000000" r="2502500.000000" /> 
<circle cx="255634500.000000" cy="42117500.000000" r="1502500.000000" /> 
<circle cx="260634500.000000" cy="44217500.000000" r="1502500.000000" /> 
<circle cx="255634500.000000" cy="48017500.000000" r="2502500.000000" /> 
<circle cx="160384500.000000" cy="42117500.000000" r="1502500.000000" /> 
<circle cx="165384500.000000" cy="44217500.000000" r="1502500.000000" /> 
<circle cx="160384500.000000" cy="48017500.000000" r="2502500.000000" /> 
<circle cx="103234500.000000" cy="42117500.000000" r="1502500.000000" /> 
<circle cx="108234500.000000" cy="44217500.000000" r="1502500.000000" /> 
<circle cx="103234500.000000" cy="48017500.000000" r="2502500.000000" /> 
<circle cx="46084500.000000" cy="42117500.000000" r="1502500.000000" /> 
<circle cx="51084500.000000" cy="44217500.000000" r="1502500.000000" /> 
<circle cx="46084500.000000" cy="48017500.000000" r="2502500.000000" /> 
<circle cx="198484500.000000" cy="42117500.000000" r="1502500.000000" /> 
<circle cx="203484500.000000" cy="44217500.000000" r="1502500.000000" /> 
<circle cx="198484500.000000" cy="48017500.000000" r="2502500.000000" /> 
<circle cx="18472000.000000" cy="62067500.000000" r="1502500.000000" /> 
<circle cx="22272000.000000" cy="67067500.000000" r="2502500.000000" /> 
<circle cx="16372000.000000" cy="67067500.000000" r="1502500.000000" /> 
<circle cx="236584500.000000" cy="42117500.000000" r="1502500.000000" /> 
<circle cx="241584500.000000" cy="44217500.000000" r="1502500.000000" /> 
<circle cx="236584500.000000" cy="48017500.000000" r="2502500.000000" /> 
<circle cx="217534500.000000" cy="42117500.000000" r="1502500.000000" /> 
<circle cx="222534500.000000" cy="44217500.000000" r="1502500.000000" /> 
<circle cx="217534500.000000" cy="48017500.000000" r="2502500.000000" /> 
<circle cx="212772000.000000" cy="23067500.000000" r="1502500.000000" /> 
<circle cx="217772000.000000" cy="25167500.000000" r="1502500.000000" /> 
<circle cx="212772000.000000" cy="28967500.000000" r="2502500.000000" /> 
<circle cx="141334500.000000" cy="42117500.000000" r="1502500.000000" /> 
<circle cx="146334500.000000" cy="44217500.000000" r="1502500.000000" /> 
<circle cx="141334500.000000" cy="48017500.000000" r="2502500.000000" /> 
<circle cx="19890750.000000" cy="42117500.000000" r="1502500.000000" /> 
<circle cx="19890750.000000" cy="48017500.000000" r="2502500.000000" /> 
<circle cx="24890750.000000" cy="44217500.000000" r="1502500.000000" /> 
<circle cx="127047000.000000" cy="61167500.000000" r="1502500.000000" /> 
<circle cx="132047000.000000" cy="63267500.000000" r="1502500.000000" /> 
<circle cx="127047000.000000" cy="67067500.000000" r="2502500.000000" /> 
<circle cx="43940750.000000" cy="82317500.000000" r="1502500.000000" /> 
<circle cx="38940750.000000" cy="80217500.000000" r="1502500.000000" /> 
<circle cx="38940750.000000" cy="86117500.000000" r="2502500.000000" /> 
<circle cx="88947000.000000" cy="61167500.000000" r="1502500.000000" /> 
<circle cx="93947000.000000" cy="63267500.000000" r="1502500.000000" /> 
<circle cx="88947000.000000" cy="67067500.000000" r="2502500.000000" /> 
<circle cx="50847000.000000" cy="61167500.000000" r="1502500.000000" /> 
<circle cx="55847000.000000" cy="63267500.000000" r="1502500.000000" /> 
<circle cx="50847000.000000" cy="67067500.000000" r="2502500.000000" /> 
<circle cx="279447000.000000" cy="92017572.000000" r="1502500.000000" /> 
<circle cx="274447000.000000" cy="89917572.000000" r="1502500.000000" /> 
<circle cx="279447000.000000" cy="86117572.000000" r="2502500.000000" /> 
<circle cx="279447000.000000" cy="16362500.000000" r="1502500.000000" /> 
<circle cx="274447000.000000" cy="14262500.000000" r="1502500.000000" /> 
<circle cx="279447000.000000" cy="10462500.000000" r="2502500.000000" /> 
<g >
</g>
<g >
</g>
<g >
</g>
<g >
</g>
<g >
</g>
<g >
</g>
<g >
</g>
<g >
</g>
<g >
</g>
<g >
</g>
<g >
</g>
<g >
</g>
<g >
</g>
<g >
</g>
<g >
</g>
<g >
</g>
<g >
</g>
<g >
</g>
<g >
</g>
<g >
</g>
<g >
</g>
<g >
</g>
<g >
</g>
<g >
</g>
<g >
</g>
<g >
</g>
<g >
</g>
<g >
</g>
<g >
</g>
<g >
</g>
<g >
</g>
<g >
</g>
<g >
</g>
<g >
</g>
<g >
</g>
<g >
</g>
<g >
</g>
<g >
</g>
<g >
</g>
<g >
</g>
<g >
</g>
<g >
</g>
<g >
</g>
<g >
</g>
<g >
</g>
<g >
</g>
<g >
</g>
<g >
</g>
<g >
</g>
<g >
</g>
<g >
</g>
<g >
</g>
<g >
</g>
<g >
</g>
<g >
</g>
<g >
</g>
<g >
</g>
<g >
</g>
<g >
</g>
<g >
</g>
<g >
</g>
<g >
</g>
<g >
</g>
<g >
</g>
<g >
</g>
<g >
</g>
<g >
</g>
<g >
</g>
<g >
</g>
<g >
</g>
<g >
</g>
<g >
</g>
<g >
</g>
<g >
</g>
<g >
</g>
<g >
</g>
<g >
</g>
<g >
</g>
<g >
</g>
<g >
</g>
<g >
</g>
<g >
</g>
<g >
</g>
<g >
</g>
<g >
</g>
<g >
</g>
<g >
</g>
<g >
</g>
<g >
</g>
<g >
</g>
<g >
</g>
<g >
</g>
<g >
</g>
<g >
</g>
<g >
</g>
<g >
</g>
<g >
</g>
<g >
</g>
<g >
</g>
<g >
</g>
<g >
</g>
<g >
</g>
<g >
</g>
<g >
</g>
<g >
</g>
<g >
</g>
<g >
</g>
<g >
</g>
<g >
</g>
<g >
</g>
<g >
</g>
<g >
</g>
<g >
</g>
<g >
</g>
<g >
</g>
<g >
</g>
<g >
</g>
<g >
</g>
<g >
</g>
<g >
</g>
<g >
</g>
<g >
</g>
<g >
</g>
<g >
</g>
<g >
</g>
<g >
</g>
<g >
</g>
<g >
</g>
<g >
</g>
<g >
</g>
<g >
</g>
<g >
</g>
<g >
</g>
<g >
</g>
<g >
</g>
<g >
</g>
<g >
</g>
<g >
</g>
<g >
</g>
<g >
</g>
<g >
</g>
<g >
</g>
<g >
</g>
<g >
</g>
<g >
</g>
</g>
<g style="fill:#000000; fill-opacity:0.0; 
stroke:#000000; stroke-width:120000.000000; stroke-opacity:1; 
stroke-linecap:round; stroke-linejoin:round;">
</g>
<g style="fill:#000000; fill-opacity:0.0; 
stroke:#000000; stroke-width:200000.000000; stroke-opacity:1; 
stroke-linecap:round; stroke-linejoin:round;">
<path d="M286447000 917500
L5747000 917500
" />
<path d="M180691000 95117564
L180691000 79992500
" />
<path d="M187691000 95117564
L286447000 95117564
" />
<path d="M5747000.000000 917500.000000 A1999999.000000 1999999.000000 0.0 0 0 3747000.000000 2917500.000000" />
<path d="M286447000.000000 95117564.000000 A1999999.000000 1999999.000000 0.0 0 0 288447000.000000 93117564.000000" />
<path d="M5747000 95117564
L80691000 95117564
" />
<path d="M87691000 95117564
L180691000 95117564
" />
<path d="M3747000 2917500
L3747000 93117564
" />
<path d="M288447000.000000 2917500.000000 A1999999.000000 1999999.000000 0.0 0 0 286447000.000000 917500.000000" />
<path d="M87691000 79992500
L87691000 95117564
" />
<path d="M3747000.000000 93117564.000000 A1999999.000000 1999999.000000 0.0 0 0 5747000.000000 95117564.000000" />
<path d="M187691000 79992500
L187691000 95117564
" />
<path d="M288447000 93117564
L288447000 2917500
" />
<path d="M80691000 79992500
L87691000 79992500
" />
<path d="M80691000 95117564
L80691000 79992500
" />
<path d="M180691000 79992500
L187691000 79992500
" />
</g>
<g style="fill:#000000; fill-opacity:0.0; 
stroke:#000000; stroke-width:120000.000000; stroke-opacity:1; 
stroke-linecap:round; stroke-linejoin:round;">
<path d="M267215980 46992500
L283215980 46992500
" />
<path d="M283215980 22992500
L267215980 22992500
" />
<path d="M267215980 53992500
L267215980 46992500
" />
<path d="M283215980 53992500
L267215980 53992500
" />
<path d="M283215980 22992500
L283215980 29992500
" />
<path d="M283215980 29992500
L267215980 29992500
" />
<path d="M283215980 46992500
L283215980 53992500
" />
<path d="M267215980 22992500
L267215980 29992500
" />
<path d="M30772000 76917500
L30772000 60917500
" />
<path d="M6772000 60917500
L6772000 76917500
" />
<path d="M37772000 76917500
L30772000 76917500
" />
<path d="M37772000 60917500
L37772000 76917500
" />
<path d="M6772000 60917500
L13772000 60917500
" />
<path d="M13772000 60917500
L13772000 76917500
" />
<path d="M30772000 60917500
L37772000 60917500
" />
<path d="M6772000 76917500
L13772000 76917500
" />
<g >
</g>
<g >
</g>
<g >
</g>
<g >
</g>
<g >
</g>
<g >
</g>
<g >
</g>
<g >
</g>
<g >
</g>
<g >
</g>
<g >
</g>
<g >
</g>
<g >
</g>
<g >
</g>
<g >
</g>
<g >
</g>
<g >
</g>
<g >
</g>
<g >
</g>
<g >
</g>
<g >
</g>
<g >
</g>
<g >
</g>
<g >
</g>
<g >
</g>
<g >
</g>
<g >
</g>
<g >
</g>
<g >
</g>
<g >
</g>
<g >
</g>
<g >
</g>
<g >
</g>
<g >
</g>
<g >
</g>
<g >
</g>
<g >
</g>
<g >
</g>
<g >
</g>
<g >
</g>
<g >
</g>
<g >
</g>
<g >
</g>
<g >
</g>
<g >
</g>
<g >
</g>
<g >
</g>
<g >
</g>
<g >
</g>
<g >
</g>
<g >
</g>
<g >
</g>
<g >
</g>
<g >
</g>
<g >
</g>
<g >
</g>
<g >
</g>
<g >
</g>
<g >
</g>
<g >
</g>
<g >
</g>
<g >
</g>
<g >
</g>
<g >
</g>
<g >
</g>
<g >
</g>
<g >
</g>
<g >
</g>
<g >
</g>
<g >
</g>
<g >
</g>
<g >
</g>
<g >
</g>
<g >
</g>
<g >
</g>
<g >
</g>
<g >
</g>
<g >
</g>
<g >
</g>
<g >
</g>
<g >
</g>
<g >
</g>
<g >
</g>
<g >
</g>
<g >
</g>
<g >
</g>
<g >
</g>
<g >
</g>
<g >
</g>
<g >
</g>
<g >
</g>
<g >
</g>
<g >
</g>
<g >
</g>
<g >
</g>
<g >
</g>
<g >
</g>
<g >
</g>
<g >
</g>
<g >
</g>
<g >
</g>
<g >
</g>
<g >
</g>
<g >
</g>
<g >
</g>
<g >
</g>
<g >
</g>
<g >
</g>
<g >
</g>
<g >
</g>
<g >
</g>
<g >
</g>
<g >
</g>
<g >
</g>
<g >
</g>
<g >
</g>
<g >
</g>
<g >
</g>
<g >
</g>
<g >
</g>
<g >
</g>
<g >
</g>
<g >
</g>
<g >
</g>
<g >
</g>
<g >
</g>
<g >
</g>
<g >
</g>
<g >
</g>
<g >
</g>
<g >
</g>
<g >
</g>
<g >
</g>
<g >
</g>
<g >
</g>
<g >
</g>
<g >
</g>
<g >
</g>
<g >
</g>
<g >
</g>
<g >
</g>
<g >
</g>
<g >
</g>
<g >
</g>
<g >
</g>
</g> 
</svg>
