<?xml version="1.0" standalone="no"?>
 <!DOCTYPE svg PUBLIC "-//W3C//DTD SVG 1.1//EN" 
 "http://www.w3.org/Graphics/SVG/1.1/DTD/svg11.dtd"> 
<svg
  xmlns:svg="http://www.w3.org/2000/svg"
  xmlns="http://www.w3.org/2000/svg"
  xmlns:xlink="http://www.w3.org/1999/xlink"
  version="1.1"
  width="29.217620cm" height="9.601200cm" viewBox="0 0 292176200 96012000">
<title>SVG Picture created as 2choc2flat-extmcu-iso-User_Eco1.svg date 2024/09/17 15:46:00 </title>
  <desc>Picture generated by PCBNEW </desc>
<g style="fill:#000000; fill-opacity:1.000000;stroke:#000000; stroke-opacity:1.000000;
stroke-linecap:round; stroke-linejoin:round;"
 transform="translate(0 0) scale(1 1)">
</g>
<g style="fill:#000000; fill-opacity:0.0; 
stroke:#000000; stroke-width:0.000000; stroke-opacity:1; 
stroke-linecap:round; stroke-linejoin:round;">
</g>
<g style="fill:#000000; fill-opacity:0.0; 
stroke:#000000; stroke-width:120000.000000; stroke-opacity:1; 
stroke-linecap:round; stroke-linejoin:round;">
<path d="M3730000 55002500
L10080000 55002500
" />
<path d="M10080000 55002500
L10080000 60082500
" />
<path d="M10080000 60082500
L3730000 60082500
" />
<path d="M3730000 60082500
L3730000 55002500
" />
<circle cx="28822000.000000" cy="28967524.000000" r="3000000.000000" /> 
<path d="M288464000 54748500
L282114000 54748500
" />
<path d="M282114000 54748500
L282114000 59828500
" />
<path d="M282114000 59828500
L288464000 59828500
" />
<path d="M288464000 59828500
L288464000 54748500
" />
<circle cx="193722160.000000" cy="85917500.000000" r="3000000.000000" /> 
<circle cx="131809608.000000" cy="47817540.000000" r="2500000.000000" /> 
<circle cx="263647000.000000" cy="28619550.000000" r="3000000.000000" /> 
</g>
<g style="fill:#000000; fill-opacity:0.0; 
stroke:#000000; stroke-width:100000.000000; stroke-opacity:1; 
stroke-linecap:round; stroke-linejoin:round;">
<path d="M269815980 31242500
L269815980 45742500
" />
<path d="M284315980 31242500
L269815980 31242500
" />
<path d="M284315980 45742500
L284315980 31242500
" />
<path d="M269815980 45742500
L284315980 45742500
" />
<path d="M86672000 21717500
L72172000 21717500
" />
<path d="M72172000 36217500
L86672000 36217500
" />
<path d="M86672000 36217500
L86672000 21717500
" />
<path d="M72172000 21717500
L72172000 36217500
" />
<path d="M105722000 21717500
L91222000 21717500
" />
<path d="M91222000 36217500
L105722000 36217500
" />
<path d="M105722000 36217500
L105722000 21717500
" />
<path d="M91222000 21717500
L91222000 36217500
" />
<path d="M162872000 21717500
L148372000 21717500
" />
<path d="M148372000 36217500
L162872000 36217500
" />
<path d="M162872000 36217500
L162872000 21717500
" />
<path d="M148372000 21717500
L148372000 36217500
" />
<path d="M181922000 21717500
L167422000 21717500
" />
<path d="M167422000 36217500
L181922000 36217500
" />
<path d="M181922000 36217500
L181922000 21717500
" />
<path d="M167422000 21717500
L167422000 36217500
" />
<path d="M48572000 21717500
L34072000 21717500
" />
<path d="M34072000 36217500
L48572000 36217500
" />
<path d="M48572000 36217500
L48572000 21717500
" />
<path d="M34072000 21717500
L34072000 36217500
" />
<path d="M143822000 21717500
L129322000 21717500
" />
<path d="M129322000 36217500
L143822000 36217500
" />
<path d="M143822000 36217500
L143822000 21717500
" />
<path d="M129322000 21717500
L129322000 36217500
" />
<path d="M124772000 21717500
L110272000 21717500
" />
<path d="M110272000 36217500
L124772000 36217500
" />
<path d="M124772000 36217500
L124772000 21717500
" />
<path d="M110272000 21717500
L110272000 36217500
" />
<path d="M67622000 21717500
L53122000 21717500
" />
<path d="M53122000 36217500
L67622000 36217500
" />
<path d="M67622000 36217500
L67622000 21717500
" />
<path d="M53122000 21717500
L53122000 36217500
" />
<path d="M24759500 21717500
L10259500 21717500
" />
<path d="M10259500 36217500
L24759500 36217500
" />
<path d="M10259500 21717500
L10259500 36217500
" />
<path d="M24759500 36217500
L24759500 21717500
" />
<path d="M153347000 2667500
L138847000 2667500
" />
<path d="M138847000 17167500
L153347000 17167500
" />
<path d="M153347000 17167500
L153347000 2667500
" />
<path d="M138847000 2667500
L138847000 17167500
" />
<path d="M191447000 2667500
L176947000 2667500
" />
<path d="M176947000 17167500
L191447000 17167500
" />
<path d="M191447000 17167500
L191447000 2667500
" />
<path d="M176947000 2667500
L176947000 17167500
" />
<path d="M267647000 2667500
L253147000 2667500
" />
<path d="M253147000 17167500
L267647000 17167500
" />
<path d="M267647000 17167500
L267647000 2667500
" />
<path d="M253147000 2667500
L253147000 17167500
" />
<path d="M96197000 2667500
L81697000 2667500
" />
<path d="M81697000 17167500
L96197000 17167500
" />
<path d="M96197000 17167500
L96197000 2667500
" />
<path d="M81697000 2667500
L81697000 17167500
" />
<path d="M248597000 2667500
L234097000 2667500
" />
<path d="M234097000 17167500
L248597000 17167500
" />
<path d="M248597000 17167500
L248597000 2667500
" />
<path d="M234097000 2667500
L234097000 17167500
" />
<path d="M229547000 2667500
L215047000 2667500
" />
<path d="M215047000 17167500
L229547000 17167500
" />
<path d="M229547000 17167500
L229547000 2667500
" />
<path d="M215047000 2667500
L215047000 17167500
" />
<path d="M210497000 2667500
L195997000 2667500
" />
<path d="M195997000 17167500
L210497000 17167500
" />
<path d="M210497000 17167500
L210497000 2667500
" />
<path d="M195997000 2667500
L195997000 17167500
" />
<path d="M172397000 2667500
L157897000 2667500
" />
<path d="M157897000 17167500
L172397000 17167500
" />
<path d="M172397000 17167500
L172397000 2667500
" />
<path d="M157897000 2667500
L157897000 17167500
" />
<path d="M134297000 2667500
L119797000 2667500
" />
<path d="M119797000 17167500
L134297000 17167500
" />
<path d="M134297000 17167500
L134297000 2667500
" />
<path d="M119797000 2667500
L119797000 17167500
" />
<path d="M115247000 2667500
L100747000 2667500
" />
<path d="M100747000 17167500
L115247000 17167500
" />
<path d="M115247000 17167500
L115247000 2667500
" />
<path d="M100747000 2667500
L100747000 17167500
" />
<path d="M77147000 2667500
L62647000 2667500
" />
<path d="M62647000 17167500
L77147000 17167500
" />
<path d="M77147000 17167500
L77147000 2667500
" />
<path d="M62647000 2667500
L62647000 17167500
" />
<path d="M39047000 2667500
L24547000 2667500
" />
<path d="M24547000 17167500
L39047000 17167500
" />
<path d="M39047000 17167500
L39047000 2667500
" />
<path d="M24547000 2667500
L24547000 17167500
" />
<path d="M19997000 2667500
L5497000 2667500
" />
<path d="M5497000 17167500
L19997000 17167500
" />
<path d="M19997000 17167500
L19997000 2667500
" />
<path d="M5497000 2667500
L5497000 17167500
" />
<path d="M58097000 2667500
L43597000 2667500
" />
<path d="M43597000 17167500
L58097000 17167500
" />
<path d="M58097000 17167500
L58097000 2667500
" />
<path d="M43597000 2667500
L43597000 17167500
" />
<path d="M210497000 78867500
L195997000 78867500
" />
<path d="M195997000 93367500
L210497000 93367500
" />
<path d="M210497000 93367500
L210497000 78867500
" />
<path d="M195997000 78867500
L195997000 93367500
" />
<path d="M172397000 59817500
L157897000 59817500
" />
<path d="M157897000 74317500
L172397000 74317500
" />
<path d="M172397000 74317500
L172397000 59817500
" />
<path d="M157897000 59817500
L157897000 74317500
" />
<path d="M267647210 59817556
L253147210 59817556
" />
<path d="M253147210 74317556
L267647210 74317556
" />
<path d="M267647210 74317556
L267647210 59817556
" />
<path d="M253147210 59817556
L253147210 74317556
" />
<path d="M22378250 40767500
L7878250 40767500
" />
<path d="M22378250 55267500
L22378250 40767500
" />
<path d="M7878250 40767500
L7878250 55267500
" />
<path d="M7878250 55267500
L22378250 55267500
" />
<path d="M248597000 59817500
L234097000 59817500
" />
<path d="M234097000 74317500
L248597000 74317500
" />
<path d="M248597000 74317500
L248597000 59817500
" />
<path d="M234097000 59817500
L234097000 74317500
" />
<path d="M191447000 59817500
L176947000 59817500
" />
<path d="M176947000 74317500
L191447000 74317500
" />
<path d="M191447000 74317500
L191447000 59817500
" />
<path d="M176947000 59817500
L176947000 74317500
" />
<path d="M229547000 59817500
L215047000 59817500
" />
<path d="M215047000 74317500
L229547000 74317500
" />
<path d="M229547000 74317500
L229547000 59817500
" />
<path d="M215047000 59817500
L215047000 74317500
" />
<path d="M153347000 59817500
L138847000 59817500
" />
<path d="M138847000 74317500
L153347000 74317500
" />
<path d="M153347000 74317500
L153347000 59817500
" />
<path d="M138847000 59817500
L138847000 74317500
" />
<path d="M210497000 59817500
L195997000 59817500
" />
<path d="M195997000 74317500
L210497000 74317500
" />
<path d="M210497000 74317500
L210497000 59817500
" />
<path d="M195997000 59817500
L195997000 74317500
" />
<path d="M267647000 78867572
L253147000 78867572
" />
<path d="M253147000 93367572
L267647000 93367572
" />
<path d="M267647000 93367572
L267647000 78867572
" />
<path d="M253147000 78867572
L253147000 93367572
" />
<path d="M248597000 78867500
L234097000 78867500
" />
<path d="M234097000 93367500
L248597000 93367500
" />
<path d="M248597000 93367500
L248597000 78867500
" />
<path d="M234097000 78867500
L234097000 93367500
" />
<path d="M258122000 21717500
L243622000 21717500
" />
<path d="M243622000 36217500
L258122000 36217500
" />
<path d="M258122000 36217500
L258122000 21717500
" />
<path d="M243622000 21717500
L243622000 36217500
" />
<path d="M77147000 59817500
L62647000 59817500
" />
<path d="M62647000 74317500
L77147000 74317500
" />
<path d="M77147000 74317500
L77147000 59817500
" />
<path d="M62647000 59817500
L62647000 74317500
" />
<path d="M200972000 21717500
L186472000 21717500
" />
<path d="M186472000 36217500
L200972000 36217500
" />
<path d="M200972000 36217500
L200972000 21717500
" />
<path d="M186472000 21717500
L186472000 36217500
" />
<path d="M129534500 40767500
L115034500 40767500
" />
<path d="M115034500 55267500
L129534500 55267500
" />
<path d="M129534500 55267500
L129534500 40767500
" />
<path d="M115034500 40767500
L115034500 55267500
" />
<path d="M72384500 40767500
L57884500 40767500
" />
<path d="M57884500 55267500
L72384500 55267500
" />
<path d="M72384500 55267500
L72384500 40767500
" />
<path d="M57884500 40767500
L57884500 55267500
" />
<path d="M55503250 93367500
L70003250 93367500
" />
<path d="M55503250 78867500
L55503250 93367500
" />
<path d="M70003250 93367500
L70003250 78867500
" />
<path d="M70003250 78867500
L55503250 78867500
" />
<path d="M229547000 78867500
L215047000 78867500
" />
<path d="M215047000 93367500
L229547000 93367500
" />
<path d="M229547000 93367500
L229547000 78867500
" />
<path d="M215047000 78867500
L215047000 93367500
" />
<path d="M272197000 74317500
L286697000 74317500
" />
<path d="M286697000 59817500
L272197000 59817500
" />
<path d="M272197000 59817500
L272197000 74317500
" />
<path d="M286697000 74317500
L286697000 59817500
" />
<path d="M186684500 40767500
L172184500 40767500
" />
<path d="M172184500 55267500
L186684500 55267500
" />
<path d="M186684500 55267500
L186684500 40767500
" />
<path d="M172184500 40767500
L172184500 55267500
" />
<path d="M7878250 93367500
L22378250 93367500
" />
<path d="M7878250 78867500
L7878250 93367500
" />
<path d="M22378250 93367500
L22378250 78867500
" />
<path d="M22378250 78867500
L7878250 78867500
" />
<path d="M239072000 21717500
L224572000 21717500
" />
<path d="M224572000 36217500
L239072000 36217500
" />
<path d="M239072000 36217500
L239072000 21717500
" />
<path d="M224572000 21717500
L224572000 36217500
" />
<path d="M115247000 59817500
L100747000 59817500
" />
<path d="M100747000 74317500
L115247000 74317500
" />
<path d="M115247000 74317500
L115247000 59817500
" />
<path d="M100747000 59817500
L100747000 74317500
" />
<path d="M91434500 40767500
L76934500 40767500
" />
<path d="M76934500 55267500
L91434500 55267500
" />
<path d="M91434500 55267500
L91434500 40767500
" />
<path d="M76934500 40767500
L76934500 55267500
" />
<path d="M262884500 40767500
L248384500 40767500
" />
<path d="M248384500 55267500
L262884500 55267500
" />
<path d="M262884500 55267500
L262884500 40767500
" />
<path d="M248384500 40767500
L248384500 55267500
" />
<path d="M167634500 40767500
L153134500 40767500
" />
<path d="M153134500 55267500
L167634500 55267500
" />
<path d="M167634500 55267500
L167634500 40767500
" />
<path d="M153134500 40767500
L153134500 55267500
" />
<path d="M110484500 40767500
L95984500 40767500
" />
<path d="M95984500 55267500
L110484500 55267500
" />
<path d="M110484500 55267500
L110484500 40767500
" />
<path d="M95984500 40767500
L95984500 55267500
" />
<path d="M53334500 40767500
L38834500 40767500
" />
<path d="M38834500 55267500
L53334500 55267500
" />
<path d="M53334500 55267500
L53334500 40767500
" />
<path d="M38834500 40767500
L38834500 55267500
" />
<path d="M205734500 40767500
L191234500 40767500
" />
<path d="M191234500 55267500
L205734500 55267500
" />
<path d="M205734500 55267500
L205734500 40767500
" />
<path d="M191234500 40767500
L191234500 55267500
" />
<path d="M15022000 74317500
L29522000 74317500
" />
<path d="M15022000 59817500
L15022000 74317500
" />
<path d="M29522000 59817500
L15022000 59817500
" />
<path d="M29522000 74317500
L29522000 59817500
" />
<path d="M243834500 40767500
L229334500 40767500
" />
<path d="M229334500 55267500
L243834500 55267500
" />
<path d="M243834500 55267500
L243834500 40767500
" />
<path d="M229334500 40767500
L229334500 55267500
" />
<path d="M224784500 40767500
L210284500 40767500
" />
<path d="M210284500 55267500
L224784500 55267500
" />
<path d="M224784500 55267500
L224784500 40767500
" />
<path d="M210284500 40767500
L210284500 55267500
" />
<path d="M220022000 21717500
L205522000 21717500
" />
<path d="M205522000 36217500
L220022000 36217500
" />
<path d="M220022000 36217500
L220022000 21717500
" />
<path d="M205522000 21717500
L205522000 36217500
" />
<path d="M148584500 40767500
L134084500 40767500
" />
<path d="M134084500 55267500
L148584500 55267500
" />
<path d="M148584500 55267500
L148584500 40767500
" />
<path d="M134084500 40767500
L134084500 55267500
" />
<path d="M27140750 55267500
L27140750 40767500
" />
<path d="M27140750 40767500
L12640750 40767500
" />
<path d="M12640750 40767500
L12640750 55267500
" />
<path d="M12640750 55267500
L27140750 55267500
" />
<path d="M134297000 59817500
L119797000 59817500
" />
<path d="M119797000 74317500
L134297000 74317500
" />
<path d="M134297000 74317500
L134297000 59817500
" />
<path d="M119797000 59817500
L119797000 74317500
" />
<path d="M31690750 93367500
L46190750 93367500
" />
<path d="M31690750 78867500
L31690750 93367500
" />
<path d="M46190750 93367500
L46190750 78867500
" />
<path d="M46190750 78867500
L31690750 78867500
" />
<path d="M96197000 59817500
L81697000 59817500
" />
<path d="M81697000 74317500
L96197000 74317500
" />
<path d="M96197000 74317500
L96197000 59817500
" />
<path d="M81697000 59817500
L81697000 74317500
" />
<path d="M126940750 78867500
L126940750 93367500
" />
<path d="M141440750 93367500
L141440750 78867500
" />
<path d="M141440750 78867500
L126940750 78867500
" />
<path d="M126940750 93367500
L141440750 93367500
" />
<path d="M58097000 59817500
L43597000 59817500
" />
<path d="M43597000 74317500
L58097000 74317500
" />
<path d="M58097000 74317500
L58097000 59817500
" />
<path d="M43597000 59817500
L43597000 74317500
" />
<path d="M272197000 93367572
L286697000 93367572
" />
<path d="M286697000 78867572
L272197000 78867572
" />
<path d="M272197000 78867572
L272197000 93367572
" />
<path d="M286697000 93367572
L286697000 78867572
" />
<path d="M272197000 17712500
L286697000 17712500
" />
<path d="M286697000 3212500
L272197000 3212500
" />
<path d="M272197000 3212500
L272197000 17712500
" />
<path d="M286697000 17712500
L286697000 3212500
" />
<g >
</g>
<g >
</g>
<g >
</g>
<g >
</g>
<g >
</g>
<g >
</g>
<g >
</g>
<g >
</g>
<g >
</g>
<g >
</g>
<g >
</g>
<g >
</g>
<g >
</g>
<g >
</g>
<g >
</g>
<g >
</g>
<g >
</g>
<g >
</g>
<g >
</g>
<g >
</g>
<g >
</g>
<g >
</g>
<g >
</g>
<g >
</g>
<g >
</g>
<g >
</g>
<g >
</g>
<g >
</g>
<g >
</g>
<g >
</g>
<g >
</g>
<g >
</g>
<g >
</g>
<g >
</g>
<g >
</g>
<g >
</g>
<g >
</g>
<g >
</g>
<g >
</g>
<g >
</g>
<g >
</g>
<g >
</g>
<g >
</g>
<g >
</g>
<g >
</g>
<g >
</g>
<g >
</g>
<g >
</g>
<g >
</g>
<g >
</g>
<g >
</g>
<g >
</g>
<g >
</g>
<g >
</g>
<g >
</g>
<g >
</g>
<g >
</g>
<g >
</g>
<g >
</g>
<g >
</g>
<g >
</g>
<g >
</g>
<g >
</g>
<g >
</g>
<g >
</g>
<g >
</g>
<g >
</g>
<g >
</g>
<g >
</g>
<g >
</g>
<g >
</g>
<g >
</g>
<g >
</g>
<g >
</g>
<g >
</g>
<g >
</g>
<g >
</g>
<g >
</g>
<g >
</g>
<g >
</g>
<g >
</g>
<g >
</g>
<g >
</g>
<g >
</g>
<g >
</g>
<g >
</g>
<g >
</g>
<g >
</g>
<g >
</g>
<g >
</g>
<g >
</g>
<g >
</g>
<g >
</g>
<g >
</g>
<g >
</g>
<g >
</g>
<g >
</g>
<g >
</g>
<g >
</g>
<g >
</g>
<g >
</g>
<g >
</g>
<g >
</g>
<g >
</g>
<g >
</g>
<g >
</g>
<g >
</g>
<g >
</g>
<g >
</g>
<g >
</g>
<g >
</g>
<g >
</g>
<g >
</g>
<g >
</g>
<g >
</g>
<g >
</g>
<g >
</g>
<g >
</g>
<g >
</g>
<g >
</g>
<g >
</g>
<g >
</g>
<g >
</g>
<g >
</g>
<g >
</g>
<g >
</g>
<g >
</g>
<g >
</g>
<g >
</g>
<g >
</g>
<g >
</g>
<g >
</g>
<g >
</g>
<g >
</g>
<g >
</g>
<g >
</g>
<g >
</g>
<g >
</g>
<g >
</g>
<g >
</g>
<g >
</g>
<g >
</g>
<g >
</g>
<g >
</g>
<g >
</g>
</g>
<g style="fill:#000000; fill-opacity:0.0; 
stroke:#000000; stroke-width:100000.000000; stroke-opacity:1; 
stroke-linecap:round; stroke-linejoin:round;">
</g>
<g style="fill:#000000; fill-opacity:0.0; 
stroke:#000000; stroke-width:200000.000000; stroke-opacity:1; 
stroke-linecap:round; stroke-linejoin:round;">
<path d="M286447000 917500
L5747000 917500
" />
<path d="M180691000 95117564
L180691000 79992500
" />
<path d="M187691000 95117564
L286447000 95117564
" />
<path d="M5747000.000000 917500.000000 A1999999.000000 1999999.000000 0.0 0 0 3747000.000000 2917500.000000" />
<path d="M286447000.000000 95117564.000000 A1999999.000000 1999999.000000 0.0 0 0 288447000.000000 93117564.000000" />
<path d="M5747000 95117564
L80691000 95117564
" />
<path d="M87691000 95117564
L180691000 95117564
" />
<path d="M3747000 2917500
L3747000 93117564
" />
<path d="M288447000.000000 2917500.000000 A1999999.000000 1999999.000000 0.0 0 0 286447000.000000 917500.000000" />
<path d="M87691000 79992500
L87691000 95117564
" />
<path d="M3747000.000000 93117564.000000 A1999999.000000 1999999.000000 0.0 0 0 5747000.000000 95117564.000000" />
<path d="M187691000 79992500
L187691000 95117564
" />
<path d="M288447000 93117564
L288447000 2917500
" />
<path d="M80691000 79992500
L87691000 79992500
" />
<path d="M80691000 95117564
L80691000 79992500
" />
<path d="M180691000 79992500
L187691000 79992500
" />
</g>
<g style="fill:#000000; fill-opacity:0.0; 
stroke:#000000; stroke-width:120000.000000; stroke-opacity:1; 
stroke-linecap:round; stroke-linejoin:round;">
<path d="M267215980 46992500
L283215980 46992500
" />
<path d="M283215980 22992500
L267215980 22992500
" />
<path d="M267215980 53992500
L267215980 46992500
" />
<path d="M283215980 53992500
L267215980 53992500
" />
<path d="M283215980 22992500
L283215980 29992500
" />
<path d="M283215980 29992500
L267215980 29992500
" />
<path d="M283215980 46992500
L283215980 53992500
" />
<path d="M267215980 22992500
L267215980 29992500
" />
<path d="M30772000 76917500
L30772000 60917500
" />
<path d="M6772000 60917500
L6772000 76917500
" />
<path d="M37772000 76917500
L30772000 76917500
" />
<path d="M37772000 60917500
L37772000 76917500
" />
<path d="M6772000 60917500
L13772000 60917500
" />
<path d="M13772000 60917500
L13772000 76917500
" />
<path d="M30772000 60917500
L37772000 60917500
" />
<path d="M6772000 76917500
L13772000 76917500
" />
<g >
</g>
<g >
</g>
<g >
</g>
<g >
</g>
<g >
</g>
<g >
</g>
<g >
</g>
<g >
</g>
<g >
</g>
<g >
</g>
<g >
</g>
<g >
</g>
<g >
</g>
<g >
</g>
<g >
</g>
<g >
</g>
<g >
</g>
<g >
</g>
<g >
</g>
<g >
</g>
<g >
</g>
<g >
</g>
<g >
</g>
<g >
</g>
<g >
</g>
<g >
</g>
<g >
</g>
<g >
</g>
<g >
</g>
<g >
</g>
<g >
</g>
<g >
</g>
<g >
</g>
<g >
</g>
<g >
</g>
<g >
</g>
<g >
</g>
<g >
</g>
<g >
</g>
<g >
</g>
<g >
</g>
<g >
</g>
<g >
</g>
<g >
</g>
<g >
</g>
<g >
</g>
<g >
</g>
<g >
</g>
<g >
</g>
<g >
</g>
<g >
</g>
<g >
</g>
<g >
</g>
<g >
</g>
<g >
</g>
<g >
</g>
<g >
</g>
<g >
</g>
<g >
</g>
<g >
</g>
<g >
</g>
<g >
</g>
<g >
</g>
<g >
</g>
<g >
</g>
<g >
</g>
<g >
</g>
<g >
</g>
<g >
</g>
<g >
</g>
<g >
</g>
<g >
</g>
<g >
</g>
<g >
</g>
<g >
</g>
<g >
</g>
<g >
</g>
<g >
</g>
<g >
</g>
<g >
</g>
<g >
</g>
<g >
</g>
<g >
</g>
<g >
</g>
<g >
</g>
<g >
</g>
<g >
</g>
<g >
</g>
<g >
</g>
<g >
</g>
<g >
</g>
<g >
</g>
<g >
</g>
<g >
</g>
<g >
</g>
<g >
</g>
<g >
</g>
<g >
</g>
<g >
</g>
<g >
</g>
<g >
</g>
<g >
</g>
<g >
</g>
<g >
</g>
<g >
</g>
<g >
</g>
<g >
</g>
<g >
</g>
<g >
</g>
<g >
</g>
<g >
</g>
<g >
</g>
<g >
</g>
<g >
</g>
<g >
</g>
<g >
</g>
<g >
</g>
<g >
</g>
<g >
</g>
<g >
</g>
<g >
</g>
<g >
</g>
<g >
</g>
<g >
</g>
<g >
</g>
<g >
</g>
<g >
</g>
<g >
</g>
<g >
</g>
<g >
</g>
<g >
</g>
<g >
</g>
<g >
</g>
<g >
</g>
<g >
</g>
<g >
</g>
<g >
</g>
<g >
</g>
<g >
</g>
<g >
</g>
<g >
</g>
<g >
</g>
<g >
</g>
<g >
</g>
<g >
</g>
</g> 
</svg>
