<?xml version="1.0"?>
<!-- Generated by SVGo -->
<svg width="295.752mm" height="105.252mm"
     viewBox="0.000 0.000 295.752 105.252"
     xmlns="http://www.w3.org/2000/svg" 
     xmlns:xlink="http://www.w3.org/1999/xlink">
<polygon points="288.189,5.038 288.385,5.045 288.580,5.068 288.772,5.107 288.962,5.160 289.145,5.228 289.323,5.310 289.495,5.406 289.659,5.515 289.812,5.636 289.956,5.770 290.090,5.914 290.212,6.068 290.320,6.231 290.416,6.403 290.498,6.581 290.566,6.765 290.619,6.954 290.659,7.146 290.681,7.341 290.689,7.538 290.689,58.951 287.688,58.951 286.799,59.091 285.998,59.499 285.362,60.136 284.954,60.937 284.814,61.825 284.954,62.715 285.362,63.517 285.998,64.153 286.799,64.561 287.688,64.701 290.689,64.701 290.689,97.715 290.681,97.910 290.659,98.105 290.619,98.297 290.566,98.486 290.498,98.671 290.416,98.849 290.320,99.020 290.212,99.183 290.090,99.338 289.956,99.481 289.812,99.615 289.659,99.736 289.495,99.846 289.323,99.942 289.145,100.023 288.962,100.091 288.772,100.144 288.580,100.183 288.385,100.207 288.189,100.215 7.564,100.215 7.367,100.207 7.172,100.183 6.980,100.144 6.791,100.091 6.607,100.023 6.429,99.942 6.257,99.846 6.094,99.736 5.940,99.615 5.796,99.481 5.662,99.338 5.541,99.183 5.432,99.020 5.336,98.849 5.254,98.671 5.186,98.486 5.133,98.297 5.094,98.105 5.071,97.910 5.063,97.713 5.063,64.701 8.064,64.701 8.953,64.561 9.754,64.153 10.390,63.517 10.798,62.715 10.939,61.826 10.798,60.937 10.390,60.136 9.754,59.499 8.953,59.091 8.064,58.951 5.063,58.951 5.064,7.538 5.071,7.341 5.094,7.146 5.133,6.954 5.186,6.765 5.254,6.581 5.336,6.403 5.432,6.231 5.541,6.068 5.662,5.914 5.796,5.770 5.940,5.636 6.094,5.515 6.257,5.406 6.429,5.310 6.607,5.228 6.791,5.160 6.980,5.107 7.172,5.068 7.367,5.045 7.564,5.037" style="fill:none;stroke-width:0.050000mm;stroke:black"/>
<polygon points="129.095,83.850 129.095,84.850 128.294,84.850 128.294,87.701 129.095,87.701 129.095,88.550 89.220,88.550 89.220,85.320 82.720,85.320 82.720,88.550 81.895,88.550 81.895,91.100 82.720,91.100 82.720,97.370 84.445,97.370 84.445,98.570 87.495,98.570 87.495,97.370 89.220,97.370 89.220,92.900 129.095,92.900 129.095,93.751 128.294,93.751 128.294,96.600 129.095,96.600 129.095,97.600 142.845,97.600 142.845,96.600 143.644,96.600 143.644,93.751 142.845,93.751 142.845,92.900 182.720,92.900 182.720,97.370 184.445,97.370 184.445,98.570 187.495,98.570 187.495,97.370 189.220,97.370 189.220,91.100 190.044,91.100 190.044,88.550 189.220,88.550 189.220,85.320 182.720,85.320 182.720,88.550 142.845,88.550 142.845,87.701 143.644,87.701 143.644,84.850 142.845,84.850 142.845,83.850" style="fill:none;stroke-width:0.050000mm;stroke:black"/>
<polygon points="10.032,83.850 10.032,84.850 9.232,84.850 9.232,87.701 10.032,87.701 10.032,93.751 9.232,93.751 9.232,96.600 10.032,96.600 10.032,97.600 23.782,97.600 23.782,96.600 24.582,96.600 24.582,93.751 23.782,93.751 23.782,87.701 24.582,87.701 24.582,84.850 23.782,84.850 23.782,83.850" style="fill:none;stroke-width:0.050000mm;stroke:black"/>
<polygon points="33.844,83.850 33.844,84.850 33.044,84.850 33.044,87.701 33.844,87.701 33.844,93.751 33.044,93.751 33.044,96.600 33.844,96.600 33.844,97.600 47.594,97.600 47.594,96.600 48.395,96.600 48.395,93.751 47.594,93.751 47.594,87.701 48.395,87.701 48.395,84.850 47.594,84.850 47.594,83.850" style="fill:none;stroke-width:0.050000mm;stroke:black"/>
<polygon points="57.657,83.850 57.657,84.850 56.856,84.850 56.856,87.701 57.657,87.701 57.657,93.751 56.856,93.751 56.856,96.600 57.657,96.600 57.657,97.600 71.407,97.600 71.407,96.600 72.207,96.600 72.207,93.751 71.407,93.751 71.407,87.701 72.207,87.701 72.207,84.850 71.407,84.850 71.407,83.850" style="fill:none;stroke-width:0.050000mm;stroke:black"/>
<polygon points="198.150,83.850 198.150,84.850 197.351,84.850 197.351,87.701 198.150,87.701 198.150,88.785 197.566,88.201 196.764,87.791 195.876,87.651 194.988,87.791 194.186,88.201 193.550,88.837 193.142,89.638 193.001,90.526 193.142,91.415 193.550,92.216 194.186,92.852 194.988,93.260 195.876,93.401 196.764,93.260 197.566,92.852 198.150,92.266 198.150,93.751 197.351,93.751 197.351,96.600 198.150,96.600 198.150,97.600 211.900,97.600 211.900,96.600 212.701,96.600 212.701,93.751 211.900,93.751 211.900,87.701 212.701,87.701 212.701,84.850 211.900,84.850 211.900,83.850" style="fill:none;stroke-width:0.050000mm;stroke:black"/>
<polygon points="217.201,83.850 217.201,84.850 216.400,84.850 216.400,87.701 217.201,87.701 217.201,93.751 216.400,93.751 216.400,96.600 217.201,96.600 217.201,97.600 230.951,97.600 230.951,96.600 231.751,96.600 231.751,93.751 230.951,93.751 230.951,87.701 231.751,87.701 231.751,84.850 230.951,84.850 230.951,83.850" style="fill:none;stroke-width:0.050000mm;stroke:black"/>
<polygon points="236.251,83.850 236.251,84.850 235.451,84.850 235.451,87.701 236.251,87.701 236.251,93.751 235.451,93.751 235.451,96.600 236.251,96.600 236.251,97.600 250.001,97.600 250.001,96.600 250.800,96.600 250.800,93.751 250.001,93.751 250.001,87.701 250.800,87.701 250.800,84.850 250.001,84.850 250.001,83.850" style="fill:none;stroke-width:0.050000mm;stroke:black"/>
<polygon points="255.300,83.850 255.300,84.850 254.501,84.850 254.501,87.701 255.300,87.701 255.300,93.751 254.501,93.751 254.501,96.600 255.300,96.600 255.300,97.600 269.050,97.600 269.050,96.600 269.850,96.600 269.850,93.751 269.050,93.751 269.050,87.701 269.850,87.701 269.850,84.850 269.050,84.850 269.050,83.850" style="fill:none;stroke-width:0.050000mm;stroke:black"/>
<polygon points="274.350,83.850 274.350,84.850 273.550,84.850 273.550,87.701 274.350,87.701 274.350,93.751 273.550,93.751 273.550,96.600 274.350,96.600 274.350,97.600 288.100,97.600 288.100,96.600 288.900,96.600 288.900,93.751 288.100,93.751 288.100,87.701 288.900,87.701 288.900,84.850 288.100,84.850 288.100,83.850" style="fill:none;stroke-width:0.050000mm;stroke:black"/>
<polygon points="17.175,64.800 17.175,65.800 16.376,65.800 16.376,68.650 17.175,68.650 17.175,69.501 15.401,69.501 15.401,66.270 8.901,66.270 8.901,69.501 8.076,69.501 8.076,72.050 8.901,72.050 8.901,78.320 10.626,78.320 10.626,79.520 13.676,79.520 13.676,78.320 15.401,78.320 15.401,73.850 17.175,73.850 17.175,74.701 16.376,74.701 16.376,77.550 17.175,77.550 17.175,78.550 30.925,78.550 30.925,77.550 31.726,77.550 31.726,74.701 30.925,74.701 30.925,73.850 32.701,73.850 32.701,78.320 34.425,78.320 34.425,79.520 37.475,79.520 37.475,78.320 39.201,78.320 39.201,72.050 40.026,72.050 40.026,69.501 39.201,69.501 39.201,66.270 32.701,66.270 32.701,69.501 30.925,69.501 30.925,68.650 31.726,68.650 31.726,65.800 30.925,65.800 30.925,64.800" style="fill:none;stroke-width:0.050000mm;stroke:black"/>
<polygon points="45.751,64.800 45.751,65.800 44.951,65.800 44.951,68.650 45.751,68.650 45.751,74.701 44.951,74.701 44.951,77.550 45.751,77.550 45.751,78.550 59.501,78.550 59.501,77.550 60.300,77.550 60.300,74.701 59.501,74.701 59.501,68.650 60.300,68.650 60.300,65.800 59.501,65.800 59.501,64.800" style="fill:none;stroke-width:0.050000mm;stroke:black"/>
<polygon points="64.800,64.800 64.800,65.800 64.001,65.800 64.001,68.650 64.800,68.650 64.800,74.701 64.001,74.701 64.001,77.550 64.800,77.550 64.800,78.550 78.550,78.550 78.550,77.550 79.351,77.550 79.351,74.701 78.550,74.701 78.550,68.650 79.351,68.650 79.351,65.800 78.550,65.800 78.550,64.800" style="fill:none;stroke-width:0.050000mm;stroke:black"/>
<polygon points="83.851,64.800 83.851,65.800 83.050,65.800 83.050,68.650 83.851,68.650 83.851,74.701 83.050,74.701 83.050,77.550 83.851,77.550 83.851,78.550 97.601,78.550 97.601,77.550 98.401,77.550 98.401,74.701 97.601,74.701 97.601,68.650 98.401,68.650 98.401,65.800 97.601,65.800 97.601,64.800" style="fill:none;stroke-width:0.050000mm;stroke:black"/>
<polygon points="102.901,64.800 102.901,65.800 102.101,65.800 102.101,68.650 102.901,68.650 102.901,74.701 102.101,74.701 102.101,77.550 102.901,77.550 102.901,78.550 116.651,78.550 116.651,77.550 117.451,77.550 117.451,74.701 116.651,74.701 116.651,68.650 117.451,68.650 117.451,65.800 116.651,65.800 116.651,64.800" style="fill:none;stroke-width:0.050000mm;stroke:black"/>
<polygon points="121.951,64.800 121.951,65.800 121.151,65.800 121.151,68.650 121.951,68.650 121.951,74.701 121.151,74.701 121.151,77.550 121.951,77.550 121.951,78.550 135.701,78.550 135.701,77.550 136.501,77.550 136.501,74.701 135.701,74.701 135.701,68.650 136.501,68.650 136.501,65.800 135.701,65.800 135.701,64.800" style="fill:none;stroke-width:0.050000mm;stroke:black"/>
<polygon points="141.001,64.800 141.001,65.800 140.201,65.800 140.201,68.650 141.001,68.650 141.001,74.701 140.201,74.701 140.201,77.550 141.001,77.550 141.001,78.550 154.751,78.550 154.751,77.550 155.550,77.550 155.550,74.701 154.751,74.701 154.751,68.650 155.550,68.650 155.550,65.800 154.751,65.800 154.751,64.800" style="fill:none;stroke-width:0.050000mm;stroke:black"/>
<polygon points="160.050,64.800 160.050,65.800 159.251,65.800 159.251,68.650 160.050,68.650 160.050,74.701 159.251,74.701 159.251,77.550 160.050,77.550 160.050,78.550 173.800,78.550 173.800,77.550 174.601,77.550 174.601,74.701 173.800,74.701 173.800,68.650 174.601,68.650 174.601,65.800 173.800,65.800 173.800,64.800" style="fill:none;stroke-width:0.050000mm;stroke:black"/>
<polygon points="179.101,64.800 179.101,65.800 178.300,65.800 178.300,68.650 179.101,68.650 179.101,74.701 178.300,74.701 178.300,77.550 179.101,77.550 179.101,78.550 192.851,78.550 192.851,77.550 193.650,77.550 193.650,74.701 192.851,74.701 192.851,68.650 193.650,68.650 193.650,65.800 192.851,65.800 192.851,64.800" style="fill:none;stroke-width:0.050000mm;stroke:black"/>
<polygon points="198.150,64.800 198.150,65.800 197.351,65.800 197.351,68.650 198.150,68.650 198.150,74.701 197.351,74.701 197.351,77.550 198.150,77.550 198.150,78.550 211.900,78.550 211.900,77.550 212.701,77.550 212.701,74.701 211.900,74.701 211.900,68.650 212.701,68.650 212.701,65.800 211.900,65.800 211.900,64.800" style="fill:none;stroke-width:0.050000mm;stroke:black"/>
<polygon points="217.201,64.800 217.201,65.800 216.400,65.800 216.400,68.650 217.201,68.650 217.201,74.701 216.400,74.701 216.400,77.550 217.201,77.550 217.201,78.550 230.951,78.550 230.951,77.550 231.751,77.550 231.751,74.701 230.951,74.701 230.951,68.650 231.751,68.650 231.751,65.800 230.951,65.800 230.951,64.800" style="fill:none;stroke-width:0.050000mm;stroke:black"/>
<polygon points="236.251,64.800 236.251,65.800 235.451,65.800 235.451,68.650 236.251,68.650 236.251,74.701 235.451,74.701 235.451,77.550 236.251,77.550 236.251,78.550 250.001,78.550 250.001,77.550 250.800,77.550 250.800,74.701 250.001,74.701 250.001,68.650 250.800,68.650 250.800,65.800 250.001,65.800 250.001,64.800" style="fill:none;stroke-width:0.050000mm;stroke:black"/>
<polygon points="255.300,64.800 255.300,65.800 254.501,65.800 254.501,68.650 255.300,68.650 255.300,74.701 254.501,74.701 254.501,77.550 255.300,77.550 255.300,78.550 269.050,78.550 269.050,77.550 269.850,77.550 269.850,74.701 269.050,74.701 269.050,68.650 269.850,68.650 269.850,65.800 269.050,65.800 269.050,64.800" style="fill:none;stroke-width:0.050000mm;stroke:black"/>
<polygon points="274.350,64.800 274.350,65.800 273.550,65.800 273.550,68.650 274.350,68.650 274.350,74.701 273.550,74.701 273.550,77.550 274.350,77.550 274.350,78.550 288.100,78.550 288.100,77.550 288.900,77.550 288.900,74.701 288.100,74.701 288.100,68.650 288.900,68.650 288.900,65.800 288.100,65.800 288.100,64.800" style="fill:none;stroke-width:0.050000mm;stroke:black"/>
<polygon points="10.032,45.751 10.032,46.751 9.232,46.751 9.232,49.600 10.032,49.600 10.032,55.651 9.232,55.651 9.232,58.501 10.032,58.501 10.032,59.501 28.545,59.501 28.545,58.501 29.345,58.501 29.345,55.651 28.545,55.651 28.545,49.600 29.345,49.600 29.345,46.751 28.545,46.751 28.545,45.751" style="fill:none;stroke-width:0.050000mm;stroke:black"/>
<polygon points="40.989,45.751 40.989,46.751 40.189,46.751 40.189,49.600 40.989,49.600 40.989,55.651 40.189,55.651 40.189,58.501 40.989,58.501 40.989,59.501 54.739,59.501 54.739,58.501 55.537,58.501 55.537,55.651 54.739,55.651 54.739,49.600 55.537,49.600 55.537,46.751 54.739,46.751 54.739,45.751" style="fill:none;stroke-width:0.050000mm;stroke:black"/>
<polygon points="60.037,45.751 60.037,46.751 59.239,46.751 59.239,49.600 60.037,49.600 60.037,55.651 59.239,55.651 59.239,58.501 60.037,58.501 60.037,59.501 73.788,59.501 73.788,58.501 74.588,58.501 74.588,55.651 73.788,55.651 73.788,49.600 74.588,49.600 74.588,46.751 73.788,46.751 73.788,45.751" style="fill:none;stroke-width:0.050000mm;stroke:black"/>
<polygon points="79.088,45.751 79.088,46.751 78.288,46.751 78.288,49.600 79.088,49.600 79.088,55.651 78.288,55.651 78.288,58.501 79.088,58.501 79.088,59.501 92.838,59.501 92.838,58.501 93.638,58.501 93.638,55.651 92.838,55.651 92.838,49.600 93.638,49.600 93.638,46.751 92.838,46.751 92.838,45.751" style="fill:none;stroke-width:0.050000mm;stroke:black"/>
<polygon points="98.138,45.751 98.138,46.751 97.338,46.751 97.338,49.600 98.138,49.600 98.138,55.651 97.338,55.651 97.338,58.501 98.138,58.501 98.138,59.501 111.888,59.501 111.888,58.501 112.688,58.501 112.688,55.651 111.888,55.651 111.888,49.600 112.688,49.600 112.688,46.751 111.888,46.751 111.888,45.751" style="fill:none;stroke-width:0.050000mm;stroke:black"/>
<polygon points="117.188,45.751 117.188,46.751 116.388,46.751 116.388,49.600 117.188,49.600 117.188,55.651 116.388,55.651 116.388,58.501 117.188,58.501 117.188,59.501 130.939,59.501 130.939,58.501 131.738,58.501 131.738,55.651 130.939,55.651 130.939,53.704 131.251,54.316 131.887,54.951 132.688,55.361 133.577,55.502 134.465,55.361 135.266,54.951 135.901,54.316 136.238,53.657 136.238,55.651 135.438,55.651 135.438,58.501 136.238,58.501 136.238,59.501 149.988,59.501 149.988,58.501 150.788,58.501 150.788,55.651 149.988,55.651 149.988,49.600 150.788,49.600 150.788,46.751 149.988,46.751 149.988,45.751 136.238,45.751 136.238,46.751 135.438,46.751 135.438,49.600 136.238,49.600 136.238,51.594 135.901,50.937 135.266,50.300 134.465,49.892 133.577,49.752 132.688,49.892 131.887,50.300 131.251,50.937 130.939,51.547 130.939,49.600 131.738,49.600 131.738,46.751 130.939,46.751 130.939,45.751" style="fill:none;stroke-width:0.050000mm;stroke:black"/>
<polygon points="155.288,45.751 155.288,46.751 154.488,46.751 154.488,49.600 155.288,49.600 155.288,55.651 154.488,55.651 154.488,58.501 155.288,58.501 155.288,59.501 169.038,59.501 169.038,58.501 169.839,58.501 169.839,55.651 169.038,55.651 169.038,49.600 169.839,49.600 169.839,46.751 169.038,46.751 169.038,45.751" style="fill:none;stroke-width:0.050000mm;stroke:black"/>
<polygon points="174.339,45.751 174.339,46.751 173.538,46.751 173.538,49.600 174.339,49.600 174.339,55.651 173.538,55.651 173.538,58.501 174.339,58.501 174.339,59.501 188.089,59.501 188.089,58.501 188.888,58.501 188.888,55.651 188.089,55.651 188.089,49.600 188.888,49.600 188.888,46.751 188.089,46.751 188.089,45.751" style="fill:none;stroke-width:0.050000mm;stroke:black"/>
<polygon points="193.388,45.751 193.388,46.751 192.589,46.751 192.589,49.600 193.388,49.600 193.388,55.651 192.589,55.651 192.589,58.501 193.388,58.501 193.388,59.501 207.138,59.501 207.138,58.501 207.939,58.501 207.939,55.651 207.138,55.651 207.138,49.600 207.939,49.600 207.939,46.751 207.138,46.751 207.138,45.751" style="fill:none;stroke-width:0.050000mm;stroke:black"/>
<polygon points="212.439,45.751 212.439,46.751 211.638,46.751 211.638,49.600 212.439,49.600 212.439,55.651 211.638,55.651 211.638,58.501 212.439,58.501 212.439,59.501 226.189,59.501 226.189,58.501 226.989,58.501 226.989,55.651 226.189,55.651 226.189,49.600 226.989,49.600 226.989,46.751 226.189,46.751 226.189,45.751" style="fill:none;stroke-width:0.050000mm;stroke:black"/>
<polygon points="231.489,45.751 231.489,46.751 230.689,46.751 230.689,49.600 231.489,49.600 231.489,55.651 230.689,55.651 230.689,58.501 231.489,58.501 231.489,59.501 245.239,59.501 245.239,58.501 246.038,58.501 246.038,55.651 245.239,55.651 245.239,49.600 246.038,49.600 246.038,46.751 245.239,46.751 245.239,45.751" style="fill:none;stroke-width:0.050000mm;stroke:black"/>
<polygon points="250.538,45.751 250.538,46.751 249.739,46.751 249.739,49.600 250.538,49.600 250.538,55.651 249.739,55.651 249.739,58.501 250.538,58.501 250.538,59.501 264.288,59.501 264.288,58.501 265.088,58.501 265.088,55.651 264.288,55.651 264.288,49.600 265.088,49.600 265.088,46.751 264.288,46.751 264.288,45.751" style="fill:none;stroke-width:0.050000mm;stroke:black"/>
<polygon points="278.469,27.125 278.469,27.950 272.200,27.950 272.200,29.675 270.999,29.675 270.999,32.724 272.200,32.724 272.200,34.450 276.669,34.450 276.669,36.225 275.819,36.225 275.819,35.425 272.969,35.425 272.969,36.225 271.969,36.225 271.969,49.975 272.969,49.975 272.969,50.776 275.819,50.776 275.819,49.975 276.669,49.975 276.669,51.751 272.200,51.751 272.200,53.475 270.999,53.475 270.999,56.526 272.200,56.526 272.200,58.251 278.469,58.251 278.469,59.075 281.019,59.075 281.019,58.251 284.249,58.251 284.249,51.751 281.019,51.751 281.019,49.975 281.869,49.975 281.869,50.776 284.719,50.776 284.719,49.975 285.719,49.975 285.719,36.225 284.719,36.225 284.719,35.425 281.869,35.425 281.869,36.225 281.019,36.225 281.019,34.450 284.249,34.450 284.249,27.950 281.019,27.950 281.019,27.125" style="fill:none;stroke-width:0.050000mm;stroke:black"/>
<polygon points="12.414,26.700 12.414,27.700 11.614,27.700 11.614,30.550 12.414,30.550 12.414,36.600 11.614,36.600 11.614,39.450 12.414,39.450 12.414,40.450 26.164,40.450 26.164,39.450 26.963,39.450 26.963,36.600 26.164,36.600 26.164,30.550 26.963,30.550 26.963,27.700 26.164,27.700 26.164,26.700" style="fill:none;stroke-width:0.050000mm;stroke:black"/>
<polygon points="36.225,26.700 36.225,27.700 35.425,27.700 35.425,30.550 36.225,30.550 36.225,36.600 35.425,36.600 35.425,39.450 36.225,39.450 36.225,40.450 49.975,40.450 49.975,39.450 50.776,39.450 50.776,36.600 49.975,36.600 49.975,30.550 50.776,30.550 50.776,27.700 49.975,27.700 49.975,26.700" style="fill:none;stroke-width:0.050000mm;stroke:black"/>
<polygon points="55.276,26.700 55.276,27.700 54.475,27.700 54.475,30.550 55.276,30.550 55.276,36.600 54.475,36.600 54.475,39.450 55.276,39.450 55.276,40.450 69.026,40.450 69.026,39.450 69.826,39.450 69.826,36.600 69.026,36.600 69.026,30.550 69.826,30.550 69.826,27.700 69.026,27.700 69.026,26.700" style="fill:none;stroke-width:0.050000mm;stroke:black"/>
<polygon points="74.326,26.700 74.326,27.700 73.526,27.700 73.526,30.550 74.326,30.550 74.326,36.600 73.526,36.600 73.526,39.450 74.326,39.450 74.326,40.450 88.076,40.450 88.076,39.450 88.876,39.450 88.876,36.600 88.076,36.600 88.076,30.550 88.876,30.550 88.876,27.700 88.076,27.700 88.076,26.700" style="fill:none;stroke-width:0.050000mm;stroke:black"/>
<polygon points="93.376,26.700 93.376,27.700 92.576,27.700 92.576,30.550 93.376,30.550 93.376,36.600 92.576,36.600 92.576,39.450 93.376,39.450 93.376,40.450 107.126,40.450 107.126,39.450 107.925,39.450 107.925,36.600 107.126,36.600 107.126,30.550 107.925,30.550 107.925,27.700 107.126,27.700 107.126,26.700" style="fill:none;stroke-width:0.050000mm;stroke:black"/>
<polygon points="112.425,26.700 112.425,27.700 111.626,27.700 111.626,30.550 112.425,30.550 112.425,36.600 111.626,36.600 111.626,39.450 112.425,39.450 112.425,40.450 126.175,40.450 126.175,39.450 126.976,39.450 126.976,36.600 126.175,36.600 126.175,30.550 126.976,30.550 126.976,27.700 126.175,27.700 126.175,26.700" style="fill:none;stroke-width:0.050000mm;stroke:black"/>
<polygon points="131.476,26.700 131.476,27.700 130.675,27.700 130.675,30.550 131.476,30.550 131.476,36.600 130.675,36.600 130.675,39.450 131.476,39.450 131.476,40.450 145.226,40.450 145.226,39.450 146.025,39.450 146.025,36.600 145.226,36.600 145.226,30.550 146.025,30.550 146.025,27.700 145.226,27.700 145.226,26.700" style="fill:none;stroke-width:0.050000mm;stroke:black"/>
<polygon points="150.525,26.700 150.525,27.700 149.726,27.700 149.726,30.550 150.525,30.550 150.525,36.600 149.726,36.600 149.726,39.450 150.525,39.450 150.525,40.450 164.275,40.450 164.275,39.450 165.076,39.450 165.076,36.600 164.275,36.600 164.275,30.550 165.076,30.550 165.076,27.700 164.275,27.700 164.275,26.700" style="fill:none;stroke-width:0.050000mm;stroke:black"/>
<polygon points="169.576,26.700 169.576,27.700 168.775,27.700 168.775,30.550 169.576,30.550 169.576,36.600 168.775,36.600 168.775,39.450 169.576,39.450 169.576,40.450 183.326,40.450 183.326,39.450 184.126,39.450 184.126,36.600 183.326,36.600 183.326,30.550 184.126,30.550 184.126,27.700 183.326,27.700 183.326,26.700" style="fill:none;stroke-width:0.050000mm;stroke:black"/>
<polygon points="188.626,26.700 188.626,27.700 187.826,27.700 187.826,30.550 188.626,30.550 188.626,36.600 187.826,36.600 187.826,39.450 188.626,39.450 188.626,40.450 202.376,40.450 202.376,39.450 203.175,39.450 203.175,36.600 202.376,36.600 202.376,30.550 203.175,30.550 203.175,27.700 202.376,27.700 202.376,26.700" style="fill:none;stroke-width:0.050000mm;stroke:black"/>
<polygon points="207.675,26.700 207.675,27.700 206.876,27.700 206.876,30.550 207.675,30.550 207.675,36.600 206.876,36.600 206.876,39.450 207.675,39.450 207.675,40.450 221.425,40.450 221.425,39.450 222.226,39.450 222.226,36.600 221.425,36.600 221.425,30.550 222.226,30.550 222.226,27.700 221.425,27.700 221.425,26.700" style="fill:none;stroke-width:0.050000mm;stroke:black"/>
<polygon points="226.726,26.700 226.726,27.700 225.925,27.700 225.925,30.550 226.726,30.550 226.726,36.600 225.925,36.600 225.925,39.450 226.726,39.450 226.726,40.450 240.476,40.450 240.476,39.450 241.275,39.450 241.275,36.600 240.476,36.600 240.476,30.550 241.275,30.550 241.275,27.700 240.476,27.700 240.476,26.700" style="fill:none;stroke-width:0.050000mm;stroke:black"/>
<polygon points="245.775,26.700 245.775,27.700 244.976,27.700 244.976,30.550 245.775,30.550 245.775,36.600 244.976,36.600 244.976,39.450 245.775,39.450 245.775,40.450 259.525,40.450 259.525,39.450 260.325,39.450 260.325,36.600 259.525,36.600 259.525,30.550 260.325,30.550 260.325,27.700 259.525,27.700 259.525,26.700" style="fill:none;stroke-width:0.050000mm;stroke:black"/>
<polygon points="29.688,30.491 28.887,30.900 28.251,31.537 27.841,32.337 27.702,33.227 27.841,34.114 28.251,34.916 28.887,35.551 29.688,35.960 30.577,36.102 31.465,35.960 32.266,35.551 32.901,34.916 33.311,34.114 33.451,33.227 33.311,32.337 32.901,31.537 32.266,30.900 31.465,30.491 30.577,30.351" style="fill:none;stroke-width:0.050000mm;stroke:black"/>
<polygon points="264.537,30.491 263.736,30.900 263.100,31.537 262.691,32.337 262.551,33.227 262.691,34.114 263.100,34.916 263.736,35.551 264.537,35.960 265.426,36.102 266.314,35.960 267.115,35.551 267.751,34.916 268.160,34.114 268.301,33.227 268.160,32.337 267.751,31.537 267.115,30.900 266.314,30.491 265.426,30.351" style="fill:none;stroke-width:0.050000mm;stroke:black"/>
<polygon points="7.651,7.650 7.651,8.650 6.851,8.650 6.851,11.500 7.651,11.500 7.651,17.550 6.851,17.550 6.851,20.400 7.651,20.400 7.651,21.400 21.401,21.400 21.401,20.400 22.201,20.400 22.201,17.550 21.401,17.550 21.401,11.500 22.201,11.500 22.201,8.650 21.401,8.650 21.401,7.650" style="fill:none;stroke-width:0.050000mm;stroke:black"/>
<polygon points="26.701,7.650 26.701,8.650 25.901,8.650 25.901,11.500 26.701,11.500 26.701,17.550 25.901,17.550 25.901,20.400 26.701,20.400 26.701,21.400 40.451,21.400 40.451,20.400 41.251,20.400 41.251,17.550 40.451,17.550 40.451,11.500 41.251,11.500 41.251,8.650 40.451,8.650 40.451,7.650" style="fill:none;stroke-width:0.050000mm;stroke:black"/>
<polygon points="45.751,7.650 45.751,8.650 44.951,8.650 44.951,11.500 45.751,11.500 45.751,17.550 44.951,17.550 44.951,20.400 45.751,20.400 45.751,21.400 59.501,21.400 59.501,20.400 60.300,20.400 60.300,17.550 59.501,17.550 59.501,11.500 60.300,11.500 60.300,8.650 59.501,8.650 59.501,7.650" style="fill:none;stroke-width:0.050000mm;stroke:black"/>
<polygon points="64.800,7.650 64.800,8.650 64.001,8.650 64.001,11.500 64.800,11.500 64.800,17.550 64.001,17.550 64.001,20.400 64.800,20.400 64.800,21.400 78.550,21.400 78.550,20.400 79.351,20.400 79.351,17.550 78.550,17.550 78.550,11.500 79.351,11.500 79.351,8.650 78.550,8.650 78.550,7.650" style="fill:none;stroke-width:0.050000mm;stroke:black"/>
<polygon points="83.851,7.650 83.851,8.650 83.050,8.650 83.050,11.500 83.851,11.500 83.851,17.550 83.050,17.550 83.050,20.400 83.851,20.400 83.851,21.400 97.601,21.400 97.601,20.400 98.401,20.400 98.401,17.550 97.601,17.550 97.601,11.500 98.401,11.500 98.401,8.650 97.601,8.650 97.601,7.650" style="fill:none;stroke-width:0.050000mm;stroke:black"/>
<polygon points="102.901,7.650 102.901,8.650 102.101,8.650 102.101,11.500 102.901,11.500 102.901,17.550 102.101,17.550 102.101,20.400 102.901,20.400 102.901,21.400 116.651,21.400 116.651,20.400 117.451,20.400 117.451,17.550 116.651,17.550 116.651,11.500 117.451,11.500 117.451,8.650 116.651,8.650 116.651,7.650" style="fill:none;stroke-width:0.050000mm;stroke:black"/>
<polygon points="121.951,7.650 121.951,8.650 121.151,8.650 121.151,11.500 121.951,11.500 121.951,17.550 121.151,17.550 121.151,20.400 121.951,20.400 121.951,21.400 135.701,21.400 135.701,20.400 136.501,20.400 136.501,17.550 135.701,17.550 135.701,11.500 136.501,11.500 136.501,8.650 135.701,8.650 135.701,7.650" style="fill:none;stroke-width:0.050000mm;stroke:black"/>
<polygon points="141.001,7.650 141.001,8.650 140.201,8.650 140.201,11.500 141.001,11.500 141.001,17.550 140.201,17.550 140.201,20.400 141.001,20.400 141.001,21.400 154.751,21.400 154.751,20.400 155.550,20.400 155.550,17.550 154.751,17.550 154.751,11.500 155.550,11.500 155.550,8.650 154.751,8.650 154.751,7.650" style="fill:none;stroke-width:0.050000mm;stroke:black"/>
<polygon points="160.050,7.650 160.050,8.650 159.251,8.650 159.251,11.500 160.050,11.500 160.050,17.550 159.251,17.550 159.251,20.400 160.050,20.400 160.050,21.400 173.800,21.400 173.800,20.400 174.601,20.400 174.601,17.550 173.800,17.550 173.800,11.500 174.601,11.500 174.601,8.650 173.800,8.650 173.800,7.650" style="fill:none;stroke-width:0.050000mm;stroke:black"/>
<polygon points="179.101,7.650 179.101,8.650 178.300,8.650 178.300,11.500 179.101,11.500 179.101,17.550 178.300,17.550 178.300,20.400 179.101,20.400 179.101,21.400 192.851,21.400 192.851,20.400 193.650,20.400 193.650,17.550 192.851,17.550 192.851,11.500 193.650,11.500 193.650,8.650 192.851,8.650 192.851,7.650" style="fill:none;stroke-width:0.050000mm;stroke:black"/>
<polygon points="198.150,7.650 198.150,8.650 197.351,8.650 197.351,11.500 198.150,11.500 198.150,17.550 197.351,17.550 197.351,20.400 198.150,20.400 198.150,21.400 211.900,21.400 211.900,20.400 212.701,20.400 212.701,17.550 211.900,17.550 211.900,11.500 212.701,11.500 212.701,8.650 211.900,8.650 211.900,7.650" style="fill:none;stroke-width:0.050000mm;stroke:black"/>
<polygon points="217.201,7.650 217.201,8.650 216.400,8.650 216.400,11.500 217.201,11.500 217.201,17.550 216.400,17.550 216.400,20.400 217.201,20.400 217.201,21.400 230.951,21.400 230.951,20.400 231.751,20.400 231.751,17.550 230.951,17.550 230.951,11.500 231.751,11.500 231.751,8.650 230.951,8.650 230.951,7.650" style="fill:none;stroke-width:0.050000mm;stroke:black"/>
<polygon points="236.251,7.650 236.251,8.650 235.451,8.650 235.451,11.500 236.251,11.500 236.251,17.550 235.451,17.550 235.451,20.400 236.251,20.400 236.251,21.400 250.001,21.400 250.001,20.400 250.800,20.400 250.800,17.550 250.001,17.550 250.001,11.500 250.800,11.500 250.800,8.650 250.001,8.650 250.001,7.650" style="fill:none;stroke-width:0.050000mm;stroke:black"/>
<polygon points="255.300,7.650 255.300,8.650 254.501,8.650 254.501,11.500 255.300,11.500 255.300,17.550 254.501,17.550 254.501,20.400 255.300,20.400 255.300,21.400 269.050,21.400 269.050,20.400 269.850,20.400 269.850,17.550 269.050,17.550 269.050,11.500 269.850,11.500 269.850,8.650 269.050,8.650 269.050,7.650" style="fill:none;stroke-width:0.050000mm;stroke:black"/>
<polygon points="274.350,7.650 274.350,8.650 273.550,8.650 273.550,11.500 274.350,11.500 274.350,17.550 273.550,17.550 273.550,20.400 274.350,20.400 274.350,21.400 288.100,21.400 288.100,20.400 288.900,20.400 288.900,17.550 288.100,17.550 288.100,11.500 288.900,11.500 288.900,8.650 288.100,8.650 288.100,7.650" style="fill:none;stroke-width:0.050000mm;stroke:black"/>
</svg>
