<?xml version="1.0" standalone="no"?>
 <!DOCTYPE svg PUBLIC "-//W3C//DTD SVG 1.1//EN" 
 "http://www.w3.org/Graphics/SVG/1.1/DTD/svg11.dtd"> 
<svg
  xmlns:svg="http://www.w3.org/2000/svg"
  xmlns="http://www.w3.org/2000/svg"
  xmlns:xlink="http://www.w3.org/1999/xlink"
  version="1.1"
  width="29.700220cm" height="21.000720cm" viewBox="0 0 11693000 8268000">
<title>SVG Picture created as 2choc2flat-extmcu-iso-User_Eco1.svg date 2024/09/19 12:55:51 </title>
  <desc>Picture generated by PCBNEW </desc>
<g style="fill:#000000; fill-opacity:1.000000;stroke:#000000; stroke-opacity:1.000000;
stroke-linecap:round; stroke-linejoin:round;"
 transform="translate(0 0) scale(1 1)">
</g>
<g style="fill:#000000; fill-opacity:0.0; 
stroke:#000000; stroke-width:0.000000; stroke-opacity:1; 
stroke-linecap:round; stroke-linejoin:round;">
</g>
<g style="fill:#000000; fill-opacity:0.0; 
stroke:#000000; stroke-width:7874.015748; stroke-opacity:1; 
stroke-linecap:round; stroke-linejoin:round;">
<path d="M11268700 99409
L11268700 2170275
" />
<path d="M-16732 2170275
L169291 2170275
" />
<path d="M11082677.165354 2170275.590551 A78740.157480 78740.157480 0.0 0 0 11082677.165354 2327755.905512" />
<path d="M11268700.787402 99409.448819 A78740.118110 78740.118110 0.0 0 0 11189960.629921 20669.291339" />
<path d="M7262559 3133858
L6986968 3133858
" />
<path d="M7262559 3729333
L11189960 3729333
" />
<path d="M3325551 3089566
L6986968 3089566
" />
<path d="M11268700 2170275
L11082677 2170275
" />
<path d="M3325551 3133858
L3325551 3089566
" />
<path d="M6986968 3133858
L6986968 3089566
" />
<path d="M11268700 2327755
L11268700 3650593
" />
<path d="M-16732.274744 3650593.070977 A77762.125984 77762.125984 0.0 0 0 60039.370189 3729333.219626" />
<path d="M60039.370189 20669.300059 A77762.125984 77762.125984 0.0 0 0 -16732.274744 99409.448709" />
<path d="M-16732 2327755
L-16732 3650593
" />
<path d="M-16732 2327755
L169291 2327755
" />
<path d="M60039 20669
L11189960 20669
" />
<path d="M3049960 3133858
L3325551 3133858
" />
<path d="M7262559 3729333
L7262559 3133858
" />
<path d="M60039 3729333
L3049960 3729333
" />
<path d="M11082677 2327755
L11268700 2327755
" />
<path d="M11189960.629921 3729333.228346 A78740.118110 78740.118110 0.0 0 0 11268700.787402 3650593.070866" />
<path d="M169291.338583 2327755.905512 A78740.157480 78740.157480 0.0 0 0 169291.338583 2170275.590551" />
<path d="M3049960 3133858
L3049960 3729333
" />
<path d="M-16732 99409
L-16732 2170275
" />
</g>
<g style="fill:#000000; fill-opacity:0.0; 
stroke:#000000; stroke-width:3937.007874; stroke-opacity:1; 
stroke-linecap:round; stroke-linejoin:round;">
<path d="M3285433 839566
L2714566 839566
" />
<path d="M3285433 1410433
L3285433 839566
" />
<path d="M2714566 1410433
L3285433 1410433
" />
<path d="M2714566 839566
L2714566 1410433
" />
<path d="M3464566 839566
L3464566 1410433
" />
<path d="M4035433 839566
L3464566 839566
" />
<path d="M4035433 1410433
L4035433 839566
" />
<path d="M3464566 1410433
L4035433 1410433
" />
<path d="M6285433 1410433
L6285433 839566
" />
<path d="M6285433 839566
L5714566 839566
" />
<path d="M5714566 1410433
L6285433 1410433
" />
<path d="M5714566 839566
L5714566 1410433
" />
<path d="M6464566 839566
L6464566 1410433
" />
<path d="M7035433 839566
L6464566 839566
" />
<path d="M6464566 1410433
L7035433 1410433
" />
<path d="M7035433 1410433
L7035433 839566
" />
<path d="M1214566 839566
L1214566 1410433
" />
<path d="M1785433 839566
L1214566 839566
" />
<path d="M1214566 1410433
L1785433 1410433
" />
<path d="M1785433 1410433
L1785433 839566
" />
<path d="M5535433 1410433
L5535433 839566
" />
<path d="M4964566 839566
L4964566 1410433
" />
<path d="M4964566 1410433
L5535433 1410433
" />
<path d="M5535433 839566
L4964566 839566
" />
<path d="M4214566 839566
L4214566 1410433
" />
<path d="M4214566 1410433
L4785433 1410433
" />
<path d="M4785433 1410433
L4785433 839566
" />
<path d="M4785433 839566
L4214566 839566
" />
<path d="M1964566 839566
L1964566 1410433
" />
<path d="M2535433 839566
L1964566 839566
" />
<path d="M2535433 1410433
L2535433 839566
" />
<path d="M1964566 1410433
L2535433 1410433
" />
<path d="M847933 839566
L277066 839566
" />
<path d="M847933 1410433
L847933 839566
" />
<path d="M277066 1410433
L847933 1410433
" />
<path d="M277066 839566
L277066 1410433
" />
<path d="M5339566 89566
L5339566 660433
" />
<path d="M5910433 660433
L5910433 89566
" />
<path d="M5339566 660433
L5910433 660433
" />
<path d="M5910433 89566
L5339566 89566
" />
<path d="M6839566 660433
L7410433 660433
" />
<path d="M7410433 660433
L7410433 89566
" />
<path d="M6839566 89566
L6839566 660433
" />
<path d="M7410433 89566
L6839566 89566
" />
<path d="M10410433 660433
L10410433 89566
" />
<path d="M9839566 89566
L9839566 660433
" />
<path d="M10410433 89566
L9839566 89566
" />
<path d="M9839566 660433
L10410433 660433
" />
<path d="M3660433 89566
L3089566 89566
" />
<path d="M3089566 660433
L3660433 660433
" />
<path d="M3089566 89566
L3089566 660433
" />
<path d="M3660433 660433
L3660433 89566
" />
<path d="M9660433 660433
L9660433 89566
" />
<path d="M9089566 89566
L9089566 660433
" />
<path d="M9089566 660433
L9660433 660433
" />
<path d="M9660433 89566
L9089566 89566
" />
<path d="M8910433 660433
L8910433 89566
" />
<path d="M8910433 89566
L8339566 89566
" />
<path d="M8339566 660433
L8910433 660433
" />
<path d="M8339566 89566
L8339566 660433
" />
<path d="M7589566 89566
L7589566 660433
" />
<path d="M8160433 89566
L7589566 89566
" />
<path d="M7589566 660433
L8160433 660433
" />
<path d="M8160433 660433
L8160433 89566
" />
<path d="M6660433 660433
L6660433 89566
" />
<path d="M6089566 660433
L6660433 660433
" />
<path d="M6089566 89566
L6089566 660433
" />
<path d="M6660433 89566
L6089566 89566
" />
<path d="M5160433 660433
L5160433 89566
" />
<path d="M4589566 660433
L5160433 660433
" />
<path d="M4589566 89566
L4589566 660433
" />
<path d="M5160433 89566
L4589566 89566
" />
<path d="M4410433 89566
L3839566 89566
" />
<path d="M4410433 660433
L4410433 89566
" />
<path d="M3839566 89566
L3839566 660433
" />
<path d="M3839566 660433
L4410433 660433
" />
<path d="M2910433 660433
L2910433 89566
" />
<path d="M2339566 660433
L2910433 660433
" />
<path d="M2339566 89566
L2339566 660433
" />
<path d="M2910433 89566
L2339566 89566
" />
<path d="M839566 660433
L1410433 660433
" />
<path d="M839566 89566
L839566 660433
" />
<path d="M1410433 89566
L839566 89566
" />
<path d="M1410433 660433
L1410433 89566
" />
<path d="M660433 89566
L89566 89566
" />
<path d="M89566 660433
L660433 660433
" />
<path d="M89566 89566
L89566 660433
" />
<path d="M660433 660433
L660433 89566
" />
<path d="M1589566 660433
L2160433 660433
" />
<path d="M2160433 89566
L1589566 89566
" />
<path d="M2160433 660433
L2160433 89566
" />
<path d="M1589566 89566
L1589566 660433
" />
<path d="M8160433 3089566
L7589566 3089566
" />
<path d="M7589566 3089566
L7589566 3660433
" />
<path d="M7589566 3660433
L8160433 3660433
" />
<path d="M8160433 3660433
L8160433 3089566
" />
<path d="M6089566 2339566
L6089566 2910433
" />
<path d="M6660433 2910433
L6660433 2339566
" />
<path d="M6660433 2339566
L6089566 2339566
" />
<path d="M6089566 2910433
L6660433 2910433
" />
<path d="M10410441 2910435
L10410441 2339569
" />
<path d="M9839575 2910435
L10410441 2910435
" />
<path d="M9839575 2339569
L9839575 2910435
" />
<path d="M10410441 2339569
L9839575 2339569
" />
<path d="M183316 2160433
L754183 2160433
" />
<path d="M754183 1589566
L183316 1589566
" />
<path d="M754183 2160433
L754183 1589566
" />
<path d="M183316 1589566
L183316 2160433
" />
<path d="M9660433 2910433
L9660433 2339566
" />
<path d="M9660433 2339566
L9089566 2339566
" />
<path d="M9089566 2339566
L9089566 2910433
" />
<path d="M9089566 2910433
L9660433 2910433
" />
<path d="M6839566 2910433
L7410433 2910433
" />
<path d="M7410433 2339566
L6839566 2339566
" />
<path d="M6839566 2339566
L6839566 2910433
" />
<path d="M7410433 2910433
L7410433 2339566
" />
<path d="M8910433 2910433
L8910433 2339566
" />
<path d="M8339566 2339566
L8339566 2910433
" />
<path d="M8339566 2910433
L8910433 2910433
" />
<path d="M8910433 2339566
L8339566 2339566
" />
<path d="M5339566 2910433
L5910433 2910433
" />
<path d="M5339566 2339566
L5339566 2910433
" />
<path d="M5910433 2910433
L5910433 2339566
" />
<path d="M5910433 2339566
L5339566 2339566
" />
<path d="M7589566 2910433
L8160433 2910433
" />
<path d="M8160433 2339566
L7589566 2339566
" />
<path d="M8160433 2910433
L8160433 2339566
" />
<path d="M7589566 2339566
L7589566 2910433
" />
<path d="M10410433 3089569
L9839566 3089569
" />
<path d="M9839566 3660435
L10410433 3660435
" />
<path d="M10410433 3660435
L10410433 3089569
" />
<path d="M9839566 3089569
L9839566 3660435
" />
<path d="M9660433 3660433
L9660433 3089566
" />
<path d="M9089566 3660433
L9660433 3660433
" />
<path d="M9089566 3089566
L9089566 3660433
" />
<path d="M9660433 3089566
L9089566 3089566
" />
<path d="M9464566 839566
L9464566 1410433
" />
<path d="M9464566 1410433
L10035433 1410433
" />
<path d="M10035433 839566
L9464566 839566
" />
<path d="M10035433 1410433
L10035433 839566
" />
<path d="M2339566 2910433
L2910433 2910433
" />
<path d="M2910433 2910433
L2910433 2339566
" />
<path d="M2910433 2339566
L2339566 2339566
" />
<path d="M2339566 2339566
L2339566 2910433
" />
<path d="M7214566 1410433
L7785433 1410433
" />
<path d="M7214566 839566
L7214566 1410433
" />
<path d="M7785433 839566
L7214566 839566
" />
<path d="M7785433 1410433
L7785433 839566
" />
<path d="M4402066 2160433
L4972933 2160433
" />
<path d="M4972933 2160433
L4972933 1589566
" />
<path d="M4972933 1589566
L4402066 1589566
" />
<path d="M4402066 1589566
L4402066 2160433
" />
<path d="M2152066 2160433
L2722933 2160433
" />
<path d="M2722933 1589566
L2152066 1589566
" />
<path d="M2152066 1589566
L2152066 2160433
" />
<path d="M2722933 2160433
L2722933 1589566
" />
<path d="M2058316 3660433
L2629183 3660433
" />
<path d="M2058316 3089566
L2058316 3660433
" />
<path d="M2629183 3660433
L2629183 3089566
" />
<path d="M2629183 3089566
L2058316 3089566
" />
<path d="M8910433 3089566
L8339566 3089566
" />
<path d="M8910433 3660433
L8910433 3089566
" />
<path d="M8339566 3660433
L8910433 3660433
" />
<path d="M8339566 3089566
L8339566 3660433
" />
<path d="M10589566 2339566
L10589566 2910433
" />
<path d="M11160433 2910433
L11160433 2339566
" />
<path d="M10589566 2910433
L11160433 2910433
" />
<path d="M11160433 2339566
L10589566 2339566
" />
<path d="M7222933 2160433
L7222933 1589566
" />
<path d="M6652066 2160433
L7222933 2160433
" />
<path d="M7222933 1589566
L6652066 1589566
" />
<path d="M6652066 1589566
L6652066 2160433
" />
<path d="M754183 3660433
L754183 3089566
" />
<path d="M183316 3089566
L183316 3660433
" />
<path d="M754183 3089566
L183316 3089566
" />
<path d="M183316 3660433
L754183 3660433
" />
<path d="M9285433 1410433
L9285433 839566
" />
<path d="M8714566 839566
L8714566 1410433
" />
<path d="M9285433 839566
L8714566 839566
" />
<path d="M8714566 1410433
L9285433 1410433
" />
<path d="M3839566 2910433
L4410433 2910433
" />
<path d="M4410433 2910433
L4410433 2339566
" />
<path d="M3839566 2339566
L3839566 2910433
" />
<path d="M4410433 2339566
L3839566 2339566
" />
<path d="M2902066 1589566
L2902066 2160433
" />
<path d="M3472933 2160433
L3472933 1589566
" />
<path d="M3472933 1589566
L2902066 1589566
" />
<path d="M2902066 2160433
L3472933 2160433
" />
<path d="M9652066 2160433
L10222933 2160433
" />
<path d="M10222933 1589566
L9652066 1589566
" />
<path d="M9652066 1589566
L9652066 2160433
" />
<path d="M10222933 2160433
L10222933 1589566
" />
<path d="M6472933 1589566
L5902066 1589566
" />
<path d="M5902066 1589566
L5902066 2160433
" />
<path d="M6472933 2160433
L6472933 1589566
" />
<path d="M5902066 2160433
L6472933 2160433
" />
<path d="M3652066 2160433
L4222933 2160433
" />
<path d="M3652066 1589566
L3652066 2160433
" />
<path d="M4222933 2160433
L4222933 1589566
" />
<path d="M4222933 1589566
L3652066 1589566
" />
<path d="M1972933 2160433
L1972933 1589566
" />
<path d="M1402066 2160433
L1972933 2160433
" />
<path d="M1402066 1589566
L1402066 2160433
" />
<path d="M1972933 1589566
L1402066 1589566
" />
<path d="M7402066 2160433
L7972933 2160433
" />
<path d="M7972933 2160433
L7972933 1589566
" />
<path d="M7402066 1589566
L7402066 2160433
" />
<path d="M7972933 1589566
L7402066 1589566
" />
</g>
<g style="fill:#000000; fill-opacity:0.0; 
stroke:#000000; stroke-width:4724.409449; stroke-opacity:1; 
stroke-linecap:round; stroke-linejoin:round;">
<path d="M415354 2339566
L1084645 2339566
" />
<path d="M415354 3012795
L1084645 3012795
" />
<path d="M1360236 2382874
L1360236 3012795
" />
<path d="M1084645 2339566
L1084645 2382874
" />
<path d="M415354 2382874
L415354 2339566
" />
<path d="M415354 3012795
L139763 3012795
" />
<path d="M139763 2382874
L415354 2382874
" />
<path d="M139763 3012795
L139763 2382874
" />
<path d="M1084645 2382874
L1360236 2382874
" />
<path d="M1360236 3012795
L1084645 3012795
" />
</g>
<g style="fill:#000000; fill-opacity:0.0; 
stroke:#000000; stroke-width:3937.007874; stroke-opacity:1; 
stroke-linecap:round; stroke-linejoin:round;">
<path d="M9472933 1589566
L8902066 1589566
" />
<path d="M8902066 1589566
L8902066 2160433
" />
<path d="M8902066 2160433
L9472933 2160433
" />
<path d="M9472933 2160433
L9472933 1589566
" />
<path d="M8722933 2160433
L8722933 1589566
" />
<path d="M8152066 2160433
L8722933 2160433
" />
<path d="M8152066 1589566
L8152066 2160433
" />
<path d="M8722933 1589566
L8152066 1589566
" />
<path d="M8535433 1410433
L8535433 839566
" />
<path d="M8535433 839566
L7964566 839566
" />
<path d="M7964566 1410433
L8535433 1410433
" />
<path d="M7964566 839566
L7964566 1410433
" />
<path d="M5152066 1589566
L5152066 2160433
" />
<path d="M5152066 2160433
L5722933 2160433
" />
<path d="M5722933 2160433
L5722933 1589566
" />
<path d="M5722933 1589566
L5152066 1589566
" />
<path d="M941683 1589566
L370816 1589566
" />
<path d="M941683 2160433
L941683 1589566
" />
<path d="M370816 1589566
L370816 2160433
" />
<path d="M370816 2160433
L941683 2160433
" />
<path d="M5160433 2339566
L4589566 2339566
" />
<path d="M4589566 2910433
L5160433 2910433
" />
<path d="M5160433 2910433
L5160433 2339566
" />
<path d="M4589566 2339566
L4589566 2910433
" />
<path d="M1120816 3089566
L1120816 3660433
" />
<path d="M1691683 3660433
L1691683 3089566
" />
<path d="M1691683 3089566
L1120816 3089566
" />
<path d="M1120816 3660433
L1691683 3660433
" />
<path d="M3660433 2339566
L3089566 2339566
" />
<path d="M3089566 2339566
L3089566 2910433
" />
<path d="M3089566 2910433
L3660433 2910433
" />
<path d="M3660433 2910433
L3660433 2339566
" />
</g>
<g style="fill:#000000; fill-opacity:0.0; 
stroke:#000000; stroke-width:7874.015748; stroke-opacity:1; 
stroke-linecap:round; stroke-linejoin:round;">
<circle cx="10252952.755906" cy="1111301.181102" r="108267.716535" /> 
<circle cx="1007874.015748" cy="1125000.944882" r="108267.716535" /> 
<circle cx="5062504.251969" cy="1867127.559055" r="96456.692913" /> 
<circle cx="7500006.299213" cy="3367125.984252" r="108267.716535" /> 
</g>
<g style="fill:#000000; fill-opacity:0.0; 
stroke:#000000; stroke-width:4724.409449; stroke-opacity:1; 
stroke-linecap:round; stroke-linejoin:round;">
<path d="M11023385 889763
L10393463 889763
" />
<path d="M10393463 1165354
L10393463 1834645
" />
<path d="M11066692 1165354
L11023385 1165354
" />
<path d="M11023385 1834645
L11023385 2110236
" />
<path d="M11066692 1165354
L11066692 1834645
" />
<path d="M10393463 2110236
L10393463 1834645
" />
<path d="M11023385 2110236
L10393463 2110236
" />
<path d="M11066692 1834645
L11023385 1834645
" />
<path d="M10393463 889763
L10393463 1165354
" />
<path d="M11023385 1165354
L11023385 889763
" />
</g>
<g style="fill:#000000; fill-opacity:0.0; 
stroke:#000000; stroke-width:3937.007874; stroke-opacity:1; 
stroke-linecap:round; stroke-linejoin:round;">
<path d="M1589566 2339566
L1589566 2910433
" />
<path d="M2160433 2910433
L2160433 2339566
" />
<path d="M1589566 2910433
L2160433 2910433
" />
<path d="M2160433 2339566
L1589566 2339566
" />
<path d="M11160433 3089569
L10589566 3089569
" />
<path d="M10589566 3089569
L10589566 3660435
" />
<path d="M11160433 3660435
L11160433 3089569
" />
<path d="M10589566 3660435
L11160433 3660435
" />
<path d="M11160433 681889
L11160433 111023
" />
<path d="M10589566 681889
L11160433 681889
" />
<path d="M10589566 111023
L10589566 681889
" />
<path d="M11160433 111023
L10589566 111023
" />
<g >
</g>
<g >
</g>
<g >
</g>
<g >
</g>
<g >
</g>
<g >
</g>
<g >
</g>
<g >
</g>
<g >
</g>
<g >
</g>
<g >
</g>
<g >
</g>
<g >
</g>
<g >
</g>
<g >
</g>
<g >
</g>
<g >
</g>
<g >
</g>
<g >
</g>
<g >
</g>
<g >
</g>
<g >
</g>
<g >
</g>
<g >
</g>
<g >
</g>
<g >
</g>
<g >
</g>
<g >
</g>
<g >
</g>
<g >
</g>
<g >
</g>
<g >
</g>
<g >
</g>
<g >
</g>
<g >
</g>
<g >
</g>
<g >
</g>
<g >
</g>
<g >
</g>
<g >
</g>
<g >
</g>
<g >
</g>
<g >
</g>
<g >
</g>
<g >
</g>
<g >
</g>
<g >
</g>
<g >
</g>
<g >
</g>
<g >
</g>
<g >
</g>
<g >
</g>
<g >
</g>
<g >
</g>
<g >
</g>
<g >
</g>
<g >
</g>
<g >
</g>
<g >
</g>
<g >
</g>
<g >
</g>
<g >
</g>
<g >
</g>
<g >
</g>
<g >
</g>
<g >
</g>
<g >
</g>
<g >
</g>
<g >
</g>
<g >
</g>
<g >
</g>
<g >
</g>
<g >
</g>
<g >
</g>
<g >
</g>
<g >
</g>
<g >
</g>
<g >
</g>
<g >
</g>
<g >
</g>
<g >
</g>
<g >
</g>
<g >
</g>
<g >
</g>
<g >
</g>
<g >
</g>
<g >
</g>
<g >
</g>
<g >
</g>
<g >
</g>
<g >
</g>
<g >
</g>
<g >
</g>
<g >
</g>
<g >
</g>
<g >
</g>
<g >
</g>
<g >
</g>
<g >
</g>
<g >
</g>
<g >
</g>
<g >
</g>
<g >
</g>
<g >
</g>
<g >
</g>
<g >
</g>
<g >
</g>
<g >
</g>
<g >
</g>
<g >
</g>
<g >
</g>
<g >
</g>
<g >
</g>
<g >
</g>
<g >
</g>
<g >
</g>
<g >
</g>
<g >
</g>
<g >
</g>
<g >
</g>
<g >
</g>
<g >
</g>
<g >
</g>
<g >
</g>
<g >
</g>
<g >
</g>
<g >
</g>
<g >
</g>
<g >
</g>
<g >
</g>
<g >
</g>
<g >
</g>
<g >
</g>
<g >
</g>
<g >
</g>
<g >
</g>
<g >
</g>
<g >
</g>
<g >
</g>
<g >
</g>
<g >
</g>
<g >
</g>
<g >
</g>
<g >
</g>
<g >
</g>
</g> 
</svg>
